G04*
G04 #@! TF.GenerationSoftware,Altium Limited,Altium Designer,20.0.13 (296)*
G04*
G04 Layer_Color=3999577*
%FSLAX44Y44*%
%MOMM*%
G71*
G01*
G75*
%ADD54R,0.5588X0.6096*%
%ADD55R,0.6096X0.5588*%
%ADD56C,0.3400*%
%ADD57R,0.8636X0.9398*%
%ADD58R,1.4016X1.2516*%
%ADD59R,0.9016X0.9016*%
%ADD60R,0.9016X0.9316*%
%ADD61R,0.5016X0.7516*%
%ADD62O,0.3816X1.4516*%
%ADD63R,1.0016X0.4016*%
%ADD64R,0.7516X0.5016*%
%ADD65R,1.1016X1.0016*%
%ADD66R,1.2516X1.4016*%
%ADD67R,1.7016X1.9016*%
%ADD68R,0.9016X1.9016*%
%ADD69R,4.1016X1.4016*%
%ADD70R,1.0516X1.0016*%
%ADD71R,1.0516X1.0016*%
%ADD72R,0.6096X0.4576*%
%ADD73R,1.0016X1.0516*%
%ADD74R,1.0016X1.0516*%
%ADD75R,0.9398X0.8636*%
%ADD76R,0.6016X0.7416*%
%ADD77R,0.6016X0.9016*%
%ADD78R,1.7016X1.1016*%
%ADD79R,1.1016X1.7016*%
G04:AMPARAMS|DCode=80|XSize=1.7016mm|YSize=1.1016mm|CornerRadius=0.3008mm|HoleSize=0mm|Usage=FLASHONLY|Rotation=180.000|XOffset=0mm|YOffset=0mm|HoleType=Round|Shape=RoundedRectangle|*
%AMROUNDEDRECTD80*
21,1,1.7016,0.5000,0,0,180.0*
21,1,1.1000,1.1016,0,0,180.0*
1,1,0.6016,-0.5500,0.2500*
1,1,0.6016,0.5500,0.2500*
1,1,0.6016,0.5500,-0.2500*
1,1,0.6016,-0.5500,-0.2500*
%
%ADD80ROUNDEDRECTD80*%
G04:AMPARAMS|DCode=81|XSize=1.7016mm|YSize=1.1016mm|CornerRadius=0mm|HoleSize=0mm|Usage=FLASHONLY|Rotation=180.000|XOffset=0mm|YOffset=0mm|HoleType=Round|Shape=Octagon|*
%AMOCTAGOND81*
4,1,8,-0.8508,0.2754,-0.8508,-0.2754,-0.5754,-0.5508,0.5754,-0.5508,0.8508,-0.2754,0.8508,0.2754,0.5754,0.5508,-0.5754,0.5508,-0.8508,0.2754,0.0*
%
%ADD81OCTAGOND81*%

%ADD82R,1.6516X0.5016*%
%ADD83R,0.4576X0.6096*%
%ADD84R,1.3016X0.6016*%
%ADD85R,1.0532X0.4832*%
%ADD86R,0.4832X1.0532*%
%ADD87C,0.7016*%
%ADD88R,1.1016X1.9016*%
%ADD89R,1.1016X2.2016*%
%ADD90C,1.7018*%
%ADD91R,1.8016X1.8016*%
%ADD92C,1.8016*%
%ADD93C,1.1684*%
%ADD94C,0.7112*%
%ADD95C,0.9144*%
D54*
X76330Y576750D02*
D03*
X66170D02*
D03*
X70830Y598250D02*
D03*
X60670D02*
D03*
X32420Y587250D02*
D03*
X42580D02*
D03*
X95420Y566750D02*
D03*
X105580D02*
D03*
X99080Y608250D02*
D03*
X88920D02*
D03*
X87580Y566750D02*
D03*
X77420D02*
D03*
X69920Y608250D02*
D03*
X80080D02*
D03*
X91330Y555250D02*
D03*
X81170D02*
D03*
X242830Y463500D02*
D03*
X232670D02*
D03*
X345580Y39500D02*
D03*
X335420D02*
D03*
X302420Y216250D02*
D03*
X312580D02*
D03*
X157920Y359500D02*
D03*
X168080D02*
D03*
X178830Y222500D02*
D03*
X168670D02*
D03*
X433420Y176250D02*
D03*
X443580D02*
D03*
X194080Y476000D02*
D03*
X183920Y476000D02*
D03*
X307920Y396000D02*
D03*
X318080D02*
D03*
X346920Y351000D02*
D03*
X357080D02*
D03*
X346920Y371000D02*
D03*
X357080D02*
D03*
X346920Y381000D02*
D03*
X357080D02*
D03*
X187670Y210250D02*
D03*
X197830D02*
D03*
X335420Y29250D02*
D03*
X345580Y29250D02*
D03*
X353420Y29250D02*
D03*
X363580Y29250D02*
D03*
X400080Y144000D02*
D03*
X389920D02*
D03*
X487080Y166000D02*
D03*
X476920D02*
D03*
X487080Y156000D02*
D03*
X476920D02*
D03*
X417330Y172750D02*
D03*
X407170D02*
D03*
X399830Y172750D02*
D03*
X389670D02*
D03*
X476920Y176000D02*
D03*
X487080D02*
D03*
X345580Y19000D02*
D03*
X335420Y19000D02*
D03*
X191920Y96000D02*
D03*
X202080D02*
D03*
X357080Y361000D02*
D03*
X346920D02*
D03*
X77170Y457250D02*
D03*
X87330D02*
D03*
X180420Y386000D02*
D03*
X190580D02*
D03*
X384330Y422250D02*
D03*
X374170D02*
D03*
X384416Y433730D02*
D03*
X374256D02*
D03*
X117080Y608250D02*
D03*
X106920D02*
D03*
X32420Y596750D02*
D03*
X42580D02*
D03*
X60080Y608250D02*
D03*
X49920D02*
D03*
X168670Y210250D02*
D03*
X178830D02*
D03*
X168080Y319500D02*
D03*
X157920D02*
D03*
D55*
X112250Y576670D02*
D03*
X112250Y586830D02*
D03*
X178000Y404750D02*
D03*
Y394590D02*
D03*
X313000Y425420D02*
D03*
Y435580D02*
D03*
X190250Y404830D02*
D03*
Y394670D02*
D03*
X194000Y494080D02*
D03*
Y483920D02*
D03*
X184000Y494080D02*
D03*
Y483920D02*
D03*
X215250Y207830D02*
D03*
Y197670D02*
D03*
X293250Y204080D02*
D03*
Y193920D02*
D03*
X244000Y493080D02*
D03*
Y482920D02*
D03*
X431500Y240420D02*
D03*
Y250580D02*
D03*
X382750Y163080D02*
D03*
Y152920D02*
D03*
X475000Y132420D02*
D03*
X475000Y142580D02*
D03*
X388500Y250580D02*
D03*
X388500Y240420D02*
D03*
X189000Y444080D02*
D03*
Y433920D02*
D03*
X204000Y494080D02*
D03*
Y483920D02*
D03*
X274000Y493080D02*
D03*
Y482920D02*
D03*
X284000D02*
D03*
Y493080D02*
D03*
X264000Y482920D02*
D03*
Y493080D02*
D03*
X427000Y17920D02*
D03*
Y28080D02*
D03*
Y46160D02*
D03*
Y36000D02*
D03*
X402750Y152920D02*
D03*
Y163080D02*
D03*
X392750Y152920D02*
D03*
Y163080D02*
D03*
X415000Y25920D02*
D03*
Y36080D02*
D03*
X485250Y142580D02*
D03*
X485250Y132420D02*
D03*
X174000Y494080D02*
D03*
Y483920D02*
D03*
X59250Y481170D02*
D03*
Y491330D02*
D03*
X55000Y517420D02*
D03*
Y527580D02*
D03*
X294250Y581330D02*
D03*
Y571170D02*
D03*
X417500Y562580D02*
D03*
Y552420D02*
D03*
X427500Y562580D02*
D03*
Y552420D02*
D03*
X149250Y435590D02*
D03*
Y445750D02*
D03*
Y424580D02*
D03*
Y414420D02*
D03*
X92500Y517420D02*
D03*
X92500Y527580D02*
D03*
X80000Y517420D02*
D03*
Y527580D02*
D03*
X92500Y534920D02*
D03*
Y545080D02*
D03*
X80000Y534920D02*
D03*
Y545080D02*
D03*
X149250Y456170D02*
D03*
Y466330D02*
D03*
X67500Y517420D02*
D03*
Y527580D02*
D03*
X96750Y392170D02*
D03*
Y402330D02*
D03*
X177500Y588420D02*
D03*
Y598580D02*
D03*
D56*
X93000Y583000D02*
D03*
Y591000D02*
D03*
X85000Y579000D02*
D03*
X89000Y579000D02*
D03*
X93000D02*
D03*
X97000Y579000D02*
D03*
X85000Y583000D02*
D03*
X97000Y583000D02*
D03*
X85000Y587000D02*
D03*
X89000D02*
D03*
X97000D02*
D03*
X85000Y591000D02*
D03*
X97000D02*
D03*
X89000D02*
D03*
D57*
X262872Y463250D02*
D03*
X279128D02*
D03*
X467378Y523000D02*
D03*
X451122D02*
D03*
D58*
X412000Y112500D02*
D03*
X412000Y132500D02*
D03*
X402000Y21000D02*
D03*
Y41000D02*
D03*
X459000Y178500D02*
D03*
Y198500D02*
D03*
D59*
X366000Y351000D02*
D03*
X382000D02*
D03*
X366000Y361000D02*
D03*
X382000D02*
D03*
X366000Y371000D02*
D03*
X382000D02*
D03*
X366000Y381000D02*
D03*
X382000D02*
D03*
X172750Y511000D02*
D03*
X156750D02*
D03*
D60*
X364500Y45000D02*
D03*
X387500D02*
D03*
D61*
X372500Y31750D02*
D03*
X379000Y31750D02*
D03*
X385500Y31750D02*
D03*
Y11250D02*
D03*
X379000D02*
D03*
X372500D02*
D03*
X169500Y329250D02*
D03*
X156500D02*
D03*
X156500Y349750D02*
D03*
X163000Y349750D02*
D03*
X169500Y349750D02*
D03*
X162250Y478750D02*
D03*
X149250D02*
D03*
Y499250D02*
D03*
X155750Y499250D02*
D03*
X162250Y499250D02*
D03*
X449250Y111250D02*
D03*
X442750D02*
D03*
X436250D02*
D03*
Y131750D02*
D03*
X442750D02*
D03*
X449250D02*
D03*
D62*
X316999Y86001D02*
D03*
X311999D02*
D03*
X306999Y86001D02*
D03*
X301999Y86001D02*
D03*
X296999D02*
D03*
X316999Y42001D02*
D03*
X311999D02*
D03*
X306999D02*
D03*
X301999D02*
D03*
X296999D02*
D03*
D63*
X313000Y334500D02*
D03*
X313000Y329500D02*
D03*
Y324500D02*
D03*
Y319500D02*
D03*
X343000D02*
D03*
Y324500D02*
D03*
Y329500D02*
D03*
Y334500D02*
D03*
D64*
X420500Y252000D02*
D03*
Y239000D02*
D03*
X400000D02*
D03*
Y245500D02*
D03*
Y252000D02*
D03*
D65*
X233000Y478000D02*
D03*
Y492000D02*
D03*
X215000D02*
D03*
Y478000D02*
D03*
D66*
X263500Y41000D02*
D03*
X283500Y41000D02*
D03*
D67*
X340000Y602000D02*
D03*
X384000D02*
D03*
D68*
X230500Y590000D02*
D03*
X217500D02*
D03*
X204500D02*
D03*
X191500D02*
D03*
D69*
X456750Y447000D02*
D03*
Y474000D02*
D03*
D70*
X40750Y511750D02*
D03*
X15750Y521250D02*
D03*
X457500Y609750D02*
D03*
X482500Y600250D02*
D03*
X270250Y603000D02*
D03*
X295250Y593500D02*
D03*
D71*
X40750Y530750D02*
D03*
X457500Y590750D02*
D03*
X295250Y612500D02*
D03*
D72*
X191604Y371000D02*
D03*
X178396Y366047D02*
D03*
Y375953D02*
D03*
X386792Y133703D02*
D03*
Y123797D02*
D03*
X400000Y128750D02*
D03*
D73*
X72750Y473750D02*
D03*
X82250Y498750D02*
D03*
D74*
X91750Y473750D02*
D03*
D75*
X162750Y442628D02*
D03*
Y426372D02*
D03*
D76*
Y468300D02*
D03*
Y453700D02*
D03*
D77*
X372836Y445689D02*
D03*
X385836D02*
D03*
X379336Y462689D02*
D03*
D78*
X61000Y224000D02*
D03*
X117000D02*
D03*
X61000Y187000D02*
D03*
X117000D02*
D03*
X222000Y96000D02*
D03*
X278000D02*
D03*
X222000Y59000D02*
D03*
X278000D02*
D03*
X222000Y160500D02*
D03*
X278000D02*
D03*
X222000Y123500D02*
D03*
X278000D02*
D03*
X61000Y97000D02*
D03*
X117000D02*
D03*
X61000Y60000D02*
D03*
X117000D02*
D03*
X383000D02*
D03*
X439000D02*
D03*
X222000Y225000D02*
D03*
X278000D02*
D03*
X222000Y188000D02*
D03*
X278000D02*
D03*
X383000Y224000D02*
D03*
X439000D02*
D03*
X383000Y187000D02*
D03*
X439000D02*
D03*
D79*
X167000Y114000D02*
D03*
Y170000D02*
D03*
X204000Y114000D02*
D03*
Y170000D02*
D03*
X296000Y114000D02*
D03*
Y170000D02*
D03*
X333000Y114000D02*
D03*
Y170000D02*
D03*
D80*
X383000Y97000D02*
D03*
D81*
X439000D02*
D03*
D82*
X418250Y163750D02*
D03*
Y157250D02*
D03*
Y150750D02*
D03*
Y144250D02*
D03*
X459750Y163750D02*
D03*
Y157250D02*
D03*
Y150750D02*
D03*
Y144250D02*
D03*
D83*
X379250Y407854D02*
D03*
X384203Y394646D02*
D03*
X374297D02*
D03*
D84*
X161000Y598000D02*
D03*
Y579000D02*
D03*
Y588500D02*
D03*
X133000Y579000D02*
D03*
Y598000D02*
D03*
D85*
X295750Y365500D02*
D03*
Y370500D02*
D03*
Y375500D02*
D03*
Y380500D02*
D03*
Y385500D02*
D03*
Y390500D02*
D03*
Y395500D02*
D03*
Y400500D02*
D03*
Y405500D02*
D03*
Y410500D02*
D03*
Y415500D02*
D03*
Y420500D02*
D03*
Y425500D02*
D03*
Y430500D02*
D03*
Y435500D02*
D03*
Y440500D02*
D03*
X204250D02*
D03*
X204250Y435500D02*
D03*
Y430500D02*
D03*
Y425500D02*
D03*
Y420500D02*
D03*
Y415500D02*
D03*
Y410500D02*
D03*
Y405500D02*
D03*
Y400500D02*
D03*
Y395500D02*
D03*
Y390500D02*
D03*
Y385500D02*
D03*
Y380500D02*
D03*
Y375500D02*
D03*
Y370500D02*
D03*
Y365500D02*
D03*
D86*
X212500Y357250D02*
D03*
X217500Y357250D02*
D03*
X222500D02*
D03*
X227500D02*
D03*
X232500D02*
D03*
X237500D02*
D03*
X242500Y357250D02*
D03*
X247500D02*
D03*
X252500D02*
D03*
X257500Y357250D02*
D03*
X262500D02*
D03*
X282500Y448750D02*
D03*
X277500Y448750D02*
D03*
X272500D02*
D03*
X267500D02*
D03*
X262500D02*
D03*
X257500D02*
D03*
X252500Y448750D02*
D03*
X247500D02*
D03*
X242500D02*
D03*
X237500Y448750D02*
D03*
X232500D02*
D03*
X227500D02*
D03*
X222500D02*
D03*
X217500D02*
D03*
X212500Y448750D02*
D03*
X267500Y357250D02*
D03*
X272500D02*
D03*
X277500D02*
D03*
X282500D02*
D03*
X287500Y357250D02*
D03*
X287500Y448750D02*
D03*
D87*
X332361Y571158D02*
D03*
X390162D02*
D03*
D88*
X404462Y607960D02*
D03*
X318062D02*
D03*
D89*
X404462Y566460D02*
D03*
X318062D02*
D03*
D90*
X16000Y210500D02*
D03*
Y235900D02*
D03*
X16000Y261300D02*
D03*
Y337500D02*
D03*
Y489900D02*
D03*
X16000Y464500D02*
D03*
Y439100D02*
D03*
X16000Y413700D02*
D03*
Y388300D02*
D03*
X16000Y362900D02*
D03*
X16000Y286700D02*
D03*
Y312100D02*
D03*
X41418Y210500D02*
D03*
X41418Y261300D02*
D03*
X41418Y286700D02*
D03*
Y312100D02*
D03*
Y337500D02*
D03*
Y362900D02*
D03*
Y388300D02*
D03*
Y235900D02*
D03*
D91*
X125500Y450900D02*
D03*
D92*
Y425500D02*
D03*
D93*
X118450Y12500D02*
D03*
X105750D02*
D03*
X93050D02*
D03*
X80350D02*
D03*
D94*
X88920Y613920D02*
D03*
D95*
X134250Y612000D02*
D03*
X66750Y563750D02*
D03*
M02*
