G04*
G04 #@! TF.GenerationSoftware,Altium Limited,Altium Designer,20.0.13 (296)*
G04*
G04 Layer_Color=3132362*
%FSLAX44Y44*%
%MOMM*%
G71*
G01*
G75*
%ADD10C,0.2032*%
%ADD11C,0.2540*%
%ADD12C,0.2500*%
%ADD13C,0.6000*%
%ADD14C,0.4000*%
%ADD15C,0.0127*%
%ADD16C,0.1270*%
%ADD17C,0.1524*%
%ADD18C,0.2000*%
%ADD19C,0.1778*%
%ADD20C,0.0130*%
G36*
X380826Y45000D02*
X372444Y49826D01*
Y40174D01*
X380826Y45000D01*
D02*
G37*
G36*
X376540Y351000D02*
X371714Y354302D01*
Y347698D01*
X376540Y351000D01*
D02*
G37*
G36*
Y361000D02*
X371714Y364302D01*
Y357698D01*
X376540Y361000D01*
D02*
G37*
G36*
X162750Y463540D02*
X159448Y458714D01*
X166052D01*
X162750Y463540D01*
D02*
G37*
G36*
X162210Y511000D02*
X167036Y507698D01*
X167036Y514302D01*
X162210Y511000D01*
D02*
G37*
G36*
X376540Y371000D02*
X371714Y374302D01*
Y367698D01*
X376540Y371000D01*
D02*
G37*
G36*
Y381000D02*
X371714Y384302D01*
Y377698D01*
X376540Y381000D01*
D02*
G37*
G36*
X407119Y374487D02*
X407225D01*
X407342Y374475D01*
X407471Y374463D01*
X407741Y374428D01*
X408046Y374381D01*
X408339Y374311D01*
X408621Y374217D01*
Y372727D01*
X408609D01*
X408586Y372750D01*
X408550Y372762D01*
X408492Y372797D01*
X408422Y372821D01*
X408339Y372856D01*
X408245Y372903D01*
X408140Y372938D01*
X407893Y373020D01*
X407612Y373079D01*
X407295Y373126D01*
X406955Y373149D01*
X406849D01*
X406779Y373137D01*
X406685Y373126D01*
X406579Y373114D01*
X406462Y373090D01*
X406344Y373067D01*
X406074Y372985D01*
X405934Y372926D01*
X405781Y372867D01*
X405640Y372785D01*
X405511Y372691D01*
X405382Y372586D01*
X405253Y372468D01*
X405241Y372457D01*
X405230Y372433D01*
X405194Y372398D01*
X405159Y372351D01*
X405112Y372281D01*
X405054Y372198D01*
X404995Y372105D01*
X404936Y371999D01*
X404878Y371870D01*
X404819Y371741D01*
X404772Y371600D01*
X404713Y371436D01*
X404643Y371095D01*
X404631Y370896D01*
X404619Y370696D01*
Y370685D01*
Y370649D01*
Y370591D01*
X404631Y370520D01*
X404643Y370427D01*
X404655Y370321D01*
X404666Y370204D01*
X404690Y370086D01*
X404760Y369805D01*
X404878Y369523D01*
X404936Y369370D01*
X405018Y369230D01*
X405112Y369100D01*
X405218Y368971D01*
X405230Y368960D01*
X405241Y368948D01*
X405276Y368913D01*
X405335Y368866D01*
X405394Y368819D01*
X405464Y368772D01*
X405558Y368713D01*
X405652Y368655D01*
X405769Y368584D01*
X405887Y368526D01*
X406168Y368432D01*
X406497Y368349D01*
X406673Y368338D01*
X406861Y368326D01*
X406955D01*
X407025Y368338D01*
X407107D01*
X407213Y368349D01*
X407318Y368361D01*
X407448Y368385D01*
X407717Y368443D01*
X408011Y368526D01*
X408316Y368643D01*
X408621Y368795D01*
Y367375D01*
X408609D01*
X408586Y367364D01*
X408539Y367340D01*
X408480Y367317D01*
X408398Y367293D01*
X408304Y367258D01*
X408199Y367223D01*
X408069Y367188D01*
X407929Y367153D01*
X407776Y367117D01*
X407600Y367082D01*
X407424Y367059D01*
X407225Y367035D01*
X407013Y367012D01*
X406790Y367000D01*
X406485D01*
X406403Y367012D01*
X406286D01*
X406145Y367035D01*
X405981Y367047D01*
X405805Y367082D01*
X405617Y367117D01*
X405406Y367176D01*
X405194Y367235D01*
X404983Y367317D01*
X404760Y367411D01*
X404549Y367528D01*
X404338Y367657D01*
X404138Y367798D01*
X403951Y367974D01*
X403939Y367986D01*
X403915Y368021D01*
X403857Y368080D01*
X403798Y368150D01*
X403727Y368256D01*
X403645Y368373D01*
X403563Y368502D01*
X403469Y368666D01*
X403376Y368842D01*
X403293Y369042D01*
X403211Y369253D01*
X403141Y369488D01*
X403082Y369734D01*
X403035Y370004D01*
X403000Y370286D01*
X402988Y370579D01*
Y370603D01*
Y370661D01*
X403000Y370743D01*
Y370861D01*
X403023Y371013D01*
X403047Y371178D01*
X403082Y371377D01*
X403129Y371577D01*
X403176Y371800D01*
X403246Y372023D01*
X403340Y372257D01*
X403446Y372492D01*
X403563Y372727D01*
X403716Y372961D01*
X403880Y373184D01*
X404068Y373396D01*
X404080Y373407D01*
X404115Y373442D01*
X404174Y373501D01*
X404267Y373572D01*
X404373Y373654D01*
X404502Y373747D01*
X404655Y373841D01*
X404819Y373947D01*
X405007Y374053D01*
X405218Y374146D01*
X405453Y374240D01*
X405699Y374323D01*
X405957Y374393D01*
X406239Y374452D01*
X406532Y374487D01*
X406849Y374498D01*
X407025D01*
X407119Y374487D01*
D02*
G37*
G36*
X46624Y149513D02*
X46636Y149489D01*
X46660Y149442D01*
X46683Y149383D01*
X46707Y149301D01*
X46742Y149207D01*
X46777Y149102D01*
X46812Y148973D01*
X46848Y148832D01*
X46883Y148679D01*
X46918Y148503D01*
X46941Y148327D01*
X46965Y148128D01*
X46988Y147916D01*
X47000Y147694D01*
Y147388D01*
X46988Y147306D01*
Y147189D01*
X46965Y147048D01*
X46953Y146884D01*
X46918Y146708D01*
X46883Y146520D01*
X46824Y146309D01*
X46765Y146098D01*
X46683Y145886D01*
X46589Y145663D01*
X46472Y145452D01*
X46343Y145241D01*
X46202Y145042D01*
X46026Y144854D01*
X46014Y144842D01*
X45979Y144819D01*
X45921Y144760D01*
X45850Y144701D01*
X45744Y144631D01*
X45627Y144549D01*
X45498Y144466D01*
X45334Y144373D01*
X45158Y144279D01*
X44958Y144197D01*
X44747Y144115D01*
X44512Y144044D01*
X44266Y143985D01*
X43996Y143938D01*
X43714Y143903D01*
X43421Y143891D01*
X43397D01*
X43339D01*
X43257Y143903D01*
X43139D01*
X42987Y143927D01*
X42822Y143950D01*
X42623Y143985D01*
X42424Y144032D01*
X42200Y144079D01*
X41978Y144150D01*
X41743Y144244D01*
X41508Y144349D01*
X41273Y144466D01*
X41039Y144619D01*
X40816Y144783D01*
X40605Y144971D01*
X40593Y144983D01*
X40558Y145018D01*
X40499Y145077D01*
X40429Y145171D01*
X40346Y145276D01*
X40252Y145405D01*
X40159Y145558D01*
X40053Y145722D01*
X39947Y145910D01*
X39854Y146121D01*
X39760Y146356D01*
X39678Y146602D01*
X39607Y146860D01*
X39548Y147142D01*
X39513Y147435D01*
X39502Y147752D01*
Y147928D01*
X39513Y148022D01*
Y148128D01*
X39525Y148245D01*
X39537Y148374D01*
X39572Y148644D01*
X39619Y148949D01*
X39689Y149243D01*
X39783Y149524D01*
X41273D01*
Y149513D01*
X41250Y149489D01*
X41238Y149454D01*
X41203Y149395D01*
X41180Y149325D01*
X41144Y149243D01*
X41097Y149149D01*
X41062Y149043D01*
X40980Y148797D01*
X40921Y148515D01*
X40875Y148198D01*
X40851Y147858D01*
Y147752D01*
X40863Y147682D01*
X40875Y147588D01*
X40886Y147482D01*
X40910Y147365D01*
X40933Y147248D01*
X41015Y146978D01*
X41074Y146837D01*
X41133Y146684D01*
X41215Y146544D01*
X41309Y146414D01*
X41414Y146285D01*
X41532Y146156D01*
X41543Y146145D01*
X41567Y146133D01*
X41602Y146098D01*
X41649Y146062D01*
X41719Y146016D01*
X41802Y145957D01*
X41895Y145898D01*
X42001Y145840D01*
X42130Y145781D01*
X42259Y145722D01*
X42400Y145675D01*
X42564Y145617D01*
X42905Y145546D01*
X43104Y145534D01*
X43304Y145523D01*
X43315D01*
X43351D01*
X43409D01*
X43480Y145534D01*
X43573Y145546D01*
X43679Y145558D01*
X43797Y145570D01*
X43914Y145593D01*
X44195Y145663D01*
X44477Y145781D01*
X44630Y145840D01*
X44770Y145922D01*
X44900Y146016D01*
X45029Y146121D01*
X45040Y146133D01*
X45052Y146145D01*
X45087Y146180D01*
X45134Y146238D01*
X45181Y146297D01*
X45228Y146368D01*
X45287Y146461D01*
X45346Y146555D01*
X45416Y146673D01*
X45475Y146790D01*
X45568Y147072D01*
X45651Y147400D01*
X45662Y147576D01*
X45674Y147764D01*
Y147858D01*
X45662Y147928D01*
Y148010D01*
X45651Y148116D01*
X45639Y148222D01*
X45615Y148351D01*
X45557Y148621D01*
X45475Y148914D01*
X45357Y149219D01*
X45205Y149524D01*
X46624D01*
Y149513D01*
D02*
G37*
G36*
X46883Y139104D02*
X39631D01*
Y140653D01*
X45627D01*
Y143363D01*
X46883D01*
Y139104D01*
D02*
G37*
G36*
X44278Y137484D02*
X44395Y137473D01*
X44536Y137461D01*
X44688Y137437D01*
X44853Y137414D01*
X45205Y137332D01*
X45392Y137285D01*
X45568Y137214D01*
X45756Y137132D01*
X45921Y137050D01*
X46085Y136945D01*
X46237Y136827D01*
X46249Y136815D01*
X46273Y136792D01*
X46308Y136757D01*
X46355Y136710D01*
X46413Y136639D01*
X46484Y136557D01*
X46542Y136452D01*
X46613Y136346D01*
X46695Y136217D01*
X46754Y136076D01*
X46824Y135924D01*
X46883Y135748D01*
X46930Y135560D01*
X46965Y135360D01*
X46988Y135149D01*
X47000Y134926D01*
Y134832D01*
X46988Y134727D01*
X46977Y134598D01*
X46953Y134433D01*
X46930Y134269D01*
X46883Y134081D01*
X46824Y133905D01*
X45369D01*
X45381Y133929D01*
X45416Y133976D01*
X45463Y134058D01*
X45521Y134175D01*
X45580Y134316D01*
X45627Y134468D01*
X45662Y134644D01*
X45674Y134832D01*
Y134879D01*
X45662Y134938D01*
X45651Y135008D01*
X45627Y135090D01*
X45580Y135184D01*
X45533Y135290D01*
X45463Y135395D01*
X45369Y135489D01*
X45263Y135595D01*
X45122Y135689D01*
X44958Y135771D01*
X44770Y135841D01*
X44536Y135900D01*
X44278Y135935D01*
X43984Y135947D01*
X39631D01*
Y137496D01*
X44043D01*
X44055D01*
X44102D01*
X44184D01*
X44278Y137484D01*
D02*
G37*
G36*
X46624Y133283D02*
X46636Y133260D01*
X46660Y133213D01*
X46683Y133154D01*
X46707Y133072D01*
X46742Y132978D01*
X46777Y132872D01*
X46812Y132743D01*
X46848Y132603D01*
X46883Y132450D01*
X46918Y132274D01*
X46941Y132098D01*
X46965Y131898D01*
X46988Y131687D01*
X47000Y131464D01*
Y131159D01*
X46988Y131077D01*
Y130960D01*
X46965Y130819D01*
X46953Y130655D01*
X46918Y130479D01*
X46883Y130291D01*
X46824Y130080D01*
X46765Y129868D01*
X46683Y129657D01*
X46589Y129434D01*
X46472Y129223D01*
X46343Y129012D01*
X46202Y128812D01*
X46026Y128624D01*
X46014Y128613D01*
X45979Y128589D01*
X45921Y128531D01*
X45850Y128472D01*
X45744Y128402D01*
X45627Y128319D01*
X45498Y128237D01*
X45334Y128143D01*
X45158Y128049D01*
X44958Y127967D01*
X44747Y127885D01*
X44512Y127815D01*
X44266Y127756D01*
X43996Y127709D01*
X43714Y127674D01*
X43421Y127662D01*
X43397D01*
X43339D01*
X43257Y127674D01*
X43139D01*
X42987Y127697D01*
X42822Y127721D01*
X42623Y127756D01*
X42424Y127803D01*
X42200Y127850D01*
X41978Y127920D01*
X41743Y128014D01*
X41508Y128120D01*
X41273Y128237D01*
X41039Y128390D01*
X40816Y128554D01*
X40605Y128742D01*
X40593Y128754D01*
X40558Y128789D01*
X40499Y128848D01*
X40429Y128941D01*
X40346Y129047D01*
X40252Y129176D01*
X40159Y129329D01*
X40053Y129493D01*
X39947Y129681D01*
X39854Y129892D01*
X39760Y130127D01*
X39678Y130373D01*
X39607Y130631D01*
X39548Y130913D01*
X39513Y131206D01*
X39502Y131523D01*
Y131699D01*
X39513Y131793D01*
Y131898D01*
X39525Y132016D01*
X39537Y132145D01*
X39572Y132415D01*
X39619Y132720D01*
X39689Y133013D01*
X39783Y133295D01*
X41273D01*
Y133283D01*
X41250Y133260D01*
X41238Y133225D01*
X41203Y133166D01*
X41180Y133096D01*
X41144Y133013D01*
X41097Y132920D01*
X41062Y132814D01*
X40980Y132567D01*
X40921Y132286D01*
X40875Y131969D01*
X40851Y131629D01*
Y131523D01*
X40863Y131453D01*
X40875Y131359D01*
X40886Y131253D01*
X40910Y131136D01*
X40933Y131018D01*
X41015Y130749D01*
X41074Y130608D01*
X41133Y130455D01*
X41215Y130314D01*
X41309Y130185D01*
X41414Y130056D01*
X41532Y129927D01*
X41543Y129915D01*
X41567Y129904D01*
X41602Y129868D01*
X41649Y129833D01*
X41719Y129786D01*
X41802Y129728D01*
X41895Y129669D01*
X42001Y129610D01*
X42130Y129552D01*
X42259Y129493D01*
X42400Y129446D01*
X42564Y129387D01*
X42905Y129317D01*
X43104Y129305D01*
X43304Y129293D01*
X43315D01*
X43351D01*
X43409D01*
X43480Y129305D01*
X43573Y129317D01*
X43679Y129329D01*
X43797Y129340D01*
X43914Y129364D01*
X44195Y129434D01*
X44477Y129552D01*
X44630Y129610D01*
X44770Y129692D01*
X44900Y129786D01*
X45029Y129892D01*
X45040Y129904D01*
X45052Y129915D01*
X45087Y129951D01*
X45134Y130009D01*
X45181Y130068D01*
X45228Y130138D01*
X45287Y130232D01*
X45346Y130326D01*
X45416Y130443D01*
X45475Y130561D01*
X45568Y130842D01*
X45651Y131171D01*
X45662Y131347D01*
X45674Y131535D01*
Y131629D01*
X45662Y131699D01*
Y131781D01*
X45651Y131887D01*
X45639Y131992D01*
X45615Y132121D01*
X45557Y132391D01*
X45475Y132685D01*
X45357Y132990D01*
X45205Y133295D01*
X46624D01*
Y133283D01*
D02*
G37*
G36*
X46883Y122874D02*
X39631D01*
Y124424D01*
X45627D01*
Y127134D01*
X46883D01*
Y122874D01*
D02*
G37*
G36*
X44278Y121255D02*
X44395Y121243D01*
X44536Y121232D01*
X44688Y121208D01*
X44853Y121185D01*
X45205Y121103D01*
X45392Y121056D01*
X45568Y120985D01*
X45756Y120903D01*
X45921Y120821D01*
X46085Y120715D01*
X46237Y120598D01*
X46249Y120586D01*
X46273Y120563D01*
X46308Y120527D01*
X46355Y120481D01*
X46413Y120410D01*
X46484Y120328D01*
X46542Y120222D01*
X46613Y120117D01*
X46695Y119988D01*
X46754Y119847D01*
X46824Y119694D01*
X46883Y119518D01*
X46930Y119331D01*
X46965Y119131D01*
X46988Y118920D01*
X47000Y118697D01*
Y118603D01*
X46988Y118497D01*
X46977Y118368D01*
X46953Y118204D01*
X46930Y118040D01*
X46883Y117852D01*
X46824Y117676D01*
X45369D01*
X45381Y117699D01*
X45416Y117746D01*
X45463Y117829D01*
X45521Y117946D01*
X45580Y118087D01*
X45627Y118239D01*
X45662Y118415D01*
X45674Y118603D01*
Y118650D01*
X45662Y118709D01*
X45651Y118779D01*
X45627Y118861D01*
X45580Y118955D01*
X45533Y119061D01*
X45463Y119166D01*
X45369Y119260D01*
X45263Y119366D01*
X45122Y119460D01*
X44958Y119542D01*
X44770Y119612D01*
X44536Y119671D01*
X44278Y119706D01*
X43984Y119718D01*
X39631D01*
Y121267D01*
X44043D01*
X44055D01*
X44102D01*
X44184D01*
X44278Y121255D01*
D02*
G37*
G36*
X46624Y117054D02*
X46636Y117031D01*
X46660Y116984D01*
X46683Y116925D01*
X46707Y116843D01*
X46742Y116749D01*
X46777Y116643D01*
X46812Y116514D01*
X46848Y116373D01*
X46883Y116221D01*
X46918Y116045D01*
X46941Y115869D01*
X46965Y115669D01*
X46988Y115458D01*
X47000Y115235D01*
Y114930D01*
X46988Y114848D01*
Y114731D01*
X46965Y114590D01*
X46953Y114425D01*
X46918Y114249D01*
X46883Y114062D01*
X46824Y113850D01*
X46765Y113639D01*
X46683Y113428D01*
X46589Y113205D01*
X46472Y112994D01*
X46343Y112783D01*
X46202Y112583D01*
X46026Y112395D01*
X46014Y112384D01*
X45979Y112360D01*
X45921Y112301D01*
X45850Y112243D01*
X45744Y112172D01*
X45627Y112090D01*
X45498Y112008D01*
X45334Y111914D01*
X45158Y111820D01*
X44958Y111738D01*
X44747Y111656D01*
X44512Y111586D01*
X44266Y111527D01*
X43996Y111480D01*
X43714Y111445D01*
X43421Y111433D01*
X43397D01*
X43339D01*
X43257Y111445D01*
X43139D01*
X42987Y111468D01*
X42822Y111492D01*
X42623Y111527D01*
X42424Y111574D01*
X42200Y111621D01*
X41978Y111691D01*
X41743Y111785D01*
X41508Y111891D01*
X41273Y112008D01*
X41039Y112161D01*
X40816Y112325D01*
X40605Y112513D01*
X40593Y112524D01*
X40558Y112560D01*
X40499Y112618D01*
X40429Y112712D01*
X40346Y112818D01*
X40252Y112947D01*
X40159Y113099D01*
X40053Y113264D01*
X39947Y113451D01*
X39854Y113663D01*
X39760Y113897D01*
X39678Y114144D01*
X39607Y114402D01*
X39548Y114684D01*
X39513Y114977D01*
X39502Y115294D01*
Y115470D01*
X39513Y115564D01*
Y115669D01*
X39525Y115787D01*
X39537Y115916D01*
X39572Y116186D01*
X39619Y116491D01*
X39689Y116784D01*
X39783Y117066D01*
X41273D01*
Y117054D01*
X41250Y117031D01*
X41238Y116995D01*
X41203Y116937D01*
X41180Y116866D01*
X41144Y116784D01*
X41097Y116690D01*
X41062Y116585D01*
X40980Y116338D01*
X40921Y116057D01*
X40875Y115740D01*
X40851Y115399D01*
Y115294D01*
X40863Y115223D01*
X40875Y115129D01*
X40886Y115024D01*
X40910Y114907D01*
X40933Y114789D01*
X41015Y114519D01*
X41074Y114378D01*
X41133Y114226D01*
X41215Y114085D01*
X41309Y113956D01*
X41414Y113827D01*
X41532Y113698D01*
X41543Y113686D01*
X41567Y113674D01*
X41602Y113639D01*
X41649Y113604D01*
X41719Y113557D01*
X41802Y113498D01*
X41895Y113440D01*
X42001Y113381D01*
X42130Y113322D01*
X42259Y113264D01*
X42400Y113217D01*
X42564Y113158D01*
X42905Y113088D01*
X43104Y113076D01*
X43304Y113064D01*
X43315D01*
X43351D01*
X43409D01*
X43480Y113076D01*
X43573Y113088D01*
X43679Y113099D01*
X43797Y113111D01*
X43914Y113135D01*
X44195Y113205D01*
X44477Y113322D01*
X44630Y113381D01*
X44770Y113463D01*
X44900Y113557D01*
X45029Y113663D01*
X45040Y113674D01*
X45052Y113686D01*
X45087Y113721D01*
X45134Y113780D01*
X45181Y113839D01*
X45228Y113909D01*
X45287Y114003D01*
X45346Y114097D01*
X45416Y114214D01*
X45475Y114332D01*
X45568Y114613D01*
X45651Y114942D01*
X45662Y115118D01*
X45674Y115306D01*
Y115399D01*
X45662Y115470D01*
Y115552D01*
X45651Y115658D01*
X45639Y115763D01*
X45615Y115892D01*
X45557Y116162D01*
X45475Y116455D01*
X45357Y116761D01*
X45205Y117066D01*
X46624D01*
Y117054D01*
D02*
G37*
G36*
X46883Y106645D02*
X39631D01*
Y108194D01*
X45627D01*
Y110905D01*
X46883D01*
Y106645D01*
D02*
G37*
G36*
X44278Y105026D02*
X44395Y105014D01*
X44536Y105002D01*
X44688Y104979D01*
X44853Y104955D01*
X45205Y104873D01*
X45392Y104826D01*
X45568Y104756D01*
X45756Y104674D01*
X45921Y104592D01*
X46085Y104486D01*
X46237Y104369D01*
X46249Y104357D01*
X46273Y104333D01*
X46308Y104298D01*
X46355Y104251D01*
X46413Y104181D01*
X46484Y104099D01*
X46542Y103993D01*
X46613Y103888D01*
X46695Y103758D01*
X46754Y103618D01*
X46824Y103465D01*
X46883Y103289D01*
X46930Y103101D01*
X46965Y102902D01*
X46988Y102691D01*
X47000Y102468D01*
Y102374D01*
X46988Y102268D01*
X46977Y102139D01*
X46953Y101975D01*
X46930Y101811D01*
X46883Y101623D01*
X46824Y101447D01*
X45369D01*
X45381Y101470D01*
X45416Y101517D01*
X45463Y101599D01*
X45521Y101717D01*
X45580Y101858D01*
X45627Y102010D01*
X45662Y102186D01*
X45674Y102374D01*
Y102421D01*
X45662Y102479D01*
X45651Y102550D01*
X45627Y102632D01*
X45580Y102726D01*
X45533Y102831D01*
X45463Y102937D01*
X45369Y103031D01*
X45263Y103137D01*
X45122Y103230D01*
X44958Y103313D01*
X44770Y103383D01*
X44536Y103442D01*
X44278Y103477D01*
X43984Y103489D01*
X39631D01*
Y105038D01*
X44043D01*
X44055D01*
X44102D01*
X44184D01*
X44278Y105026D01*
D02*
G37*
G36*
X46624Y100825D02*
X46636Y100801D01*
X46660Y100754D01*
X46683Y100696D01*
X46707Y100614D01*
X46742Y100520D01*
X46777Y100414D01*
X46812Y100285D01*
X46848Y100144D01*
X46883Y99992D01*
X46918Y99816D01*
X46941Y99640D01*
X46965Y99440D01*
X46988Y99229D01*
X47000Y99006D01*
Y98701D01*
X46988Y98619D01*
Y98501D01*
X46965Y98361D01*
X46953Y98196D01*
X46918Y98020D01*
X46883Y97832D01*
X46824Y97621D01*
X46765Y97410D01*
X46683Y97199D01*
X46589Y96976D01*
X46472Y96765D01*
X46343Y96553D01*
X46202Y96354D01*
X46026Y96166D01*
X46014Y96154D01*
X45979Y96131D01*
X45921Y96072D01*
X45850Y96013D01*
X45744Y95943D01*
X45627Y95861D01*
X45498Y95779D01*
X45334Y95685D01*
X45158Y95591D01*
X44958Y95509D01*
X44747Y95427D01*
X44512Y95356D01*
X44266Y95298D01*
X43996Y95251D01*
X43714Y95216D01*
X43421Y95204D01*
X43397D01*
X43339D01*
X43257Y95216D01*
X43139D01*
X42987Y95239D01*
X42822Y95262D01*
X42623Y95298D01*
X42424Y95345D01*
X42200Y95392D01*
X41978Y95462D01*
X41743Y95556D01*
X41508Y95661D01*
X41273Y95779D01*
X41039Y95931D01*
X40816Y96096D01*
X40605Y96283D01*
X40593Y96295D01*
X40558Y96330D01*
X40499Y96389D01*
X40429Y96483D01*
X40346Y96588D01*
X40252Y96718D01*
X40159Y96870D01*
X40053Y97035D01*
X39947Y97222D01*
X39854Y97433D01*
X39760Y97668D01*
X39678Y97915D01*
X39607Y98173D01*
X39548Y98454D01*
X39513Y98748D01*
X39502Y99065D01*
Y99241D01*
X39513Y99334D01*
Y99440D01*
X39525Y99557D01*
X39537Y99686D01*
X39572Y99956D01*
X39619Y100261D01*
X39689Y100555D01*
X39783Y100836D01*
X41273D01*
Y100825D01*
X41250Y100801D01*
X41238Y100766D01*
X41203Y100707D01*
X41180Y100637D01*
X41144Y100555D01*
X41097Y100461D01*
X41062Y100355D01*
X40980Y100109D01*
X40921Y99827D01*
X40875Y99510D01*
X40851Y99170D01*
Y99065D01*
X40863Y98994D01*
X40875Y98900D01*
X40886Y98795D01*
X40910Y98677D01*
X40933Y98560D01*
X41015Y98290D01*
X41074Y98149D01*
X41133Y97997D01*
X41215Y97856D01*
X41309Y97727D01*
X41414Y97598D01*
X41532Y97469D01*
X41543Y97457D01*
X41567Y97445D01*
X41602Y97410D01*
X41649Y97375D01*
X41719Y97328D01*
X41802Y97269D01*
X41895Y97211D01*
X42001Y97152D01*
X42130Y97093D01*
X42259Y97035D01*
X42400Y96987D01*
X42564Y96929D01*
X42905Y96858D01*
X43104Y96847D01*
X43304Y96835D01*
X43315D01*
X43351D01*
X43409D01*
X43480Y96847D01*
X43573Y96858D01*
X43679Y96870D01*
X43797Y96882D01*
X43914Y96905D01*
X44195Y96976D01*
X44477Y97093D01*
X44630Y97152D01*
X44770Y97234D01*
X44900Y97328D01*
X45029Y97433D01*
X45040Y97445D01*
X45052Y97457D01*
X45087Y97492D01*
X45134Y97551D01*
X45181Y97610D01*
X45228Y97680D01*
X45287Y97774D01*
X45346Y97868D01*
X45416Y97985D01*
X45475Y98102D01*
X45568Y98384D01*
X45651Y98713D01*
X45662Y98889D01*
X45674Y99076D01*
Y99170D01*
X45662Y99241D01*
Y99323D01*
X45651Y99428D01*
X45639Y99534D01*
X45615Y99663D01*
X45557Y99933D01*
X45475Y100226D01*
X45357Y100531D01*
X45205Y100836D01*
X46624D01*
Y100825D01*
D02*
G37*
G36*
X46883Y90416D02*
X39631D01*
Y91965D01*
X45627D01*
Y94676D01*
X46883D01*
Y90416D01*
D02*
G37*
G36*
X44278Y88797D02*
X44395Y88785D01*
X44536Y88773D01*
X44688Y88750D01*
X44853Y88726D01*
X45205Y88644D01*
X45392Y88597D01*
X45568Y88527D01*
X45756Y88445D01*
X45921Y88362D01*
X46085Y88257D01*
X46237Y88139D01*
X46249Y88128D01*
X46273Y88104D01*
X46308Y88069D01*
X46355Y88022D01*
X46413Y87952D01*
X46484Y87870D01*
X46542Y87764D01*
X46613Y87658D01*
X46695Y87529D01*
X46754Y87388D01*
X46824Y87236D01*
X46883Y87060D01*
X46930Y86872D01*
X46965Y86673D01*
X46988Y86461D01*
X47000Y86238D01*
Y86145D01*
X46988Y86039D01*
X46977Y85910D01*
X46953Y85746D01*
X46930Y85581D01*
X46883Y85393D01*
X46824Y85218D01*
X45369D01*
X45381Y85241D01*
X45416Y85288D01*
X45463Y85370D01*
X45521Y85487D01*
X45580Y85628D01*
X45627Y85781D01*
X45662Y85957D01*
X45674Y86145D01*
Y86192D01*
X45662Y86250D01*
X45651Y86321D01*
X45627Y86403D01*
X45580Y86497D01*
X45533Y86602D01*
X45463Y86708D01*
X45369Y86802D01*
X45263Y86907D01*
X45122Y87001D01*
X44958Y87083D01*
X44770Y87154D01*
X44536Y87212D01*
X44278Y87248D01*
X43984Y87259D01*
X39631D01*
Y88808D01*
X44043D01*
X44055D01*
X44102D01*
X44184D01*
X44278Y88797D01*
D02*
G37*
G36*
X46624Y84596D02*
X46636Y84572D01*
X46660Y84525D01*
X46683Y84466D01*
X46707Y84384D01*
X46742Y84291D01*
X46777Y84185D01*
X46812Y84056D01*
X46848Y83915D01*
X46883Y83762D01*
X46918Y83586D01*
X46941Y83410D01*
X46965Y83211D01*
X46988Y83000D01*
X47000Y82777D01*
Y82472D01*
X46988Y82389D01*
Y82272D01*
X46965Y82131D01*
X46953Y81967D01*
X46918Y81791D01*
X46883Y81603D01*
X46824Y81392D01*
X46765Y81181D01*
X46683Y80969D01*
X46589Y80746D01*
X46472Y80535D01*
X46343Y80324D01*
X46202Y80125D01*
X46026Y79937D01*
X46014Y79925D01*
X45979Y79902D01*
X45921Y79843D01*
X45850Y79784D01*
X45744Y79714D01*
X45627Y79632D01*
X45498Y79550D01*
X45334Y79456D01*
X45158Y79362D01*
X44958Y79280D01*
X44747Y79198D01*
X44512Y79127D01*
X44266Y79068D01*
X43996Y79022D01*
X43714Y78986D01*
X43421Y78975D01*
X43397D01*
X43339D01*
X43257Y78986D01*
X43139D01*
X42987Y79010D01*
X42822Y79033D01*
X42623Y79068D01*
X42424Y79115D01*
X42200Y79162D01*
X41978Y79233D01*
X41743Y79327D01*
X41508Y79432D01*
X41273Y79550D01*
X41039Y79702D01*
X40816Y79866D01*
X40605Y80054D01*
X40593Y80066D01*
X40558Y80101D01*
X40499Y80160D01*
X40429Y80254D01*
X40346Y80359D01*
X40252Y80488D01*
X40159Y80641D01*
X40053Y80805D01*
X39947Y80993D01*
X39854Y81204D01*
X39760Y81439D01*
X39678Y81685D01*
X39607Y81944D01*
X39548Y82225D01*
X39513Y82519D01*
X39502Y82835D01*
Y83011D01*
X39513Y83105D01*
Y83211D01*
X39525Y83328D01*
X39537Y83457D01*
X39572Y83727D01*
X39619Y84032D01*
X39689Y84326D01*
X39783Y84607D01*
X41273D01*
Y84596D01*
X41250Y84572D01*
X41238Y84537D01*
X41203Y84478D01*
X41180Y84408D01*
X41144Y84326D01*
X41097Y84232D01*
X41062Y84126D01*
X40980Y83880D01*
X40921Y83598D01*
X40875Y83281D01*
X40851Y82941D01*
Y82835D01*
X40863Y82765D01*
X40875Y82671D01*
X40886Y82565D01*
X40910Y82448D01*
X40933Y82331D01*
X41015Y82061D01*
X41074Y81920D01*
X41133Y81768D01*
X41215Y81627D01*
X41309Y81498D01*
X41414Y81369D01*
X41532Y81239D01*
X41543Y81228D01*
X41567Y81216D01*
X41602Y81181D01*
X41649Y81145D01*
X41719Y81099D01*
X41802Y81040D01*
X41895Y80981D01*
X42001Y80923D01*
X42130Y80864D01*
X42259Y80805D01*
X42400Y80758D01*
X42564Y80700D01*
X42905Y80629D01*
X43104Y80618D01*
X43304Y80606D01*
X43315D01*
X43351D01*
X43409D01*
X43480Y80618D01*
X43573Y80629D01*
X43679Y80641D01*
X43797Y80653D01*
X43914Y80676D01*
X44195Y80746D01*
X44477Y80864D01*
X44630Y80923D01*
X44770Y81005D01*
X44900Y81099D01*
X45029Y81204D01*
X45040Y81216D01*
X45052Y81228D01*
X45087Y81263D01*
X45134Y81322D01*
X45181Y81380D01*
X45228Y81451D01*
X45287Y81545D01*
X45346Y81638D01*
X45416Y81756D01*
X45475Y81873D01*
X45568Y82155D01*
X45651Y82483D01*
X45662Y82659D01*
X45674Y82847D01*
Y82941D01*
X45662Y83011D01*
Y83094D01*
X45651Y83199D01*
X45639Y83305D01*
X45615Y83434D01*
X45557Y83704D01*
X45475Y83997D01*
X45357Y84302D01*
X45205Y84607D01*
X46624D01*
Y84596D01*
D02*
G37*
G36*
X46883Y74187D02*
X39631D01*
Y75736D01*
X45627D01*
Y78446D01*
X46883D01*
Y74187D01*
D02*
G37*
G36*
X44278Y72567D02*
X44395Y72556D01*
X44536Y72544D01*
X44688Y72520D01*
X44853Y72497D01*
X45205Y72415D01*
X45392Y72368D01*
X45568Y72298D01*
X45756Y72215D01*
X45921Y72133D01*
X46085Y72028D01*
X46237Y71910D01*
X46249Y71898D01*
X46273Y71875D01*
X46308Y71840D01*
X46355Y71793D01*
X46413Y71722D01*
X46484Y71640D01*
X46542Y71535D01*
X46613Y71429D01*
X46695Y71300D01*
X46754Y71159D01*
X46824Y71007D01*
X46883Y70831D01*
X46930Y70643D01*
X46965Y70443D01*
X46988Y70232D01*
X47000Y70009D01*
Y69915D01*
X46988Y69810D01*
X46977Y69681D01*
X46953Y69516D01*
X46930Y69352D01*
X46883Y69164D01*
X46824Y68988D01*
X45369D01*
X45381Y69012D01*
X45416Y69059D01*
X45463Y69141D01*
X45521Y69258D01*
X45580Y69399D01*
X45627Y69552D01*
X45662Y69728D01*
X45674Y69915D01*
Y69962D01*
X45662Y70021D01*
X45651Y70091D01*
X45627Y70174D01*
X45580Y70267D01*
X45533Y70373D01*
X45463Y70479D01*
X45369Y70573D01*
X45263Y70678D01*
X45122Y70772D01*
X44958Y70854D01*
X44770Y70925D01*
X44536Y70983D01*
X44278Y71018D01*
X43984Y71030D01*
X39631D01*
Y72579D01*
X44043D01*
X44055D01*
X44102D01*
X44184D01*
X44278Y72567D01*
D02*
G37*
G36*
X32503Y103242D02*
X32656Y103231D01*
X32832Y103219D01*
X33031Y103195D01*
X33242Y103172D01*
X33688Y103090D01*
X33923Y103031D01*
X34158Y102972D01*
X34392Y102890D01*
X34615Y102796D01*
X34815Y102691D01*
X35014Y102573D01*
X35026Y102562D01*
X35061Y102538D01*
X35108Y102503D01*
X35167Y102444D01*
X35237Y102374D01*
X35331Y102292D01*
X35413Y102186D01*
X35507Y102069D01*
X35601Y101940D01*
X35683Y101799D01*
X35765Y101635D01*
X35847Y101459D01*
X35906Y101271D01*
X35953Y101071D01*
X35988Y100848D01*
X36000Y100614D01*
Y100555D01*
X35988Y100508D01*
X35977Y100379D01*
X35941Y100215D01*
X35894Y100015D01*
X35812Y99804D01*
X35695Y99569D01*
X35542Y99335D01*
X35460Y99217D01*
X35355Y99100D01*
X35237Y98983D01*
X35120Y98865D01*
X34979Y98760D01*
X34827Y98654D01*
X34650Y98548D01*
X34474Y98455D01*
X34275Y98372D01*
X34052Y98290D01*
X33817Y98220D01*
X33571Y98161D01*
X33301Y98114D01*
X33008Y98079D01*
X32703Y98067D01*
X32374Y98056D01*
X32350D01*
X32292D01*
X32198D01*
X32069Y98067D01*
X31905Y98079D01*
X31729Y98091D01*
X31529Y98114D01*
X31306Y98138D01*
X30849Y98220D01*
X30602Y98279D01*
X30367Y98349D01*
X30133Y98431D01*
X29910Y98525D01*
X29698Y98631D01*
X29499Y98748D01*
X29487Y98760D01*
X29452Y98783D01*
X29405Y98818D01*
X29346Y98877D01*
X29264Y98947D01*
X29182Y99041D01*
X29088Y99135D01*
X28994Y99264D01*
X28912Y99393D01*
X28818Y99546D01*
X28736Y99710D01*
X28654Y99886D01*
X28595Y100086D01*
X28548Y100297D01*
X28513Y100520D01*
X28502Y100755D01*
Y100813D01*
X28513Y100860D01*
X28525Y100989D01*
X28560Y101142D01*
X28619Y101330D01*
X28701Y101541D01*
X28807Y101776D01*
X28959Y102010D01*
X29053Y102128D01*
X29159Y102233D01*
X29276Y102351D01*
X29405Y102468D01*
X29546Y102573D01*
X29710Y102679D01*
X29874Y102773D01*
X30062Y102867D01*
X30273Y102949D01*
X30485Y103019D01*
X30731Y103090D01*
X30989Y103148D01*
X31259Y103195D01*
X31553Y103231D01*
X31869Y103242D01*
X32210Y103254D01*
X32233D01*
X32292D01*
X32386D01*
X32503Y103242D01*
D02*
G37*
G36*
X35883Y94324D02*
X30180D01*
X30191Y94312D01*
X30215Y94277D01*
X30262Y94206D01*
X30320Y94124D01*
X30391Y94007D01*
X30461Y93878D01*
X30532Y93725D01*
X30614Y93549D01*
X30626Y93526D01*
X30649Y93467D01*
X30684Y93373D01*
X30719Y93256D01*
X30766Y93115D01*
X30801Y92974D01*
X30837Y92810D01*
X30860Y92657D01*
X29558D01*
Y92669D01*
X29534Y92716D01*
X29522Y92787D01*
X29487Y92869D01*
X29452Y92986D01*
X29405Y93115D01*
X29346Y93256D01*
X29276Y93420D01*
X29123Y93761D01*
X28936Y94136D01*
X28713Y94512D01*
X28466Y94875D01*
Y95849D01*
X35883D01*
Y94324D01*
D02*
G37*
G36*
Y88410D02*
X30180D01*
X30191Y88398D01*
X30215Y88363D01*
X30262Y88292D01*
X30320Y88210D01*
X30391Y88093D01*
X30461Y87964D01*
X30532Y87811D01*
X30614Y87635D01*
X30626Y87612D01*
X30649Y87553D01*
X30684Y87459D01*
X30719Y87342D01*
X30766Y87201D01*
X30801Y87060D01*
X30837Y86896D01*
X30860Y86743D01*
X29558D01*
Y86755D01*
X29534Y86802D01*
X29522Y86872D01*
X29487Y86954D01*
X29452Y87072D01*
X29405Y87201D01*
X29346Y87342D01*
X29276Y87506D01*
X29123Y87846D01*
X28936Y88222D01*
X28713Y88597D01*
X28466Y88961D01*
Y89935D01*
X35883D01*
Y88410D01*
D02*
G37*
G36*
Y80442D02*
X35355D01*
X35343D01*
X35331D01*
X35261D01*
X35143Y80453D01*
X35003Y80465D01*
X34850Y80489D01*
X34674Y80535D01*
X34486Y80582D01*
X34310Y80653D01*
X34287Y80665D01*
X34228Y80688D01*
X34146Y80735D01*
X34029Y80805D01*
X33888Y80887D01*
X33747Y80981D01*
X33594Y81099D01*
X33442Y81228D01*
X33418Y81240D01*
X33371Y81298D01*
X33278Y81380D01*
X33172Y81510D01*
X33031Y81662D01*
X32867Y81861D01*
X32691Y82096D01*
X32491Y82366D01*
X32480Y82378D01*
X32468Y82401D01*
X32444Y82437D01*
X32397Y82484D01*
X32304Y82601D01*
X32174Y82753D01*
X32034Y82918D01*
X31881Y83070D01*
X31717Y83223D01*
X31564Y83340D01*
X31541Y83352D01*
X31494Y83387D01*
X31412Y83434D01*
X31306Y83481D01*
X31177Y83528D01*
X31024Y83575D01*
X30860Y83610D01*
X30696Y83622D01*
X30684D01*
X30649D01*
X30602Y83610D01*
X30543D01*
X30391Y83563D01*
X30297Y83528D01*
X30203Y83493D01*
X30121Y83434D01*
X30027Y83364D01*
X29945Y83270D01*
X29874Y83176D01*
X29816Y83047D01*
X29769Y82906D01*
X29734Y82742D01*
X29722Y82554D01*
Y82460D01*
X29734Y82390D01*
X29745Y82308D01*
X29757Y82214D01*
X29781Y82096D01*
X29816Y81979D01*
X29910Y81709D01*
X29968Y81556D01*
X30039Y81404D01*
X30121Y81251D01*
X30227Y81087D01*
X30344Y80934D01*
X30473Y80770D01*
X29123D01*
X29112Y80782D01*
X29100Y80817D01*
X29065Y80864D01*
X29030Y80934D01*
X28983Y81028D01*
X28924Y81134D01*
X28865Y81251D01*
X28807Y81392D01*
X28760Y81545D01*
X28701Y81709D01*
X28642Y81885D01*
X28595Y82073D01*
X28525Y82472D01*
X28513Y82683D01*
X28502Y82906D01*
Y83012D01*
X28513Y83082D01*
Y83176D01*
X28525Y83281D01*
X28548Y83399D01*
X28572Y83528D01*
X28642Y83809D01*
X28736Y84091D01*
X28877Y84373D01*
X28971Y84502D01*
X29065Y84619D01*
X29076Y84631D01*
X29088Y84643D01*
X29123Y84678D01*
X29170Y84713D01*
X29217Y84772D01*
X29288Y84819D01*
X29370Y84877D01*
X29464Y84936D01*
X29675Y85053D01*
X29945Y85159D01*
X30250Y85229D01*
X30414Y85241D01*
X30590Y85253D01*
X30614D01*
X30684D01*
X30790Y85241D01*
X30919Y85229D01*
X31071Y85206D01*
X31236Y85171D01*
X31400Y85124D01*
X31576Y85065D01*
X31600Y85053D01*
X31646Y85030D01*
X31729Y84995D01*
X31846Y84936D01*
X31963Y84854D01*
X32104Y84772D01*
X32245Y84666D01*
X32397Y84537D01*
X32409Y84525D01*
X32468Y84467D01*
X32550Y84384D01*
X32656Y84267D01*
X32796Y84115D01*
X32949Y83927D01*
X33125Y83704D01*
X33324Y83434D01*
Y83422D01*
X33348Y83399D01*
X33371Y83364D01*
X33407Y83317D01*
X33500Y83188D01*
X33618Y83035D01*
X33747Y82871D01*
X33888Y82706D01*
X34017Y82554D01*
X34134Y82437D01*
X34146Y82425D01*
X34181Y82401D01*
X34240Y82354D01*
X34299Y82319D01*
X34463Y82225D01*
X34545Y82202D01*
X34627Y82190D01*
Y85276D01*
X35883D01*
Y80442D01*
D02*
G37*
G36*
X33641Y76475D02*
X32573D01*
Y79245D01*
X33641D01*
Y76475D01*
D02*
G37*
G36*
X32327Y75360D02*
X32444D01*
X32585Y75337D01*
X32750Y75314D01*
X32937Y75278D01*
X33137Y75243D01*
X33348Y75184D01*
X33571Y75114D01*
X33794Y75020D01*
X34017Y74914D01*
X34240Y74797D01*
X34463Y74645D01*
X34674Y74480D01*
X34873Y74293D01*
X34885Y74281D01*
X34920Y74246D01*
X34967Y74187D01*
X35026Y74093D01*
X35108Y73987D01*
X35190Y73858D01*
X35284Y73706D01*
X35378Y73542D01*
X35472Y73342D01*
X35566Y73131D01*
X35648Y72908D01*
X35730Y72661D01*
X35789Y72392D01*
X35836Y72110D01*
X35871Y71817D01*
X35883Y71500D01*
Y69000D01*
X28631D01*
Y71605D01*
X28642Y71676D01*
Y71770D01*
X28654Y71863D01*
X28666Y71981D01*
X28689Y72110D01*
X28736Y72403D01*
X28818Y72732D01*
X28924Y73084D01*
X29076Y73448D01*
X29264Y73800D01*
X29370Y73976D01*
X29487Y74152D01*
X29628Y74316D01*
X29781Y74480D01*
X29945Y74633D01*
X30121Y74774D01*
X30309Y74903D01*
X30520Y75020D01*
X30755Y75114D01*
X31001Y75208D01*
X31259Y75278D01*
X31541Y75325D01*
X31846Y75360D01*
X32163Y75372D01*
X32186D01*
X32233D01*
X32327Y75360D01*
D02*
G37*
G36*
X405676Y384240D02*
X405769D01*
X405863Y384229D01*
X405981Y384217D01*
X406110Y384193D01*
X406403Y384146D01*
X406732Y384064D01*
X407084Y383959D01*
X407448Y383806D01*
X407799Y383618D01*
X407976Y383513D01*
X408152Y383396D01*
X408316Y383255D01*
X408480Y383102D01*
X408633Y382938D01*
X408773Y382762D01*
X408903Y382574D01*
X409020Y382363D01*
X409114Y382128D01*
X409208Y381882D01*
X409278Y381623D01*
X409325Y381342D01*
X409360Y381037D01*
X409372Y380720D01*
Y380696D01*
Y380649D01*
X409360Y380556D01*
Y380438D01*
X409337Y380298D01*
X409313Y380133D01*
X409278Y379945D01*
X409243Y379746D01*
X409184Y379535D01*
X409114Y379312D01*
X409020Y379089D01*
X408914Y378866D01*
X408797Y378643D01*
X408644Y378420D01*
X408480Y378209D01*
X408292Y378009D01*
X408281Y377998D01*
X408245Y377962D01*
X408187Y377915D01*
X408093Y377857D01*
X407987Y377775D01*
X407858Y377692D01*
X407706Y377598D01*
X407541Y377505D01*
X407342Y377411D01*
X407131Y377317D01*
X406908Y377235D01*
X406661Y377153D01*
X406391Y377094D01*
X406110Y377047D01*
X405816Y377012D01*
X405499Y377000D01*
X403000D01*
Y384252D01*
X405605D01*
X405676Y384240D01*
D02*
G37*
G36*
X405781Y364240D02*
X405875D01*
X405992Y364229D01*
X406121Y364217D01*
X406250Y364193D01*
X406544Y364146D01*
X406849Y364064D01*
X407142Y363959D01*
X407271Y363888D01*
X407401Y363806D01*
X407412D01*
X407424Y363783D01*
X407506Y363724D01*
X407600Y363618D01*
X407729Y363489D01*
X407846Y363302D01*
X407940Y363090D01*
X408022Y362844D01*
X408034Y362703D01*
X408046Y362562D01*
Y362551D01*
Y362539D01*
Y362504D01*
Y362457D01*
X408022Y362351D01*
X407999Y362210D01*
X407952Y362046D01*
X407882Y361870D01*
X407776Y361694D01*
X407647Y361518D01*
X407623Y361494D01*
X407577Y361447D01*
X407494Y361365D01*
X407377Y361272D01*
X407225Y361178D01*
X407060Y361072D01*
X406861Y360978D01*
X406650Y360908D01*
Y360884D01*
X406685D01*
X406720Y360872D01*
X406779Y360861D01*
X406908Y360826D01*
X407084Y360779D01*
X407283Y360708D01*
X407483Y360603D01*
X407682Y360485D01*
X407870Y360321D01*
X407893Y360298D01*
X407940Y360239D01*
X408022Y360133D01*
X408105Y360004D01*
X408187Y359828D01*
X408269Y359629D01*
X408316Y359406D01*
X408339Y359147D01*
Y359136D01*
Y359100D01*
Y359054D01*
X408328Y358983D01*
X408316Y358901D01*
X408304Y358807D01*
X408257Y358584D01*
X408163Y358326D01*
X408116Y358197D01*
X408046Y358068D01*
X407964Y357939D01*
X407870Y357810D01*
X407764Y357692D01*
X407635Y357575D01*
X407623Y357563D01*
X407600Y357551D01*
X407565Y357528D01*
X407506Y357481D01*
X407436Y357446D01*
X407354Y357399D01*
X407248Y357340D01*
X407131Y357293D01*
X407001Y357235D01*
X406861Y357188D01*
X406696Y357129D01*
X406532Y357094D01*
X406344Y357059D01*
X406145Y357024D01*
X405934Y357012D01*
X405711Y357000D01*
X403000D01*
Y364252D01*
X405699D01*
X405781Y364240D01*
D02*
G37*
G36*
X22322Y188428D02*
X24478D01*
Y186486D01*
X22322D01*
Y181943D01*
X20758D01*
X20742Y181959D01*
X20692Y182009D01*
X20593Y182075D01*
X20478Y182190D01*
X20330Y182305D01*
X20165Y182453D01*
X19968Y182618D01*
X19754Y182799D01*
X19507Y182996D01*
X19244Y183210D01*
X18964Y183424D01*
X18684Y183655D01*
X18059Y184132D01*
X17417Y184593D01*
X17400Y184609D01*
X17335Y184642D01*
X17252Y184708D01*
X17120Y184790D01*
X16972Y184906D01*
X16791Y185021D01*
X16594Y185153D01*
X16363Y185284D01*
X15886Y185597D01*
X15359Y185893D01*
X14833Y186189D01*
X14306Y186453D01*
Y188428D01*
X20774D01*
Y189860D01*
X22322D01*
Y188428D01*
D02*
G37*
G36*
X23704Y181021D02*
X23819Y180988D01*
X23951Y180956D01*
X24083Y180890D01*
X24214Y180791D01*
X24346Y180676D01*
X24362Y180659D01*
X24395Y180610D01*
X24445Y180527D01*
X24494Y180429D01*
X24544Y180297D01*
X24593Y180149D01*
X24626Y179968D01*
X24642Y179770D01*
Y179688D01*
X24626Y179589D01*
X24609Y179474D01*
X24560Y179326D01*
X24511Y179178D01*
X24428Y179030D01*
X24330Y178882D01*
X24313Y178865D01*
X24280Y178832D01*
X24198Y178766D01*
X24116Y178701D01*
X24000Y178635D01*
X23869Y178569D01*
X23704Y178536D01*
X23540Y178519D01*
X23523D01*
X23457D01*
X23359Y178536D01*
X23260Y178569D01*
X23128Y178618D01*
X22996Y178684D01*
X22865Y178766D01*
X22733Y178898D01*
X22717Y178915D01*
X22684Y178964D01*
X22634Y179046D01*
X22569Y179161D01*
X22503Y179293D01*
X22453Y179441D01*
X22420Y179606D01*
X22404Y179803D01*
Y179886D01*
X22420Y179984D01*
X22437Y180100D01*
X22486Y180248D01*
X22536Y180379D01*
X22618Y180527D01*
X22733Y180676D01*
X22750Y180692D01*
X22782Y180725D01*
X22865Y180791D01*
X22947Y180857D01*
X23062Y180923D01*
X23210Y180988D01*
X23359Y181021D01*
X23540Y181038D01*
X23556D01*
X23622D01*
X23704Y181021D01*
D02*
G37*
G36*
X24478Y173154D02*
X16479D01*
X16495Y173137D01*
X16528Y173088D01*
X16594Y172989D01*
X16676Y172874D01*
X16775Y172709D01*
X16874Y172528D01*
X16972Y172314D01*
X17088Y172068D01*
X17104Y172035D01*
X17137Y171952D01*
X17186Y171821D01*
X17236Y171656D01*
X17301Y171458D01*
X17351Y171261D01*
X17400Y171031D01*
X17433Y170817D01*
X15606D01*
Y170833D01*
X15573Y170899D01*
X15557Y170998D01*
X15508Y171113D01*
X15458Y171278D01*
X15392Y171458D01*
X15310Y171656D01*
X15211Y171886D01*
X14997Y172364D01*
X14734Y172890D01*
X14421Y173417D01*
X14075Y173927D01*
Y175294D01*
X24478D01*
Y173154D01*
D02*
G37*
G36*
Y165961D02*
Y163509D01*
X14306Y160019D01*
Y162357D01*
X21499Y164562D01*
X21515D01*
X21597Y164595D01*
X21696Y164611D01*
X21828Y164644D01*
X21976Y164677D01*
X22157Y164710D01*
X22503Y164760D01*
Y164809D01*
X22486D01*
X22420Y164825D01*
X22322Y164842D01*
X22190Y164858D01*
X22042Y164891D01*
X21877Y164924D01*
X21482Y165023D01*
X14306Y167229D01*
Y169500D01*
X24478Y165961D01*
D02*
G37*
G36*
Y152514D02*
X17894Y148202D01*
X17878Y148185D01*
X17812Y148152D01*
X17713Y148086D01*
X17598Y148021D01*
X17335Y147856D01*
X17203Y147774D01*
X17071Y147708D01*
Y147675D01*
X17088D01*
X17170Y147691D01*
X17301D01*
X17466Y147708D01*
X17697Y147724D01*
X17976D01*
X18306Y147741D01*
X18701D01*
X24478D01*
Y145683D01*
X14306D01*
Y148054D01*
X20709Y152201D01*
X20742Y152218D01*
X20807Y152267D01*
X20923Y152333D01*
X21054Y152415D01*
X21186Y152514D01*
X21318Y152596D01*
X21433Y152662D01*
X21515Y152711D01*
Y152744D01*
X21499D01*
X21449Y152728D01*
X21351D01*
X21202Y152711D01*
X21005Y152695D01*
X20758D01*
X20462Y152679D01*
X20100D01*
X14306D01*
Y154736D01*
X24478D01*
Y152514D01*
D02*
G37*
G36*
Y141174D02*
X14306D01*
Y143330D01*
X24478D01*
Y141174D01*
D02*
G37*
G36*
Y137520D02*
X22157Y136763D01*
Y133059D01*
X24478Y132302D01*
Y129948D01*
X14306Y133685D01*
Y136236D01*
X24478Y139890D01*
Y137520D01*
D02*
G37*
G36*
Y126525D02*
X18306D01*
X18289D01*
X18273D01*
X18223D01*
X18157D01*
X18059D01*
X17960D01*
X17713Y126541D01*
X17400D01*
X17038Y126574D01*
X16610Y126591D01*
X16149Y126624D01*
Y126558D01*
X16166D01*
X16199D01*
X16248Y126541D01*
X16314Y126525D01*
X16479Y126492D01*
X16676Y126443D01*
X16906Y126393D01*
X17120Y126344D01*
X17318Y126294D01*
X17466Y126245D01*
X24478Y123743D01*
Y122015D01*
X17532Y119464D01*
X17515D01*
X17483Y119447D01*
X17400Y119415D01*
X17269Y119382D01*
X17088Y119349D01*
X16972Y119316D01*
X16841Y119283D01*
X16693Y119250D01*
X16528Y119217D01*
X16347Y119184D01*
X16149Y119135D01*
Y119085D01*
X16166D01*
X16199D01*
X16281D01*
X16363Y119102D01*
X16479D01*
X16627Y119118D01*
X16775D01*
X16956Y119135D01*
X17351D01*
X17779Y119151D01*
X18256Y119168D01*
X18734D01*
X24478D01*
Y117209D01*
X14306D01*
Y120369D01*
X20462Y122558D01*
X20495Y122575D01*
X20593Y122608D01*
X20742Y122657D01*
X20923Y122706D01*
X21137Y122772D01*
X21383Y122838D01*
X21630Y122887D01*
X21894Y122937D01*
Y122986D01*
X21877D01*
X21861Y123003D01*
X21811D01*
X21746Y123019D01*
X21597Y123069D01*
X21400Y123118D01*
X21170Y123167D01*
X20923Y123250D01*
X20676Y123315D01*
X20445Y123398D01*
X14306Y125603D01*
Y128681D01*
X24478D01*
Y126525D01*
D02*
G37*
G36*
X28000Y110000D02*
X27144D01*
Y116024D01*
X28000D01*
Y110000D01*
D02*
G37*
G36*
X20857Y106692D02*
X24478D01*
Y104519D01*
X20890D01*
X14306Y101277D01*
Y103762D01*
X18190Y105474D01*
X18223Y105490D01*
X18256Y105506D01*
X18339Y105523D01*
X18437Y105556D01*
X18585Y105605D01*
X18766Y105655D01*
X18997Y105721D01*
Y105737D01*
X18980D01*
X18915Y105753D01*
X18832Y105770D01*
X18717Y105803D01*
X18470Y105869D01*
X18207Y105951D01*
X14306Y107712D01*
Y110016D01*
X20857Y106692D01*
D02*
G37*
G36*
X17795Y100882D02*
X17927Y100865D01*
X18075Y100832D01*
X18240Y100799D01*
X18437Y100750D01*
X18618Y100700D01*
X18832Y100618D01*
X19030Y100519D01*
X19244Y100421D01*
X19458Y100273D01*
X19655Y100124D01*
X19853Y99943D01*
X20034Y99746D01*
X20050Y99729D01*
X20067Y99696D01*
X20116Y99631D01*
X20182Y99532D01*
X20248Y99433D01*
X20330Y99285D01*
X20412Y99137D01*
X20495Y98956D01*
X20577Y98758D01*
X20659Y98544D01*
X20742Y98297D01*
X20807Y98050D01*
X20873Y97787D01*
X20906Y97491D01*
X20939Y97195D01*
Y95763D01*
X24478D01*
Y93590D01*
X14306D01*
Y97260D01*
X14322Y97343D01*
Y97442D01*
X14355Y97688D01*
X14405Y97985D01*
X14471Y98297D01*
X14569Y98643D01*
X14701Y99005D01*
X14882Y99351D01*
X15096Y99696D01*
X15359Y100009D01*
X15672Y100305D01*
X16034Y100552D01*
X16248Y100651D01*
X16462Y100733D01*
X16709Y100799D01*
X16956Y100849D01*
X17236Y100882D01*
X17532Y100898D01*
X17548D01*
X17598D01*
X17680D01*
X17795Y100882D01*
D02*
G37*
G36*
X19556Y91862D02*
X19721D01*
X19919Y91829D01*
X20149Y91812D01*
X20412Y91763D01*
X20692Y91714D01*
X20988Y91631D01*
X21301Y91549D01*
X21630Y91434D01*
X21943Y91302D01*
X22272Y91138D01*
X22585Y90957D01*
X22898Y90743D01*
X23177Y90496D01*
X23194Y90479D01*
X23243Y90430D01*
X23309Y90348D01*
X23408Y90249D01*
X23523Y90101D01*
X23638Y89936D01*
X23770Y89739D01*
X23902Y89525D01*
X24050Y89278D01*
X24181Y88998D01*
X24297Y88702D01*
X24412Y88372D01*
X24511Y88027D01*
X24576Y87665D01*
X24626Y87270D01*
X24642Y86858D01*
Y86760D01*
X24626Y86644D01*
Y86496D01*
X24593Y86315D01*
X24560Y86101D01*
X24527Y85854D01*
X24461Y85591D01*
X24395Y85311D01*
X24297Y85031D01*
X24181Y84735D01*
X24050Y84439D01*
X23885Y84143D01*
X23688Y83846D01*
X23474Y83566D01*
X23227Y83303D01*
X23210Y83287D01*
X23161Y83237D01*
X23079Y83171D01*
X22964Y83089D01*
X22832Y82990D01*
X22651Y82875D01*
X22453Y82743D01*
X22223Y82628D01*
X21976Y82497D01*
X21696Y82365D01*
X21383Y82250D01*
X21054Y82151D01*
X20709Y82069D01*
X20330Y82003D01*
X19935Y81953D01*
X19524Y81937D01*
X19491D01*
X19425D01*
X19293Y81953D01*
X19129D01*
X18931Y81986D01*
X18684Y82019D01*
X18421Y82052D01*
X18141Y82118D01*
X17845Y82184D01*
X17532Y82283D01*
X17203Y82398D01*
X16874Y82529D01*
X16561Y82694D01*
X16232Y82875D01*
X15935Y83089D01*
X15639Y83336D01*
X15623Y83352D01*
X15573Y83402D01*
X15491Y83484D01*
X15409Y83583D01*
X15294Y83731D01*
X15162Y83896D01*
X15030Y84093D01*
X14882Y84324D01*
X14734Y84570D01*
X14602Y84850D01*
X14471Y85147D01*
X14355Y85476D01*
X14257Y85838D01*
X14191Y86200D01*
X14141Y86611D01*
X14125Y87023D01*
Y87122D01*
X14141Y87237D01*
Y87385D01*
X14174Y87566D01*
X14207Y87780D01*
X14240Y88027D01*
X14306Y88290D01*
X14388Y88553D01*
X14487Y88850D01*
X14602Y89146D01*
X14750Y89426D01*
X14915Y89722D01*
X15113Y90018D01*
X15326Y90282D01*
X15590Y90545D01*
X15606Y90562D01*
X15656Y90611D01*
X15738Y90677D01*
X15853Y90759D01*
X16001Y90858D01*
X16166Y90973D01*
X16363Y91088D01*
X16594Y91220D01*
X16857Y91335D01*
X17137Y91450D01*
X17450Y91566D01*
X17779Y91664D01*
X18125Y91763D01*
X18503Y91829D01*
X18915Y91862D01*
X19326Y91878D01*
X19359D01*
X19425D01*
X19556Y91862D01*
D02*
G37*
G36*
X24116Y80752D02*
X24132Y80719D01*
X24165Y80653D01*
X24198Y80571D01*
X24231Y80456D01*
X24280Y80324D01*
X24330Y80176D01*
X24379Y79995D01*
X24428Y79797D01*
X24478Y79583D01*
X24527Y79336D01*
X24560Y79089D01*
X24593Y78810D01*
X24626Y78513D01*
X24642Y78201D01*
Y77773D01*
X24626Y77657D01*
Y77493D01*
X24593Y77295D01*
X24576Y77065D01*
X24527Y76818D01*
X24478Y76555D01*
X24395Y76259D01*
X24313Y75962D01*
X24198Y75666D01*
X24066Y75353D01*
X23902Y75057D01*
X23721Y74761D01*
X23523Y74481D01*
X23276Y74218D01*
X23260Y74201D01*
X23210Y74168D01*
X23128Y74086D01*
X23029Y74004D01*
X22881Y73905D01*
X22717Y73790D01*
X22536Y73674D01*
X22305Y73543D01*
X22058Y73411D01*
X21778Y73296D01*
X21482Y73181D01*
X21153Y73082D01*
X20807Y73000D01*
X20429Y72934D01*
X20034Y72884D01*
X19622Y72868D01*
X19589D01*
X19507D01*
X19392Y72884D01*
X19227D01*
X19013Y72917D01*
X18783Y72950D01*
X18503Y73000D01*
X18223Y73065D01*
X17910Y73131D01*
X17598Y73230D01*
X17269Y73362D01*
X16939Y73510D01*
X16610Y73674D01*
X16281Y73888D01*
X15968Y74119D01*
X15672Y74382D01*
X15656Y74399D01*
X15606Y74448D01*
X15524Y74530D01*
X15425Y74662D01*
X15310Y74810D01*
X15178Y74991D01*
X15047Y75205D01*
X14899Y75436D01*
X14750Y75699D01*
X14619Y75995D01*
X14487Y76324D01*
X14372Y76670D01*
X14273Y77032D01*
X14191Y77427D01*
X14141Y77839D01*
X14125Y78283D01*
Y78530D01*
X14141Y78661D01*
Y78810D01*
X14158Y78974D01*
X14174Y79155D01*
X14224Y79534D01*
X14289Y79962D01*
X14388Y80373D01*
X14520Y80768D01*
X16610D01*
Y80752D01*
X16577Y80719D01*
X16561Y80670D01*
X16511Y80587D01*
X16479Y80489D01*
X16429Y80373D01*
X16363Y80242D01*
X16314Y80093D01*
X16199Y79748D01*
X16116Y79353D01*
X16051Y78908D01*
X16018Y78431D01*
Y78283D01*
X16034Y78184D01*
X16051Y78053D01*
X16067Y77904D01*
X16100Y77740D01*
X16133Y77575D01*
X16248Y77197D01*
X16330Y76999D01*
X16413Y76785D01*
X16528Y76588D01*
X16660Y76407D01*
X16808Y76226D01*
X16972Y76045D01*
X16989Y76028D01*
X17022Y76012D01*
X17071Y75962D01*
X17137Y75913D01*
X17236Y75847D01*
X17351Y75765D01*
X17483Y75682D01*
X17631Y75600D01*
X17812Y75518D01*
X17993Y75436D01*
X18190Y75370D01*
X18421Y75287D01*
X18898Y75189D01*
X19178Y75172D01*
X19458Y75156D01*
X19474D01*
X19524D01*
X19606D01*
X19705Y75172D01*
X19836Y75189D01*
X19984Y75205D01*
X20149Y75222D01*
X20314Y75255D01*
X20709Y75353D01*
X21104Y75518D01*
X21318Y75600D01*
X21515Y75715D01*
X21696Y75847D01*
X21877Y75995D01*
X21894Y76012D01*
X21910Y76028D01*
X21960Y76077D01*
X22025Y76160D01*
X22091Y76242D01*
X22157Y76341D01*
X22239Y76473D01*
X22322Y76604D01*
X22420Y76769D01*
X22503Y76933D01*
X22634Y77328D01*
X22750Y77789D01*
X22766Y78036D01*
X22782Y78299D01*
Y78431D01*
X22766Y78530D01*
Y78645D01*
X22750Y78793D01*
X22733Y78941D01*
X22700Y79122D01*
X22618Y79501D01*
X22503Y79912D01*
X22338Y80340D01*
X22124Y80768D01*
X24116D01*
Y80752D01*
D02*
G37*
G36*
X24478Y69000D02*
X14306D01*
Y71156D01*
X24478D01*
Y69000D01*
D02*
G37*
G36*
X409076Y347000D02*
X407386D01*
X406847Y348655D01*
X404206D01*
X403666Y347000D01*
X401988D01*
X404652Y354252D01*
X406471D01*
X409076Y347000D01*
D02*
G37*
%LPC*%
G36*
X32503Y101717D02*
X32268D01*
X32257D01*
X32233D01*
X32198D01*
X32151D01*
X32022Y101705D01*
X31858D01*
X31658Y101682D01*
X31447Y101658D01*
X31212Y101635D01*
X30966Y101588D01*
X30719Y101529D01*
X30485Y101470D01*
X30262Y101376D01*
X30074Y101283D01*
X29898Y101165D01*
X29781Y101025D01*
X29722Y100954D01*
X29687Y100872D01*
X29675Y100778D01*
X29663Y100684D01*
Y100637D01*
X29675Y100578D01*
X29710Y100508D01*
X29745Y100426D01*
X29804Y100332D01*
X29886Y100238D01*
X29992Y100133D01*
X30144Y100027D01*
X30320Y99933D01*
X30532Y99839D01*
X30661Y99792D01*
X30790Y99757D01*
X30942Y99722D01*
X31095Y99687D01*
X31271Y99651D01*
X31459Y99628D01*
X31658Y99605D01*
X31869Y99593D01*
X32092Y99581D01*
X32339D01*
X32350D01*
X32362D01*
X32397D01*
X32444D01*
X32573Y99593D01*
X32726D01*
X32926Y99616D01*
X33137Y99640D01*
X33360Y99675D01*
X33594Y99722D01*
X33829Y99769D01*
X34052Y99839D01*
X34263Y99933D01*
X34463Y100039D01*
X34615Y100156D01*
X34744Y100309D01*
X34791Y100391D01*
X34827Y100473D01*
X34838Y100567D01*
X34850Y100661D01*
Y100708D01*
X34838Y100755D01*
X34815Y100825D01*
X34768Y100907D01*
X34709Y101001D01*
X34639Y101095D01*
X34521Y101189D01*
X34392Y101283D01*
X34216Y101388D01*
X34005Y101470D01*
X33759Y101552D01*
X33618Y101588D01*
X33465Y101623D01*
X33301Y101646D01*
X33125Y101670D01*
X32926Y101693D01*
X32726Y101705D01*
X32503Y101717D01*
D02*
G37*
G36*
X32186Y73753D02*
X32174D01*
X32139D01*
X32081D01*
X32010Y73741D01*
X31916Y73729D01*
X31811Y73718D01*
X31576Y73671D01*
X31306Y73589D01*
X31024Y73471D01*
X30884Y73401D01*
X30755Y73319D01*
X30626Y73213D01*
X30508Y73096D01*
X30496Y73084D01*
X30485Y73060D01*
X30450Y73025D01*
X30414Y72978D01*
X30367Y72908D01*
X30320Y72838D01*
X30262Y72744D01*
X30203Y72638D01*
X30144Y72521D01*
X30086Y72392D01*
X29992Y72098D01*
X29921Y71758D01*
X29910Y71582D01*
X29898Y71382D01*
Y70549D01*
X34627D01*
Y71500D01*
X34615Y71582D01*
X34604Y71664D01*
X34592Y71781D01*
X34568Y71899D01*
X34545Y72028D01*
X34463Y72298D01*
X34345Y72591D01*
X34275Y72732D01*
X34181Y72861D01*
X34087Y73002D01*
X33970Y73119D01*
X33958Y73131D01*
X33935Y73143D01*
X33900Y73178D01*
X33853Y73213D01*
X33782Y73272D01*
X33700Y73319D01*
X33606Y73377D01*
X33500Y73436D01*
X33383Y73495D01*
X33242Y73553D01*
X33101Y73612D01*
X32937Y73659D01*
X32773Y73694D01*
X32585Y73729D01*
X32386Y73741D01*
X32186Y73753D01*
D02*
G37*
G36*
X405382Y382985D02*
X404549D01*
Y378256D01*
X405499D01*
X405582Y378267D01*
X405664Y378279D01*
X405781Y378291D01*
X405899Y378314D01*
X406028Y378338D01*
X406297Y378420D01*
X406591Y378537D01*
X406732Y378608D01*
X406861Y378702D01*
X407001Y378795D01*
X407119Y378913D01*
X407131Y378924D01*
X407142Y378948D01*
X407178Y378983D01*
X407213Y379030D01*
X407271Y379100D01*
X407318Y379183D01*
X407377Y379277D01*
X407436Y379382D01*
X407494Y379500D01*
X407553Y379640D01*
X407612Y379781D01*
X407659Y379945D01*
X407694Y380110D01*
X407729Y380298D01*
X407741Y380497D01*
X407753Y380696D01*
Y380708D01*
Y380743D01*
Y380802D01*
X407741Y380872D01*
X407729Y380966D01*
X407717Y381072D01*
X407670Y381307D01*
X407588Y381577D01*
X407471Y381858D01*
X407401Y381999D01*
X407318Y382128D01*
X407213Y382257D01*
X407095Y382374D01*
X407084Y382386D01*
X407060Y382398D01*
X407025Y382433D01*
X406978Y382468D01*
X406908Y382515D01*
X406837Y382562D01*
X406743Y382621D01*
X406638Y382680D01*
X406520Y382738D01*
X406391Y382797D01*
X406098Y382891D01*
X405758Y382961D01*
X405582Y382973D01*
X405382Y382985D01*
D02*
G37*
G36*
X405206Y363102D02*
X404549D01*
Y361307D01*
X405370D01*
X405476Y361318D01*
X405593Y361342D01*
X405723Y361365D01*
X405863Y361412D01*
X406004Y361471D01*
X406121Y361553D01*
X406133Y361565D01*
X406168Y361600D01*
X406215Y361659D01*
X406274Y361741D01*
X406333Y361847D01*
X406380Y361964D01*
X406415Y362105D01*
X406427Y362269D01*
Y362281D01*
Y362304D01*
X406415Y362351D01*
X406403Y362398D01*
X406368Y362527D01*
X406321Y362609D01*
X406274Y362691D01*
X406215Y362762D01*
X406133Y362844D01*
X406028Y362914D01*
X405910Y362973D01*
X405769Y363020D01*
X405605Y363067D01*
X405417Y363090D01*
X405206Y363102D01*
D02*
G37*
G36*
X405453Y360145D02*
X404549D01*
Y358150D01*
X405558D01*
X405664Y358162D01*
X405805Y358185D01*
X405945Y358220D01*
X406098Y358267D01*
X406250Y358326D01*
X406380Y358420D01*
X406391Y358432D01*
X406427Y358467D01*
X406485Y358526D01*
X406544Y358619D01*
X406603Y358725D01*
X406661Y358854D01*
X406696Y359007D01*
X406708Y359171D01*
Y359194D01*
Y359241D01*
X406696Y359335D01*
X406673Y359429D01*
X406626Y359546D01*
X406567Y359664D01*
X406485Y359781D01*
X406380Y359887D01*
X406368Y359898D01*
X406321Y359922D01*
X406239Y359969D01*
X406145Y360016D01*
X406004Y360063D01*
X405852Y360110D01*
X405664Y360133D01*
X405453Y360145D01*
D02*
G37*
G36*
X20774Y186486D02*
X17038D01*
X17071Y186469D01*
X17137Y186436D01*
X17269Y186354D01*
X17433Y186255D01*
X17647Y186124D01*
X17894Y185975D01*
X18174Y185795D01*
X18470Y185581D01*
X18487D01*
X18503Y185548D01*
X18552Y185515D01*
X18618Y185465D01*
X18717Y185416D01*
X18816Y185334D01*
X18931Y185235D01*
X19079Y185136D01*
X19227Y185021D01*
X19408Y184889D01*
X19589Y184741D01*
X19803Y184593D01*
X20248Y184231D01*
X20774Y183819D01*
Y186486D01*
D02*
G37*
G36*
X20478Y136252D02*
X16939Y135084D01*
X16923D01*
X16874Y135067D01*
X16808Y135051D01*
X16709Y135018D01*
X16577Y135001D01*
X16429Y134969D01*
X16248Y134952D01*
X16051Y134936D01*
Y134870D01*
X16067D01*
X16133D01*
X16215Y134853D01*
X16330Y134837D01*
X16462Y134804D01*
X16610Y134787D01*
X16923Y134689D01*
X20478Y133537D01*
Y136252D01*
D02*
G37*
G36*
X17614Y98610D02*
X17598D01*
X17548D01*
X17466Y98594D01*
X17351Y98577D01*
X17236Y98561D01*
X17104Y98511D01*
X16956Y98446D01*
X16791Y98380D01*
X16643Y98281D01*
X16495Y98149D01*
X16363Y98001D01*
X16232Y97820D01*
X16133Y97590D01*
X16051Y97343D01*
X16001Y97046D01*
X15985Y96717D01*
Y95763D01*
X19277D01*
Y96783D01*
X19260Y96882D01*
X19244Y96997D01*
X19227Y97145D01*
X19194Y97310D01*
X19145Y97474D01*
X19063Y97655D01*
X18980Y97837D01*
X18865Y98001D01*
X18734Y98166D01*
X18569Y98314D01*
X18388Y98429D01*
X18157Y98528D01*
X17910Y98594D01*
X17614Y98610D01*
D02*
G37*
G36*
X19737Y89607D02*
X19458D01*
X19441D01*
X19392D01*
X19310D01*
X19194Y89590D01*
X19063D01*
X18898Y89574D01*
X18734Y89558D01*
X18536Y89525D01*
X18141Y89442D01*
X17713Y89311D01*
X17318Y89146D01*
X16939Y88916D01*
X16923D01*
X16906Y88883D01*
X16791Y88784D01*
X16643Y88636D01*
X16479Y88405D01*
X16314Y88142D01*
X16166Y87796D01*
X16051Y87401D01*
X16034Y87187D01*
X16018Y86957D01*
Y86842D01*
X16034Y86743D01*
X16051Y86644D01*
X16067Y86513D01*
X16133Y86233D01*
X16248Y85904D01*
X16330Y85739D01*
X16413Y85574D01*
X16528Y85410D01*
X16660Y85245D01*
X16808Y85097D01*
X16972Y84949D01*
X16989D01*
X17022Y84916D01*
X17071Y84883D01*
X17137Y84834D01*
X17236Y84784D01*
X17351Y84719D01*
X17483Y84653D01*
X17631Y84587D01*
X17795Y84521D01*
X17976Y84455D01*
X18388Y84340D01*
X18865Y84258D01*
X19129Y84241D01*
X19408Y84225D01*
X19425D01*
X19474D01*
X19556D01*
X19655Y84241D01*
X19787D01*
X19935Y84258D01*
X20083Y84291D01*
X20264Y84307D01*
X20659Y84406D01*
X21054Y84521D01*
X21466Y84702D01*
X21663Y84801D01*
X21844Y84932D01*
X21861Y84949D01*
X21877Y84965D01*
X21927Y85015D01*
X21992Y85064D01*
X22141Y85229D01*
X22305Y85459D01*
X22486Y85739D01*
X22634Y86068D01*
X22700Y86266D01*
X22750Y86463D01*
X22766Y86677D01*
X22782Y86908D01*
Y87023D01*
X22766Y87122D01*
X22750Y87220D01*
X22733Y87352D01*
X22667Y87632D01*
X22569Y87944D01*
X22404Y88274D01*
X22289Y88438D01*
X22174Y88603D01*
X22042Y88751D01*
X21877Y88883D01*
X21861Y88899D01*
X21828Y88916D01*
X21778Y88948D01*
X21713Y88998D01*
X21614Y89047D01*
X21515Y89113D01*
X21383Y89179D01*
X21235Y89245D01*
X21071Y89311D01*
X20890Y89376D01*
X20692Y89442D01*
X20478Y89492D01*
X20001Y89574D01*
X19737Y89607D01*
D02*
G37*
G36*
X405544Y353008D02*
X405497D01*
Y352996D01*
Y352949D01*
X405485Y352891D01*
X405474Y352809D01*
X405450Y352715D01*
X405438Y352609D01*
X405368Y352386D01*
X404546Y349851D01*
X406483D01*
X405649Y352374D01*
Y352386D01*
X405638Y352421D01*
X405626Y352468D01*
X405603Y352539D01*
X405591Y352633D01*
X405567Y352738D01*
X405556Y352867D01*
X405544Y353008D01*
D02*
G37*
%LPD*%
D10*
X60000Y560000D02*
G03*
X60000Y560000I-20000J0D01*
G01*
X135000Y134000D02*
G03*
X135000Y134000I-20000J0D01*
G01*
X369000Y87000D02*
G03*
X369000Y87000I-20000J0D01*
G01*
X60000Y25000D02*
G03*
X60000Y25000I-20000J0D01*
G01*
X480000Y560000D02*
G03*
X480000Y560000I-20000J0D01*
G01*
Y265000D02*
G03*
X480000Y265000I-20000J0D01*
G01*
Y25000D02*
G03*
X480000Y25000I-20000J0D01*
G01*
X135000Y134000D02*
G03*
X135000Y134000I-20000J0D01*
G01*
X490000Y437000D02*
Y620457D01*
Y207000D02*
Y423000D01*
Y0D02*
Y193000D01*
Y437000D02*
X500000D01*
X490000Y423000D02*
X500000D01*
X490000Y207000D02*
X500000D01*
X490000Y193000D02*
X500000D01*
X490000Y620457D02*
X491400D01*
Y570457D02*
Y620457D01*
X500000Y0D02*
Y193000D01*
Y207000D02*
Y423000D01*
Y437000D02*
Y570457D01*
X491400D02*
X500000D01*
X8600Y620457D02*
X10000D01*
X0Y0D02*
Y570457D01*
X8600D02*
Y620457D01*
X0Y570457D02*
X8600D01*
X10000Y501000D02*
Y620457D01*
Y0D02*
Y199000D01*
Y501000D02*
X28500D01*
Y399546D02*
Y501000D01*
X10000Y199000D02*
X53500D01*
Y399546D01*
X28500D02*
X53500D01*
D11*
X107275Y593000D02*
G03*
X107275Y593000I-1275J0D01*
G01*
X150048Y578492D02*
G03*
X150048Y578492I-254J0D01*
G01*
X164780Y573006D02*
G03*
X164780Y573006I-762J0D01*
G01*
X71220Y192800D02*
Y200166D01*
Y192800D02*
X106780D01*
Y200166D01*
X81634Y215660D02*
X96620D01*
X89000Y203976D02*
Y210580D01*
Y192800D02*
Y199404D01*
X232220Y64800D02*
Y72166D01*
Y64800D02*
X267780D01*
Y72166D01*
X242634Y87660D02*
X257620D01*
X250000Y75976D02*
Y82580D01*
Y64800D02*
Y71404D01*
X190834Y124220D02*
X198200D01*
Y159780D01*
X190834D02*
X198200D01*
X175340Y134634D02*
Y149620D01*
X180420Y142000D02*
X187024D01*
X191596D02*
X198200D01*
X232220Y129300D02*
Y136666D01*
Y129300D02*
X267780D01*
Y136666D01*
X242634Y152160D02*
X257620D01*
X250000Y140476D02*
Y147080D01*
Y129300D02*
Y135904D01*
X71220Y65800D02*
Y73166D01*
Y65800D02*
X106780D01*
Y73166D01*
X81634Y88660D02*
X96620D01*
X89000Y76976D02*
Y83580D01*
Y65800D02*
Y72404D01*
X319834Y124220D02*
X327200D01*
Y159780D01*
X319834D02*
X327200D01*
X304340Y134634D02*
Y149620D01*
X309420Y142000D02*
X316024D01*
X320596D02*
X327200D01*
X393220Y65800D02*
Y73166D01*
Y65800D02*
X428780D01*
Y73166D01*
X403634Y88660D02*
X418620D01*
X411000Y76976D02*
Y83580D01*
Y65800D02*
Y72404D01*
X232220Y193800D02*
Y201166D01*
Y193800D02*
X267780D01*
Y201166D01*
X242634Y216660D02*
X257620D01*
X250000Y204976D02*
Y211580D01*
Y193800D02*
Y200404D01*
X393220Y192800D02*
Y200166D01*
Y192800D02*
X428780D01*
Y200166D01*
X403634Y215660D02*
X418620D01*
X411000Y203976D02*
Y210580D01*
Y192800D02*
Y199404D01*
X70190Y22660D02*
X128610Y22660D01*
X70190Y2340D02*
Y22660D01*
Y2340D02*
X128610D01*
Y22660D01*
D12*
X366250Y11250D02*
G03*
X366250Y11250I-1250J0D01*
G01*
X320950Y67790D02*
G03*
X320950Y67790I-1250J0D01*
G01*
X458000Y131750D02*
G03*
X458000Y131750I-1250J0D01*
G01*
X208550Y445700D02*
G03*
X208550Y445700I-1250J0D01*
G01*
D13*
X320000Y65500D02*
G03*
X320000Y65500I-3000J0D01*
G01*
X437000Y164000D02*
G03*
X437000Y164000I-1000J0D01*
G01*
D14*
X323000Y335000D02*
G03*
X323000Y335000I-1000J0D01*
G01*
D15*
X424330Y279219D02*
G03*
X424729Y279782I-8084J6143D01*
G01*
X423986Y278791D02*
G03*
X424330Y279219I-7662J6512D01*
G01*
X423684Y278451D02*
G03*
X423986Y278791I-7282J6786D01*
G01*
X422638Y277480D02*
G03*
X423684Y278451I-6148J7674D01*
G01*
X422097Y277077D02*
G03*
X422638Y277480I-5562J8021D01*
G01*
X426110Y282959D02*
G03*
X426162Y283188I-9938J2365D01*
G01*
X425823Y281982D02*
G03*
X425899Y282204I-8875J3130D01*
G01*
X424729Y279782D02*
G03*
X425488Y281154I-8596J5653D01*
G01*
X108967Y563545D02*
G03*
X107921Y562574I6148J-7674D01*
G01*
X109507Y563948D02*
G03*
X108967Y563545I5562J-8021D01*
G01*
X105494Y558066D02*
G03*
X105442Y557836I9938J-2365D01*
G01*
X105781Y559043D02*
G03*
X105705Y558820I8875J-3130D01*
G01*
X106875Y561243D02*
G03*
X106116Y559871I8596J-5653D01*
G01*
X107274Y561806D02*
G03*
X106875Y561243I8084J-6143D01*
G01*
X107618Y562234D02*
G03*
X107274Y561806I7662J-6512D01*
G01*
X107921Y562574D02*
G03*
X107618Y562234I7282J-6786D01*
G01*
X112899Y275554D02*
G03*
X113128Y275502I2365J9938D01*
G01*
X111921Y275841D02*
G03*
X112144Y275766I3130J8875D01*
G01*
X109722Y276936D02*
G03*
X111093Y276177I5653J8596D01*
G01*
X109158Y277334D02*
G03*
X109722Y276936I6143J8084D01*
G01*
X108730Y277678D02*
G03*
X109158Y277334I6512J7662D01*
G01*
X108390Y277981D02*
G03*
X108730Y277678I6786J7282D01*
G01*
X107016Y279567D02*
G03*
X107420Y279027I8021J5562D01*
G01*
X107420Y279027D02*
G03*
X108390Y277981I7674J6148D01*
G01*
X387964Y528918D02*
G03*
X387409Y529327I-6255J-7900D01*
G01*
X388360Y528587D02*
G03*
X387964Y528918I-6588J-7488D01*
G01*
X388683Y528291D02*
G03*
X388360Y528587I-6844J-7115D01*
G01*
X389720Y527119D02*
G03*
X388683Y528291I-7818J-5878D01*
G01*
X390080Y526607D02*
G03*
X389720Y527119I-8106J-5311D01*
G01*
X390886Y525123D02*
G03*
X390795Y525323I-10128J-4508D01*
G01*
X387409Y529327D02*
G03*
X385814Y530223I-5791J-8443D01*
G01*
X389967Y314255D02*
G03*
X390863Y315850I-8443J5791D01*
G01*
X389558Y313701D02*
G03*
X389967Y314255I-7900J6255D01*
G01*
X389227Y313304D02*
G03*
X389558Y313701I-7488J6588D01*
G01*
X388930Y312982D02*
G03*
X389227Y313304I-7115J6844D01*
G01*
X387759Y311945D02*
G03*
X388930Y312982I-5878J7818D01*
G01*
X385762Y310779D02*
G03*
X385962Y310870I-4508J10128D01*
G01*
X387247Y311585D02*
G03*
X387759Y311945I-5311J8106D01*
G01*
X143845Y529080D02*
G03*
X142674Y528043I5878J-7818D01*
G01*
Y528043D02*
G03*
X142377Y527721I7115J-6844D01*
G01*
Y527721D02*
G03*
X142046Y527324I7488J-6588D01*
G01*
D02*
G03*
X141637Y526770I7900J-6255D01*
G01*
D02*
G03*
X140742Y525175I8443J-5791D01*
G01*
X145842Y530246D02*
G03*
X145642Y530155I4508J-10128D01*
G01*
X144357Y529440D02*
G03*
X143845Y529080I5311J-8106D01*
G01*
X143641Y312106D02*
G03*
X144195Y311698I6255J7900D01*
G01*
D02*
G03*
X145790Y310802I5791J8443D01*
G01*
X142921Y312734D02*
G03*
X143244Y312438I6844J7115D01*
G01*
X141884Y313906D02*
G03*
X142921Y312734I7818J5878D01*
G01*
X141525Y314418D02*
G03*
X141884Y313906I8106J5311D01*
G01*
X140718Y315902D02*
G03*
X140809Y315702I10128J4508D01*
G01*
X143244Y312438D02*
G03*
X143641Y312106I6588J7488D01*
G01*
X115214Y275288D02*
X416390D01*
X331134Y565737D02*
X391386D01*
X115214D02*
X303886D01*
Y543832D02*
X331134D01*
X391386D02*
X426376D01*
X420301Y276083D02*
X420359Y276108D01*
X420243Y276058D02*
X420301Y276083D01*
X420185Y276033D02*
X420243Y276058D01*
X426376Y285275D02*
Y543832D01*
X105228Y285275D02*
Y555751D01*
X391386Y543832D02*
Y565737D01*
X331134Y543832D02*
Y565737D01*
X303886Y543832D02*
Y565737D01*
X421968Y276989D02*
X422097Y277077D01*
X421850Y276911D02*
X421968Y276989D01*
X421731Y276835D02*
X421850Y276911D01*
X421611Y276761D02*
X421731Y276835D01*
X421490Y276688D02*
X421611Y276761D01*
X421368Y276617D02*
X421490Y276688D01*
X421245Y276548D02*
X421368Y276617D01*
X421121Y276480D02*
X421245Y276548D01*
X421010Y276421D02*
X421121Y276480D01*
X420899Y276364D02*
X421010Y276421D01*
X420786Y276308D02*
X420899Y276364D01*
X420673Y276253D02*
X420786Y276308D01*
X420559Y276199D02*
X420673Y276253D01*
X420416Y276134D02*
X420559Y276199D01*
X420359Y276108D02*
X420416Y276134D01*
X426376Y285243D02*
X426376Y285275D01*
X426375Y285227D02*
X426376Y285243D01*
X426375Y285212D02*
X426375Y285227D01*
X426374Y285196D02*
X426375Y285212D01*
X426374Y285180D02*
X426374Y285196D01*
X426373Y285165D02*
X426374Y285180D01*
X426373Y285149D02*
X426373Y285165D01*
X426372Y285133D02*
X426373Y285149D01*
X426372Y285118D02*
X426372Y285133D01*
X426371Y285102D02*
X426372Y285118D01*
X426371Y285086D02*
X426371Y285102D01*
X426370Y285071D02*
X426371Y285086D01*
X426370Y285055D02*
X426370Y285071D01*
X426369Y285039D02*
X426370Y285055D01*
X426369Y285024D02*
X426369Y285039D01*
X426368Y285008D02*
X426369Y285024D01*
X426368Y284992D02*
X426368Y285008D01*
X426367Y284977D02*
X426368Y284992D01*
X426367Y284961D02*
X426367Y284977D01*
X426366Y284945D02*
X426367Y284961D01*
X426366Y284930D02*
X426366Y284945D01*
X426365Y284914D02*
X426366Y284930D01*
X426365Y284898D02*
X426365Y284914D01*
X426364Y284883D02*
X426365Y284898D01*
X426363Y284867D02*
X426364Y284883D01*
X426363Y284851D02*
X426363Y284867D01*
X426362Y284836D02*
X426363Y284851D01*
X426361Y284820D02*
X426362Y284836D01*
X426361Y284804D02*
X426361Y284820D01*
X426360Y284789D02*
X426361Y284804D01*
X426359Y284773D02*
X426360Y284789D01*
X426359Y284757D02*
X426359Y284773D01*
X426358Y284742D02*
X426359Y284757D01*
X426357Y284726D02*
X426358Y284742D01*
X426357Y284710D02*
X426357Y284726D01*
X426356Y284695D02*
X426357Y284710D01*
X426355Y284679D02*
X426356Y284695D01*
X426354Y284663D02*
X426355Y284679D01*
X426353Y284648D02*
X426354Y284663D01*
X426353Y284632D02*
X426353Y284648D01*
X426352Y284616D02*
X426353Y284632D01*
X426351Y284601D02*
X426352Y284616D01*
X426350Y284585D02*
X426351Y284601D01*
X426349Y284569D02*
X426350Y284585D01*
X426348Y284554D02*
X426349Y284569D01*
X426347Y284538D02*
X426348Y284554D01*
X426346Y284523D02*
X426347Y284538D01*
X426345Y284507D02*
X426346Y284523D01*
X426344Y284491D02*
X426345Y284507D01*
X426343Y284476D02*
X426344Y284491D01*
X426342Y284460D02*
X426343Y284476D01*
X426341Y284444D02*
X426342Y284460D01*
X426340Y284429D02*
X426341Y284444D01*
X426339Y284413D02*
X426340Y284429D01*
X426338Y284398D02*
X426339Y284413D01*
X426337Y284382D02*
X426338Y284398D01*
X426335Y284366D02*
X426337Y284382D01*
X426334Y284351D02*
X426335Y284366D01*
X426333Y284335D02*
X426334Y284351D01*
X426332Y284319D02*
X426333Y284335D01*
X426330Y284304D02*
X426332Y284319D01*
X426329Y284288D02*
X426330Y284304D01*
X426328Y284273D02*
X426329Y284288D01*
X426326Y284257D02*
X426328Y284273D01*
X426325Y284241D02*
X426326Y284257D01*
X426324Y284226D02*
X426325Y284241D01*
X426322Y284210D02*
X426324Y284226D01*
X426313Y284117D02*
X426322Y284210D01*
X426307Y284070D02*
X426313Y284117D01*
X426302Y284023D02*
X426307Y284070D01*
X426296Y283977D02*
X426302Y284023D01*
X426291Y283930D02*
X426296Y283977D01*
X426284Y283883D02*
X426291Y283930D01*
X426278Y283837D02*
X426284Y283883D01*
X426271Y283790D02*
X426278Y283837D01*
X426264Y283744D02*
X426271Y283790D01*
X426257Y283697D02*
X426264Y283744D01*
X426250Y283651D02*
X426257Y283697D01*
X426242Y283604D02*
X426250Y283651D01*
X426234Y283558D02*
X426242Y283604D01*
X426226Y283512D02*
X426234Y283558D01*
X426217Y283465D02*
X426226Y283512D01*
X426209Y283419D02*
X426217Y283465D01*
X426200Y283373D02*
X426209Y283419D01*
X426191Y283327D02*
X426200Y283373D01*
X426181Y283281D02*
X426191Y283327D01*
X426172Y283235D02*
X426181Y283281D01*
X426162Y283188D02*
X426172Y283235D01*
X426084Y282852D02*
X426110Y282959D01*
X426057Y282746D02*
X426084Y282852D01*
X426029Y282640D02*
X426057Y282746D01*
X425999Y282534D02*
X426029Y282640D01*
X425969Y282429D02*
X425999Y282534D01*
X425937Y282324D02*
X425969Y282429D01*
X425899Y282204D02*
X425937Y282324D01*
X425786Y281879D02*
X425823Y281982D01*
X425748Y281776D02*
X425786Y281879D01*
X425709Y281673D02*
X425748Y281776D01*
X425668Y281571D02*
X425709Y281673D01*
X425626Y281470D02*
X425668Y281571D01*
X425583Y281369D02*
X425626Y281470D01*
X425540Y281268D02*
X425583Y281369D01*
X425488Y281154D02*
X425540Y281268D01*
X420127Y276009D02*
X420185Y276033D01*
X420069Y275985D02*
X420127Y276009D01*
X420010Y275962D02*
X420069Y275985D01*
X419952Y275939D02*
X420010Y275962D01*
X419893Y275916D02*
X419952Y275939D01*
X419834Y275894D02*
X419893Y275916D01*
X419776Y275872D02*
X419834Y275894D01*
X419716Y275850D02*
X419776Y275872D01*
X419657Y275829D02*
X419716Y275850D01*
X419598Y275808D02*
X419657Y275829D01*
X419538Y275788D02*
X419598Y275808D01*
X419479Y275768D02*
X419538Y275788D01*
X419419Y275748D02*
X419479Y275768D01*
X419359Y275729D02*
X419419Y275748D01*
X419299Y275710D02*
X419359Y275729D01*
X419239Y275692D02*
X419299Y275710D01*
X419179Y275674D02*
X419239Y275692D01*
X419119Y275657D02*
X419179Y275674D01*
X419058Y275640D02*
X419119Y275657D01*
X418998Y275624D02*
X419058Y275640D01*
X418937Y275608D02*
X418998Y275624D01*
X418876Y275592D02*
X418937Y275608D01*
X418815Y275577D02*
X418876Y275592D01*
X418755Y275562D02*
X418815Y275577D01*
X418694Y275548D02*
X418755Y275562D01*
X418632Y275535D02*
X418694Y275548D01*
X418571Y275522D02*
X418632Y275535D01*
X418510Y275509D02*
X418571Y275522D01*
X418479Y275503D02*
X418510Y275509D01*
X418448Y275497D02*
X418479Y275503D01*
X418418Y275491D02*
X418448Y275497D01*
X418387Y275485D02*
X418418Y275491D01*
X418356Y275480D02*
X418387Y275485D01*
X418325Y275474D02*
X418356Y275480D01*
X418295Y275469D02*
X418325Y275474D01*
X418264Y275464D02*
X418295Y275469D01*
X418233Y275459D02*
X418264Y275464D01*
X418202Y275454D02*
X418233Y275459D01*
X418171Y275449D02*
X418202Y275454D01*
X418140Y275444D02*
X418171Y275449D01*
X418109Y275439D02*
X418140Y275444D01*
X418078Y275435D02*
X418109Y275439D01*
X418047Y275430D02*
X418078Y275435D01*
X418017Y275426D02*
X418047Y275430D01*
X417985Y275422D02*
X418017Y275426D01*
X417954Y275417D02*
X417985Y275422D01*
X417939Y275415D02*
X417954Y275417D01*
X417923Y275413D02*
X417939Y275415D01*
X417908Y275411D02*
X417923Y275413D01*
X417892Y275409D02*
X417908Y275411D01*
X417877Y275407D02*
X417892Y275409D01*
X417861Y275405D02*
X417877Y275407D01*
X417846Y275403D02*
X417861Y275405D01*
X417830Y275401D02*
X417846Y275403D01*
X417815Y275399D02*
X417830Y275401D01*
X417799Y275398D02*
X417815Y275399D01*
X417784Y275396D02*
X417799Y275398D01*
X417768Y275394D02*
X417784Y275396D01*
X417752Y275392D02*
X417768Y275394D01*
X417737Y275390D02*
X417752Y275392D01*
X417721Y275389D02*
X417737Y275390D01*
X417706Y275387D02*
X417721Y275389D01*
X417690Y275385D02*
X417706Y275387D01*
X417675Y275383D02*
X417690Y275385D01*
X417659Y275382D02*
X417675Y275383D01*
X417644Y275380D02*
X417659Y275382D01*
X417628Y275378D02*
X417644Y275380D01*
X417612Y275377D02*
X417628Y275378D01*
X417597Y275375D02*
X417612Y275377D01*
X417581Y275374D02*
X417597Y275375D01*
X417566Y275372D02*
X417581Y275374D01*
X417550Y275371D02*
X417566Y275372D01*
X417534Y275369D02*
X417550Y275371D01*
X417519Y275368D02*
X417534Y275369D01*
X417503Y275366D02*
X417519Y275368D01*
X417488Y275364D02*
X417503Y275366D01*
X417472Y275363D02*
X417488Y275364D01*
X417456Y275362D02*
X417472Y275363D01*
X417441Y275360D02*
X417456Y275362D01*
X417425Y275359D02*
X417441Y275360D01*
X417410Y275357D02*
X417425Y275359D01*
X417394Y275356D02*
X417410Y275357D01*
X417378Y275355D02*
X417394Y275356D01*
X417363Y275353D02*
X417378Y275355D01*
X417347Y275352D02*
X417363Y275353D01*
X417331Y275351D02*
X417347Y275352D01*
X417316Y275349D02*
X417331Y275351D01*
X417300Y275348D02*
X417316Y275349D01*
X417284Y275347D02*
X417300Y275348D01*
X417269Y275345D02*
X417284Y275347D01*
X417253Y275344D02*
X417269Y275345D01*
X417237Y275343D02*
X417253Y275344D01*
X417222Y275342D02*
X417237Y275343D01*
X417206Y275340D02*
X417222Y275342D01*
X417191Y275339D02*
X417206Y275340D01*
X417175Y275338D02*
X417191Y275339D01*
X417159Y275337D02*
X417175Y275338D01*
X417144Y275336D02*
X417159Y275337D01*
X417128Y275334D02*
X417144Y275336D01*
X417112Y275333D02*
X417128Y275334D01*
X417096Y275332D02*
X417112Y275333D01*
X417081Y275331D02*
X417096Y275332D01*
X417065Y275330D02*
X417081Y275331D01*
X417049Y275329D02*
X417065Y275330D01*
X417034Y275328D02*
X417049Y275329D01*
X417018Y275327D02*
X417034Y275328D01*
X417002Y275326D02*
X417018Y275327D01*
X416987Y275324D02*
X417002Y275326D01*
X416971Y275323D02*
X416987Y275324D01*
X416955Y275322D02*
X416971Y275323D01*
X416940Y275321D02*
X416955Y275322D01*
X416924Y275320D02*
X416940Y275321D01*
X416908Y275319D02*
X416924Y275320D01*
X416893Y275318D02*
X416908Y275319D01*
X416877Y275317D02*
X416893Y275318D01*
X416861Y275316D02*
X416877Y275317D01*
X416846Y275315D02*
X416861Y275316D01*
X416830Y275314D02*
X416846Y275315D01*
X416814Y275313D02*
X416830Y275314D01*
X416799Y275312D02*
X416814Y275313D01*
X416783Y275311D02*
X416799Y275312D01*
X416767Y275310D02*
X416783Y275311D01*
X416751Y275309D02*
X416767Y275310D01*
X416736Y275308D02*
X416751Y275309D01*
X416720Y275307D02*
X416736Y275308D01*
X416704Y275306D02*
X416720Y275307D01*
X416689Y275306D02*
X416704Y275306D01*
X416673Y275305D02*
X416689Y275306D01*
X416657Y275304D02*
X416673Y275305D01*
X416642Y275303D02*
X416657Y275304D01*
X416626Y275302D02*
X416642Y275303D01*
X416610Y275301D02*
X416626Y275302D01*
X416594Y275300D02*
X416610Y275301D01*
X416579Y275299D02*
X416594Y275300D01*
X416563Y275298D02*
X416579Y275299D01*
X416547Y275297D02*
X416563Y275298D01*
X416531Y275296D02*
X416547Y275297D01*
X416516Y275295D02*
X416531Y275296D01*
X416500Y275294D02*
X416516Y275295D01*
X416484Y275294D02*
X416500Y275294D01*
X416469Y275293D02*
X416484Y275294D01*
X416453Y275292D02*
X416469Y275293D01*
X416437Y275291D02*
X416453Y275292D01*
X416422Y275290D02*
X416437Y275291D01*
X416406Y275289D02*
X416422Y275290D01*
X416390Y275288D02*
X416406Y275289D01*
X109507Y563948D02*
X109637Y564036D01*
X109754Y564114D01*
X109873Y564190D01*
X109993Y564264D01*
X110114Y564337D01*
X110236Y564408D01*
X110359Y564477D01*
X110483Y564545D01*
X110594Y564604D01*
X110706Y564661D01*
X110818Y564717D01*
X110931Y564772D01*
X111045Y564826D01*
X111188Y564891D01*
X111245Y564917D01*
X111303Y564942D01*
X111361Y564967D01*
X111419Y564991D01*
X111477Y565016D01*
X111535Y565039D01*
X111594Y565063D01*
X111652Y565086D01*
X111711Y565109D01*
X111770Y565131D01*
X111829Y565153D01*
X111888Y565175D01*
X111947Y565196D01*
X112007Y565217D01*
X112066Y565237D01*
X112126Y565257D01*
X112185Y565277D01*
X112245Y565296D01*
X112305Y565314D01*
X112365Y565333D01*
X112425Y565351D01*
X112486Y565368D01*
X112546Y565385D01*
X112607Y565401D01*
X112667Y565417D01*
X105228Y555751D02*
X105229Y555782D01*
X105229Y555798D01*
X105230Y555813D01*
X105230Y555829D01*
X105231Y555844D01*
X105231Y555860D01*
X105232Y555876D01*
X105232Y555892D01*
X105232Y555907D01*
X105233Y555923D01*
X105233Y555939D01*
X105234Y555954D01*
X105234Y555970D01*
X105235Y555986D01*
X105235Y556001D01*
X105236Y556017D01*
X105236Y556033D01*
X105237Y556048D01*
X105238Y556064D01*
X105238Y556080D01*
X105239Y556095D01*
X105239Y556111D01*
X105240Y556127D01*
X105240Y556142D01*
X105241Y556158D01*
X105242Y556174D01*
X105242Y556189D01*
X105243Y556205D01*
X105244Y556221D01*
X105244Y556236D01*
X105245Y556252D01*
X105246Y556268D01*
X105246Y556283D01*
X105247Y556299D01*
X105248Y556315D01*
X105248Y556330D01*
X105249Y556346D01*
X105250Y556362D01*
X105251Y556377D01*
X105252Y556393D01*
X105252Y556409D01*
X105253Y556424D01*
X105254Y556440D01*
X105255Y556455D01*
X105256Y556471D01*
X105257Y556487D01*
X105258Y556502D01*
X105259Y556518D01*
X105260Y556534D01*
X105261Y556549D01*
X105262Y556565D01*
X105263Y556581D01*
X105264Y556596D01*
X105265Y556612D01*
X105266Y556627D01*
X105267Y556643D01*
X105269Y556659D01*
X105270Y556674D01*
X105271Y556690D01*
X105273Y556706D01*
X105274Y556721D01*
X105275Y556737D01*
X105276Y556752D01*
X105278Y556768D01*
X105279Y556783D01*
X105281Y556799D01*
X105282Y556815D01*
X105292Y556908D01*
X105297Y556955D01*
X105302Y557002D01*
X105308Y557048D01*
X105314Y557095D01*
X105320Y557142D01*
X105326Y557188D01*
X105333Y557235D01*
X105340Y557281D01*
X105347Y557328D01*
X105355Y557374D01*
X105363Y557421D01*
X105370Y557467D01*
X105379Y557513D01*
X105387Y557560D01*
X105396Y557606D01*
X105405Y557652D01*
X105414Y557698D01*
X105423Y557744D01*
X105432Y557790D01*
X105442Y557836D01*
X105494Y558066D02*
X105520Y558173D01*
X105547Y558279D01*
X105575Y558385D01*
X105605Y558491D01*
X105636Y558596D01*
X105668Y558701D01*
X105705Y558820D01*
X105781Y559043D02*
X105818Y559146D01*
X105856Y559249D01*
X105896Y559352D01*
X105936Y559454D01*
X105978Y559555D01*
X106021Y559656D01*
X106065Y559757D01*
X106116Y559871D01*
X113248Y565545D02*
X113279Y565550D01*
X113310Y565556D01*
X113341Y565561D01*
X113371Y565566D01*
X113402Y565571D01*
X113433Y565576D01*
X113464Y565581D01*
X113495Y565586D01*
X113526Y565590D01*
X113557Y565595D01*
X113588Y565599D01*
X113619Y565603D01*
X113650Y565608D01*
X113665Y565610D01*
X113681Y565612D01*
X113696Y565614D01*
X113712Y565616D01*
X113727Y565618D01*
X113743Y565620D01*
X113758Y565622D01*
X113774Y565624D01*
X113790Y565625D01*
X113805Y565627D01*
X113821Y565629D01*
X113836Y565631D01*
X113852Y565633D01*
X113867Y565634D01*
X113883Y565636D01*
X113898Y565638D01*
X113914Y565640D01*
X113930Y565642D01*
X113945Y565643D01*
X113961Y565645D01*
X113976Y565646D01*
X113992Y565648D01*
X114008Y565650D01*
X114023Y565651D01*
X114039Y565653D01*
X114054Y565654D01*
X114070Y565656D01*
X114086Y565657D01*
X114101Y565659D01*
X114117Y565660D01*
X114132Y565662D01*
X114148Y565663D01*
X114164Y565665D01*
X114179Y565666D01*
X114195Y565668D01*
X114210Y565669D01*
X114226Y565670D01*
X114242Y565672D01*
X114257Y565673D01*
X114273Y565674D01*
X114289Y565676D01*
X114304Y565677D01*
X114320Y565678D01*
X114335Y565680D01*
X114351Y565681D01*
X114367Y565682D01*
X114382Y565683D01*
X114398Y565685D01*
X114414Y565686D01*
X114429Y565687D01*
X114445Y565688D01*
X114461Y565689D01*
X114476Y565690D01*
X114492Y565692D01*
X114508Y565693D01*
X114523Y565694D01*
X114539Y565695D01*
X114555Y565696D01*
X114571Y565697D01*
X114586Y565698D01*
X114602Y565699D01*
X114618Y565700D01*
X114633Y565701D01*
X114649Y565703D01*
X114665Y565704D01*
X114680Y565705D01*
X114696Y565706D01*
X114712Y565707D01*
X114727Y565708D01*
X114743Y565709D01*
X114759Y565710D01*
X114774Y565711D01*
X114790Y565712D01*
X114806Y565713D01*
X114822Y565714D01*
X114837Y565715D01*
X114853Y565716D01*
X114869Y565717D01*
X114884Y565718D01*
X114900Y565718D01*
X114916Y565719D01*
X114931Y565720D01*
X114947Y565721D01*
X114963Y565722D01*
X114979Y565723D01*
X114994Y565724D01*
X115010Y565725D01*
X115026Y565726D01*
X115041Y565727D01*
X115057Y565728D01*
X115073Y565729D01*
X115089Y565730D01*
X115104Y565730D01*
X115120Y565731D01*
X115136Y565732D01*
X115151Y565733D01*
X115167Y565734D01*
X115183Y565735D01*
X115198Y565736D01*
X115214Y565737D01*
X112667Y565417D02*
X112728Y565433D01*
X112789Y565448D01*
X112850Y565462D01*
X112911Y565477D01*
X112972Y565490D01*
X113033Y565503D01*
X113094Y565516D01*
X113125Y565522D01*
X113156Y565528D01*
X113187Y565534D01*
X113217Y565539D01*
X113248Y565545D01*
X115183Y275289D02*
X115214Y275288D01*
X115167Y275289D02*
X115183Y275289D01*
X115151Y275290D02*
X115167Y275289D01*
X115136Y275291D02*
X115151Y275290D01*
X115120Y275291D02*
X115136Y275291D01*
X115104Y275291D02*
X115120Y275291D01*
X115089Y275292D02*
X115104Y275291D01*
X115073Y275292D02*
X115089Y275292D01*
X115057Y275293D02*
X115073Y275292D01*
X115042Y275293D02*
X115057Y275293D01*
X115026Y275294D02*
X115042Y275293D01*
X115010Y275294D02*
X115026Y275294D01*
X114995Y275295D02*
X115010Y275294D01*
X114979Y275295D02*
X114995Y275295D01*
X114963Y275296D02*
X114979Y275295D01*
X114948Y275296D02*
X114963Y275296D01*
X114932Y275297D02*
X114948Y275296D01*
X114916Y275297D02*
X114932Y275297D01*
X114901Y275298D02*
X114916Y275297D01*
X114885Y275298D02*
X114901Y275298D01*
X114869Y275299D02*
X114885Y275298D01*
X114854Y275299D02*
X114869Y275299D01*
X114838Y275300D02*
X114854Y275299D01*
X114822Y275301D02*
X114838Y275300D01*
X114807Y275301D02*
X114822Y275301D01*
X114791Y275302D02*
X114807Y275301D01*
X114775Y275303D02*
X114791Y275302D01*
X114760Y275303D02*
X114775Y275303D01*
X114744Y275304D02*
X114760Y275303D01*
X114728Y275305D02*
X114744Y275304D01*
X114713Y275305D02*
X114728Y275305D01*
X114697Y275306D02*
X114713Y275305D01*
X114681Y275306D02*
X114697Y275306D01*
X114666Y275307D02*
X114681Y275306D01*
X114650Y275308D02*
X114666Y275307D01*
X114634Y275309D02*
X114650Y275308D01*
X114619Y275310D02*
X114634Y275309D01*
X114603Y275310D02*
X114619Y275310D01*
X114587Y275311D02*
X114603Y275310D01*
X114572Y275312D02*
X114587Y275311D01*
X114556Y275313D02*
X114572Y275312D01*
X114540Y275314D02*
X114556Y275313D01*
X114525Y275315D02*
X114540Y275314D01*
X114509Y275315D02*
X114525Y275315D01*
X114494Y275316D02*
X114509Y275315D01*
X114478Y275317D02*
X114494Y275316D01*
X114462Y275318D02*
X114478Y275317D01*
X114447Y275319D02*
X114462Y275318D01*
X114431Y275320D02*
X114447Y275319D01*
X114415Y275321D02*
X114431Y275320D01*
X114400Y275322D02*
X114415Y275321D01*
X114384Y275323D02*
X114400Y275322D01*
X114368Y275324D02*
X114384Y275323D01*
X114353Y275326D02*
X114368Y275324D01*
X114337Y275327D02*
X114353Y275326D01*
X114322Y275328D02*
X114337Y275327D01*
X114306Y275329D02*
X114322Y275328D01*
X114290Y275330D02*
X114306Y275329D01*
X114275Y275331D02*
X114290Y275330D01*
X114259Y275333D02*
X114275Y275331D01*
X114243Y275334D02*
X114259Y275333D01*
X114228Y275335D02*
X114243Y275334D01*
X114212Y275337D02*
X114228Y275335D01*
X114197Y275338D02*
X114212Y275337D01*
X114181Y275340D02*
X114197Y275338D01*
X114165Y275341D02*
X114181Y275340D01*
X114150Y275343D02*
X114165Y275341D01*
X114056Y275352D02*
X114150Y275343D01*
X114010Y275357D02*
X114056Y275352D01*
X113963Y275362D02*
X114010Y275357D01*
X113916Y275368D02*
X113963Y275362D01*
X113870Y275374D02*
X113916Y275368D01*
X113823Y275380D02*
X113870Y275374D01*
X113777Y275387D02*
X113823Y275380D01*
X113730Y275394D02*
X113777Y275387D01*
X113683Y275401D02*
X113730Y275394D01*
X113637Y275408D02*
X113683Y275401D01*
X113590Y275415D02*
X113637Y275408D01*
X113544Y275423D02*
X113590Y275415D01*
X113498Y275431D02*
X113544Y275423D01*
X113451Y275439D02*
X113498Y275431D01*
X113405Y275447D02*
X113451Y275439D01*
X113359Y275456D02*
X113405Y275447D01*
X113313Y275465D02*
X113359Y275456D01*
X113266Y275474D02*
X113313Y275465D01*
X113220Y275483D02*
X113266Y275474D01*
X113174Y275493D02*
X113220Y275483D01*
X113128Y275502D02*
X113174Y275493D01*
X112792Y275580D02*
X112899Y275554D01*
X112686Y275607D02*
X112792Y275580D01*
X112580Y275636D02*
X112686Y275607D01*
X112474Y275665D02*
X112580Y275636D01*
X112369Y275696D02*
X112474Y275665D01*
X112264Y275728D02*
X112369Y275696D01*
X112144Y275766D02*
X112264Y275728D01*
X111818Y275878D02*
X111921Y275841D01*
X111715Y275917D02*
X111818Y275878D01*
X111613Y275956D02*
X111715Y275917D01*
X111511Y275997D02*
X111613Y275956D01*
X111409Y276038D02*
X111511Y275997D01*
X111308Y276081D02*
X111409Y276038D01*
X111208Y276125D02*
X111308Y276081D01*
X111093Y276177D02*
X111208Y276125D01*
X106928Y279697D02*
X107016Y279568D01*
X106851Y279815D02*
X106928Y279697D01*
X106775Y279934D02*
X106851Y279815D01*
X106700Y280054D02*
X106775Y279934D01*
X106628Y280175D02*
X106700Y280054D01*
X106557Y280297D02*
X106628Y280175D01*
X106487Y280420D02*
X106557Y280297D01*
X106420Y280543D02*
X106487Y280420D01*
X106361Y280654D02*
X106420Y280543D01*
X106303Y280766D02*
X106361Y280654D01*
X106247Y280879D02*
X106303Y280766D01*
X106073Y281248D02*
X106139Y281105D01*
X106048Y281306D02*
X106073Y281248D01*
X106023Y281364D02*
X106048Y281306D01*
X105998Y281421D02*
X106023Y281364D01*
X105973Y281479D02*
X105998Y281421D01*
X105949Y281537D02*
X105973Y281479D01*
X105925Y281596D02*
X105949Y281537D01*
X105902Y281654D02*
X105925Y281596D01*
X105878Y281713D02*
X105902Y281654D01*
X105856Y281771D02*
X105878Y281713D01*
X105833Y281830D02*
X105856Y281771D01*
X105811Y281889D02*
X105833Y281830D01*
X105790Y281948D02*
X105811Y281889D01*
X105769Y282008D02*
X105790Y281948D01*
X105748Y282067D02*
X105769Y282008D01*
X105727Y282126D02*
X105748Y282067D01*
X105708Y282186D02*
X105727Y282126D01*
X105688Y282246D02*
X105708Y282186D01*
X105669Y282306D02*
X105688Y282246D01*
X105650Y282365D02*
X105669Y282306D01*
X105632Y282425D02*
X105650Y282365D01*
X105614Y282486D02*
X105632Y282425D01*
X105597Y282546D02*
X105614Y282486D01*
X105580Y282606D02*
X105597Y282546D01*
X105563Y282667D02*
X105580Y282606D01*
X105547Y282728D02*
X105563Y282667D01*
X105532Y282788D02*
X105547Y282728D01*
X105517Y282849D02*
X105532Y282788D01*
X105502Y282910D02*
X105517Y282849D01*
X105488Y282971D02*
X105502Y282910D01*
X105475Y283032D02*
X105488Y282971D01*
X105461Y283093D02*
X105475Y283032D01*
X105449Y283155D02*
X105461Y283093D01*
X105443Y283185D02*
X105449Y283155D01*
X105437Y283216D02*
X105443Y283185D01*
X105431Y283247D02*
X105437Y283216D01*
X105425Y283278D02*
X105431Y283247D01*
X105420Y283308D02*
X105425Y283278D01*
X105414Y283339D02*
X105420Y283308D01*
X105409Y283370D02*
X105414Y283339D01*
X105403Y283401D02*
X105409Y283370D01*
X105398Y283432D02*
X105403Y283401D01*
X105393Y283463D02*
X105398Y283432D01*
X105388Y283493D02*
X105393Y283463D01*
X105384Y283524D02*
X105388Y283493D01*
X105379Y283555D02*
X105384Y283524D01*
X105374Y283586D02*
X105379Y283555D01*
X105370Y283617D02*
X105374Y283586D01*
X105365Y283648D02*
X105370Y283617D01*
X105361Y283679D02*
X105365Y283648D01*
X105357Y283710D02*
X105361Y283679D01*
X105355Y283726D02*
X105357Y283710D01*
X105353Y283741D02*
X105355Y283726D01*
X105351Y283757D02*
X105353Y283741D01*
X105349Y283772D02*
X105351Y283757D01*
X105347Y283788D02*
X105349Y283772D01*
X105345Y283803D02*
X105347Y283788D01*
X105343Y283819D02*
X105345Y283803D01*
X105341Y283834D02*
X105343Y283819D01*
X105339Y283850D02*
X105341Y283834D01*
X105337Y283865D02*
X105339Y283850D01*
X105336Y283881D02*
X105337Y283865D01*
X105334Y283897D02*
X105336Y283881D01*
X105332Y283912D02*
X105334Y283897D01*
X105330Y283928D02*
X105332Y283912D01*
X105328Y283943D02*
X105330Y283928D01*
X105327Y283959D02*
X105328Y283943D01*
X105325Y283974D02*
X105327Y283959D01*
X105323Y283990D02*
X105325Y283974D01*
X105322Y284006D02*
X105323Y283990D01*
X105320Y284021D02*
X105322Y284006D01*
X105318Y284037D02*
X105320Y284021D01*
X105316Y284052D02*
X105318Y284037D01*
X105315Y284068D02*
X105316Y284052D01*
X105313Y284083D02*
X105315Y284068D01*
X105312Y284099D02*
X105313Y284083D01*
X105310Y284115D02*
X105312Y284099D01*
X105309Y284130D02*
X105310Y284115D01*
X105307Y284146D02*
X105309Y284130D01*
X105306Y284161D02*
X105307Y284146D01*
X105304Y284177D02*
X105306Y284161D01*
X105303Y284193D02*
X105304Y284177D01*
X105301Y284208D02*
X105303Y284193D01*
X105300Y284224D02*
X105301Y284208D01*
X105298Y284240D02*
X105300Y284224D01*
X105297Y284255D02*
X105298Y284240D01*
X105296Y284271D02*
X105297Y284255D01*
X105294Y284286D02*
X105296Y284271D01*
X105293Y284302D02*
X105294Y284286D01*
X105292Y284318D02*
X105293Y284302D01*
X105290Y284333D02*
X105292Y284318D01*
X105289Y284349D02*
X105290Y284333D01*
X105288Y284365D02*
X105289Y284349D01*
X105286Y284380D02*
X105288Y284365D01*
X105285Y284396D02*
X105286Y284380D01*
X105284Y284412D02*
X105285Y284396D01*
X105282Y284427D02*
X105284Y284412D01*
X105281Y284443D02*
X105282Y284427D01*
X105280Y284459D02*
X105281Y284443D01*
X105279Y284474D02*
X105280Y284459D01*
X105278Y284490D02*
X105279Y284474D01*
X105276Y284506D02*
X105278Y284490D01*
X105275Y284521D02*
X105276Y284506D01*
X105274Y284537D02*
X105275Y284521D01*
X105273Y284552D02*
X105274Y284537D01*
X105272Y284568D02*
X105273Y284552D01*
X105271Y284584D02*
X105272Y284568D01*
X105270Y284599D02*
X105271Y284584D01*
X105268Y284615D02*
X105270Y284599D01*
X105267Y284631D02*
X105268Y284615D01*
X105266Y284646D02*
X105267Y284631D01*
X105265Y284662D02*
X105266Y284646D01*
X105264Y284678D02*
X105265Y284662D01*
X105263Y284694D02*
X105264Y284678D01*
X105262Y284709D02*
X105263Y284694D01*
X105261Y284725D02*
X105262Y284709D01*
X105260Y284741D02*
X105261Y284725D01*
X105259Y284756D02*
X105260Y284741D01*
X105258Y284772D02*
X105259Y284756D01*
X105257Y284788D02*
X105258Y284772D01*
X105256Y284803D02*
X105257Y284788D01*
X105255Y284819D02*
X105256Y284803D01*
X105254Y284835D02*
X105255Y284819D01*
X105253Y284850D02*
X105254Y284835D01*
X105252Y284866D02*
X105253Y284850D01*
X105251Y284882D02*
X105252Y284866D01*
X105250Y284897D02*
X105251Y284882D01*
X105249Y284913D02*
X105250Y284897D01*
X105248Y284929D02*
X105249Y284913D01*
X105247Y284945D02*
X105248Y284929D01*
X105246Y284960D02*
X105247Y284945D01*
X105245Y284976D02*
X105246Y284960D01*
X105244Y284992D02*
X105245Y284976D01*
X105243Y285007D02*
X105244Y284992D01*
X105242Y285023D02*
X105243Y285007D01*
X105241Y285039D02*
X105242Y285023D01*
X105240Y285054D02*
X105241Y285039D01*
X105240Y285070D02*
X105240Y285054D01*
X105239Y285086D02*
X105240Y285070D01*
X105238Y285102D02*
X105239Y285086D01*
X105237Y285117D02*
X105238Y285102D01*
X105236Y285133D02*
X105237Y285117D01*
X105235Y285149D02*
X105236Y285133D01*
X105234Y285165D02*
X105235Y285149D01*
X105233Y285180D02*
X105234Y285165D01*
X105232Y285196D02*
X105233Y285180D01*
X105231Y285212D02*
X105232Y285196D01*
X105231Y285227D02*
X105231Y285212D01*
X105230Y285243D02*
X105231Y285227D01*
X105229Y285259D02*
X105230Y285243D01*
X105228Y285275D02*
X105229Y285259D01*
X106192Y280992D02*
X106247Y280879D01*
X106139Y281105D02*
X106192Y280992D01*
X149845Y531081D02*
X381759D01*
X149845Y309944D02*
X381759D01*
X391721Y319905D02*
Y521119D01*
X139883Y319905D02*
Y521119D01*
X391033Y524776D02*
X391056Y524718D01*
X391079Y524659D01*
X391102Y524600D01*
X391124Y524542D01*
X391146Y524483D01*
X391167Y524424D01*
X391188Y524365D01*
X391209Y524305D01*
X391229Y524246D01*
X391249Y524187D01*
X391268Y524127D01*
X391287Y524067D01*
X391306Y524007D01*
X391324Y523947D01*
X391341Y523887D01*
X391358Y523827D01*
X391375Y523767D01*
X391391Y523706D01*
X391407Y523646D01*
X391423Y523585D01*
X391437Y523524D01*
X391452Y523464D01*
X391466Y523403D01*
X391479Y523341D01*
X391492Y523280D01*
X391510Y523189D01*
X391516Y523158D01*
X391522Y523127D01*
X391528Y523097D01*
X391533Y523066D01*
X391539Y523035D01*
X391544Y523004D01*
X391549Y522974D01*
X391554Y522943D01*
X391559Y522912D01*
X391564Y522881D01*
X391568Y522850D01*
X391573Y522819D01*
X391578Y522789D01*
X391582Y522758D01*
X391586Y522727D01*
X391591Y522696D01*
X391593Y522680D01*
X391595Y522665D01*
X391597Y522649D01*
X391599Y522634D01*
X391601Y522618D01*
X391603Y522603D01*
X391605Y522587D01*
X391607Y522572D01*
X391609Y522556D01*
X391610Y522541D01*
X391612Y522525D01*
X391614Y522510D01*
X391616Y522494D01*
X391618Y522479D01*
X391619Y522463D01*
X391621Y522448D01*
X391623Y522432D01*
X391625Y522417D01*
X391626Y522401D01*
X391628Y522386D01*
X391630Y522370D01*
X391631Y522355D01*
X391633Y522339D01*
X391634Y522323D01*
X391636Y522308D01*
X391638Y522292D01*
X391639Y522277D01*
X391641Y522261D01*
X391642Y522246D01*
X391644Y522230D01*
X391645Y522214D01*
X391647Y522199D01*
X391648Y522183D01*
X391650Y522168D01*
X391651Y522152D01*
X391652Y522136D01*
X391654Y522121D01*
X391655Y522105D01*
X391656Y522090D01*
X391658Y522074D01*
X391659Y522058D01*
X391660Y522043D01*
X391662Y522027D01*
X391663Y522012D01*
X391664Y521996D01*
X391665Y521981D01*
X391667Y521965D01*
X391668Y521949D01*
X391669Y521934D01*
X391670Y521918D01*
X391671Y521902D01*
X391673Y521887D01*
X391674Y521871D01*
X391675Y521856D01*
X391676Y521840D01*
X391677Y521824D01*
X391678Y521809D01*
X391679Y521793D01*
X391681Y521777D01*
X391682Y521762D01*
X391683Y521746D01*
X391684Y521730D01*
X391685Y521715D01*
X391686Y521699D01*
X391687Y521683D01*
X391688Y521668D01*
X391689Y521652D01*
X391690Y521637D01*
X391691Y521621D01*
X391692Y521605D01*
X391693Y521590D01*
X391694Y521574D01*
X391695Y521558D01*
X391696Y521543D01*
X391697Y521527D01*
X391698Y521511D01*
X391699Y521496D01*
X391700Y521480D01*
X391701Y521464D01*
X391702Y521449D01*
X391703Y521433D01*
X391704Y521417D01*
X391705Y521401D01*
X391706Y521386D01*
X391707Y521370D01*
X391707Y521354D01*
X391708Y521339D01*
X391709Y521323D01*
X391710Y521307D01*
X391711Y521292D01*
X391712Y521276D01*
X391713Y521260D01*
X391714Y521245D01*
X391715Y521229D01*
X391716Y521213D01*
X391717Y521198D01*
X391717Y521182D01*
X391718Y521166D01*
X391719Y521151D01*
X391720Y521135D01*
X391721Y521119D01*
X390080Y526607D02*
X390156Y526489D01*
X390230Y526370D01*
X390303Y526249D01*
X390375Y526128D01*
X390444Y526006D01*
X390512Y525882D01*
X390571Y525772D01*
X390629Y525660D01*
X390686Y525549D01*
X390741Y525436D01*
X390795Y525323D01*
X390886Y525123D02*
X390911Y525065D01*
X390937Y525008D01*
X390961Y524950D01*
X381759Y531081D02*
X381790Y531081D01*
X381806Y531080D01*
X381822Y531080D01*
X381837Y531079D01*
X381853Y531079D01*
X381869Y531078D01*
X381884Y531078D01*
X381900Y531077D01*
X381916Y531077D01*
X381931Y531076D01*
X381947Y531076D01*
X381963Y531075D01*
X381978Y531075D01*
X381994Y531074D01*
X382009Y531074D01*
X382025Y531073D01*
X382041Y531073D01*
X382056Y531072D01*
X382072Y531072D01*
X382088Y531071D01*
X382103Y531071D01*
X382119Y531070D01*
X382135Y531069D01*
X382150Y531069D01*
X382166Y531068D01*
X382181Y531068D01*
X382197Y531067D01*
X382213Y531067D01*
X382228Y531066D01*
X382244Y531065D01*
X382259Y531064D01*
X382275Y531064D01*
X382291Y531063D01*
X382306Y531062D01*
X382322Y531062D01*
X382338Y531061D01*
X382353Y531060D01*
X382369Y531059D01*
X382384Y531059D01*
X382400Y531058D01*
X382416Y531057D01*
X382431Y531056D01*
X382447Y531055D01*
X382463Y531054D01*
X382478Y531053D01*
X382494Y531053D01*
X382509Y531051D01*
X382525Y531051D01*
X382541Y531050D01*
X382556Y531049D01*
X382572Y531048D01*
X382587Y531046D01*
X382603Y531045D01*
X382618Y531044D01*
X382634Y531043D01*
X382650Y531042D01*
X382665Y531041D01*
X382681Y531040D01*
X382696Y531038D01*
X382712Y531037D01*
X382728Y531036D01*
X382743Y531034D01*
X382759Y531033D01*
X382774Y531032D01*
X382790Y531030D01*
X382805Y531029D01*
X382821Y531027D01*
X382930Y531016D01*
X382976Y531011D01*
X383023Y531006D01*
X383070Y531000D01*
X383116Y530994D01*
X383163Y530988D01*
X383209Y530981D01*
X383256Y530974D01*
X383302Y530967D01*
X383348Y530960D01*
X383395Y530953D01*
X383441Y530945D01*
X383487Y530937D01*
X383534Y530929D01*
X383580Y530920D01*
X383626Y530912D01*
X383672Y530903D01*
X383718Y530894D01*
X383764Y530884D01*
X383810Y530875D01*
X383856Y530865D01*
X384024Y530827D01*
X384131Y530802D01*
X384237Y530776D01*
X384343Y530748D01*
X384448Y530719D01*
X384554Y530689D01*
X384659Y530658D01*
X384763Y530625D01*
X384882Y530587D01*
X385001Y530547D01*
X385118Y530505D01*
X385236Y530462D01*
X385353Y530417D01*
X385469Y530371D01*
X385585Y530323D01*
X385700Y530274D01*
X385814Y530223D01*
X390961Y524950D02*
X390985Y524892D01*
X391009Y524834D01*
X391033Y524776D01*
X391720Y319874D02*
X391721Y319905D01*
X391720Y319859D02*
X391720Y319874D01*
X391719Y319843D02*
X391720Y319859D01*
X391719Y319827D02*
X391719Y319843D01*
X391718Y319812D02*
X391719Y319827D01*
X391718Y319796D02*
X391718Y319812D01*
X391717Y319780D02*
X391718Y319796D01*
X391717Y319765D02*
X391717Y319780D01*
X391716Y319749D02*
X391717Y319765D01*
X391716Y319733D02*
X391716Y319749D01*
X391716Y319718D02*
X391716Y319733D01*
X391715Y319702D02*
X391716Y319718D01*
X391715Y319687D02*
X391715Y319702D01*
X391714Y319671D02*
X391715Y319687D01*
X391713Y319655D02*
X391714Y319671D01*
X391713Y319640D02*
X391713Y319655D01*
X391712Y319624D02*
X391713Y319640D01*
X391712Y319608D02*
X391712Y319624D01*
X391711Y319593D02*
X391712Y319608D01*
X391711Y319577D02*
X391711Y319593D01*
X391710Y319561D02*
X391711Y319577D01*
X391710Y319546D02*
X391710Y319561D01*
X391709Y319530D02*
X391710Y319546D01*
X391709Y319515D02*
X391709Y319530D01*
X391708Y319499D02*
X391709Y319515D01*
X391707Y319483D02*
X391708Y319499D01*
X391707Y319468D02*
X391707Y319483D01*
X391706Y319452D02*
X391707Y319468D01*
X391706Y319436D02*
X391706Y319452D01*
X391705Y319421D02*
X391706Y319436D01*
X391704Y319405D02*
X391705Y319421D01*
X391703Y319389D02*
X391704Y319405D01*
X391703Y319374D02*
X391703Y319389D01*
X391702Y319358D02*
X391703Y319374D01*
X391701Y319343D02*
X391702Y319358D01*
X391701Y319327D02*
X391701Y319343D01*
X391700Y319311D02*
X391701Y319327D01*
X391699Y319296D02*
X391700Y319311D01*
X391698Y319280D02*
X391699Y319296D01*
X391697Y319265D02*
X391698Y319280D01*
X391697Y319249D02*
X391697Y319265D01*
X391696Y319233D02*
X391697Y319249D01*
X391695Y319218D02*
X391696Y319233D01*
X391694Y319202D02*
X391695Y319218D01*
X391693Y319186D02*
X391694Y319202D01*
X391692Y319171D02*
X391693Y319186D01*
X391691Y319155D02*
X391692Y319171D01*
X391690Y319140D02*
X391691Y319155D01*
X391689Y319124D02*
X391690Y319140D01*
X391688Y319109D02*
X391689Y319124D01*
X391687Y319093D02*
X391688Y319109D01*
X391686Y319077D02*
X391687Y319093D01*
X391685Y319062D02*
X391686Y319077D01*
X391684Y319046D02*
X391685Y319062D01*
X391683Y319030D02*
X391684Y319046D01*
X391682Y319015D02*
X391683Y319030D01*
X391680Y318999D02*
X391682Y319015D01*
X391679Y318984D02*
X391680Y318999D01*
X391678Y318968D02*
X391679Y318984D01*
X391677Y318953D02*
X391678Y318968D01*
X391675Y318937D02*
X391677Y318953D01*
X391674Y318922D02*
X391675Y318937D01*
X391673Y318906D02*
X391674Y318922D01*
X391671Y318890D02*
X391673Y318906D01*
X391670Y318875D02*
X391671Y318890D01*
X391669Y318859D02*
X391670Y318875D01*
X391667Y318844D02*
X391669Y318859D01*
X391656Y318735D02*
X391667Y318844D01*
X391651Y318688D02*
X391656Y318735D01*
X391645Y318642D02*
X391651Y318688D01*
X391640Y318595D02*
X391645Y318642D01*
X391634Y318549D02*
X391640Y318595D01*
X391627Y318502D02*
X391634Y318549D01*
X391621Y318456D02*
X391627Y318502D01*
X391614Y318409D02*
X391621Y318456D01*
X391607Y318363D02*
X391614Y318409D01*
X391600Y318316D02*
X391607Y318363D01*
X391592Y318270D02*
X391600Y318316D01*
X391585Y318224D02*
X391592Y318270D01*
X391577Y318177D02*
X391585Y318224D01*
X391568Y318131D02*
X391577Y318177D01*
X391560Y318085D02*
X391568Y318131D01*
X391551Y318039D02*
X391560Y318085D01*
X391542Y317993D02*
X391551Y318039D01*
X391533Y317947D02*
X391542Y317993D01*
X391524Y317901D02*
X391533Y317947D01*
X391515Y317855D02*
X391524Y317901D01*
X391505Y317809D02*
X391515Y317855D01*
X391467Y317641D02*
X391505Y317809D01*
X391442Y317534D02*
X391467Y317641D01*
X391415Y317428D02*
X391442Y317534D01*
X391388Y317322D02*
X391415Y317428D01*
X391359Y317216D02*
X391388Y317322D01*
X391329Y317111D02*
X391359Y317216D01*
X391297Y317006D02*
X391329Y317111D01*
X391265Y316902D02*
X391297Y317006D01*
X391226Y316782D02*
X391265Y316902D01*
X391186Y316664D02*
X391226Y316782D01*
X391145Y316546D02*
X391186Y316664D01*
X391101Y316429D02*
X391145Y316546D01*
X391057Y316312D02*
X391101Y316429D01*
X391010Y316196D02*
X391057Y316312D01*
X390962Y316080D02*
X391010Y316196D01*
X390913Y315965D02*
X390962Y316080D01*
X390863Y315850D02*
X390913Y315965D01*
X385532Y310679D02*
X385590Y310703D01*
X385474Y310655D02*
X385532Y310679D01*
X385416Y310631D02*
X385474Y310655D01*
X385357Y310608D02*
X385416Y310631D01*
X385299Y310585D02*
X385357Y310608D01*
X385240Y310563D02*
X385299Y310585D01*
X385181Y310541D02*
X385240Y310563D01*
X385122Y310519D02*
X385181Y310541D01*
X385064Y310497D02*
X385122Y310519D01*
X385004Y310476D02*
X385064Y310497D01*
X384945Y310456D02*
X385004Y310476D01*
X384886Y310436D02*
X384945Y310456D01*
X384826Y310416D02*
X384886Y310436D01*
X384767Y310396D02*
X384826Y310416D01*
X384707Y310378D02*
X384767Y310396D01*
X384647Y310359D02*
X384707Y310378D01*
X384587Y310341D02*
X384647Y310359D01*
X384527Y310323D02*
X384587Y310341D01*
X384467Y310306D02*
X384527Y310323D01*
X384406Y310289D02*
X384467Y310306D01*
X384346Y310273D02*
X384406Y310289D01*
X384285Y310257D02*
X384346Y310273D01*
X384225Y310242D02*
X384285Y310257D01*
X384164Y310227D02*
X384225Y310242D01*
X384103Y310213D02*
X384164Y310227D01*
X384042Y310199D02*
X384103Y310213D01*
X383981Y310186D02*
X384042Y310199D01*
X383920Y310173D02*
X383981Y310186D01*
X383828Y310154D02*
X383920Y310173D01*
X383798Y310148D02*
X383828Y310154D01*
X383767Y310143D02*
X383798Y310148D01*
X383736Y310137D02*
X383767Y310143D01*
X383705Y310131D02*
X383736Y310137D01*
X383675Y310126D02*
X383705Y310131D01*
X383644Y310121D02*
X383675Y310126D01*
X383613Y310116D02*
X383644Y310121D01*
X383582Y310111D02*
X383613Y310116D01*
X383552Y310106D02*
X383582Y310111D01*
X383521Y310101D02*
X383552Y310106D01*
X383490Y310096D02*
X383521Y310101D01*
X383459Y310091D02*
X383490Y310096D01*
X383428Y310087D02*
X383459Y310091D01*
X383397Y310083D02*
X383428Y310087D01*
X383366Y310078D02*
X383397Y310083D01*
X383335Y310074D02*
X383366Y310078D01*
X383320Y310072D02*
X383335Y310074D01*
X383304Y310070D02*
X383320Y310072D01*
X383289Y310068D02*
X383304Y310070D01*
X383274Y310066D02*
X383289Y310068D01*
X383258Y310064D02*
X383274Y310066D01*
X383243Y310062D02*
X383258Y310064D01*
X383227Y310060D02*
X383243Y310062D01*
X383212Y310058D02*
X383227Y310060D01*
X383196Y310056D02*
X383212Y310058D01*
X383181Y310054D02*
X383196Y310056D01*
X383165Y310052D02*
X383181Y310054D01*
X383149Y310051D02*
X383165Y310052D01*
X383134Y310049D02*
X383149Y310051D01*
X383119Y310047D02*
X383134Y310049D01*
X383103Y310045D02*
X383119Y310047D01*
X383087Y310043D02*
X383103Y310045D01*
X383072Y310042D02*
X383087Y310043D01*
X383056Y310040D02*
X383072Y310042D01*
X383041Y310038D02*
X383056Y310040D01*
X383025Y310037D02*
X383041Y310038D01*
X383010Y310035D02*
X383025Y310037D01*
X382994Y310033D02*
X383010Y310035D01*
X382979Y310032D02*
X382994Y310033D01*
X382963Y310030D02*
X382979Y310032D01*
X382948Y310029D02*
X382963Y310030D01*
X382932Y310027D02*
X382948Y310029D01*
X382916Y310026D02*
X382932Y310027D01*
X382901Y310024D02*
X382916Y310026D01*
X382885Y310022D02*
X382901Y310024D01*
X382870Y310021D02*
X382885Y310022D01*
X382854Y310019D02*
X382870Y310021D01*
X382839Y310018D02*
X382854Y310019D01*
X382823Y310017D02*
X382839Y310018D01*
X382807Y310015D02*
X382823Y310017D01*
X382792Y310014D02*
X382807Y310015D01*
X382776Y310012D02*
X382792Y310014D01*
X382761Y310011D02*
X382776Y310012D01*
X382745Y310010D02*
X382761Y310011D01*
X382729Y310008D02*
X382745Y310010D01*
X382714Y310007D02*
X382729Y310008D01*
X382698Y310006D02*
X382714Y310007D01*
X382683Y310004D02*
X382698Y310006D01*
X382667Y310003D02*
X382683Y310004D01*
X382651Y310002D02*
X382667Y310003D01*
X382636Y310000D02*
X382651Y310002D01*
X382620Y309999D02*
X382636Y310000D01*
X382604Y309998D02*
X382620Y309999D01*
X382589Y309997D02*
X382604Y309998D01*
X382573Y309995D02*
X382589Y309997D01*
X382558Y309994D02*
X382573Y309995D01*
X382542Y309993D02*
X382558Y309994D01*
X382526Y309992D02*
X382542Y309993D01*
X382511Y309991D02*
X382526Y309992D01*
X382495Y309990D02*
X382511Y309991D01*
X382480Y309988D02*
X382495Y309990D01*
X382464Y309987D02*
X382480Y309988D01*
X382448Y309986D02*
X382464Y309987D01*
X382433Y309985D02*
X382448Y309986D01*
X382417Y309984D02*
X382433Y309985D01*
X382401Y309983D02*
X382417Y309984D01*
X382386Y309982D02*
X382401Y309983D01*
X382370Y309981D02*
X382386Y309982D01*
X382354Y309980D02*
X382370Y309981D01*
X382339Y309979D02*
X382354Y309980D01*
X382323Y309977D02*
X382339Y309979D01*
X382308Y309977D02*
X382323Y309977D01*
X382292Y309975D02*
X382308Y309977D01*
X382276Y309974D02*
X382292Y309975D01*
X382261Y309973D02*
X382276Y309974D01*
X382245Y309972D02*
X382261Y309973D01*
X382229Y309971D02*
X382245Y309972D01*
X382214Y309970D02*
X382229Y309971D01*
X382198Y309969D02*
X382214Y309970D01*
X382182Y309968D02*
X382198Y309969D01*
X382166Y309967D02*
X382182Y309968D01*
X382151Y309967D02*
X382166Y309967D01*
X382135Y309965D02*
X382151Y309967D01*
X382120Y309965D02*
X382135Y309965D01*
X382104Y309964D02*
X382120Y309965D01*
X382088Y309963D02*
X382104Y309964D01*
X382072Y309962D02*
X382088Y309963D01*
X382057Y309961D02*
X382072Y309962D01*
X382041Y309960D02*
X382057Y309961D01*
X382026Y309959D02*
X382041Y309960D01*
X382010Y309958D02*
X382026Y309959D01*
X381994Y309957D02*
X382010Y309958D01*
X381978Y309956D02*
X381994Y309957D01*
X381963Y309955D02*
X381978Y309956D01*
X381947Y309954D02*
X381963Y309955D01*
X381931Y309953D02*
X381947Y309954D01*
X381916Y309953D02*
X381931Y309953D01*
X381900Y309952D02*
X381916Y309953D01*
X381884Y309951D02*
X381900Y309952D01*
X381869Y309950D02*
X381884Y309951D01*
X381853Y309949D02*
X381869Y309950D01*
X381838Y309948D02*
X381853Y309949D01*
X381822Y309947D02*
X381838Y309948D01*
X381806Y309946D02*
X381822Y309947D01*
X381790Y309945D02*
X381806Y309946D01*
X381775Y309944D02*
X381790Y309945D01*
X381759Y309944D02*
X381775Y309944D01*
X387009Y311434D02*
X387129Y311509D01*
X386889Y311361D02*
X387009Y311434D01*
X386768Y311290D02*
X386889Y311361D01*
X386645Y311220D02*
X386768Y311290D01*
X386522Y311152D02*
X386645Y311220D01*
X386411Y311093D02*
X386522Y311152D01*
X386300Y311035D02*
X386411Y311093D01*
X386188Y310979D02*
X386300Y311035D01*
X386076Y310924D02*
X386188Y310979D01*
X385962Y310870D02*
X386076Y310924D01*
X385705Y310753D02*
X385762Y310779D01*
X385647Y310728D02*
X385705Y310753D01*
X385590Y310703D02*
X385647Y310728D01*
X387129Y311509D02*
X387247Y311585D01*
X140594Y524829D02*
X140642Y524945D01*
X140548Y524713D02*
X140594Y524829D01*
X140691Y525060D02*
X140742Y525175D01*
X140642Y524945D02*
X140691Y525060D01*
X140503Y524596D02*
X140548Y524713D01*
X140460Y524479D02*
X140503Y524596D01*
X140418Y524361D02*
X140460Y524479D01*
X140378Y524242D02*
X140418Y524361D01*
X140339Y524123D02*
X140378Y524242D01*
X140307Y524019D02*
X140339Y524123D01*
X140276Y523914D02*
X140307Y524019D01*
X140246Y523809D02*
X140276Y523914D01*
X140217Y523703D02*
X140246Y523809D01*
X140189Y523597D02*
X140217Y523703D01*
X140162Y523491D02*
X140189Y523597D01*
X140137Y523384D02*
X140162Y523491D01*
X140100Y523216D02*
X140137Y523384D01*
X140090Y523170D02*
X140100Y523216D01*
X140080Y523124D02*
X140090Y523170D01*
X140071Y523078D02*
X140080Y523124D01*
X140062Y523032D02*
X140071Y523078D01*
X140053Y522986D02*
X140062Y523032D01*
X140044Y522940D02*
X140053Y522986D01*
X140036Y522894D02*
X140044Y522940D01*
X140028Y522848D02*
X140036Y522894D01*
X140020Y522801D02*
X140028Y522848D01*
X140012Y522755D02*
X140020Y522801D01*
X140005Y522709D02*
X140012Y522755D01*
X139997Y522662D02*
X140005Y522709D01*
X139990Y522616D02*
X139997Y522662D01*
X139984Y522569D02*
X139990Y522616D01*
X139977Y522523D02*
X139984Y522569D01*
X139971Y522477D02*
X139977Y522523D01*
X139965Y522430D02*
X139971Y522477D01*
X139959Y522383D02*
X139965Y522430D01*
X139953Y522337D02*
X139959Y522383D01*
X139948Y522290D02*
X139953Y522337D01*
X139937Y522181D02*
X139948Y522290D01*
X139936Y522166D02*
X139937Y522181D01*
X139934Y522150D02*
X139936Y522166D01*
X139933Y522135D02*
X139934Y522150D01*
X139931Y522119D02*
X139933Y522135D01*
X139930Y522104D02*
X139931Y522119D01*
X139929Y522088D02*
X139930Y522104D01*
X139928Y522072D02*
X139929Y522088D01*
X139926Y522057D02*
X139928Y522072D01*
X139925Y522041D02*
X139926Y522057D01*
X139924Y522026D02*
X139925Y522041D01*
X139923Y522010D02*
X139924Y522026D01*
X139922Y521994D02*
X139923Y522010D01*
X139920Y521979D02*
X139922Y521994D01*
X139919Y521963D02*
X139920Y521979D01*
X139918Y521948D02*
X139919Y521963D01*
X139917Y521932D02*
X139918Y521948D01*
X139916Y521917D02*
X139917Y521932D01*
X139915Y521901D02*
X139916Y521917D01*
X139914Y521885D02*
X139915Y521901D01*
X139913Y521870D02*
X139914Y521885D01*
X139912Y521854D02*
X139913Y521870D01*
X139911Y521838D02*
X139912Y521854D01*
X139910Y521823D02*
X139911Y521838D01*
X139909Y521807D02*
X139910Y521823D01*
X139909Y521792D02*
X139909Y521807D01*
X139908Y521776D02*
X139909Y521792D01*
X139907Y521760D02*
X139908Y521776D01*
X139906Y521745D02*
X139907Y521760D01*
X139905Y521729D02*
X139906Y521745D01*
X139904Y521714D02*
X139905Y521729D01*
X139904Y521698D02*
X139904Y521714D01*
X139903Y521682D02*
X139904Y521698D01*
X139902Y521667D02*
X139903Y521682D01*
X139902Y521651D02*
X139902Y521667D01*
X139901Y521636D02*
X139902Y521651D01*
X139900Y521620D02*
X139901Y521636D01*
X139899Y521604D02*
X139900Y521620D01*
X139899Y521589D02*
X139899Y521604D01*
X139898Y521573D02*
X139899Y521589D01*
X139897Y521557D02*
X139898Y521573D01*
X139897Y521542D02*
X139897Y521557D01*
X139896Y521526D02*
X139897Y521542D01*
X139896Y521510D02*
X139896Y521526D01*
X139895Y521495D02*
X139896Y521510D01*
X139895Y521479D02*
X139895Y521495D01*
X139894Y521464D02*
X139895Y521479D01*
X139893Y521448D02*
X139894Y521464D01*
X139893Y521432D02*
X139893Y521448D01*
X139892Y521417D02*
X139893Y521432D01*
X139892Y521401D02*
X139892Y521417D01*
X139891Y521385D02*
X139892Y521401D01*
X139891Y521370D02*
X139891Y521385D01*
X139890Y521354D02*
X139891Y521370D01*
X139890Y521338D02*
X139890Y521354D01*
X139889Y521323D02*
X139890Y521338D01*
X139889Y521307D02*
X139889Y521323D01*
X139888Y521292D02*
X139889Y521307D01*
X139888Y521276D02*
X139888Y521292D01*
X139887Y521260D02*
X139888Y521276D01*
X139887Y521245D02*
X139887Y521260D01*
X139886Y521229D02*
X139887Y521245D01*
X139886Y521213D02*
X139886Y521229D01*
X139886Y521198D02*
X139886Y521213D01*
X139885Y521182D02*
X139886Y521198D01*
X139885Y521166D02*
X139885Y521182D01*
X139884Y521151D02*
X139885Y521166D01*
X139883Y521119D02*
X139884Y521151D01*
X148455Y530974D02*
X148470Y530976D01*
X148439Y530973D02*
X148455Y530974D01*
X148424Y530971D02*
X148439Y530973D01*
X148408Y530969D02*
X148424Y530971D01*
X148393Y530967D02*
X148408Y530969D01*
X148377Y530965D02*
X148393Y530967D01*
X148362Y530963D02*
X148377Y530965D01*
X148346Y530961D02*
X148362Y530963D01*
X148331Y530959D02*
X148346Y530961D01*
X148315Y530957D02*
X148331Y530959D01*
X148300Y530955D02*
X148315Y530957D01*
X148284Y530953D02*
X148300Y530955D01*
X148269Y530951D02*
X148284Y530953D01*
X148238Y530947D02*
X148269Y530951D01*
X148207Y530942D02*
X148238Y530947D01*
X148176Y530938D02*
X148207Y530942D01*
X148145Y530933D02*
X148176Y530938D01*
X148114Y530929D02*
X148145Y530933D01*
X148083Y530924D02*
X148114Y530929D01*
X148053Y530919D02*
X148083Y530924D01*
X148022Y530914D02*
X148053Y530919D01*
X147991Y530909D02*
X148022Y530914D01*
X147960Y530904D02*
X147991Y530909D01*
X147929Y530899D02*
X147960Y530904D01*
X147899Y530893D02*
X147929Y530899D01*
X147868Y530888D02*
X147899Y530893D01*
X147837Y530882D02*
X147868Y530888D01*
X147807Y530877D02*
X147837Y530882D01*
X147776Y530871D02*
X147807Y530877D01*
X147684Y530852D02*
X147776Y530871D01*
X147623Y530839D02*
X147684Y530852D01*
X147562Y530826D02*
X147623Y530839D01*
X147501Y530812D02*
X147562Y530826D01*
X147440Y530798D02*
X147501Y530812D01*
X147380Y530783D02*
X147440Y530798D01*
X147319Y530768D02*
X147380Y530783D01*
X147258Y530752D02*
X147319Y530768D01*
X147198Y530736D02*
X147258Y530752D01*
X147138Y530719D02*
X147198Y530736D01*
X147077Y530702D02*
X147138Y530719D01*
X147017Y530684D02*
X147077Y530702D01*
X146957Y530666D02*
X147017Y530684D01*
X146897Y530648D02*
X146957Y530666D01*
X146838Y530629D02*
X146897Y530648D01*
X146778Y530609D02*
X146838Y530629D01*
X146719Y530589D02*
X146778Y530609D01*
X146659Y530569D02*
X146719Y530589D01*
X146600Y530549D02*
X146659Y530569D01*
X146541Y530528D02*
X146600Y530549D01*
X146482Y530506D02*
X146541Y530528D01*
X146423Y530484D02*
X146482Y530506D01*
X146364Y530462D02*
X146423Y530484D01*
X146306Y530440D02*
X146364Y530462D01*
X146247Y530417D02*
X146306Y530440D01*
X146189Y530393D02*
X146247Y530417D01*
X146131Y530370D02*
X146189Y530393D01*
X146073Y530346D02*
X146131Y530370D01*
X146015Y530322D02*
X146073Y530346D01*
X145957Y530297D02*
X146015Y530322D01*
X145899Y530272D02*
X145957Y530297D01*
X145842Y530246D02*
X145899Y530272D01*
X145529Y530101D02*
X145642Y530155D01*
X145416Y530046D02*
X145529Y530101D01*
X145304Y529990D02*
X145416Y530046D01*
X145193Y529932D02*
X145304Y529990D01*
X145083Y529873D02*
X145193Y529932D01*
X144959Y529805D02*
X145083Y529873D01*
X144837Y529735D02*
X144959Y529805D01*
X144715Y529664D02*
X144837Y529735D01*
X144595Y529591D02*
X144715Y529664D01*
X144475Y529516D02*
X144595Y529591D01*
X144357Y529440D02*
X144475Y529516D01*
X149830Y531081D02*
X149845Y531081D01*
X149814Y531080D02*
X149830Y531081D01*
X149798Y531079D02*
X149814Y531080D01*
X149782Y531078D02*
X149798Y531079D01*
X149767Y531077D02*
X149782Y531078D01*
X149751Y531076D02*
X149767Y531077D01*
X149735Y531075D02*
X149751Y531076D01*
X149720Y531074D02*
X149735Y531075D01*
X149704Y531073D02*
X149720Y531074D01*
X149688Y531072D02*
X149704Y531073D01*
X149673Y531072D02*
X149688Y531072D01*
X149657Y531071D02*
X149673Y531072D01*
X149641Y531070D02*
X149657Y531071D01*
X149626Y531069D02*
X149641Y531070D01*
X149610Y531068D02*
X149626Y531069D01*
X149594Y531067D02*
X149610Y531068D01*
X149579Y531066D02*
X149594Y531067D01*
X149563Y531065D02*
X149579Y531066D01*
X149547Y531064D02*
X149563Y531065D01*
X149532Y531063D02*
X149547Y531064D01*
X149516Y531062D02*
X149532Y531063D01*
X149500Y531061D02*
X149516Y531062D01*
X149485Y531060D02*
X149500Y531061D01*
X149469Y531059D02*
X149485Y531060D01*
X149453Y531059D02*
X149469Y531059D01*
X149438Y531058D02*
X149453Y531059D01*
X149422Y531057D02*
X149438Y531058D01*
X149406Y531055D02*
X149422Y531057D01*
X149391Y531054D02*
X149406Y531055D01*
X149375Y531054D02*
X149391Y531054D01*
X149359Y531053D02*
X149375Y531054D01*
X149344Y531051D02*
X149359Y531053D01*
X149328Y531050D02*
X149344Y531051D01*
X149312Y531049D02*
X149328Y531050D01*
X149297Y531048D02*
X149312Y531049D01*
X149281Y531047D02*
X149297Y531048D01*
X149265Y531046D02*
X149281Y531047D01*
X149250Y531045D02*
X149265Y531046D01*
X149234Y531044D02*
X149250Y531045D01*
X149219Y531043D02*
X149234Y531044D01*
X149203Y531042D02*
X149219Y531043D01*
X149187Y531041D02*
X149203Y531042D01*
X149172Y531040D02*
X149187Y531041D01*
X149156Y531039D02*
X149172Y531040D01*
X149140Y531038D02*
X149156Y531039D01*
X149125Y531036D02*
X149140Y531038D01*
X149109Y531035D02*
X149125Y531036D01*
X149094Y531034D02*
X149109Y531035D01*
X149078Y531033D02*
X149094Y531034D01*
X149062Y531032D02*
X149078Y531033D01*
X149047Y531031D02*
X149062Y531032D01*
X149031Y531030D02*
X149047Y531031D01*
X149015Y531028D02*
X149031Y531030D01*
X149000Y531027D02*
X149015Y531028D01*
X148984Y531026D02*
X149000Y531027D01*
X148968Y531025D02*
X148984Y531026D01*
X148953Y531023D02*
X148968Y531025D01*
X148937Y531022D02*
X148953Y531023D01*
X148922Y531021D02*
X148937Y531022D01*
X148906Y531019D02*
X148922Y531021D01*
X148890Y531018D02*
X148906Y531019D01*
X148875Y531017D02*
X148890Y531018D01*
X148859Y531015D02*
X148875Y531017D01*
X148844Y531014D02*
X148859Y531015D01*
X148828Y531013D02*
X148844Y531014D01*
X148813Y531011D02*
X148828Y531013D01*
X148797Y531010D02*
X148813Y531011D01*
X148781Y531008D02*
X148797Y531010D01*
X148766Y531007D02*
X148781Y531008D01*
X148750Y531006D02*
X148766Y531007D01*
X148735Y531004D02*
X148750Y531006D01*
X148719Y531003D02*
X148735Y531004D01*
X148703Y531001D02*
X148719Y531003D01*
X148688Y530999D02*
X148703Y531001D01*
X148672Y530998D02*
X148688Y530999D01*
X148657Y530996D02*
X148672Y530998D01*
X148641Y530995D02*
X148657Y530996D01*
X148626Y530993D02*
X148641Y530995D01*
X148610Y530992D02*
X148626Y530993D01*
X148595Y530990D02*
X148610Y530992D01*
X148579Y530988D02*
X148595Y530990D01*
X148563Y530987D02*
X148579Y530988D01*
X148548Y530985D02*
X148563Y530987D01*
X148532Y530983D02*
X148548Y530985D01*
X148517Y530981D02*
X148532Y530983D01*
X148501Y530980D02*
X148517Y530981D01*
X148486Y530978D02*
X148501Y530980D01*
X148470Y530976D02*
X148486Y530978D01*
X149814Y309944D02*
X149845Y309944D01*
X149798Y309945D02*
X149814Y309944D01*
X149783Y309945D02*
X149798Y309945D01*
X149767Y309946D02*
X149783Y309945D01*
X149751Y309946D02*
X149767Y309946D01*
X149736Y309947D02*
X149751Y309946D01*
X149720Y309947D02*
X149736Y309947D01*
X149704Y309948D02*
X149720Y309947D01*
X149689Y309948D02*
X149704Y309948D01*
X149673Y309949D02*
X149689Y309948D01*
X149657Y309949D02*
X149673Y309949D01*
X149642Y309950D02*
X149657Y309949D01*
X149626Y309950D02*
X149642Y309950D01*
X149611Y309951D02*
X149626Y309950D01*
X149595Y309951D02*
X149611Y309951D01*
X149579Y309952D02*
X149595Y309951D01*
X149564Y309952D02*
X149579Y309952D01*
X149548Y309953D02*
X149564Y309952D01*
X149532Y309953D02*
X149548Y309953D01*
X149517Y309954D02*
X149532Y309953D01*
X149501Y309954D02*
X149517Y309954D01*
X149486Y309955D02*
X149501Y309954D01*
X149470Y309955D02*
X149486Y309955D01*
X149454Y309956D02*
X149470Y309955D01*
X149438Y309957D02*
X149454Y309956D01*
X149423Y309957D02*
X149438Y309957D01*
X149407Y309958D02*
X149423Y309957D01*
X149392Y309958D02*
X149407Y309958D01*
X149376Y309959D02*
X149392Y309958D01*
X149360Y309960D02*
X149376Y309959D01*
X149345Y309960D02*
X149360Y309960D01*
X149329Y309961D02*
X149345Y309960D01*
X149313Y309962D02*
X149329Y309961D01*
X149298Y309963D02*
X149313Y309962D01*
X149282Y309963D02*
X149298Y309963D01*
X149267Y309964D02*
X149282Y309963D01*
X149251Y309965D02*
X149267Y309964D01*
X149235Y309965D02*
X149251Y309965D01*
X149220Y309966D02*
X149235Y309965D01*
X149204Y309967D02*
X149220Y309966D01*
X149189Y309968D02*
X149204Y309967D01*
X149173Y309969D02*
X149189Y309968D01*
X149157Y309970D02*
X149173Y309969D01*
X149142Y309971D02*
X149157Y309970D01*
X149126Y309972D02*
X149142Y309971D01*
X149110Y309972D02*
X149126Y309972D01*
X149095Y309973D02*
X149110Y309972D01*
X149079Y309974D02*
X149095Y309973D01*
X149064Y309975D02*
X149079Y309974D01*
X149048Y309976D02*
X149064Y309975D01*
X149032Y309977D02*
X149048Y309976D01*
X149017Y309979D02*
X149032Y309977D01*
X149001Y309980D02*
X149017Y309979D01*
X148986Y309981D02*
X149001Y309980D01*
X148970Y309982D02*
X148986Y309981D01*
X148955Y309983D02*
X148970Y309982D01*
X148939Y309984D02*
X148955Y309983D01*
X148923Y309985D02*
X148939Y309984D01*
X148908Y309987D02*
X148923Y309985D01*
X148892Y309988D02*
X148908Y309987D01*
X148877Y309989D02*
X148892Y309988D01*
X148861Y309991D02*
X148877Y309989D01*
X148846Y309992D02*
X148861Y309991D01*
X148830Y309993D02*
X148846Y309992D01*
X148814Y309995D02*
X148830Y309993D01*
X148799Y309996D02*
X148814Y309995D01*
X148783Y309998D02*
X148799Y309996D01*
X148674Y310009D02*
X148783Y309998D01*
X148628Y310014D02*
X148674Y310009D01*
X148581Y310019D02*
X148628Y310014D01*
X148535Y310025D02*
X148581Y310019D01*
X148488Y310031D02*
X148535Y310025D01*
X148256Y310065D02*
X148302Y310058D01*
X148210Y310072D02*
X148256Y310065D01*
X148163Y310080D02*
X148210Y310072D01*
X148117Y310088D02*
X148163Y310080D01*
X148071Y310096D02*
X148117Y310088D01*
X148025Y310105D02*
X148071Y310096D01*
X147978Y310113D02*
X148025Y310105D01*
X147932Y310122D02*
X147978Y310113D01*
X147886Y310131D02*
X147932Y310122D01*
X147840Y310141D02*
X147886Y310131D01*
X147794Y310150D02*
X147840Y310141D01*
X147748Y310160D02*
X147794Y310150D01*
X147580Y310197D02*
X147748Y310160D01*
X147474Y310223D02*
X147580Y310197D01*
X147367Y310249D02*
X147474Y310223D01*
X147262Y310277D02*
X147367Y310249D01*
X147156Y310306D02*
X147262Y310277D01*
X147051Y310336D02*
X147156Y310306D01*
X146946Y310367D02*
X147051Y310336D01*
X146841Y310400D02*
X146946Y310367D01*
X146722Y310438D02*
X146841Y310400D01*
X146604Y310478D02*
X146722Y310438D01*
X146486Y310520D02*
X146604Y310478D01*
X146368Y310563D02*
X146486Y310520D01*
X146251Y310608D02*
X146368Y310563D01*
X146135Y310654D02*
X146251Y310608D01*
X146019Y310702D02*
X146135Y310654D01*
X145904Y310751D02*
X146019Y310702D01*
X145790Y310802D02*
X145904Y310751D01*
X148442Y310037D02*
X148488Y310031D01*
X148395Y310044D02*
X148442Y310037D01*
X148349Y310051D02*
X148395Y310044D01*
X148302Y310058D02*
X148349Y310051D01*
X141448Y314536D02*
X141525Y314418D01*
X141374Y314655D02*
X141448Y314536D01*
X141301Y314776D02*
X141374Y314655D01*
X141229Y314897D02*
X141301Y314776D01*
X141160Y315019D02*
X141229Y314897D01*
X141092Y315143D02*
X141160Y315019D01*
X141033Y315253D02*
X141092Y315143D01*
X140975Y315364D02*
X141033Y315253D01*
X140919Y315476D02*
X140975Y315364D01*
X140863Y315589D02*
X140919Y315476D01*
X140809Y315702D02*
X140863Y315589D01*
X140693Y315960D02*
X140718Y315902D01*
X140668Y316017D02*
X140693Y315960D01*
X140643Y316075D02*
X140668Y316017D01*
X140619Y316133D02*
X140643Y316075D01*
X140595Y316191D02*
X140619Y316133D01*
X140571Y316249D02*
X140595Y316191D01*
X140548Y316307D02*
X140571Y316249D01*
X140525Y316366D02*
X140548Y316307D01*
X140502Y316424D02*
X140525Y316366D01*
X140480Y316483D02*
X140502Y316424D01*
X140458Y316542D02*
X140480Y316483D01*
X140437Y316601D02*
X140458Y316542D01*
X140416Y316660D02*
X140437Y316601D01*
X140395Y316719D02*
X140416Y316660D01*
X140375Y316779D02*
X140395Y316719D01*
X140355Y316838D02*
X140375Y316779D01*
X140336Y316898D02*
X140355Y316838D01*
X140317Y316958D02*
X140336Y316898D01*
X140299Y317018D02*
X140317Y316958D01*
X140281Y317078D02*
X140299Y317018D01*
X140263Y317138D02*
X140281Y317078D01*
X140246Y317198D02*
X140263Y317138D01*
X140229Y317258D02*
X140246Y317198D01*
X140213Y317319D02*
X140229Y317258D01*
X140197Y317379D02*
X140213Y317319D01*
X140182Y317440D02*
X140197Y317379D01*
X140167Y317501D02*
X140182Y317440D01*
X140153Y317561D02*
X140167Y317501D01*
X140139Y317622D02*
X140153Y317561D01*
X140125Y317683D02*
X140139Y317622D01*
X140112Y317745D02*
X140125Y317683D01*
X140094Y317836D02*
X140112Y317745D01*
X140088Y317867D02*
X140094Y317836D01*
X140082Y317898D02*
X140088Y317867D01*
X140077Y317928D02*
X140082Y317898D01*
X140071Y317959D02*
X140077Y317928D01*
X140066Y317990D02*
X140071Y317959D01*
X140061Y318021D02*
X140066Y317990D01*
X140055Y318051D02*
X140061Y318021D01*
X140050Y318082D02*
X140055Y318051D01*
X140045Y318113D02*
X140050Y318082D01*
X140041Y318144D02*
X140045Y318113D01*
X140036Y318175D02*
X140041Y318144D01*
X140031Y318206D02*
X140036Y318175D01*
X140027Y318236D02*
X140031Y318206D01*
X140022Y318267D02*
X140027Y318236D01*
X140018Y318298D02*
X140022Y318267D01*
X140014Y318329D02*
X140018Y318298D01*
X140012Y318345D02*
X140014Y318329D01*
X140009Y318360D02*
X140012Y318345D01*
X140007Y318376D02*
X140009Y318360D01*
X140006Y318391D02*
X140007Y318376D01*
X140003Y318407D02*
X140006Y318391D01*
X140001Y318422D02*
X140003Y318407D01*
X140000Y318438D02*
X140001Y318422D01*
X139998Y318453D02*
X140000Y318438D01*
X139996Y318469D02*
X139998Y318453D01*
X139994Y318484D02*
X139996Y318469D01*
X139992Y318500D02*
X139994Y318484D01*
X139990Y318515D02*
X139992Y318500D01*
X139988Y318531D02*
X139990Y318515D01*
X139987Y318546D02*
X139988Y318531D01*
X139985Y318562D02*
X139987Y318546D01*
X139983Y318577D02*
X139985Y318562D01*
X139981Y318593D02*
X139983Y318577D01*
X139980Y318608D02*
X139981Y318593D01*
X139978Y318624D02*
X139980Y318608D01*
X139976Y318639D02*
X139978Y318624D01*
X139975Y318655D02*
X139976Y318639D01*
X139973Y318670D02*
X139975Y318655D01*
X139971Y318686D02*
X139973Y318670D01*
X139970Y318701D02*
X139971Y318686D01*
X139968Y318717D02*
X139970Y318701D01*
X139967Y318733D02*
X139968Y318717D01*
X139965Y318748D02*
X139967Y318733D01*
X139964Y318764D02*
X139965Y318748D01*
X139962Y318779D02*
X139964Y318764D01*
X139961Y318795D02*
X139962Y318779D01*
X139959Y318811D02*
X139961Y318795D01*
X139958Y318826D02*
X139959Y318811D01*
X139956Y318842D02*
X139958Y318826D01*
X139955Y318857D02*
X139956Y318842D01*
X139953Y318873D02*
X139955Y318857D01*
X139952Y318888D02*
X139953Y318873D01*
X139951Y318904D02*
X139952Y318888D01*
X139949Y318920D02*
X139951Y318904D01*
X139948Y318935D02*
X139949Y318920D01*
X139947Y318951D02*
X139948Y318935D01*
X139945Y318966D02*
X139947Y318951D01*
X139944Y318982D02*
X139945Y318966D01*
X139943Y318998D02*
X139944Y318982D01*
X139941Y319013D02*
X139943Y318998D01*
X139940Y319029D02*
X139941Y319013D01*
X139939Y319044D02*
X139940Y319029D01*
X139938Y319060D02*
X139939Y319044D01*
X139936Y319076D02*
X139938Y319060D01*
X139935Y319091D02*
X139936Y319076D01*
X139934Y319107D02*
X139935Y319091D01*
X139933Y319123D02*
X139934Y319107D01*
X139932Y319138D02*
X139933Y319123D01*
X139930Y319154D02*
X139932Y319138D01*
X139929Y319169D02*
X139930Y319154D01*
X139928Y319185D02*
X139929Y319169D01*
X139927Y319201D02*
X139928Y319185D01*
X139926Y319216D02*
X139927Y319201D01*
X139925Y319232D02*
X139926Y319216D01*
X139924Y319248D02*
X139925Y319232D01*
X139923Y319263D02*
X139924Y319248D01*
X139921Y319279D02*
X139923Y319263D01*
X139920Y319295D02*
X139921Y319279D01*
X139919Y319310D02*
X139920Y319295D01*
X139918Y319326D02*
X139919Y319310D01*
X139917Y319342D02*
X139918Y319326D01*
X139916Y319357D02*
X139917Y319342D01*
X139915Y319373D02*
X139916Y319357D01*
X139914Y319389D02*
X139915Y319373D01*
X139913Y319404D02*
X139914Y319389D01*
X139912Y319420D02*
X139913Y319404D01*
X139911Y319435D02*
X139912Y319420D01*
X139910Y319451D02*
X139911Y319435D01*
X139909Y319467D02*
X139910Y319451D01*
X139908Y319482D02*
X139909Y319467D01*
X139907Y319498D02*
X139908Y319482D01*
X139906Y319514D02*
X139907Y319498D01*
X139905Y319529D02*
X139906Y319514D01*
X139904Y319545D02*
X139905Y319529D01*
X139903Y319561D02*
X139904Y319545D01*
X139902Y319576D02*
X139903Y319561D01*
X139901Y319592D02*
X139902Y319576D01*
X139901Y319608D02*
X139901Y319592D01*
X139900Y319623D02*
X139901Y319608D01*
X139899Y319639D02*
X139900Y319623D01*
X139898Y319655D02*
X139899Y319639D01*
X139897Y319670D02*
X139898Y319655D01*
X139896Y319686D02*
X139897Y319670D01*
X139895Y319702D02*
X139896Y319686D01*
X139894Y319717D02*
X139895Y319702D01*
X139893Y319733D02*
X139894Y319717D01*
X139892Y319749D02*
X139893Y319733D01*
X139891Y319764D02*
X139892Y319749D01*
X139890Y319780D02*
X139891Y319764D01*
X139889Y319796D02*
X139890Y319780D01*
X139889Y319811D02*
X139889Y319796D01*
X139888Y319827D02*
X139889Y319811D01*
X139887Y319843D02*
X139888Y319827D01*
X139886Y319858D02*
X139887Y319843D01*
X139885Y319874D02*
X139886Y319858D01*
X139884Y319890D02*
X139885Y319874D01*
X139883Y319905D02*
X139884Y319890D01*
D16*
X64250Y572750D02*
X78250D01*
X64250Y580750D02*
X78250D01*
X58750Y594250D02*
X72750D01*
X58750Y602250D02*
X72750D01*
X30500Y591250D02*
X44500D01*
X30500Y583250D02*
X44500D01*
X108250Y574750D02*
Y588750D01*
X116250D02*
X116250Y574750D01*
X93500Y570750D02*
X107500Y570750D01*
X93500Y562750D02*
X107500Y562750D01*
X87000Y604250D02*
X101000D01*
X87000Y612250D02*
X101000D01*
X75500Y562750D02*
X89500D01*
X75500Y570750D02*
X89500D01*
X68000Y612250D02*
X82000D01*
X68000Y604250D02*
X82000D01*
X79250Y551250D02*
X93250D01*
X79250Y559250D02*
X93250D01*
X182000Y392670D02*
Y406670D01*
X174000Y392670D02*
Y406670D01*
X309000Y423500D02*
Y437500D01*
X317000Y423500D02*
Y437500D01*
X230750Y459500D02*
X244750D01*
X230750Y467500D02*
X244750D01*
X194250Y392750D02*
Y406750D01*
X186250Y392750D02*
Y406750D01*
X198000Y482000D02*
Y496000D01*
X190000Y482000D02*
Y496000D01*
X188000Y482000D02*
Y496000D01*
X180000Y482000D02*
Y496000D01*
X333500Y35500D02*
X347500Y35500D01*
X333500Y43500D02*
X347500D01*
X300500Y220250D02*
X314500D01*
X300500Y212250D02*
X314500D01*
X219250Y195750D02*
Y209750D01*
X211250Y195750D02*
Y209750D01*
X297250Y192000D02*
Y206000D01*
X289250Y192000D02*
Y206000D01*
X248000Y481000D02*
Y495000D01*
X240000Y481000D02*
Y495000D01*
X156000Y363500D02*
X170000Y363500D01*
X156000Y355500D02*
X170000D01*
X427500Y238500D02*
Y252500D01*
X435500Y238500D02*
Y252500D01*
X166750Y218500D02*
X180750D01*
X166750Y226500D02*
X180750D01*
X431500Y180250D02*
X445500D01*
X431500Y172250D02*
X445500D01*
X386750Y151000D02*
X386750Y165000D01*
X378750Y151000D02*
X378750Y165000D01*
X471000Y130500D02*
Y144500D01*
X479000D02*
X479000Y130500D01*
X392500Y238500D02*
Y252500D01*
X384500Y238500D02*
Y252500D01*
X193000Y432000D02*
Y446000D01*
X185000Y432000D02*
Y446000D01*
X208000Y482000D02*
Y496000D01*
X200000Y482000D02*
Y496000D01*
X182000Y472000D02*
X196000D01*
X182000Y480000D02*
X196000D01*
X306000Y400000D02*
X320000D01*
X306000Y392000D02*
X320000D01*
X278000Y481000D02*
Y495000D01*
X270000Y481000D02*
Y495000D01*
X280000Y481000D02*
Y495000D01*
X288000Y481000D02*
Y495000D01*
X260000Y481000D02*
Y495000D01*
X268000Y481000D02*
Y495000D01*
X345000Y355000D02*
X359000D01*
X345000Y347000D02*
X359000Y347000D01*
X345000Y375000D02*
X359000D01*
X345000Y367000D02*
X359000D01*
X345000Y385000D02*
X359000D01*
X345000Y377000D02*
X359000Y377000D01*
X185750Y214250D02*
X199750D01*
X185750Y206250D02*
X199750D01*
X333500Y33250D02*
X347500Y33250D01*
X333500Y25250D02*
X347500Y25250D01*
X351500Y33250D02*
X365500Y33250D01*
X351500Y25250D02*
X365500D01*
X423000Y16000D02*
Y30000D01*
X431000Y16000D02*
Y30000D01*
X431000Y48080D02*
X431000Y34080D01*
X423000D02*
Y48080D01*
X398750Y151000D02*
Y165000D01*
X406750D02*
X406750Y151000D01*
X388750D02*
Y165000D01*
X396750Y151000D02*
Y165000D01*
X388000Y140000D02*
X402000D01*
X388000Y148000D02*
X402000D01*
X411000Y24000D02*
Y38000D01*
X419000Y24000D02*
Y38000D01*
X475000Y162000D02*
X489000D01*
X475000Y170000D02*
X489000D01*
X475000Y152000D02*
X489000D01*
X475000Y160000D02*
X489000D01*
X405250Y168750D02*
X419250D01*
X405250Y176750D02*
X419250D01*
X387750Y168750D02*
X401750Y168750D01*
X387750Y176750D02*
X401750Y176750D01*
X475000Y180000D02*
X489000D01*
X475000Y172000D02*
X489000D01*
X489250Y130500D02*
Y144500D01*
X481250Y130500D02*
X481250Y144500D01*
X333500Y15000D02*
X347500D01*
X333500Y23000D02*
X347500D01*
X178000Y496000D02*
X178000Y482000D01*
X170000Y496000D02*
X170000Y482000D01*
X190000Y100000D02*
X204000Y100000D01*
X190000Y92000D02*
X204000D01*
X345000Y357000D02*
X359000D01*
X345000Y365000D02*
X359000Y365000D01*
X55250Y479250D02*
Y493250D01*
X63250Y479250D02*
Y493250D01*
X75250Y461250D02*
X89250D01*
X75250Y453250D02*
X89250D01*
X178500Y390000D02*
X192500D01*
X178500Y382000D02*
X192500D01*
X51000Y515500D02*
Y529500D01*
X59000Y515500D02*
Y529500D01*
X298250Y569250D02*
Y583250D01*
X290250Y569250D02*
Y583250D01*
X372250Y418250D02*
X386250Y418250D01*
X372250Y426250D02*
X386250D01*
X421500Y550500D02*
Y564500D01*
X413500Y550500D02*
Y564500D01*
X431500Y550500D02*
Y564500D01*
X423500Y550500D02*
Y564500D01*
X372336Y429730D02*
X386336Y429729D01*
X372336Y437729D02*
X386336D01*
X145250Y433670D02*
Y447670D01*
X153250Y433670D02*
Y447670D01*
X153250Y412500D02*
Y426500D01*
X145250Y412500D02*
Y426500D01*
X105000Y604250D02*
X119000D01*
X105000Y612250D02*
X119000D01*
X88500Y515500D02*
Y529500D01*
X96500Y515500D02*
Y529500D01*
X76000Y515500D02*
Y529500D01*
X84000Y515500D02*
Y529500D01*
X30500Y600750D02*
X44500D01*
X30500Y592750D02*
X44500D01*
X88500Y533000D02*
Y547000D01*
X96500Y533000D02*
Y547000D01*
X76000Y533000D02*
Y547000D01*
X84000Y533000D02*
Y547000D01*
X48000Y604250D02*
X62000D01*
X48000Y612250D02*
X62000D01*
X145250Y454250D02*
Y468250D01*
X153250Y454250D02*
Y468250D01*
X63500Y515500D02*
Y529500D01*
X71500Y515500D02*
Y529500D01*
X166750Y214250D02*
X180750D01*
X166750Y206250D02*
X180750D01*
X92750Y390250D02*
Y404250D01*
X100750Y390250D02*
Y404250D01*
X173500Y586500D02*
Y600500D01*
X181500Y586500D02*
Y600500D01*
X156000Y315500D02*
X170000D01*
X156000Y323500D02*
X170000Y323500D01*
D17*
X81406Y595501D02*
X101000Y595501D01*
X81406Y595501D02*
X81406Y575300D01*
X101000D02*
Y595501D01*
X81406Y575300D02*
X101000D01*
X63500Y197500D02*
Y213500D01*
X76300Y231000D02*
X101700D01*
X114500Y197500D02*
Y213500D01*
X76300Y180000D02*
X101700D01*
X224500Y69500D02*
Y85500D01*
X237300Y103000D02*
X262700D01*
X275500Y69500D02*
Y85500D01*
X237300Y52000D02*
X262700D01*
X177500Y116500D02*
X193500D01*
X160000Y129300D02*
Y154700D01*
X177500Y167500D02*
X193500D01*
X211000Y129300D02*
Y154700D01*
X224500Y134000D02*
Y150000D01*
X237300Y167500D02*
X262700D01*
X275500Y134000D02*
Y150000D01*
X237300Y116500D02*
X262700D01*
X63500Y70500D02*
Y86500D01*
X76300Y104000D02*
X101700D01*
X114500Y70500D02*
Y86500D01*
X76300Y53000D02*
X101700D01*
X306500Y116500D02*
X322500D01*
X289000Y129300D02*
Y154700D01*
X306500Y167500D02*
X322500D01*
X340000Y129300D02*
Y154700D01*
X385500Y70500D02*
Y86500D01*
X398300Y104000D02*
X423700D01*
X436500Y70500D02*
Y86500D01*
X398300Y53000D02*
X423700D01*
X224500Y198500D02*
Y214500D01*
X237300Y232000D02*
X262700D01*
X275500Y198500D02*
Y214500D01*
X237300Y181000D02*
X262700D01*
X385500Y197500D02*
Y213500D01*
X398300Y231000D02*
X423700D01*
X436500Y197500D02*
Y213500D01*
X398300Y180000D02*
X423700D01*
D18*
X270000Y459450D02*
X272000D01*
X270000Y466950D02*
X272000D01*
X368000Y24500D02*
X390000Y24500D01*
X368000Y18500D02*
X390000D01*
Y24500D01*
X368000Y18500D02*
Y24500D01*
X152000Y336500D02*
X174000Y336500D01*
X152000Y342500D02*
X174000Y342500D01*
X152000Y336500D02*
Y342500D01*
X174000Y336500D02*
Y342500D01*
X291500Y72250D02*
X291500Y55750D01*
X322500Y72250D02*
X322500Y55750D01*
X291500D02*
X322500D01*
X291500Y72250D02*
X322500D01*
X413250Y256500D02*
X413250Y234500D01*
X407250Y256500D02*
X407250Y234500D01*
X413250Y234500D01*
X407250Y256500D02*
X413250Y256500D01*
X458250Y526800D02*
X460250D01*
X458250Y519300D02*
X460250D01*
X21250Y507250D02*
X28250D01*
X21250D02*
Y514250D01*
Y535250D02*
X28250D01*
X21250Y528250D02*
Y535250D01*
X470000Y614250D02*
X477000D01*
Y607250D02*
Y614250D01*
X470000Y586250D02*
X477000D01*
Y593250D01*
X275750Y610000D02*
Y617000D01*
X282750D01*
X275750Y589000D02*
Y596000D01*
Y589000D02*
X282750D01*
X184000Y379000D02*
X189000D01*
Y375000D02*
Y379000D01*
X184000Y363000D02*
X189000D01*
Y367000D01*
X68250Y486250D02*
Y493250D01*
X75250D01*
X96250Y486250D02*
Y493250D01*
X89250D02*
X96250D01*
X158950Y433500D02*
X158950Y435500D01*
X166450Y433500D02*
X166450Y435500D01*
X368836Y455689D02*
Y460689D01*
X372836D01*
X389836Y455689D02*
Y460689D01*
X385836D02*
X389836D01*
X144750Y486000D02*
X166750Y486000D01*
X144750Y492000D02*
X166750D01*
X144750Y486000D02*
Y492000D01*
X166750Y486000D02*
X166750Y492000D01*
X431750Y118500D02*
X453750Y118500D01*
X431750Y124500D02*
X453750D01*
X431750Y118500D02*
Y124500D01*
X453750Y118500D02*
Y124500D01*
X430750Y138500D02*
Y169500D01*
X447250Y138500D02*
Y169500D01*
X430750D02*
X447250D01*
X430750Y138500D02*
X447250D01*
X397396Y120750D02*
X397396Y124750D01*
X392396Y120750D02*
X397396D01*
X397396Y132750D02*
Y136750D01*
X392396D02*
X397396D01*
X371250Y400250D02*
Y405250D01*
X375250D01*
X387250Y400250D02*
Y405250D01*
X383250D02*
X387250D01*
X292750Y450250D02*
X297250D01*
Y445750D02*
Y450250D01*
X292750Y355750D02*
X297250D01*
Y360250D01*
X202750Y355750D02*
X207250D01*
X202750D02*
Y360250D01*
Y450250D02*
X207250D01*
X202750Y445750D02*
Y450250D01*
D19*
X353745Y602000D02*
X370255D01*
X367715Y595650D02*
Y608350D01*
X357555D02*
X367080Y602000D01*
X357555Y595650D02*
X367080Y602000D01*
X357555Y595650D02*
Y608350D01*
X152842Y573500D02*
Y603500D01*
X141412Y573500D02*
Y603500D01*
X152842D01*
X141412Y573500D02*
X152842D01*
D20*
X0Y0D02*
X10000D01*
M02*
