G04*
G04 #@! TF.GenerationSoftware,Altium Limited,Altium Designer,20.0.13 (296)*
G04*
G04 Layer_Physical_Order=2*
G04 Layer_Color=36540*
%FSLAX44Y44*%
%MOMM*%
G71*
G01*
G75*
%ADD10C,0.2032*%
%ADD11C,0.2540*%
%ADD97C,0.3810*%
%ADD98C,0.5080*%
%ADD99C,0.7620*%
%ADD112R,1.0000X1.8000*%
%ADD113R,1.0000X2.1000*%
%ADD114C,1.6002*%
%ADD115R,1.7000X1.7000*%
%ADD117C,1.0668*%
%ADD118C,0.6096*%
%ADD119C,0.8128*%
%ADD120C,0.7620*%
%ADD121C,1.0160*%
%ADD122R,1.0000X2.1250*%
%ADD123R,0.8250X4.9750*%
%ADD124C,2.0000*%
%ADD125C,0.3048*%
G36*
X487257Y570458D02*
X487573Y568872D01*
X488471Y567528D01*
X489815Y566630D01*
X491400Y566315D01*
X495857D01*
Y441144D01*
X473000D01*
X471415Y440829D01*
X470071Y439930D01*
X469596Y439220D01*
X468279Y438988D01*
X468087Y439074D01*
X466633Y440046D01*
X464750Y440420D01*
X462867Y440046D01*
X461271Y438979D01*
X460204Y437383D01*
X459829Y435500D01*
X460204Y433617D01*
X460931Y432530D01*
X461167Y431625D01*
X460931Y430720D01*
X460204Y429633D01*
X459829Y427750D01*
X460204Y425867D01*
X461046Y424607D01*
X461186Y423750D01*
X461046Y422893D01*
X460204Y421633D01*
X459829Y419750D01*
X460204Y417867D01*
X461271Y416271D01*
X462867Y415204D01*
X464750Y414829D01*
X466633Y415204D01*
X467973Y416099D01*
X468419Y416217D01*
X469513Y415906D01*
X470071Y415071D01*
X471415Y414173D01*
X473000Y413858D01*
X495857D01*
Y216144D01*
X473000D01*
X471415Y215829D01*
X470071Y214930D01*
X469173Y213586D01*
X469074Y213090D01*
X465291D01*
X464750Y213197D01*
X464209Y213090D01*
X461250D01*
X460506Y212942D01*
X460328Y213836D01*
X459917Y214451D01*
X459680Y215820D01*
X460578Y217164D01*
X460894Y218750D01*
X460578Y220336D01*
X459680Y221680D01*
X458336Y222578D01*
X456750Y222894D01*
X455164Y222578D01*
X453820Y221680D01*
X452922Y220336D01*
X452606Y218750D01*
X452922Y217164D01*
X453333Y216549D01*
X453570Y215180D01*
X452672Y213836D01*
X452356Y212250D01*
X452672Y210664D01*
X453570Y209320D01*
X454914Y208422D01*
X456500Y208106D01*
X457390Y208284D01*
X458660Y207395D01*
Y179090D01*
X454009D01*
X453883Y179065D01*
X453755Y179077D01*
X453391Y178967D01*
X453018Y178893D01*
X452911Y178821D01*
X452788Y178784D01*
X452747Y178750D01*
X452075D01*
X450836Y179578D01*
X449250Y179894D01*
X447664Y179578D01*
X446425Y178750D01*
X445753D01*
X445712Y178784D01*
X445589Y178821D01*
X445482Y178893D01*
X445109Y178967D01*
X444745Y179077D01*
X444617Y179065D01*
X444491Y179090D01*
X406010D01*
Y184106D01*
X405813Y185097D01*
X405252Y185937D01*
X404412Y186499D01*
X403421Y186696D01*
X393421D01*
X392430Y186499D01*
X391589Y185937D01*
X391028Y185097D01*
X390831Y184106D01*
Y179090D01*
X374250D01*
X373259Y178893D01*
X373046Y178750D01*
X372250D01*
X346049Y152549D01*
X344876Y153035D01*
Y232498D01*
X348286Y235909D01*
X348286Y235909D01*
X349072Y237085D01*
X349348Y238472D01*
X349348Y238472D01*
Y242385D01*
X349390Y242411D01*
X349566Y242578D01*
X350529Y243221D01*
X351764Y245070D01*
X352197Y247250D01*
X351764Y249430D01*
X350529Y251279D01*
X348680Y252514D01*
X346500Y252948D01*
X344402Y252530D01*
X344188Y253609D01*
X343402Y254785D01*
X340373Y257814D01*
X339197Y258600D01*
X337810Y258876D01*
X337809Y258876D01*
X330000D01*
X330000Y258876D01*
X328613Y258600D01*
X327436Y257814D01*
X317904Y248282D01*
X316526Y248700D01*
X316264Y250018D01*
X315029Y251867D01*
X314817Y252008D01*
X314786Y252045D01*
X314733Y252120D01*
X314694Y252185D01*
X314666Y252242D01*
X314645Y252295D01*
X314630Y252346D01*
X314626Y252367D01*
Y263000D01*
X314350Y264387D01*
X313564Y265564D01*
X313564Y265564D01*
X312931Y266197D01*
X313349Y267575D01*
X313836Y267672D01*
X315180Y268570D01*
X316078Y269914D01*
X316394Y271500D01*
X316286Y272040D01*
X317457Y272666D01*
X321186Y268936D01*
X321186Y268936D01*
X322363Y268150D01*
X323750Y267874D01*
X323750Y267874D01*
X378171D01*
X378296Y266604D01*
X378164Y266578D01*
X376820Y265680D01*
X375922Y264336D01*
X375606Y262750D01*
X375922Y261164D01*
X376820Y259820D01*
X378164Y258922D01*
X379750Y258606D01*
X381336Y258922D01*
X382680Y259820D01*
X383578Y261164D01*
X383894Y262750D01*
X383578Y264336D01*
X382680Y265680D01*
X381336Y266578D01*
X381204Y266604D01*
X381329Y267874D01*
X427971D01*
X427992Y267870D01*
X428043Y267855D01*
X428096Y267834D01*
X428153Y267806D01*
X428218Y267767D01*
X428293Y267714D01*
X428330Y267683D01*
X428471Y267471D01*
X430320Y266236D01*
X432500Y265802D01*
X434680Y266236D01*
X436529Y267471D01*
X437764Y269320D01*
X438198Y271500D01*
X437764Y273680D01*
X436529Y275529D01*
X434680Y276764D01*
X432500Y277197D01*
X430320Y276764D01*
X428471Y275529D01*
X428330Y275317D01*
X428293Y275286D01*
X428218Y275233D01*
X428153Y275194D01*
X428096Y275166D01*
X428044Y275145D01*
X427992Y275130D01*
X427971Y275126D01*
X399663D01*
X399176Y276299D01*
X403064Y280186D01*
X403850Y281363D01*
X403947Y281854D01*
X405305Y282170D01*
X405742Y281602D01*
X407839Y279993D01*
X410281Y278981D01*
X412902Y278636D01*
X415523Y278981D01*
X417966Y279993D01*
X420063Y281602D01*
X421672Y283699D01*
X422684Y286141D01*
X423029Y288762D01*
X422684Y291383D01*
X421672Y293826D01*
X420063Y295923D01*
X417966Y297532D01*
X416007Y298344D01*
X415786Y299658D01*
X415805Y299736D01*
X415930Y299820D01*
X416828Y301164D01*
X417144Y302750D01*
X416828Y304336D01*
X415930Y305680D01*
X414586Y306578D01*
X413000Y306894D01*
X411414Y306578D01*
X410070Y305680D01*
X409172Y304336D01*
X408856Y302750D01*
X409172Y301164D01*
X410070Y299820D01*
X410105Y299797D01*
X410157Y299427D01*
X409919Y298394D01*
X407839Y297532D01*
X405742Y295923D01*
X405396Y295472D01*
X404126Y295903D01*
Y302748D01*
X413064Y311686D01*
X413064Y311686D01*
X413850Y312862D01*
X414126Y314250D01*
X414126Y314250D01*
Y317164D01*
X415123Y317697D01*
X415396Y317699D01*
X416902Y317399D01*
X427000D01*
X428586Y317715D01*
X429930Y318613D01*
X430828Y319957D01*
X431143Y321543D01*
Y531301D01*
X431166Y531330D01*
X432401Y531914D01*
X432821Y531555D01*
Y332750D01*
X433215Y330768D01*
X434338Y329087D01*
X441320Y322105D01*
Y320931D01*
X440986Y320430D01*
X440552Y318250D01*
X440986Y316070D01*
X441320Y315569D01*
Y314431D01*
X440986Y313930D01*
X440552Y311750D01*
X440986Y309570D01*
X442221Y307721D01*
X444070Y306486D01*
X446250Y306052D01*
X448430Y306486D01*
X450279Y307721D01*
X451514Y309570D01*
X451948Y311750D01*
X451679Y313097D01*
Y316903D01*
X451948Y318250D01*
X451679Y319597D01*
Y324250D01*
X451285Y326232D01*
X450163Y327912D01*
X443180Y334895D01*
Y434950D01*
X444450Y435075D01*
X444515Y434747D01*
X445638Y433066D01*
X446138Y432566D01*
X446236Y432074D01*
X447471Y430225D01*
X449320Y428990D01*
X451500Y428557D01*
X453680Y428990D01*
X455529Y430225D01*
X456764Y432074D01*
X457197Y434254D01*
X456764Y436434D01*
X455529Y438283D01*
X454479Y438984D01*
Y457694D01*
X454564Y457820D01*
X454997Y460000D01*
X454564Y462180D01*
X454479Y462306D01*
Y469905D01*
X484412Y499837D01*
X485535Y501518D01*
X485929Y503500D01*
Y530000D01*
X485535Y531982D01*
X484412Y533662D01*
X468760Y549315D01*
X468621Y550809D01*
X468944Y551056D01*
X470954Y553676D01*
X472217Y556726D01*
X472648Y560000D01*
X472217Y563274D01*
X470954Y566324D01*
X468944Y568944D01*
X466324Y570954D01*
X463274Y572217D01*
X460000Y572648D01*
X456726Y572217D01*
X453676Y570954D01*
X451056Y568944D01*
X449046Y566324D01*
X447783Y563274D01*
X447352Y560000D01*
X447783Y556726D01*
X449046Y553676D01*
X450137Y552254D01*
X449575Y551115D01*
X403459D01*
X402329Y552246D01*
X402556Y552797D01*
Y564555D01*
X396922D01*
Y558921D01*
X395801Y558322D01*
X395482Y558535D01*
X393500Y558929D01*
X362513D01*
X362439Y558944D01*
X333265D01*
X331283Y558550D01*
X329602Y557427D01*
X327855Y555680D01*
X325602D01*
Y564555D01*
X310522D01*
Y555680D01*
X309145D01*
X272663Y592163D01*
X270982Y593285D01*
X269000Y593680D01*
X147847D01*
X146500Y593947D01*
X144320Y593514D01*
X144194Y593429D01*
X136556D01*
X136430Y593514D01*
X134250Y593947D01*
X132070Y593514D01*
X130221Y592279D01*
X128986Y590430D01*
X128770Y589343D01*
X127500Y589468D01*
Y604314D01*
X186915D01*
X187614Y603044D01*
X187356Y601750D01*
X187672Y600164D01*
X188570Y598820D01*
X189914Y597922D01*
X191500Y597606D01*
X193086Y597922D01*
X194430Y598820D01*
X195328Y600164D01*
X195644Y601750D01*
X195386Y603044D01*
X196085Y604314D01*
X199747D01*
X200564Y603044D01*
X200356Y602000D01*
X200672Y600414D01*
X201570Y599070D01*
X202914Y598172D01*
X204500Y597856D01*
X206086Y598172D01*
X207430Y599070D01*
X208328Y600414D01*
X208644Y602000D01*
X208436Y603044D01*
X209253Y604314D01*
X212747D01*
X213564Y603044D01*
X213356Y602000D01*
X213672Y600414D01*
X214570Y599070D01*
X215914Y598172D01*
X217500Y597856D01*
X219086Y598172D01*
X220430Y599070D01*
X221328Y600414D01*
X221644Y602000D01*
X221436Y603044D01*
X222253Y604314D01*
X284316D01*
X303315Y585315D01*
X304907Y584094D01*
X306761Y583326D01*
X308750Y583064D01*
X403500D01*
X405489Y583326D01*
X407343Y584094D01*
X408935Y585315D01*
X410156Y586907D01*
X410924Y588761D01*
X411186Y590750D01*
X410924Y592739D01*
X410156Y594593D01*
X409729Y595150D01*
X410355Y596420D01*
X412001D01*
Y606055D01*
X396922D01*
Y598436D01*
X325602D01*
Y606055D01*
X318062D01*
Y609865D01*
X325602D01*
Y616315D01*
X396922D01*
Y609865D01*
X412001D01*
Y616315D01*
X487257D01*
Y570458D01*
D02*
G37*
G36*
X95376Y597267D02*
X94468Y596309D01*
X93032Y597746D01*
X93144Y597859D01*
X93594Y598365D01*
X93594Y598378D01*
X95376Y597267D01*
D02*
G37*
G36*
X104469Y596202D02*
X104162Y596195D01*
X103866Y596167D01*
X103580Y596119D01*
X103306Y596050D01*
X103043Y595961D01*
X102791Y595851D01*
X102550Y595721D01*
X102320Y595570D01*
X102101Y595398D01*
X101893Y595206D01*
X100456Y596643D01*
X100648Y596851D01*
X100820Y597070D01*
X100971Y597300D01*
X101101Y597541D01*
X101211Y597793D01*
X101300Y598056D01*
X101369Y598330D01*
X101417Y598616D01*
X101445Y598912D01*
X101452Y599220D01*
X104469Y596202D01*
D02*
G37*
G36*
X106921Y580101D02*
X106731Y579872D01*
X106564Y579636D01*
X106418Y579393D01*
X106295Y579144D01*
X106195Y578888D01*
X106117Y578626D01*
X106061Y578356D01*
X106027Y578080D01*
X106016Y577798D01*
X103984D01*
X103973Y578080D01*
X103939Y578356D01*
X103883Y578626D01*
X103805Y578888D01*
X103705Y579144D01*
X103582Y579393D01*
X103436Y579636D01*
X103269Y579872D01*
X103079Y580101D01*
X102866Y580323D01*
X107134D01*
X106921Y580101D01*
D02*
G37*
G36*
X201055Y573912D02*
X201083Y573616D01*
X201131Y573330D01*
X201200Y573056D01*
X201289Y572793D01*
X201399Y572541D01*
X201529Y572300D01*
X201680Y572070D01*
X201852Y571851D01*
X202044Y571643D01*
X200607Y570206D01*
X200399Y570398D01*
X200180Y570570D01*
X199950Y570721D01*
X199709Y570851D01*
X199457Y570961D01*
X199194Y571050D01*
X198920Y571119D01*
X198634Y571167D01*
X198338Y571195D01*
X198030Y571202D01*
X201048Y574220D01*
X201055Y573912D01*
D02*
G37*
G36*
X109851Y570602D02*
X110070Y570430D01*
X110300Y570279D01*
X110541Y570149D01*
X110793Y570039D01*
X111056Y569950D01*
X111330Y569881D01*
X111616Y569833D01*
X111912Y569805D01*
X112219Y569798D01*
X109202Y566781D01*
X109195Y567088D01*
X109167Y567384D01*
X109119Y567670D01*
X109050Y567944D01*
X108961Y568207D01*
X108851Y568459D01*
X108721Y568700D01*
X108570Y568930D01*
X108398Y569149D01*
X108206Y569357D01*
X109643Y570794D01*
X109851Y570602D01*
D02*
G37*
G36*
X128690Y587557D02*
X128986Y586070D01*
X130221Y584221D01*
X132070Y582986D01*
X134250Y582552D01*
X136430Y582986D01*
X136556Y583070D01*
X144194D01*
X144320Y582986D01*
X146500Y582552D01*
X148680Y582986D01*
X149181Y583321D01*
X266855D01*
X286690Y563485D01*
X286128Y562346D01*
X285802Y562389D01*
X283181Y562044D01*
X280739Y561032D01*
X278641Y559423D01*
X277032Y557326D01*
X276021Y554883D01*
X275676Y552262D01*
X276021Y549641D01*
X277032Y547199D01*
X278641Y545102D01*
X280739Y543493D01*
X283181Y542481D01*
X285802Y542136D01*
X288423Y542481D01*
X290865Y543493D01*
X292963Y545102D01*
X294572Y547199D01*
X295584Y549641D01*
X295929Y552262D01*
X295886Y552588D01*
X297025Y553150D01*
X301610Y548565D01*
X301192Y547187D01*
X300320Y547014D01*
X298471Y545779D01*
X297236Y543930D01*
X296803Y541750D01*
X297236Y539570D01*
X298471Y537721D01*
X300320Y536486D01*
X302500Y536053D01*
X304680Y536486D01*
X304806Y536571D01*
X328694D01*
X328820Y536486D01*
X331000Y536053D01*
X333180Y536486D01*
X333306Y536571D01*
X347355D01*
X349588Y534338D01*
X351268Y533215D01*
X353250Y532820D01*
X353250Y532821D01*
X411793D01*
X412759Y531886D01*
Y341585D01*
X411489Y340865D01*
X411295Y340982D01*
X411447Y341750D01*
X411014Y343930D01*
X409779Y345779D01*
X407930Y347014D01*
X405750Y347448D01*
X403570Y347014D01*
X401721Y345779D01*
X400486Y343930D01*
X400052Y341750D01*
X400102Y341500D01*
X400098Y341452D01*
X400083Y341362D01*
X400064Y341288D01*
X400043Y341228D01*
X400021Y341176D01*
X399995Y341129D01*
X399984Y341111D01*
X395436Y336564D01*
X394650Y335387D01*
X394374Y334000D01*
X394374Y334000D01*
Y325002D01*
X391726Y322353D01*
X390311Y322734D01*
X389279Y324279D01*
X387430Y325514D01*
X385250Y325947D01*
X383070Y325514D01*
X381221Y324279D01*
X379986Y322430D01*
X379552Y320250D01*
X379602Y320000D01*
X379598Y319952D01*
X379582Y319862D01*
X379564Y319788D01*
X379543Y319728D01*
X379521Y319676D01*
X379495Y319629D01*
X379484Y319611D01*
X365686Y305814D01*
X364900Y304638D01*
X364624Y303250D01*
X364624Y303250D01*
Y291529D01*
X364620Y291508D01*
X364605Y291457D01*
X364584Y291404D01*
X364556Y291347D01*
X364517Y291282D01*
X364464Y291207D01*
X364433Y291170D01*
X364221Y291029D01*
X362986Y289180D01*
X362552Y287000D01*
X362748Y286019D01*
X361942Y285038D01*
X329340D01*
X300766Y313611D01*
X300755Y313629D01*
X300729Y313676D01*
X300707Y313728D01*
X300686Y313788D01*
X300667Y313862D01*
X300652Y313953D01*
X300648Y314000D01*
X300697Y314250D01*
X300264Y316430D01*
X299069Y318218D01*
X298901Y318564D01*
Y319634D01*
X299180Y319820D01*
X300078Y321164D01*
X300394Y322750D01*
X300078Y324336D01*
X299180Y325680D01*
X297836Y326578D01*
X296250Y326894D01*
X295546Y326754D01*
X294466Y327834D01*
X294697Y329000D01*
X294264Y331180D01*
X293029Y333029D01*
X292197Y333584D01*
X292073Y334848D01*
X298292Y341067D01*
X298429Y341094D01*
X299605Y341880D01*
X320836Y363111D01*
X322428Y362907D01*
X322820Y362320D01*
X324164Y361422D01*
X325750Y361106D01*
X327336Y361422D01*
X328680Y362320D01*
X329578Y363664D01*
X329894Y365250D01*
X329578Y366836D01*
X328680Y368180D01*
X328093Y368572D01*
X327889Y370164D01*
X334314Y376589D01*
X335100Y377765D01*
X335376Y379153D01*
X335426Y379169D01*
X336672Y379414D01*
X337570Y378070D01*
X338914Y377172D01*
X340500Y376856D01*
X342086Y377172D01*
X343430Y378070D01*
X344328Y379414D01*
X344644Y381000D01*
X344328Y382586D01*
X343430Y383930D01*
X342086Y384828D01*
X340500Y385144D01*
X338914Y384828D01*
X337570Y383930D01*
X336672Y382586D01*
X336646Y382454D01*
X335376Y382579D01*
Y404998D01*
X375564Y445186D01*
X376350Y446362D01*
X376626Y447750D01*
X376626Y447750D01*
Y450221D01*
X376630Y450242D01*
X376645Y450293D01*
X376666Y450346D01*
X376694Y450403D01*
X376733Y450468D01*
X376786Y450543D01*
X376817Y450580D01*
X377029Y450721D01*
X378264Y452570D01*
X378698Y454750D01*
X378264Y456930D01*
X377029Y458779D01*
X375180Y460014D01*
X373000Y460448D01*
X370820Y460014D01*
X368971Y458779D01*
X367736Y456930D01*
X367303Y454750D01*
X367736Y452570D01*
X368971Y450721D01*
X369183Y450580D01*
X369214Y450543D01*
X369267Y450468D01*
X369306Y450403D01*
X369334Y450346D01*
X369355Y450294D01*
X369370Y450242D01*
X369374Y450221D01*
Y449252D01*
X334650Y414527D01*
X333479Y415153D01*
X333698Y416250D01*
X333264Y418430D01*
X332029Y420279D01*
X330180Y421514D01*
X328000Y421948D01*
X325820Y421514D01*
X323971Y420279D01*
X322736Y418430D01*
X322303Y416250D01*
X322736Y414070D01*
X323971Y412221D01*
X324183Y412080D01*
X324214Y412043D01*
X324267Y411968D01*
X324306Y411903D01*
X324334Y411846D01*
X324355Y411794D01*
X324370Y411742D01*
X324374Y411721D01*
Y381933D01*
X310142Y367701D01*
X308942Y367982D01*
X308789Y368144D01*
X307930Y369430D01*
X306586Y370328D01*
X305000Y370644D01*
X303414Y370328D01*
X302070Y369430D01*
X301172Y368086D01*
X300856Y366500D01*
X301172Y364914D01*
X302070Y363570D01*
X303356Y362711D01*
X303518Y362558D01*
X303799Y361358D01*
X294067Y351626D01*
X293250D01*
X291863Y351350D01*
X290686Y350564D01*
X290686Y350564D01*
X287549Y347426D01*
X286376Y347912D01*
Y398439D01*
X286396Y398451D01*
X286569Y398612D01*
X287592Y399295D01*
X288827Y401144D01*
X289260Y403324D01*
X288827Y405504D01*
X287592Y407353D01*
X286227Y408265D01*
X286264Y408320D01*
X286698Y410500D01*
X286353Y412231D01*
X286992Y413596D01*
X287115Y413692D01*
X288430Y414570D01*
X289328Y415914D01*
X289644Y417500D01*
X289328Y419086D01*
X288430Y420430D01*
X287086Y421328D01*
X285500Y421644D01*
X283914Y421328D01*
X282570Y420430D01*
X281672Y419086D01*
X281356Y417500D01*
X281513Y416711D01*
X281000Y416198D01*
X278820Y415764D01*
X276971Y414529D01*
X275736Y412680D01*
X275303Y410500D01*
X275352Y410250D01*
X275348Y410202D01*
X275333Y410112D01*
X275314Y410038D01*
X275294Y409978D01*
X275271Y409926D01*
X275245Y409879D01*
X275234Y409861D01*
X274936Y409564D01*
X274150Y408387D01*
X273874Y407000D01*
X273874Y407000D01*
Y349551D01*
X272604Y349166D01*
X272529Y349279D01*
X270680Y350514D01*
X268500Y350947D01*
X266320Y350514D01*
X264471Y349279D01*
X263236Y347430D01*
X263168Y347090D01*
X263125Y346974D01*
X262938Y346556D01*
X262877Y346439D01*
X262672Y346099D01*
X262618Y346022D01*
X262501Y345878D01*
X258962Y342339D01*
X257791Y342965D01*
X257948Y343750D01*
X257514Y345930D01*
X256279Y347779D01*
X254430Y349014D01*
X252250Y349448D01*
X250070Y349014D01*
X248221Y347779D01*
X248123Y347632D01*
X248055Y347586D01*
X247980Y347543D01*
X247913Y347511D01*
X247850Y347487D01*
X247790Y347470D01*
X247761Y347464D01*
X233435D01*
X232048Y347188D01*
X231396Y346752D01*
X230126Y347397D01*
Y359498D01*
X235664Y365036D01*
X260758D01*
X261705Y365010D01*
X262256Y364962D01*
X262678Y364900D01*
X262769Y364880D01*
X262911Y364842D01*
X262915Y364841D01*
X262918Y364840D01*
X263128Y364825D01*
X264500Y364552D01*
X266680Y364986D01*
X268529Y366221D01*
X269764Y368070D01*
X270198Y370250D01*
X269764Y372430D01*
X268529Y374279D01*
X266680Y375514D01*
X264500Y375947D01*
X262320Y375514D01*
X260471Y374279D01*
X259236Y372430D01*
X259208Y372288D01*
X247488D01*
X246506Y373558D01*
X246644Y374250D01*
X246328Y375836D01*
X245430Y377180D01*
X244086Y378078D01*
X242500Y378394D01*
X240914Y378078D01*
X239570Y377180D01*
X238984Y376302D01*
X237714Y376688D01*
Y387912D01*
X237714Y387912D01*
X237438Y389300D01*
X236652Y390476D01*
X236652Y390476D01*
X231889Y395238D01*
X232307Y396616D01*
X232586Y396672D01*
X233930Y397570D01*
X234828Y398914D01*
X235144Y400500D01*
X234828Y402086D01*
X233930Y403430D01*
X232586Y404328D01*
X231000Y404644D01*
X229414Y404328D01*
X228070Y403430D01*
X227523Y402611D01*
X227082Y402548D01*
X226094Y402684D01*
X225029Y404279D01*
X223784Y405110D01*
X223520Y406642D01*
X226064Y409186D01*
X226064Y409186D01*
X226850Y410363D01*
X227126Y411750D01*
Y413790D01*
X227308Y413940D01*
X228396Y414352D01*
X229414Y413672D01*
X231000Y413356D01*
X232586Y413672D01*
X233930Y414570D01*
X234828Y415914D01*
X235144Y417500D01*
X234828Y419086D01*
X233930Y420430D01*
X232586Y421328D01*
X231080Y421628D01*
X230871Y421949D01*
X230494Y422838D01*
X235531Y427874D01*
X264000D01*
X264000Y427874D01*
X265387Y428150D01*
X266564Y428936D01*
X271861Y434234D01*
X271879Y434245D01*
X271926Y434271D01*
X271978Y434294D01*
X272038Y434314D01*
X272112Y434333D01*
X272202Y434348D01*
X272250Y434352D01*
X272500Y434302D01*
X274680Y434736D01*
X276529Y435971D01*
X277764Y437820D01*
X278197Y440000D01*
X277764Y442180D01*
X276529Y444029D01*
X274680Y445264D01*
X272500Y445698D01*
X272339Y445666D01*
X271713Y446836D01*
X292861Y467984D01*
X292879Y467995D01*
X292926Y468021D01*
X292978Y468044D01*
X293038Y468064D01*
X293112Y468083D01*
X293202Y468098D01*
X293250Y468102D01*
X293500Y468052D01*
X295680Y468486D01*
X297529Y469721D01*
X298764Y471570D01*
X299198Y473750D01*
X298764Y475930D01*
X298380Y476504D01*
X298979Y477624D01*
X301250D01*
X301250Y477624D01*
X302638Y477900D01*
X303814Y478686D01*
X327252Y502124D01*
X372471D01*
X372492Y502120D01*
X372543Y502105D01*
X372596Y502084D01*
X372653Y502056D01*
X372718Y502017D01*
X372793Y501964D01*
X372830Y501933D01*
X372971Y501721D01*
X374820Y500486D01*
X377000Y500052D01*
X379180Y500486D01*
X381029Y501721D01*
X382264Y503570D01*
X382697Y505750D01*
X382264Y507930D01*
X381029Y509779D01*
X379180Y511014D01*
X377000Y511447D01*
X374820Y511014D01*
X372971Y509779D01*
X372830Y509567D01*
X372793Y509536D01*
X372718Y509483D01*
X372653Y509444D01*
X372596Y509416D01*
X372543Y509395D01*
X372492Y509380D01*
X372471Y509376D01*
X359162D01*
X358676Y510549D01*
X359861Y511734D01*
X359879Y511745D01*
X359926Y511771D01*
X359978Y511794D01*
X360038Y511814D01*
X360112Y511833D01*
X360202Y511848D01*
X360250Y511852D01*
X360500Y511802D01*
X362680Y512236D01*
X364529Y513471D01*
X365764Y515320D01*
X366198Y517500D01*
X365764Y519680D01*
X364529Y521529D01*
X362680Y522764D01*
X360500Y523198D01*
X358320Y522764D01*
X356471Y521529D01*
X355236Y519680D01*
X354803Y517500D01*
X354852Y517250D01*
X354848Y517202D01*
X354832Y517112D01*
X354814Y517038D01*
X354794Y516978D01*
X354771Y516926D01*
X354745Y516879D01*
X354734Y516861D01*
X350998Y513126D01*
X340461D01*
X339628Y514396D01*
X339948Y516000D01*
X339514Y518180D01*
X338279Y520029D01*
X336430Y521264D01*
X334250Y521698D01*
X332070Y521264D01*
X330221Y520029D01*
X330080Y519817D01*
X330043Y519786D01*
X329968Y519733D01*
X329903Y519694D01*
X329846Y519666D01*
X329794Y519645D01*
X329742Y519630D01*
X329721Y519626D01*
X322250D01*
X322250Y519626D01*
X320863Y519350D01*
X319686Y518564D01*
X319686Y518564D01*
X318686Y517564D01*
X318686Y517564D01*
X295248Y494126D01*
X292412D01*
X291926Y495299D01*
X295064Y498436D01*
X295064Y498436D01*
X295850Y499613D01*
X296126Y501000D01*
X296126Y501000D01*
Y517250D01*
X296126Y517250D01*
X295850Y518638D01*
X295064Y519814D01*
X295064Y519814D01*
X273758Y541120D01*
X272582Y541906D01*
X271194Y542182D01*
X271194Y542182D01*
X235196D01*
X203766Y573611D01*
X203755Y573629D01*
X203729Y573676D01*
X203707Y573728D01*
X203686Y573789D01*
X203668Y573862D01*
X203652Y573953D01*
X203648Y574000D01*
X203697Y574250D01*
X203264Y576430D01*
X202029Y578279D01*
X200180Y579514D01*
X198000Y579948D01*
X195820Y579514D01*
X193971Y578279D01*
X192736Y576430D01*
X192302Y574250D01*
X192736Y572070D01*
X193971Y570221D01*
X195820Y568986D01*
X198000Y568553D01*
X198250Y568602D01*
X198298Y568598D01*
X198388Y568582D01*
X198462Y568564D01*
X198522Y568544D01*
X198574Y568521D01*
X198621Y568495D01*
X198639Y568484D01*
X216150Y550972D01*
X215341Y549986D01*
X214781Y550360D01*
X212898Y550734D01*
X211015Y550360D01*
X209419Y549293D01*
X208352Y547697D01*
X207977Y545814D01*
X208352Y543931D01*
X209419Y542335D01*
X211015Y541268D01*
X212898Y540893D01*
X214781Y541268D01*
X216377Y542335D01*
X217444Y543931D01*
X217818Y545814D01*
X217444Y547697D01*
X217070Y548257D01*
X218056Y549066D01*
X227323Y539799D01*
X226838Y538626D01*
X107808D01*
X107002Y539607D01*
X107198Y540588D01*
X107148Y540838D01*
X107152Y540886D01*
X107168Y540976D01*
X107186Y541050D01*
X107206Y541110D01*
X107229Y541162D01*
X107255Y541209D01*
X107266Y541227D01*
X110314Y544274D01*
X110314Y544274D01*
X111100Y545451D01*
X111376Y546838D01*
X111376Y546838D01*
Y553500D01*
X111100Y554888D01*
X110314Y556064D01*
X110314Y556064D01*
X102126Y564252D01*
Y569951D01*
X103396Y570477D01*
X106484Y567389D01*
X106495Y567371D01*
X106521Y567324D01*
X106544Y567272D01*
X106564Y567212D01*
X106582Y567138D01*
X106598Y567048D01*
X106602Y567000D01*
X106552Y566750D01*
X106986Y564570D01*
X108221Y562721D01*
X110070Y561486D01*
X112250Y561053D01*
X114430Y561486D01*
X116279Y562721D01*
X117514Y564570D01*
X117948Y566750D01*
X117514Y568930D01*
X116279Y570779D01*
X114430Y572014D01*
X113280Y572243D01*
X113286Y573536D01*
X127381Y587631D01*
X128690Y587557D01*
D02*
G37*
G36*
X96851Y553602D02*
X97070Y553430D01*
X97300Y553279D01*
X97541Y553149D01*
X97793Y553039D01*
X98056Y552950D01*
X98330Y552881D01*
X98616Y552833D01*
X98912Y552805D01*
X99220Y552798D01*
X96202Y549781D01*
X96195Y550088D01*
X96167Y550384D01*
X96119Y550670D01*
X96050Y550944D01*
X95961Y551207D01*
X95851Y551459D01*
X95721Y551700D01*
X95570Y551930D01*
X95398Y552149D01*
X95206Y552357D01*
X96643Y553794D01*
X96851Y553602D01*
D02*
G37*
G36*
X105544Y543195D02*
X105352Y542987D01*
X105180Y542768D01*
X105029Y542538D01*
X104899Y542297D01*
X104789Y542045D01*
X104700Y541782D01*
X104631Y541508D01*
X104583Y541222D01*
X104555Y540926D01*
X104548Y540619D01*
X101531Y543636D01*
X101838Y543643D01*
X102134Y543671D01*
X102420Y543719D01*
X102694Y543788D01*
X102957Y543877D01*
X103209Y543987D01*
X103450Y544117D01*
X103680Y544268D01*
X103899Y544440D01*
X104107Y544632D01*
X105544Y543195D01*
D02*
G37*
G36*
X90384Y553944D02*
X90400Y553862D01*
X91186Y552686D01*
X93484Y550389D01*
X93495Y550371D01*
X93521Y550324D01*
X93544Y550272D01*
X93564Y550212D01*
X93582Y550138D01*
X93598Y550047D01*
X93602Y550000D01*
X93553Y549750D01*
X93986Y547570D01*
X95221Y545721D01*
X96231Y545047D01*
X96642Y543375D01*
X96236Y542768D01*
X95802Y540588D01*
X95998Y539607D01*
X95192Y538626D01*
X84000D01*
X84000Y538626D01*
X82612Y538350D01*
X81436Y537564D01*
X20865Y476992D01*
X20717Y476901D01*
X20349Y476719D01*
X19897Y476531D01*
X15034Y475136D01*
X13745Y474848D01*
X13742Y474846D01*
X13738Y474846D01*
X13700Y474829D01*
X13248Y474770D01*
X10684Y473708D01*
X8482Y472018D01*
X6792Y469816D01*
X5730Y467252D01*
X5413Y464845D01*
X4143Y464928D01*
Y527000D01*
X43000D01*
X52396Y536396D01*
X53737Y535941D01*
X53826Y535261D01*
X54594Y533407D01*
X55815Y531815D01*
X57407Y530594D01*
X59261Y529826D01*
X61250Y529564D01*
X63239Y529826D01*
X65093Y530594D01*
X66685Y531815D01*
X71935Y537065D01*
X88685Y553815D01*
X89026Y554260D01*
X90384Y553944D01*
D02*
G37*
G36*
X475570Y527855D02*
Y505645D01*
X445638Y475713D01*
X444515Y474032D01*
X444450Y473704D01*
X443180Y473829D01*
Y531471D01*
X444450Y532150D01*
X445117Y531704D01*
X447000Y531329D01*
X448883Y531704D01*
X450479Y532771D01*
X451546Y534367D01*
X451921Y536250D01*
X451546Y538133D01*
X450642Y539487D01*
X451054Y540756D01*
X462669D01*
X475570Y527855D01*
D02*
G37*
G36*
X127573Y526201D02*
X102936Y501564D01*
X102150Y500387D01*
X101874Y499000D01*
X101874Y499000D01*
Y438252D01*
X97389Y433766D01*
X97371Y433755D01*
X97324Y433729D01*
X97272Y433707D01*
X97212Y433686D01*
X97138Y433668D01*
X97048Y433652D01*
X97000Y433648D01*
X96750Y433698D01*
X94570Y433264D01*
X92721Y432029D01*
X91486Y430180D01*
X91053Y428000D01*
X91486Y425820D01*
X92721Y423971D01*
X94570Y422736D01*
X96750Y422303D01*
X98930Y422736D01*
X100779Y423971D01*
X102014Y425820D01*
X102448Y428000D01*
X102398Y428250D01*
X102402Y428298D01*
X102417Y428388D01*
X102436Y428462D01*
X102457Y428522D01*
X102479Y428574D01*
X102505Y428621D01*
X102516Y428639D01*
X108064Y434186D01*
X108064Y434186D01*
X108850Y435363D01*
X109126Y436750D01*
X109126Y436750D01*
Y497498D01*
X135002Y523374D01*
X143597D01*
X143597Y523374D01*
X144040Y523462D01*
X147960D01*
X148403Y523374D01*
X234498D01*
X238227Y519646D01*
X237701Y518376D01*
X141529D01*
X141508Y518380D01*
X141457Y518395D01*
X141404Y518416D01*
X141347Y518444D01*
X141282Y518483D01*
X141207Y518536D01*
X141170Y518567D01*
X141029Y518779D01*
X139180Y520014D01*
X137000Y520448D01*
X134820Y520014D01*
X132971Y518779D01*
X131736Y516930D01*
X131302Y514750D01*
X131736Y512570D01*
X132971Y510721D01*
X134820Y509486D01*
X134875Y509475D01*
X135474Y508355D01*
X135316Y507974D01*
X135089Y506250D01*
X135316Y504526D01*
X135981Y502920D01*
X137040Y501540D01*
X138420Y500481D01*
X140026Y499816D01*
X141750Y499589D01*
X143474Y499816D01*
X145080Y500481D01*
X146460Y501540D01*
X146491Y501581D01*
X146696Y501777D01*
X146881Y501932D01*
X147053Y502058D01*
X147213Y502158D01*
X147362Y502234D01*
X147502Y502292D01*
X147637Y502335D01*
X147769Y502364D01*
X147780Y502365D01*
X158141D01*
X180365Y480141D01*
Y466609D01*
X176966Y463210D01*
X175980Y464020D01*
X176546Y464867D01*
X176921Y466750D01*
X176546Y468633D01*
X175479Y470229D01*
X173883Y471296D01*
X172000Y471670D01*
X170117Y471296D01*
X168521Y470229D01*
X167454Y468633D01*
X167080Y466750D01*
X167454Y464867D01*
X168521Y463271D01*
X170117Y462204D01*
X172000Y461829D01*
X173883Y462204D01*
X174730Y462770D01*
X175540Y461784D01*
X173767Y460011D01*
X173758Y460004D01*
X173644Y459931D01*
X173519Y459866D01*
X173379Y459808D01*
X173219Y459757D01*
X173036Y459714D01*
X172825Y459681D01*
X172585Y459660D01*
X172301Y459654D01*
X172250Y459661D01*
X170526Y459434D01*
X168920Y458769D01*
X167540Y457710D01*
X166481Y456330D01*
X165816Y454724D01*
X165589Y453000D01*
X165816Y451276D01*
X166481Y449669D01*
X167540Y448290D01*
X168920Y447231D01*
X170526Y446566D01*
X172250Y446339D01*
X173974Y446566D01*
X175581Y447231D01*
X176960Y448290D01*
X178019Y449669D01*
X178684Y451276D01*
X178911Y453000D01*
X178904Y453051D01*
X178910Y453335D01*
X178931Y453575D01*
X178964Y453786D01*
X179007Y453969D01*
X179058Y454129D01*
X179116Y454269D01*
X179181Y454394D01*
X179254Y454508D01*
X179261Y454517D01*
X186997Y462253D01*
X187839Y463513D01*
X188135Y465000D01*
Y481750D01*
X187839Y483237D01*
X186997Y484497D01*
X162497Y508997D01*
X161237Y509839D01*
X161159Y509854D01*
X161284Y511124D01*
X236998D01*
X258518Y489605D01*
X258032Y488432D01*
X222277D01*
X222277Y488432D01*
X221996Y488376D01*
X215000D01*
X215000Y488376D01*
X213613Y488100D01*
X212436Y487314D01*
X212436Y487314D01*
X198139Y473016D01*
X198121Y473005D01*
X198074Y472979D01*
X198022Y472957D01*
X197962Y472936D01*
X197888Y472918D01*
X197798Y472902D01*
X197750Y472898D01*
X197500Y472948D01*
X195320Y472514D01*
X193471Y471279D01*
X192236Y469430D01*
X191803Y467250D01*
X192236Y465070D01*
X193471Y463221D01*
X195320Y461986D01*
X195781Y460872D01*
X195486Y460430D01*
X195053Y458250D01*
X195486Y456070D01*
X196721Y454221D01*
X198570Y452986D01*
X200750Y452552D01*
X202930Y452986D01*
X204779Y454221D01*
X206014Y456070D01*
X206448Y458250D01*
X206398Y458500D01*
X206402Y458548D01*
X206418Y458638D01*
X206436Y458712D01*
X206457Y458772D01*
X206479Y458824D01*
X206505Y458871D01*
X206516Y458889D01*
X225252Y477624D01*
X278271D01*
X278870Y476504D01*
X278486Y475930D01*
X278053Y473750D01*
X278102Y473500D01*
X278098Y473452D01*
X278083Y473362D01*
X278064Y473288D01*
X278043Y473228D01*
X278021Y473176D01*
X277995Y473129D01*
X277984Y473111D01*
X258498Y453626D01*
X223750D01*
X223750Y453626D01*
X222362Y453350D01*
X221186Y452564D01*
X201686Y433064D01*
X200900Y431888D01*
X200624Y430500D01*
X200624Y430500D01*
Y427710D01*
X200248Y427456D01*
X198838Y428035D01*
X198828Y428086D01*
X197930Y429430D01*
X196586Y430328D01*
X195000Y430644D01*
X193414Y430328D01*
X192070Y429430D01*
X191172Y428086D01*
X190856Y426500D01*
X191172Y424914D01*
X192070Y423570D01*
X193414Y422672D01*
X194527Y422450D01*
X195041Y421168D01*
X174686Y400814D01*
X173900Y399637D01*
X173624Y398250D01*
X173624Y398250D01*
Y388002D01*
X121019Y335396D01*
X119848Y336022D01*
X119894Y336250D01*
X119578Y337836D01*
X118680Y339180D01*
X117336Y340078D01*
X115750Y340394D01*
X114164Y340078D01*
X112820Y339180D01*
X111922Y337836D01*
X111606Y336250D01*
X111922Y334664D01*
X112820Y333320D01*
X114164Y332422D01*
X115750Y332106D01*
X115978Y332152D01*
X116604Y330981D01*
X108774Y323152D01*
X107988Y321976D01*
X107712Y320588D01*
X107712Y320588D01*
Y276191D01*
X106539Y275705D01*
X92797Y289447D01*
X91537Y290289D01*
X90050Y290585D01*
X53920D01*
X53666Y290640D01*
X53310Y290764D01*
X52873Y290966D01*
X52363Y291257D01*
X51789Y291640D01*
X51182Y292100D01*
X49732Y293374D01*
X49123Y293975D01*
X49004Y294130D01*
X49050Y294561D01*
X49358Y295495D01*
X50138Y295650D01*
X51314Y296436D01*
X56314Y301436D01*
X57100Y302612D01*
X57376Y304000D01*
X57376Y304000D01*
Y305590D01*
X58646Y306268D01*
X59164Y305922D01*
X60750Y305606D01*
X62336Y305922D01*
X63680Y306820D01*
X64578Y308164D01*
X64894Y309750D01*
X64578Y311336D01*
X63680Y312680D01*
X62336Y313578D01*
X61965Y313652D01*
X61757Y313976D01*
X61492Y315041D01*
X62514Y316570D01*
X62948Y318750D01*
X62514Y320930D01*
X61279Y322779D01*
X59430Y324014D01*
X57250Y324448D01*
X55070Y324014D01*
X54345Y323530D01*
X53815Y323737D01*
X53099Y324224D01*
X52828Y325586D01*
X51930Y326930D01*
X50586Y327828D01*
X49000Y328144D01*
X47414Y327828D01*
X46070Y326930D01*
X45172Y325586D01*
X44856Y324000D01*
X44973Y323412D01*
X44624Y322959D01*
X43878Y322408D01*
X41418Y322732D01*
X41114Y322692D01*
X40259Y322698D01*
X38333Y322822D01*
X37579Y322927D01*
X36902Y323062D01*
X36335Y323217D01*
X35883Y323382D01*
X35544Y323547D01*
X35326Y323687D01*
X33635Y325378D01*
Y333923D01*
X34905Y334176D01*
X35051Y333824D01*
X36219Y332301D01*
X37742Y331132D01*
X39515Y330398D01*
X41418Y330147D01*
X43321Y330398D01*
X45095Y331132D01*
X46618Y332301D01*
X47786Y333824D01*
X48521Y335597D01*
X48771Y337500D01*
X48521Y339403D01*
X47786Y341176D01*
X46618Y342699D01*
X45095Y343868D01*
X43321Y344602D01*
X41418Y344853D01*
X39515Y344602D01*
X37742Y343868D01*
X36219Y342699D01*
X35051Y341176D01*
X34905Y340824D01*
X33635Y341077D01*
Y359323D01*
X34905Y359576D01*
X35051Y359224D01*
X36219Y357701D01*
X37742Y356532D01*
X39515Y355798D01*
X41418Y355547D01*
X43321Y355798D01*
X45095Y356532D01*
X46618Y357701D01*
X47786Y359224D01*
X48521Y360997D01*
X48771Y362900D01*
X48521Y364803D01*
X47786Y366576D01*
X46618Y368099D01*
X45095Y369268D01*
X43321Y370002D01*
X41418Y370253D01*
X39515Y370002D01*
X37742Y369268D01*
X36219Y368099D01*
X35051Y366576D01*
X34905Y366224D01*
X33635Y366477D01*
Y384723D01*
X34905Y384976D01*
X35051Y384624D01*
X36219Y383101D01*
X37742Y381932D01*
X39515Y381198D01*
X41418Y380947D01*
X43321Y381198D01*
X45095Y381932D01*
X46618Y383101D01*
X47786Y384624D01*
X48521Y386397D01*
X48771Y388300D01*
X48521Y390203D01*
X47786Y391977D01*
X46618Y393499D01*
X45095Y394668D01*
X43321Y395402D01*
X41418Y395653D01*
X39515Y395402D01*
X37742Y394668D01*
X36219Y393499D01*
X35051Y391977D01*
X34905Y391624D01*
X33635Y391877D01*
Y399391D01*
X52997Y418753D01*
X53839Y420013D01*
X54135Y421500D01*
Y445783D01*
X55405Y446620D01*
X57000Y446302D01*
X57250Y446352D01*
X57298Y446348D01*
X57388Y446333D01*
X57462Y446314D01*
X57522Y446293D01*
X57574Y446271D01*
X57621Y446245D01*
X57639Y446234D01*
X74159Y429714D01*
X74159Y429714D01*
X74446Y429522D01*
X74486Y429320D01*
X75721Y427471D01*
X77570Y426236D01*
X79750Y425802D01*
X81930Y426236D01*
X83779Y427471D01*
X85014Y429320D01*
X85448Y431500D01*
X85014Y433680D01*
X83779Y435529D01*
X81930Y436764D01*
X79750Y437197D01*
X77570Y436764D01*
X77446Y436681D01*
X62766Y451361D01*
X62755Y451379D01*
X62729Y451427D01*
X62706Y451478D01*
X62686Y451538D01*
X62667Y451612D01*
X62652Y451702D01*
X62648Y451750D01*
X62698Y452000D01*
X62264Y454180D01*
X61029Y456029D01*
X59180Y457264D01*
X57000Y457697D01*
X55405Y457380D01*
X54135Y458217D01*
Y462141D01*
X65359Y473365D01*
X73250D01*
X74737Y473661D01*
X75997Y474503D01*
X95247Y493753D01*
X96089Y495013D01*
X96385Y496500D01*
Y502740D01*
X96393Y502793D01*
X96410Y502870D01*
X96419Y502898D01*
X96529Y502971D01*
X97764Y504820D01*
X98197Y507000D01*
X97764Y509180D01*
X96529Y511029D01*
X94680Y512264D01*
X92500Y512697D01*
X90320Y512264D01*
X88471Y511029D01*
X87236Y509180D01*
X86803Y507000D01*
X87236Y504820D01*
X88471Y502971D01*
X88581Y502898D01*
X88590Y502870D01*
X88607Y502793D01*
X88615Y502740D01*
Y498109D01*
X71641Y481135D01*
X63750D01*
X62263Y480839D01*
X61003Y479997D01*
X47503Y466497D01*
X46661Y465237D01*
X46365Y463750D01*
Y423109D01*
X27003Y403747D01*
X26161Y402487D01*
X25865Y401000D01*
Y323769D01*
X26161Y322282D01*
X27003Y321022D01*
X29832Y318193D01*
X29972Y317974D01*
X30136Y317636D01*
X30302Y317183D01*
X30457Y316617D01*
X30592Y315940D01*
X30696Y315186D01*
X30821Y313259D01*
X30826Y312404D01*
X30786Y312100D01*
X31149Y309348D01*
X32211Y306784D01*
X33900Y304582D01*
X34795Y303896D01*
X34566Y302908D01*
X34392Y302604D01*
X33112Y302350D01*
X31936Y301564D01*
X31936Y301564D01*
X26686Y296314D01*
X25900Y295138D01*
X25624Y293750D01*
X25624Y293750D01*
Y217359D01*
X24354Y216928D01*
X23518Y218018D01*
X21316Y219708D01*
X18752Y220770D01*
X17904Y220881D01*
Y210500D01*
Y200119D01*
X18752Y200230D01*
X21316Y201292D01*
X23518Y202982D01*
X24354Y204072D01*
X25624Y203641D01*
Y190356D01*
X25598Y190259D01*
X25552Y190131D01*
X25478Y189974D01*
X25374Y189789D01*
X25255Y189610D01*
X24814Y189062D01*
X24633Y188870D01*
X24606Y188849D01*
X24573Y188806D01*
X24540Y188771D01*
X24512Y188727D01*
X23547Y187470D01*
X22882Y185863D01*
X22655Y184139D01*
X22882Y182415D01*
X23547Y180809D01*
X24606Y179429D01*
X25985Y178370D01*
X27592Y177705D01*
X29316Y177478D01*
X31040Y177705D01*
X32646Y178370D01*
X34026Y179429D01*
X35084Y180809D01*
X35750Y182415D01*
X35977Y184139D01*
X35750Y185863D01*
X35084Y187470D01*
X34026Y188849D01*
X33952Y188906D01*
X33942Y188921D01*
X33640Y189222D01*
X33424Y189461D01*
X33250Y189680D01*
X33114Y189876D01*
X33013Y190047D01*
X32943Y190191D01*
X32899Y190308D01*
X32876Y190394D01*
Y202411D01*
X34146Y202794D01*
X36102Y201292D01*
X38667Y200230D01*
X39513Y200119D01*
Y210500D01*
Y220881D01*
X38667Y220770D01*
X36102Y219708D01*
X34146Y218206D01*
X32876Y218590D01*
Y234346D01*
X33727Y235264D01*
X34146Y235291D01*
X34148Y235271D01*
X34316Y233997D01*
X35051Y232224D01*
X36219Y230701D01*
X37742Y229532D01*
X39515Y228798D01*
X41418Y228547D01*
X43321Y228798D01*
X45095Y229532D01*
X46618Y230701D01*
X47786Y232224D01*
X48521Y233997D01*
X48771Y235900D01*
X48521Y237803D01*
X47786Y239576D01*
X46618Y241099D01*
X45095Y242268D01*
X43321Y243002D01*
X41418Y243253D01*
X39515Y243002D01*
X37742Y242268D01*
X36219Y241099D01*
X35051Y239576D01*
X34316Y237803D01*
X34148Y236529D01*
X34146Y236509D01*
X33727Y236537D01*
X32876Y237454D01*
Y253211D01*
X34146Y253594D01*
X36102Y252092D01*
X38667Y251030D01*
X41418Y250668D01*
X44170Y251030D01*
X46734Y252092D01*
X48936Y253782D01*
X49123Y254025D01*
X49731Y254626D01*
X51182Y255900D01*
X51789Y256360D01*
X52363Y256743D01*
X52873Y257034D01*
X53311Y257236D01*
X53666Y257360D01*
X53920Y257415D01*
X75381D01*
X75980Y256295D01*
X75736Y255930D01*
X75303Y253750D01*
X75736Y251570D01*
X76971Y249721D01*
X77081Y249648D01*
X77090Y249620D01*
X77107Y249543D01*
X77115Y249490D01*
Y244500D01*
X77411Y243013D01*
X78253Y241753D01*
X97003Y223003D01*
X98263Y222161D01*
X99750Y221865D01*
X110141D01*
X148753Y183253D01*
X150013Y182411D01*
X151500Y182115D01*
X207391D01*
X216241Y173265D01*
X216273Y173222D01*
X216315Y173155D01*
X216328Y173129D01*
X216303Y173000D01*
X216736Y170820D01*
X217971Y168971D01*
X219820Y167736D01*
X222000Y167302D01*
X224180Y167736D01*
X226029Y168971D01*
X227264Y170820D01*
X227698Y173000D01*
X227264Y175180D01*
X226029Y177029D01*
X224180Y178264D01*
X222000Y178697D01*
X221871Y178672D01*
X221845Y178685D01*
X221778Y178728D01*
X221735Y178759D01*
X214302Y186192D01*
X214788Y187365D01*
X256891D01*
X274631Y169626D01*
X274804Y169400D01*
X274854Y169323D01*
X274907Y169232D01*
X274946Y169154D01*
X274973Y169090D01*
X274991Y169038D01*
X275026Y168906D01*
X275100Y168755D01*
X275236Y168070D01*
X276471Y166221D01*
X278320Y164986D01*
X280500Y164552D01*
X282680Y164986D01*
X284529Y166221D01*
X285764Y168070D01*
X286197Y170250D01*
X285764Y172430D01*
X284529Y174279D01*
X282680Y175514D01*
X280500Y175947D01*
X279511Y175751D01*
X279493Y175751D01*
X261247Y193997D01*
X259987Y194839D01*
X258500Y195135D01*
X156859D01*
X139041Y212952D01*
X139667Y214123D01*
X139750Y214106D01*
X141336Y214422D01*
X142680Y215320D01*
X143578Y216664D01*
X143894Y218250D01*
X143578Y219836D01*
X142680Y221180D01*
X142397Y222896D01*
X143014Y223820D01*
X143448Y226000D01*
X143398Y226250D01*
X143402Y226298D01*
X143418Y226388D01*
X143436Y226462D01*
X143456Y226522D01*
X143479Y226574D01*
X143505Y226621D01*
X143516Y226639D01*
X148064Y231186D01*
X148064Y231186D01*
X148540Y231899D01*
X149889Y232357D01*
X150143Y232355D01*
X151070Y231736D01*
X153250Y231303D01*
X155430Y231736D01*
X157279Y232971D01*
X158514Y234820D01*
X158565Y235079D01*
X159860Y235879D01*
X161500Y235553D01*
X163680Y235986D01*
X165529Y237221D01*
X165602Y237331D01*
X165630Y237340D01*
X165707Y237357D01*
X165760Y237365D01*
X170810D01*
X171195Y236095D01*
X170721Y235779D01*
X169486Y233930D01*
X169053Y231750D01*
X169486Y229570D01*
X170721Y227721D01*
X172570Y226486D01*
X174750Y226052D01*
X176930Y226486D01*
X178779Y227721D01*
X180014Y229570D01*
X180448Y231750D01*
X180014Y233930D01*
X178779Y235779D01*
X178305Y236095D01*
X178690Y237365D01*
X193641D01*
X195933Y235073D01*
X195564Y233858D01*
X195414Y233828D01*
X194070Y232930D01*
X193172Y231586D01*
X192856Y230000D01*
X193172Y228414D01*
X194070Y227070D01*
X195414Y226172D01*
X197000Y225856D01*
X198586Y226172D01*
X199930Y227070D01*
X200253Y227553D01*
X200574Y227623D01*
X201722Y227466D01*
X202721Y225971D01*
X204570Y224736D01*
X206750Y224303D01*
X208930Y224736D01*
X210779Y225971D01*
X212014Y227820D01*
X212447Y230000D01*
X212014Y232180D01*
X210779Y234029D01*
X208930Y235264D01*
X206750Y235697D01*
X206409Y235630D01*
X206381Y235644D01*
X206327Y235676D01*
X206293Y235700D01*
X199293Y242701D01*
X199779Y243874D01*
X200998D01*
X205186Y239686D01*
X205186Y239686D01*
X206362Y238900D01*
X207750Y238624D01*
X207750Y238624D01*
X317000D01*
X317000Y238624D01*
X318388Y238900D01*
X319564Y239686D01*
X328725Y248847D01*
X329895Y248221D01*
X329552Y246500D01*
X329671Y245906D01*
X329662Y244687D01*
X329624Y244500D01*
X329624Y244500D01*
Y199020D01*
X328354Y197978D01*
X327250Y198197D01*
X325070Y197764D01*
X323221Y196529D01*
X321986Y194680D01*
X321957Y194532D01*
X320675Y193250D01*
X319221Y192279D01*
X317986Y190430D01*
X317888Y189938D01*
X308337Y180387D01*
X307215Y178707D01*
X306821Y176725D01*
Y113321D01*
X278500Y85000D01*
X179000D01*
Y82951D01*
X178422Y82086D01*
X178106Y80500D01*
X178422Y78914D01*
X179000Y78049D01*
Y76817D01*
X178966Y76775D01*
X178929Y76652D01*
X178857Y76545D01*
X178783Y76172D01*
X178673Y75808D01*
X178685Y75680D01*
X178660Y75554D01*
X178660Y27232D01*
X178462Y27044D01*
X178169Y26821D01*
X177969Y26712D01*
X177390Y26504D01*
X177362Y26516D01*
X177213Y26593D01*
X177053Y26692D01*
X176880Y26818D01*
X176697Y26972D01*
X176491Y27169D01*
X176460Y27210D01*
X175081Y28269D01*
X173474Y28934D01*
X171750Y29161D01*
X170026Y28934D01*
X168419Y28269D01*
X167040Y27210D01*
X165981Y25831D01*
X165316Y24224D01*
X165089Y22500D01*
X165316Y20776D01*
X165981Y19169D01*
X167040Y17790D01*
X168419Y16731D01*
X170026Y16066D01*
X171750Y15839D01*
X173474Y16066D01*
X175081Y16731D01*
X176460Y17790D01*
X176491Y17831D01*
X176696Y18027D01*
X176880Y18182D01*
X177053Y18308D01*
X177213Y18407D01*
X177362Y18484D01*
X177390Y18496D01*
X177970Y18288D01*
X178169Y18180D01*
X178463Y17956D01*
X178660Y17768D01*
Y4144D01*
X122171D01*
X121919Y5414D01*
X122421Y5622D01*
X124066Y6884D01*
X125328Y8529D01*
X126121Y10445D01*
X126141Y10595D01*
X118450D01*
Y12500D01*
X116545D01*
Y20191D01*
X116395Y20171D01*
X114479Y19378D01*
X112834Y18116D01*
X111572Y16471D01*
X111394Y16041D01*
X110130Y15917D01*
X109744Y16494D01*
X107912Y17719D01*
X105750Y18148D01*
X103588Y17719D01*
X101756Y16494D01*
X100531Y14662D01*
X100101Y12500D01*
X100531Y10338D01*
X101756Y8506D01*
X103588Y7281D01*
X105750Y6852D01*
X107912Y7281D01*
X109744Y8506D01*
X110130Y9083D01*
X111394Y8959D01*
X111572Y8529D01*
X112834Y6884D01*
X114479Y5622D01*
X114981Y5414D01*
X114729Y4144D01*
X4143D01*
Y210072D01*
X5413Y210155D01*
X5730Y207748D01*
X6792Y205184D01*
X8482Y202982D01*
X10684Y201292D01*
X13248Y200230D01*
X14095Y200119D01*
Y210500D01*
Y220881D01*
X13248Y220770D01*
X10684Y219708D01*
X8482Y218018D01*
X6792Y215816D01*
X5730Y213252D01*
X5413Y210845D01*
X4143Y210928D01*
Y438672D01*
X5413Y438755D01*
X5730Y436348D01*
X6792Y433784D01*
X8482Y431582D01*
X10684Y429893D01*
X13248Y428830D01*
X16000Y428468D01*
X18752Y428830D01*
X21316Y429893D01*
X23518Y431582D01*
X25208Y433784D01*
X26270Y436348D01*
X26632Y439100D01*
X26591Y439408D01*
X26596Y440340D01*
X26710Y442386D01*
X26808Y443192D01*
X26934Y443905D01*
X27080Y444494D01*
X27233Y444954D01*
X27380Y445279D01*
X27494Y445466D01*
X33564Y451536D01*
X33564Y451536D01*
X34350Y452713D01*
X34626Y454100D01*
Y473248D01*
X61010Y499632D01*
X62180Y499007D01*
X62080Y498500D01*
X62454Y496617D01*
X63521Y495021D01*
X65117Y493954D01*
X67000Y493579D01*
X68883Y493954D01*
X70479Y495021D01*
X71546Y496617D01*
X71920Y498500D01*
X71546Y500383D01*
X70479Y501979D01*
X68883Y503046D01*
X67000Y503420D01*
X66493Y503320D01*
X65868Y504490D01*
X88752Y527374D01*
X127087D01*
X127573Y526201D01*
D02*
G37*
G36*
X267851Y521602D02*
X268070Y521430D01*
X268300Y521279D01*
X268541Y521149D01*
X268793Y521039D01*
X269056Y520950D01*
X269330Y520881D01*
X269616Y520833D01*
X269912Y520805D01*
X270219Y520798D01*
X267202Y517780D01*
X267195Y518088D01*
X267167Y518384D01*
X267119Y518670D01*
X267050Y518944D01*
X266961Y519207D01*
X266851Y519459D01*
X266721Y519700D01*
X266570Y519930D01*
X266398Y520149D01*
X266206Y520357D01*
X267643Y521794D01*
X267851Y521602D01*
D02*
G37*
G36*
X332073Y513866D02*
X331851Y514079D01*
X331622Y514269D01*
X331386Y514436D01*
X331143Y514582D01*
X330894Y514705D01*
X330638Y514805D01*
X330376Y514883D01*
X330106Y514939D01*
X329830Y514973D01*
X329548Y514984D01*
Y517016D01*
X329830Y517027D01*
X330106Y517061D01*
X330376Y517117D01*
X330638Y517195D01*
X330894Y517295D01*
X331143Y517418D01*
X331386Y517564D01*
X331622Y517731D01*
X331851Y517921D01*
X332073Y518134D01*
Y513866D01*
D02*
G37*
G36*
X360470Y514452D02*
X360162Y514445D01*
X359866Y514417D01*
X359580Y514369D01*
X359306Y514300D01*
X359043Y514211D01*
X358791Y514101D01*
X358550Y513971D01*
X358320Y513820D01*
X358101Y513648D01*
X357893Y513456D01*
X356456Y514893D01*
X356648Y515101D01*
X356820Y515320D01*
X356971Y515550D01*
X357101Y515791D01*
X357211Y516043D01*
X357300Y516306D01*
X357369Y516580D01*
X357417Y516866D01*
X357445Y517162D01*
X357452Y517469D01*
X360470Y514452D01*
D02*
G37*
G36*
X139399Y516671D02*
X139628Y516481D01*
X139864Y516314D01*
X140107Y516168D01*
X140356Y516045D01*
X140612Y515945D01*
X140874Y515867D01*
X141144Y515811D01*
X141420Y515777D01*
X141702Y515766D01*
Y513734D01*
X141420Y513723D01*
X141144Y513689D01*
X140874Y513633D01*
X140612Y513555D01*
X140356Y513455D01*
X140107Y513332D01*
X139864Y513186D01*
X139628Y513019D01*
X139399Y512829D01*
X139177Y512616D01*
Y516884D01*
X139399Y516671D01*
D02*
G37*
G36*
X279073Y508366D02*
X278851Y508579D01*
X278622Y508769D01*
X278386Y508936D01*
X278143Y509082D01*
X277894Y509205D01*
X277638Y509305D01*
X277376Y509383D01*
X277106Y509439D01*
X276830Y509473D01*
X276548Y509484D01*
Y511516D01*
X276830Y511527D01*
X277106Y511561D01*
X277376Y511617D01*
X277638Y511695D01*
X277894Y511795D01*
X278143Y511918D01*
X278386Y512064D01*
X278622Y512231D01*
X278851Y512421D01*
X279073Y512634D01*
Y508366D01*
D02*
G37*
G36*
X374823Y503616D02*
X374601Y503829D01*
X374372Y504019D01*
X374136Y504186D01*
X373893Y504332D01*
X373644Y504455D01*
X373388Y504555D01*
X373126Y504633D01*
X372856Y504689D01*
X372580Y504723D01*
X372298Y504734D01*
Y506766D01*
X372580Y506777D01*
X372856Y506811D01*
X373126Y506867D01*
X373388Y506945D01*
X373644Y507045D01*
X373893Y507168D01*
X374136Y507314D01*
X374372Y507481D01*
X374601Y507671D01*
X374823Y507884D01*
Y503616D01*
D02*
G37*
G36*
X144964Y508796D02*
X145282Y508528D01*
X145606Y508292D01*
X145937Y508087D01*
X146273Y507914D01*
X146616Y507772D01*
X146965Y507662D01*
X147320Y507583D01*
X147681Y507536D01*
X148049Y507520D01*
Y504980D01*
X147681Y504964D01*
X147320Y504917D01*
X146965Y504838D01*
X146616Y504728D01*
X146273Y504586D01*
X145937Y504413D01*
X145606Y504208D01*
X145282Y503972D01*
X144964Y503704D01*
X144652Y503405D01*
Y509095D01*
X144964Y508796D01*
D02*
G37*
G36*
X94469Y504647D02*
X94323Y504456D01*
X94193Y504250D01*
X94081Y504029D01*
X93986Y503794D01*
X93908Y503545D01*
X93848Y503281D01*
X93805Y503002D01*
X93779Y502708D01*
X93770Y502400D01*
X91230D01*
X91221Y502708D01*
X91195Y503002D01*
X91152Y503281D01*
X91092Y503545D01*
X91014Y503794D01*
X90919Y504029D01*
X90807Y504250D01*
X90677Y504456D01*
X90531Y504647D01*
X90366Y504823D01*
X94634D01*
X94469Y504647D01*
D02*
G37*
G36*
X293470Y470702D02*
X293162Y470695D01*
X292866Y470667D01*
X292580Y470619D01*
X292306Y470550D01*
X292043Y470461D01*
X291791Y470351D01*
X291550Y470221D01*
X291320Y470070D01*
X291101Y469898D01*
X290893Y469706D01*
X289456Y471143D01*
X289648Y471351D01*
X289820Y471570D01*
X289971Y471800D01*
X290101Y472041D01*
X290211Y472293D01*
X290300Y472556D01*
X290369Y472830D01*
X290417Y473116D01*
X290445Y473412D01*
X290452Y473719D01*
X293470Y470702D01*
D02*
G37*
G36*
X283720D02*
X283412Y470695D01*
X283116Y470667D01*
X282830Y470619D01*
X282556Y470550D01*
X282293Y470461D01*
X282041Y470351D01*
X281800Y470221D01*
X281570Y470070D01*
X281351Y469898D01*
X281143Y469706D01*
X279706Y471143D01*
X279898Y471351D01*
X280070Y471570D01*
X280221Y471800D01*
X280351Y472041D01*
X280461Y472293D01*
X280550Y472556D01*
X280619Y472830D01*
X280667Y473116D01*
X280695Y473412D01*
X280702Y473719D01*
X283720Y470702D01*
D02*
G37*
G36*
X201544Y469857D02*
X201352Y469649D01*
X201180Y469430D01*
X201029Y469200D01*
X200899Y468959D01*
X200789Y468707D01*
X200700Y468444D01*
X200631Y468170D01*
X200583Y467884D01*
X200555Y467588D01*
X200548Y467281D01*
X197530Y470298D01*
X197838Y470305D01*
X198134Y470333D01*
X198420Y470381D01*
X198694Y470450D01*
X198957Y470539D01*
X199209Y470649D01*
X199450Y470779D01*
X199680Y470930D01*
X199899Y471102D01*
X200107Y471294D01*
X201544Y469857D01*
D02*
G37*
G36*
X24495Y474059D02*
X24119Y473612D01*
X23810Y473093D01*
X23570Y472503D01*
X23397Y471839D01*
X23292Y471104D01*
X23255Y470297D01*
X23286Y469417D01*
X23384Y468466D01*
X23551Y467442D01*
X23785Y466346D01*
X14310Y472321D01*
X15674Y472626D01*
X20754Y474083D01*
X21422Y474361D01*
X21974Y474634D01*
X22410Y474903D01*
X22730Y475167D01*
X24495Y474059D01*
D02*
G37*
G36*
X204794Y460857D02*
X204602Y460649D01*
X204430Y460430D01*
X204279Y460200D01*
X204149Y459959D01*
X204039Y459707D01*
X203950Y459444D01*
X203881Y459170D01*
X203833Y458884D01*
X203805Y458588D01*
X203798Y458280D01*
X200781Y461298D01*
X201088Y461305D01*
X201384Y461333D01*
X201670Y461381D01*
X201944Y461450D01*
X202207Y461539D01*
X202459Y461649D01*
X202700Y461779D01*
X202930Y461930D01*
X203149Y462102D01*
X203357Y462294D01*
X204794Y460857D01*
D02*
G37*
G36*
X177602Y456556D02*
X177353Y456285D01*
X177131Y455996D01*
X176936Y455689D01*
X176767Y455365D01*
X176625Y455022D01*
X176509Y454661D01*
X176420Y454283D01*
X176358Y453887D01*
X176323Y453473D01*
X176314Y453041D01*
X172291Y457064D01*
X172723Y457073D01*
X173137Y457108D01*
X173533Y457170D01*
X173911Y457259D01*
X174272Y457375D01*
X174615Y457517D01*
X174939Y457686D01*
X175246Y457881D01*
X175535Y458103D01*
X175806Y458352D01*
X177602Y456556D01*
D02*
G37*
G36*
X374921Y452351D02*
X374731Y452122D01*
X374564Y451886D01*
X374418Y451643D01*
X374295Y451394D01*
X374195Y451138D01*
X374117Y450876D01*
X374061Y450606D01*
X374027Y450330D01*
X374016Y450047D01*
X371984D01*
X371973Y450330D01*
X371939Y450606D01*
X371883Y450876D01*
X371805Y451138D01*
X371705Y451394D01*
X371582Y451643D01*
X371436Y451886D01*
X371269Y452122D01*
X371079Y452351D01*
X370866Y452573D01*
X375134D01*
X374921Y452351D01*
D02*
G37*
G36*
X60055Y451662D02*
X60083Y451366D01*
X60131Y451080D01*
X60200Y450806D01*
X60289Y450543D01*
X60399Y450291D01*
X60529Y450050D01*
X60680Y449820D01*
X60852Y449601D01*
X61044Y449393D01*
X59607Y447956D01*
X59399Y448148D01*
X59180Y448320D01*
X58950Y448471D01*
X58709Y448601D01*
X58457Y448711D01*
X58194Y448800D01*
X57920Y448869D01*
X57634Y448917D01*
X57338Y448945D01*
X57031Y448952D01*
X60048Y451969D01*
X60055Y451662D01*
D02*
G37*
G36*
X25725Y447388D02*
X25386Y446984D01*
X25083Y446487D01*
X24818Y445898D01*
X24590Y445216D01*
X24399Y444442D01*
X24246Y443575D01*
X24129Y442615D01*
X24006Y440418D01*
X24001Y439180D01*
X16080Y447101D01*
X17318Y447106D01*
X20475Y447346D01*
X21342Y447500D01*
X22116Y447691D01*
X22798Y447919D01*
X23387Y448184D01*
X23884Y448486D01*
X24288Y448825D01*
X25725Y447388D01*
D02*
G37*
G36*
X272470Y436952D02*
X272162Y436945D01*
X271866Y436917D01*
X271580Y436869D01*
X271306Y436800D01*
X271043Y436711D01*
X270791Y436601D01*
X270550Y436471D01*
X270320Y436320D01*
X270101Y436148D01*
X269893Y435956D01*
X268456Y437393D01*
X268648Y437601D01*
X268820Y437820D01*
X268971Y438050D01*
X269101Y438291D01*
X269211Y438543D01*
X269300Y438806D01*
X269369Y439080D01*
X269417Y439366D01*
X269445Y439662D01*
X269452Y439969D01*
X272470Y436952D01*
D02*
G37*
G36*
X100794Y430607D02*
X100602Y430399D01*
X100430Y430180D01*
X100279Y429950D01*
X100149Y429709D01*
X100039Y429457D01*
X99950Y429194D01*
X99881Y428920D01*
X99833Y428634D01*
X99805Y428338D01*
X99798Y428031D01*
X96781Y431048D01*
X97088Y431055D01*
X97384Y431083D01*
X97670Y431131D01*
X97944Y431200D01*
X98207Y431289D01*
X98459Y431399D01*
X98700Y431529D01*
X98930Y431680D01*
X99149Y431852D01*
X99357Y432044D01*
X100794Y430607D01*
D02*
G37*
G36*
X238626Y440604D02*
X238356Y439250D01*
X238672Y437664D01*
X239519Y436396D01*
X239432Y435988D01*
X239072Y435126D01*
X234029D01*
X232641Y434850D01*
X231465Y434064D01*
X231465Y434064D01*
X222060Y424658D01*
X220673Y425068D01*
X219930Y426180D01*
X218586Y427078D01*
X217000Y427394D01*
X215414Y427078D01*
X214070Y426180D01*
X213172Y424836D01*
X212896Y423448D01*
X211626Y423573D01*
Y426248D01*
X227252Y441874D01*
X237955D01*
X238626Y440604D01*
D02*
G37*
G36*
X329921Y413851D02*
X329731Y413622D01*
X329564Y413386D01*
X329418Y413143D01*
X329295Y412894D01*
X329195Y412638D01*
X329117Y412376D01*
X329061Y412106D01*
X329027Y411830D01*
X329016Y411548D01*
X326984D01*
X326973Y411830D01*
X326939Y412106D01*
X326883Y412376D01*
X326805Y412638D01*
X326705Y412894D01*
X326582Y413143D01*
X326436Y413386D01*
X326269Y413622D01*
X326079Y413851D01*
X325866Y414073D01*
X330134D01*
X329921Y413851D01*
D02*
G37*
G36*
X280970Y407452D02*
X280662Y407445D01*
X280366Y407417D01*
X280080Y407369D01*
X279806Y407300D01*
X279543Y407211D01*
X279291Y407101D01*
X279050Y406971D01*
X278820Y406820D01*
X278601Y406648D01*
X278393Y406456D01*
X276956Y407893D01*
X277148Y408101D01*
X277320Y408320D01*
X277471Y408550D01*
X277601Y408791D01*
X277711Y409043D01*
X277800Y409306D01*
X277869Y409580D01*
X277917Y409866D01*
X277945Y410162D01*
X277952Y410470D01*
X280970Y407452D01*
D02*
G37*
G36*
X285039Y400657D02*
X284797Y400508D01*
X284580Y400344D01*
X284390Y400163D01*
X284224Y399967D01*
X284084Y399754D01*
X283970Y399526D01*
X283881Y399282D01*
X283817Y399022D01*
X283779Y398746D01*
X283766Y398454D01*
X281734Y399057D01*
X281726Y399326D01*
X281702Y399597D01*
X281661Y399868D01*
X281605Y400140D01*
X281532Y400414D01*
X281443Y400688D01*
X281217Y401240D01*
X281080Y401517D01*
X280926Y401795D01*
X285039Y400657D01*
D02*
G37*
G36*
X224067Y400440D02*
X224140Y400141D01*
X224229Y399855D01*
X224331Y399581D01*
X224448Y399319D01*
X224578Y399070D01*
X224724Y398832D01*
X224883Y398607D01*
X225056Y398394D01*
X225244Y398193D01*
X224077Y396486D01*
X223864Y396681D01*
X223643Y396850D01*
X223412Y396993D01*
X223174Y397110D01*
X222926Y397200D01*
X222670Y397263D01*
X222406Y397300D01*
X222132Y397311D01*
X221851Y397296D01*
X221560Y397254D01*
X224007Y400750D01*
X224067Y400440D01*
D02*
G37*
G36*
X204374Y418587D02*
Y411502D01*
X182049Y389176D01*
X180876Y389663D01*
Y396748D01*
X203201Y419073D01*
X204374Y418587D01*
D02*
G37*
G36*
X218305Y391162D02*
X218333Y390866D01*
X218381Y390580D01*
X218450Y390306D01*
X218539Y390043D01*
X218649Y389791D01*
X218779Y389550D01*
X218930Y389320D01*
X219102Y389101D01*
X219294Y388893D01*
X217857Y387456D01*
X217649Y387648D01*
X217430Y387820D01*
X217200Y387971D01*
X216959Y388101D01*
X216707Y388211D01*
X216444Y388300D01*
X216170Y388369D01*
X215884Y388417D01*
X215588Y388445D01*
X215280Y388452D01*
X218298Y391469D01*
X218305Y391162D01*
D02*
G37*
G36*
X216262Y377682D02*
X217124Y377322D01*
Y374849D01*
X213048Y370773D01*
X212262Y369597D01*
X211986Y368209D01*
X211986Y368209D01*
Y345636D01*
X210716Y344856D01*
X209000Y345197D01*
X207212Y344842D01*
X206319Y345509D01*
X206112Y345818D01*
X206197Y346250D01*
X205764Y348430D01*
X204529Y350279D01*
X202680Y351514D01*
X201764Y351696D01*
X201179Y353107D01*
X201350Y353363D01*
X201626Y354750D01*
X201626Y354750D01*
Y357748D01*
X208064Y364186D01*
X208064Y364186D01*
X208850Y365363D01*
X209126Y366750D01*
X209126Y366750D01*
Y377040D01*
X209308Y377190D01*
X210396Y377602D01*
X211414Y376922D01*
X213000Y376606D01*
X214586Y376922D01*
X215854Y377769D01*
X216262Y377682D01*
D02*
G37*
G36*
X230421Y378351D02*
X230231Y378122D01*
X230064Y377886D01*
X229918Y377643D01*
X229795Y377394D01*
X229695Y377138D01*
X229617Y376875D01*
X229561Y376606D01*
X229527Y376330D01*
X229516Y376048D01*
X227484D01*
X227473Y376330D01*
X227439Y376606D01*
X227383Y376875D01*
X227305Y377138D01*
X227205Y377394D01*
X227082Y377643D01*
X226936Y377886D01*
X226769Y378122D01*
X226579Y378351D01*
X226366Y378573D01*
X230634D01*
X230421Y378351D01*
D02*
G37*
G36*
X263595Y367340D02*
X263382Y367398D01*
X263139Y367450D01*
X262558Y367536D01*
X261853Y367597D01*
X260070Y367646D01*
X259677Y369678D01*
X259977Y369691D01*
X260251Y369728D01*
X260500Y369791D01*
X260723Y369879D01*
X260921Y369993D01*
X261094Y370131D01*
X261241Y370295D01*
X261363Y370484D01*
X261460Y370698D01*
X261530Y370937D01*
X263595Y367340D01*
D02*
G37*
G36*
X213172Y421664D02*
X214070Y420320D01*
X215414Y419422D01*
X217000Y419106D01*
X218586Y419422D01*
X218754Y419534D01*
X219874Y418936D01*
Y413252D01*
X202936Y396314D01*
X202150Y395137D01*
X201874Y393750D01*
X201874Y393750D01*
Y368252D01*
X197472Y363849D01*
X195961Y364135D01*
X195430Y364930D01*
X194086Y365828D01*
X192500Y366144D01*
X190914Y365828D01*
X189570Y364930D01*
X188672Y363586D01*
X188356Y362000D01*
X188672Y360414D01*
X188813Y360202D01*
X188414Y358828D01*
X187070Y357930D01*
X186172Y356586D01*
X185856Y355000D01*
X186172Y353414D01*
X187070Y352070D01*
X188414Y351172D01*
X190000Y350856D01*
X190847Y349868D01*
X190881Y349008D01*
X188936Y347064D01*
X188150Y345887D01*
X187874Y344500D01*
X187874Y344500D01*
Y284752D01*
X182889Y279766D01*
X182871Y279755D01*
X182824Y279729D01*
X182772Y279706D01*
X182712Y279686D01*
X182638Y279668D01*
X182547Y279652D01*
X182500Y279648D01*
X182250Y279697D01*
X180070Y279264D01*
X178221Y278029D01*
X177269Y276603D01*
X175924Y276854D01*
X175828Y277336D01*
X174930Y278680D01*
X173586Y279578D01*
X172000Y279894D01*
X170414Y279578D01*
X169070Y278680D01*
X168172Y277336D01*
X168122Y277087D01*
X166894Y277250D01*
X166578Y278836D01*
X165680Y280180D01*
X164336Y281078D01*
X162750Y281394D01*
X161164Y281078D01*
X159820Y280180D01*
X159595Y279843D01*
X158217Y279660D01*
X157376Y280409D01*
Y297250D01*
X157376Y297250D01*
X157100Y298638D01*
X156314Y299814D01*
X156314Y299814D01*
X153266Y302861D01*
X153255Y302879D01*
X153229Y302926D01*
X153207Y302978D01*
X153186Y303038D01*
X153168Y303112D01*
X153152Y303202D01*
X153148Y303250D01*
X153197Y303500D01*
X152764Y305680D01*
X151529Y307529D01*
X149680Y308764D01*
X147500Y309198D01*
X145320Y308764D01*
X143471Y307529D01*
X142236Y305680D01*
X141803Y303500D01*
X142236Y301320D01*
X143471Y299471D01*
X145320Y298236D01*
X147500Y297803D01*
X147750Y297852D01*
X147798Y297848D01*
X147888Y297832D01*
X147962Y297814D01*
X148022Y297794D01*
X148074Y297771D01*
X148121Y297745D01*
X148139Y297734D01*
X150124Y295748D01*
Y278250D01*
X150124Y278250D01*
X150400Y276863D01*
X151186Y275686D01*
X180565Y246308D01*
X180079Y245135D01*
X165760D01*
X165707Y245143D01*
X165630Y245160D01*
X165602Y245169D01*
X165529Y245279D01*
X163680Y246514D01*
X161500Y246947D01*
X159320Y246514D01*
X158146Y245729D01*
X156876Y246408D01*
Y247000D01*
X156876Y247000D01*
X156600Y248388D01*
X155814Y249564D01*
X155814Y249564D01*
X118876Y286502D01*
Y315748D01*
X210564Y407436D01*
X210564Y407436D01*
X211350Y408613D01*
X211626Y410000D01*
Y422927D01*
X212896Y423052D01*
X213172Y421664D01*
D02*
G37*
G36*
X200187Y343218D02*
X199887Y343238D01*
X199597Y343234D01*
X199317Y343206D01*
X199046Y343154D01*
X198786Y343079D01*
X198536Y342980D01*
X198295Y342857D01*
X198065Y342711D01*
X197844Y342541D01*
X197633Y342347D01*
X196339Y343926D01*
X196528Y344130D01*
X196701Y344346D01*
X196856Y344574D01*
X196995Y344814D01*
X197116Y345066D01*
X197219Y345330D01*
X197306Y345605D01*
X197375Y345892D01*
X197428Y346192D01*
X197463Y346503D01*
X200187Y343218D01*
D02*
G37*
G36*
X267411Y342403D02*
X267150Y342488D01*
X266894Y342542D01*
X266643Y342564D01*
X266396Y342554D01*
X266155Y342513D01*
X265918Y342440D01*
X265686Y342336D01*
X265459Y342200D01*
X265237Y342032D01*
X265020Y341833D01*
X264161Y343848D01*
X264343Y344039D01*
X264684Y344457D01*
X264842Y344683D01*
X265137Y345170D01*
X265272Y345431D01*
X265520Y345987D01*
X265632Y346282D01*
X267411Y342403D01*
D02*
G37*
G36*
X250013Y341680D02*
X249797Y341897D01*
X249575Y342091D01*
X249344Y342262D01*
X249106Y342411D01*
X248861Y342537D01*
X248608Y342639D01*
X248347Y342719D01*
X248078Y342776D01*
X247802Y342811D01*
X247518Y342822D01*
X247580Y344854D01*
X247862Y344865D01*
X248137Y344898D01*
X248407Y344952D01*
X248672Y345029D01*
X248930Y345127D01*
X249183Y345247D01*
X249430Y345389D01*
X249671Y345553D01*
X249906Y345738D01*
X250136Y345946D01*
X250013Y341680D01*
D02*
G37*
G36*
X405719Y338702D02*
X405412Y338695D01*
X405116Y338667D01*
X404830Y338619D01*
X404556Y338550D01*
X404293Y338461D01*
X404041Y338351D01*
X403800Y338221D01*
X403570Y338070D01*
X403351Y337898D01*
X403143Y337706D01*
X401706Y339143D01*
X401898Y339351D01*
X402070Y339570D01*
X402221Y339800D01*
X402351Y340041D01*
X402461Y340293D01*
X402550Y340556D01*
X402619Y340830D01*
X402667Y341116D01*
X402695Y341412D01*
X402702Y341720D01*
X405719Y338702D01*
D02*
G37*
G36*
X210748Y337003D02*
X210514Y336824D01*
X210304Y336633D01*
X210119Y336431D01*
X209959Y336215D01*
X209824Y335988D01*
X209713Y335748D01*
X209627Y335496D01*
X209565Y335232D01*
X209528Y334956D01*
X209516Y334667D01*
X207484Y335027D01*
X207474Y335302D01*
X207446Y335576D01*
X207399Y335848D01*
X207333Y336118D01*
X207248Y336386D01*
X207143Y336653D01*
X207021Y336918D01*
X206879Y337181D01*
X206718Y337443D01*
X206538Y337703D01*
X210748Y337003D01*
D02*
G37*
G36*
X237671Y335851D02*
X237481Y335622D01*
X237314Y335386D01*
X237168Y335143D01*
X237045Y334894D01*
X236945Y334638D01*
X236867Y334376D01*
X236811Y334106D01*
X236777Y333830D01*
X236766Y333548D01*
X234734D01*
X234723Y333830D01*
X234689Y334106D01*
X234633Y334376D01*
X234555Y334638D01*
X234455Y334894D01*
X234332Y335143D01*
X234186Y335386D01*
X234019Y335622D01*
X233829Y335851D01*
X233616Y336073D01*
X237884D01*
X237671Y335851D01*
D02*
G37*
G36*
X412419Y331608D02*
X412229Y331378D01*
X412062Y331141D01*
X411917Y330898D01*
X411795Y330649D01*
X411694Y330392D01*
X411616Y330130D01*
X411561Y329860D01*
X411527Y329584D01*
X411516Y329302D01*
X409484Y329294D01*
X409473Y329576D01*
X409439Y329852D01*
X409383Y330122D01*
X409305Y330384D01*
X409204Y330640D01*
X409081Y330888D01*
X408935Y331130D01*
X408767Y331366D01*
X408576Y331594D01*
X408363Y331815D01*
X412630Y331831D01*
X412419Y331608D01*
D02*
G37*
G36*
X203421Y331101D02*
X203231Y330872D01*
X203064Y330636D01*
X202918Y330393D01*
X202795Y330144D01*
X202695Y329888D01*
X202617Y329626D01*
X202561Y329356D01*
X202527Y329080D01*
X202516Y328797D01*
X200484D01*
X200473Y329080D01*
X200439Y329356D01*
X200383Y329626D01*
X200305Y329888D01*
X200205Y330144D01*
X200082Y330393D01*
X199936Y330636D01*
X199769Y330872D01*
X199579Y331101D01*
X199366Y331323D01*
X203634D01*
X203421Y331101D01*
D02*
G37*
G36*
X264655Y330691D02*
X264616Y330657D01*
X264215Y330268D01*
X262141Y328204D01*
X260311Y329247D01*
X260517Y329471D01*
X260686Y329690D01*
X260817Y329904D01*
X260910Y330115D01*
X260965Y330320D01*
X260982Y330522D01*
X260962Y330718D01*
X260903Y330911D01*
X260807Y331099D01*
X260672Y331282D01*
X264655Y330691D01*
D02*
G37*
G36*
X290921Y326601D02*
X290731Y326372D01*
X290564Y326136D01*
X290418Y325893D01*
X290295Y325644D01*
X290195Y325388D01*
X290117Y325126D01*
X290061Y324856D01*
X290027Y324580D01*
X290016Y324297D01*
X287984D01*
X287973Y324580D01*
X287939Y324856D01*
X287883Y325126D01*
X287805Y325388D01*
X287705Y325644D01*
X287582Y325893D01*
X287436Y326136D01*
X287269Y326372D01*
X287079Y326601D01*
X286866Y326823D01*
X291134D01*
X290921Y326601D01*
D02*
G37*
G36*
X385219Y317202D02*
X384912Y317195D01*
X384616Y317167D01*
X384330Y317119D01*
X384056Y317050D01*
X383793Y316961D01*
X383541Y316851D01*
X383300Y316721D01*
X383070Y316570D01*
X382851Y316398D01*
X382643Y316206D01*
X381206Y317643D01*
X381398Y317851D01*
X381570Y318070D01*
X381721Y318300D01*
X381851Y318541D01*
X381961Y318793D01*
X382050Y319056D01*
X382119Y319330D01*
X382167Y319616D01*
X382195Y319912D01*
X382202Y320219D01*
X385219Y317202D01*
D02*
G37*
G36*
X277277Y317920D02*
X277311Y317644D01*
X277367Y317374D01*
X277445Y317112D01*
X277545Y316856D01*
X277668Y316607D01*
X277814Y316364D01*
X277981Y316128D01*
X278171Y315899D01*
X278384Y315677D01*
X274116D01*
X274329Y315899D01*
X274519Y316128D01*
X274686Y316364D01*
X274832Y316607D01*
X274955Y316856D01*
X275055Y317112D01*
X275133Y317374D01*
X275189Y317644D01*
X275223Y317920D01*
X275234Y318202D01*
X277266D01*
X277277Y317920D01*
D02*
G37*
G36*
X57220Y315702D02*
X56912Y315695D01*
X56616Y315667D01*
X56330Y315619D01*
X56056Y315550D01*
X55793Y315461D01*
X55541Y315351D01*
X55300Y315221D01*
X55070Y315070D01*
X54851Y314898D01*
X54643Y314706D01*
X53206Y316143D01*
X53398Y316351D01*
X53570Y316570D01*
X53721Y316800D01*
X53851Y317041D01*
X53961Y317293D01*
X54050Y317556D01*
X54119Y317830D01*
X54167Y318116D01*
X54195Y318412D01*
X54202Y318720D01*
X57220Y315702D01*
D02*
G37*
G36*
X33765Y321611D02*
X34276Y321283D01*
X34870Y320995D01*
X35547Y320748D01*
X36306Y320540D01*
X37147Y320372D01*
X38071Y320244D01*
X40167Y320108D01*
X41338Y320101D01*
X33418Y312180D01*
X33410Y313352D01*
X33274Y315447D01*
X33147Y316371D01*
X32979Y317213D01*
X32771Y317972D01*
X32523Y318648D01*
X32235Y319242D01*
X31908Y319753D01*
X31540Y320182D01*
X33336Y321978D01*
X33765Y321611D01*
D02*
G37*
G36*
X283777Y312670D02*
X283811Y312394D01*
X283867Y312124D01*
X283945Y311862D01*
X284045Y311606D01*
X284168Y311357D01*
X284314Y311114D01*
X284481Y310878D01*
X284671Y310649D01*
X284884Y310427D01*
X280616D01*
X280829Y310649D01*
X281019Y310878D01*
X281186Y311114D01*
X281332Y311357D01*
X281455Y311606D01*
X281555Y311862D01*
X281633Y312124D01*
X281689Y312394D01*
X281723Y312670D01*
X281734Y312952D01*
X283766D01*
X283777Y312670D01*
D02*
G37*
G36*
X298055Y313912D02*
X298083Y313616D01*
X298131Y313330D01*
X298200Y313056D01*
X298289Y312793D01*
X298399Y312541D01*
X298529Y312300D01*
X298680Y312070D01*
X298852Y311851D01*
X299044Y311643D01*
X297607Y310206D01*
X297399Y310398D01*
X297180Y310570D01*
X296950Y310721D01*
X296709Y310851D01*
X296457Y310961D01*
X296194Y311050D01*
X295920Y311119D01*
X295634Y311167D01*
X295338Y311195D01*
X295030Y311202D01*
X298048Y314219D01*
X298055Y313912D01*
D02*
G37*
G36*
X378294Y302357D02*
X378102Y302149D01*
X377930Y301930D01*
X377779Y301700D01*
X377649Y301459D01*
X377539Y301207D01*
X377450Y300944D01*
X377381Y300670D01*
X377333Y300384D01*
X377305Y300088D01*
X377298Y299781D01*
X374281Y302798D01*
X374588Y302805D01*
X374884Y302833D01*
X375170Y302881D01*
X375444Y302950D01*
X375707Y303039D01*
X375959Y303149D01*
X376200Y303279D01*
X376430Y303430D01*
X376649Y303602D01*
X376857Y303794D01*
X378294Y302357D01*
D02*
G37*
G36*
X150555Y303162D02*
X150583Y302866D01*
X150631Y302580D01*
X150700Y302306D01*
X150789Y302043D01*
X150899Y301791D01*
X151029Y301550D01*
X151180Y301320D01*
X151352Y301101D01*
X151544Y300893D01*
X150107Y299456D01*
X149899Y299648D01*
X149680Y299820D01*
X149450Y299971D01*
X149209Y300101D01*
X148957Y300211D01*
X148694Y300300D01*
X148420Y300369D01*
X148134Y300417D01*
X147838Y300445D01*
X147530Y300452D01*
X150548Y303470D01*
X150555Y303162D01*
D02*
G37*
G36*
X404400Y334150D02*
X404813Y333890D01*
X405225Y331820D01*
X406460Y329971D01*
X406680Y329824D01*
X406716Y329781D01*
X406769Y329707D01*
X406807Y329644D01*
X406835Y329587D01*
X406855Y329536D01*
X406870Y329486D01*
X406874Y329466D01*
Y315752D01*
X397936Y306814D01*
X397150Y305637D01*
X396874Y304250D01*
X396874Y304250D01*
Y284252D01*
X394149Y281527D01*
X392844Y282018D01*
X392514Y283680D01*
X391279Y285529D01*
X389430Y286764D01*
X387250Y287197D01*
X385070Y286764D01*
X383221Y285529D01*
X383042Y285261D01*
X383025Y285243D01*
X382949Y285177D01*
X382884Y285129D01*
X382829Y285095D01*
X382782Y285071D01*
X382739Y285053D01*
X382697Y285040D01*
X382685Y285038D01*
X374558D01*
X373752Y286019D01*
X373947Y287000D01*
X373514Y289180D01*
X372279Y291029D01*
X372067Y291170D01*
X372036Y291207D01*
X371983Y291282D01*
X371944Y291347D01*
X371916Y291404D01*
X371895Y291457D01*
X371880Y291508D01*
X371876Y291529D01*
Y293230D01*
X373146Y294272D01*
X374250Y294053D01*
X376430Y294486D01*
X378279Y295721D01*
X379514Y297570D01*
X379948Y299750D01*
X379898Y300000D01*
X379902Y300048D01*
X379918Y300138D01*
X379936Y300212D01*
X379956Y300272D01*
X379979Y300324D01*
X380005Y300371D01*
X380016Y300389D01*
X400564Y320936D01*
X400564Y320936D01*
X401350Y322113D01*
X401626Y323500D01*
X401626Y323500D01*
Y332498D01*
X403588Y334460D01*
X404400Y334150D01*
D02*
G37*
G36*
X202527Y292170D02*
X202561Y291894D01*
X202617Y291624D01*
X202695Y291362D01*
X202795Y291106D01*
X202918Y290857D01*
X203064Y290614D01*
X203231Y290378D01*
X203421Y290149D01*
X203634Y289927D01*
X199366D01*
X199579Y290149D01*
X199769Y290378D01*
X199936Y290614D01*
X200082Y290857D01*
X200205Y291106D01*
X200305Y291362D01*
X200383Y291624D01*
X200439Y291894D01*
X200473Y292170D01*
X200484Y292453D01*
X202516D01*
X202527Y292170D01*
D02*
G37*
G36*
X369277Y291420D02*
X369311Y291144D01*
X369367Y290875D01*
X369445Y290612D01*
X369545Y290356D01*
X369668Y290107D01*
X369814Y289864D01*
X369981Y289628D01*
X370171Y289399D01*
X370384Y289177D01*
X366116D01*
X366329Y289399D01*
X366519Y289628D01*
X366686Y289864D01*
X366832Y290107D01*
X366955Y290356D01*
X367055Y290612D01*
X367133Y290875D01*
X367189Y291144D01*
X367223Y291420D01*
X367234Y291702D01*
X369266D01*
X369277Y291420D01*
D02*
G37*
G36*
X209527Y288170D02*
X209561Y287894D01*
X209617Y287624D01*
X209695Y287362D01*
X209795Y287106D01*
X209918Y286857D01*
X210064Y286614D01*
X210231Y286378D01*
X210421Y286149D01*
X210634Y285927D01*
X206366D01*
X206579Y286149D01*
X206769Y286378D01*
X206936Y286614D01*
X207082Y286857D01*
X207205Y287106D01*
X207305Y287362D01*
X207383Y287624D01*
X207439Y287894D01*
X207473Y288170D01*
X207484Y288452D01*
X209516D01*
X209527Y288170D01*
D02*
G37*
G36*
X47966Y291478D02*
X49544Y290092D01*
X50288Y289529D01*
X51001Y289053D01*
X51685Y288663D01*
X52339Y288360D01*
X52962Y288143D01*
X53555Y288013D01*
X54119Y287970D01*
Y285430D01*
X53555Y285387D01*
X52962Y285257D01*
X52339Y285040D01*
X51685Y284737D01*
X51001Y284347D01*
X50288Y283871D01*
X49544Y283308D01*
X47966Y281922D01*
X47132Y281099D01*
Y292301D01*
X47966Y291478D01*
D02*
G37*
G36*
X385136Y279304D02*
X384906Y279512D01*
X384671Y279697D01*
X384430Y279861D01*
X384183Y280003D01*
X383930Y280123D01*
X383672Y280221D01*
X383407Y280298D01*
X383138Y280352D01*
X382862Y280385D01*
X382580Y280396D01*
X382518Y282428D01*
X382802Y282439D01*
X383078Y282474D01*
X383346Y282531D01*
X383607Y282611D01*
X383861Y282714D01*
X384106Y282839D01*
X384344Y282987D01*
X384575Y283159D01*
X384798Y283353D01*
X385013Y283570D01*
X385136Y279304D01*
D02*
G37*
G36*
X198101Y281852D02*
X198320Y281680D01*
X198550Y281529D01*
X198791Y281399D01*
X199043Y281289D01*
X199306Y281200D01*
X199580Y281131D01*
X199866Y281083D01*
X200162Y281055D01*
X200469Y281048D01*
X197452Y278030D01*
X197445Y278338D01*
X197417Y278634D01*
X197369Y278920D01*
X197300Y279194D01*
X197211Y279457D01*
X197101Y279709D01*
X196971Y279950D01*
X196820Y280180D01*
X196648Y280399D01*
X196456Y280607D01*
X197893Y282044D01*
X198101Y281852D01*
D02*
G37*
G36*
X186294Y276607D02*
X186102Y276399D01*
X185930Y276180D01*
X185779Y275950D01*
X185649Y275709D01*
X185539Y275457D01*
X185450Y275194D01*
X185381Y274920D01*
X185333Y274634D01*
X185305Y274338D01*
X185298Y274030D01*
X182281Y277048D01*
X182588Y277055D01*
X182884Y277083D01*
X183170Y277131D01*
X183444Y277200D01*
X183707Y277289D01*
X183959Y277399D01*
X184200Y277529D01*
X184430Y277680D01*
X184649Y277852D01*
X184857Y278044D01*
X186294Y276607D01*
D02*
G37*
G36*
X295794Y275607D02*
X295602Y275399D01*
X295430Y275180D01*
X295279Y274950D01*
X295149Y274709D01*
X295039Y274457D01*
X294950Y274194D01*
X294881Y273920D01*
X294833Y273634D01*
X294805Y273338D01*
X294798Y273030D01*
X291780Y276048D01*
X292088Y276055D01*
X292384Y276083D01*
X292670Y276131D01*
X292944Y276200D01*
X293207Y276289D01*
X293459Y276399D01*
X293700Y276529D01*
X293930Y276680D01*
X294149Y276852D01*
X294357Y277044D01*
X295794Y275607D01*
D02*
G37*
G36*
X257027Y274670D02*
X257061Y274394D01*
X257117Y274124D01*
X257195Y273862D01*
X257295Y273606D01*
X257418Y273357D01*
X257564Y273114D01*
X257731Y272878D01*
X257921Y272649D01*
X258134Y272427D01*
X253866D01*
X254079Y272649D01*
X254269Y272878D01*
X254436Y273114D01*
X254582Y273357D01*
X254705Y273606D01*
X254805Y273862D01*
X254883Y274124D01*
X254939Y274394D01*
X254973Y274670D01*
X254984Y274953D01*
X257016D01*
X257027Y274670D01*
D02*
G37*
G36*
X240471Y273282D02*
X240685Y273109D01*
X240911Y272951D01*
X241150Y272808D01*
X241400Y272680D01*
X241663Y272567D01*
X241937Y272470D01*
X242224Y272388D01*
X242523Y272320D01*
X242834Y272269D01*
X239403Y269733D01*
X239438Y270026D01*
X239447Y270311D01*
X239431Y270587D01*
X239389Y270853D01*
X239322Y271111D01*
X239229Y271359D01*
X239111Y271599D01*
X238967Y271829D01*
X238797Y272050D01*
X238602Y272263D01*
X240269Y273470D01*
X240471Y273282D01*
D02*
G37*
G36*
X430323Y269366D02*
X430101Y269579D01*
X429872Y269769D01*
X429636Y269936D01*
X429393Y270082D01*
X429144Y270205D01*
X428888Y270305D01*
X428626Y270383D01*
X428356Y270439D01*
X428080Y270473D01*
X427798Y270484D01*
Y272516D01*
X428080Y272527D01*
X428356Y272561D01*
X428626Y272617D01*
X428888Y272695D01*
X429144Y272795D01*
X429393Y272918D01*
X429636Y273064D01*
X429872Y273231D01*
X430101Y273421D01*
X430323Y273634D01*
Y269366D01*
D02*
G37*
G36*
X304555Y272162D02*
X304583Y271866D01*
X304631Y271580D01*
X304700Y271306D01*
X304789Y271043D01*
X304899Y270791D01*
X305029Y270550D01*
X305180Y270320D01*
X305352Y270101D01*
X305544Y269893D01*
X304107Y268456D01*
X303899Y268648D01*
X303680Y268820D01*
X303450Y268971D01*
X303209Y269101D01*
X302957Y269211D01*
X302694Y269300D01*
X302420Y269369D01*
X302134Y269417D01*
X301838Y269445D01*
X301530Y269452D01*
X304548Y272470D01*
X304555Y272162D01*
D02*
G37*
G36*
X206099Y270913D02*
X205907Y270705D01*
X205736Y270486D01*
X205585Y270256D01*
X205455Y270015D01*
X205345Y269763D01*
X205256Y269500D01*
X205187Y269226D01*
X205139Y268940D01*
X205111Y268644D01*
X205104Y268336D01*
X202086Y271354D01*
X202394Y271361D01*
X202690Y271389D01*
X202976Y271437D01*
X203250Y271506D01*
X203513Y271595D01*
X203765Y271705D01*
X204006Y271835D01*
X204236Y271986D01*
X204455Y272157D01*
X204663Y272349D01*
X206099Y270913D01*
D02*
G37*
G36*
X263671Y269670D02*
X263705Y269394D01*
X263761Y269125D01*
X263839Y268862D01*
X263939Y268606D01*
X264062Y268357D01*
X264207Y268114D01*
X264375Y267878D01*
X264565Y267649D01*
X264778Y267427D01*
X260510D01*
X260723Y267649D01*
X260913Y267878D01*
X261080Y268114D01*
X261226Y268357D01*
X261348Y268606D01*
X261449Y268862D01*
X261527Y269125D01*
X261583Y269394D01*
X261617Y269670D01*
X261628Y269953D01*
X263660D01*
X263671Y269670D01*
D02*
G37*
G36*
X249322Y267825D02*
X249332Y267547D01*
X249363Y267272D01*
X249414Y267001D01*
X249485Y266733D01*
X249577Y266469D01*
X249689Y266208D01*
X249821Y265951D01*
X249974Y265698D01*
X250148Y265448D01*
X250341Y265201D01*
X246096Y265630D01*
X246323Y265826D01*
X246526Y266032D01*
X246705Y266248D01*
X246860Y266475D01*
X246991Y266711D01*
X247099Y266957D01*
X247183Y267214D01*
X247242Y267480D01*
X247278Y267757D01*
X247290Y268043D01*
X249322Y267825D01*
D02*
G37*
G36*
X222044Y266857D02*
X221852Y266649D01*
X221680Y266430D01*
X221529Y266200D01*
X221399Y265959D01*
X221289Y265707D01*
X221200Y265444D01*
X221131Y265170D01*
X221083Y264884D01*
X221055Y264588D01*
X221048Y264280D01*
X218030Y267298D01*
X218338Y267305D01*
X218634Y267333D01*
X218920Y267381D01*
X219194Y267450D01*
X219457Y267539D01*
X219709Y267649D01*
X219950Y267779D01*
X220180Y267930D01*
X220399Y268102D01*
X220607Y268294D01*
X222044Y266857D01*
D02*
G37*
G36*
X287342Y268209D02*
X287563Y268038D01*
X287794Y267892D01*
X288034Y267769D01*
X288285Y267670D01*
X288545Y267595D01*
X288815Y267544D01*
X289095Y267516D01*
X289385Y267512D01*
X289685Y267532D01*
X286963Y264246D01*
X286928Y264557D01*
X286875Y264856D01*
X286806Y265143D01*
X286719Y265419D01*
X286615Y265682D01*
X286494Y265934D01*
X286356Y266174D01*
X286200Y266402D01*
X286028Y266618D01*
X285838Y266823D01*
X287132Y268403D01*
X287342Y268209D01*
D02*
G37*
G36*
X227516Y266723D02*
X227526Y266448D01*
X227554Y266174D01*
X227601Y265903D01*
X227667Y265632D01*
X227752Y265364D01*
X227857Y265097D01*
X227979Y264832D01*
X228121Y264569D01*
X228282Y264307D01*
X228462Y264047D01*
X224252Y264747D01*
X224486Y264926D01*
X224696Y265117D01*
X224881Y265319D01*
X225041Y265535D01*
X225176Y265762D01*
X225287Y266002D01*
X225373Y266254D01*
X225435Y266518D01*
X225472Y266794D01*
X225484Y267083D01*
X227516Y266723D01*
D02*
G37*
G36*
X212294Y265357D02*
X212102Y265149D01*
X211930Y264930D01*
X211779Y264700D01*
X211649Y264459D01*
X211539Y264207D01*
X211450Y263944D01*
X211381Y263670D01*
X211333Y263384D01*
X211305Y263088D01*
X211298Y262780D01*
X208281Y265798D01*
X208588Y265805D01*
X208884Y265833D01*
X209170Y265881D01*
X209444Y265950D01*
X209707Y266039D01*
X209959Y266149D01*
X210200Y266279D01*
X210430Y266430D01*
X210649Y266602D01*
X210857Y266794D01*
X212294Y265357D01*
D02*
G37*
G36*
X284133Y264837D02*
X284161Y264796D01*
X284202Y264725D01*
X284240Y264645D01*
X284276Y264554D01*
X284309Y264449D01*
X284329Y264368D01*
X284351Y264258D01*
X284363Y264188D01*
X284389Y263955D01*
X284447Y263774D01*
X284736Y262320D01*
X285971Y260471D01*
X287820Y259236D01*
X290000Y258803D01*
X292180Y259236D01*
X294029Y260471D01*
X294900Y261776D01*
X296236Y261570D01*
X297120Y260247D01*
X297188Y260120D01*
X297285Y260000D01*
X297471Y259721D01*
X297486Y259712D01*
X297529Y259630D01*
X297567Y259545D01*
X297595Y259465D01*
X297616Y259389D01*
X297624Y259344D01*
Y252463D01*
X297617Y252438D01*
X297606Y252414D01*
X297591Y252386D01*
X297567Y252350D01*
X297529Y252304D01*
X297473Y252245D01*
X297324Y252112D01*
X297311Y252094D01*
X296971Y251867D01*
X295736Y250018D01*
X295303Y247838D01*
X295498Y246857D01*
X294692Y245876D01*
X209252D01*
X205064Y250064D01*
X203888Y250850D01*
X202500Y251126D01*
X202500Y251126D01*
X186002D01*
X164808Y272319D01*
X165035Y273889D01*
X165680Y274320D01*
X166578Y275664D01*
X166628Y275913D01*
X167856Y275750D01*
X168172Y274164D01*
X169070Y272820D01*
X170414Y271922D01*
X172000Y271606D01*
X173586Y271922D01*
X174930Y272820D01*
X175363Y273469D01*
X176712Y273200D01*
X176986Y271820D01*
X178221Y269971D01*
X180070Y268736D01*
X182250Y268302D01*
X184430Y268736D01*
X186279Y269971D01*
X187514Y271820D01*
X187948Y274000D01*
X187898Y274250D01*
X187902Y274298D01*
X187917Y274388D01*
X187936Y274462D01*
X187957Y274522D01*
X187979Y274574D01*
X188005Y274621D01*
X188016Y274639D01*
X193375Y279998D01*
X194734Y278639D01*
X194745Y278621D01*
X194771Y278574D01*
X194793Y278522D01*
X194814Y278462D01*
X194832Y278388D01*
X194848Y278298D01*
X194852Y278250D01*
X194802Y278000D01*
X195236Y275820D01*
X196471Y273971D01*
X197331Y273397D01*
X198027Y272335D01*
X196792Y270486D01*
X196359Y268306D01*
X196792Y266126D01*
X198027Y264277D01*
X199876Y263042D01*
X202056Y262609D01*
X202561Y262709D01*
X202986Y260570D01*
X204221Y258721D01*
X206070Y257486D01*
X208250Y257052D01*
X210430Y257486D01*
X212279Y258721D01*
X212862Y259595D01*
X213971Y260221D01*
X215820Y258986D01*
X218000Y258552D01*
X220180Y258986D01*
X221065Y259578D01*
X221971Y258221D01*
X223820Y256986D01*
X226000Y256553D01*
X228180Y256986D01*
X230029Y258221D01*
X231264Y260070D01*
X231698Y262250D01*
X231462Y263432D01*
X232052Y264601D01*
X232411Y264679D01*
X234236Y265042D01*
X236085Y266277D01*
X236117Y266326D01*
X237645D01*
X238383Y265221D01*
X240232Y263986D01*
X242365Y263562D01*
X242302Y263250D01*
X242736Y261070D01*
X243971Y259221D01*
X245820Y257986D01*
X248000Y257553D01*
X250180Y257986D01*
X252029Y259221D01*
X253264Y261070D01*
X253697Y263250D01*
X253601Y263735D01*
X254681Y264815D01*
X256000Y264552D01*
X257044Y264760D01*
X257380Y263070D01*
X258615Y261221D01*
X260464Y259986D01*
X262644Y259552D01*
X264824Y259986D01*
X266673Y261221D01*
X267908Y263070D01*
X268341Y265250D01*
X267908Y267430D01*
X266673Y269279D01*
X266461Y269420D01*
X266430Y269457D01*
X266377Y269532D01*
X266338Y269597D01*
X266310Y269654D01*
X266289Y269706D01*
X266274Y269758D01*
X266270Y269779D01*
Y281041D01*
X267443Y281527D01*
X284133Y264837D01*
D02*
G37*
G36*
X303448Y261406D02*
X303223Y261204D01*
X303022Y260994D01*
X302845Y260774D01*
X302691Y260545D01*
X302561Y260306D01*
X302455Y260058D01*
X302372Y259800D01*
X302313Y259533D01*
X302278Y259257D01*
X302266Y258971D01*
X300234Y259149D01*
X300224Y259428D01*
X300192Y259703D01*
X300140Y259974D01*
X300068Y260241D01*
X299974Y260504D01*
X299860Y260762D01*
X299725Y261017D01*
X299569Y261267D01*
X299392Y261513D01*
X299195Y261756D01*
X303448Y261406D01*
D02*
G37*
G36*
X47966Y266078D02*
X49544Y264692D01*
X50288Y264129D01*
X51001Y263653D01*
X51685Y263263D01*
X52339Y262960D01*
X52962Y262743D01*
X53555Y262613D01*
X54119Y262570D01*
Y260030D01*
X53555Y259987D01*
X52962Y259857D01*
X52339Y259640D01*
X51685Y259337D01*
X51001Y258947D01*
X50288Y258471D01*
X49544Y257908D01*
X47966Y256522D01*
X47132Y255699D01*
Y266901D01*
X47966Y266078D01*
D02*
G37*
G36*
X312027Y252258D02*
X312061Y251982D01*
X312117Y251712D01*
X312195Y251450D01*
X312295Y251194D01*
X312418Y250945D01*
X312564Y250702D01*
X312731Y250466D01*
X312921Y250237D01*
X313134Y250015D01*
X308866D01*
X309079Y250237D01*
X309269Y250466D01*
X309436Y250702D01*
X309582Y250945D01*
X309705Y251194D01*
X309805Y251450D01*
X309883Y251712D01*
X309939Y251982D01*
X309973Y252258D01*
X309984Y252540D01*
X312016D01*
X312027Y252258D01*
D02*
G37*
G36*
X302266Y252439D02*
X302276Y252160D01*
X302307Y251885D01*
X302360Y251614D01*
X302432Y251347D01*
X302526Y251084D01*
X302640Y250826D01*
X302775Y250571D01*
X302931Y250321D01*
X303107Y250075D01*
X303305Y249832D01*
X299052Y250182D01*
X299277Y250383D01*
X299478Y250594D01*
X299655Y250814D01*
X299809Y251043D01*
X299939Y251282D01*
X300045Y251530D01*
X300128Y251788D01*
X300187Y252055D01*
X300222Y252331D01*
X300234Y252617D01*
X302266Y252439D01*
D02*
G37*
G36*
X82970Y251397D02*
X82823Y251206D01*
X82693Y251000D01*
X82581Y250779D01*
X82486Y250544D01*
X82408Y250295D01*
X82348Y250030D01*
X82304Y249752D01*
X82279Y249458D01*
X82270Y249150D01*
X79730D01*
X79721Y249458D01*
X79695Y249752D01*
X79652Y250030D01*
X79592Y250295D01*
X79514Y250544D01*
X79419Y250779D01*
X79307Y251000D01*
X79177Y251206D01*
X79030Y251397D01*
X78866Y251573D01*
X83134D01*
X82970Y251397D01*
D02*
G37*
G36*
X348008Y244601D02*
X347766Y244449D01*
X347551Y244281D01*
X347360Y244098D01*
X347195Y243899D01*
X347056Y243685D01*
X346941Y243456D01*
X346853Y243211D01*
X346789Y242950D01*
X346751Y242674D01*
X346738Y242383D01*
X344706Y242957D01*
X344698Y243227D01*
X344673Y243498D01*
X344632Y243769D01*
X344575Y244042D01*
X344500Y244314D01*
X344409Y244588D01*
X344302Y244862D01*
X344038Y245413D01*
X343882Y245690D01*
X348008Y244601D01*
D02*
G37*
G36*
X335432Y243457D02*
X335210Y243428D01*
X335012Y243368D01*
X334837Y243278D01*
X334686Y243157D01*
X334557Y243005D01*
X334453Y242822D01*
X334371Y242609D01*
X334313Y242366D01*
X334278Y242091D01*
X334266Y241786D01*
X332234Y242371D01*
X332261Y245905D01*
X335432Y243457D01*
D02*
G37*
G36*
X154277Y241420D02*
X154311Y241144D01*
X154367Y240874D01*
X154445Y240612D01*
X154545Y240356D01*
X154668Y240107D01*
X154814Y239864D01*
X154981Y239628D01*
X155171Y239399D01*
X155384Y239177D01*
X151116D01*
X151329Y239399D01*
X151519Y239628D01*
X151686Y239864D01*
X151832Y240107D01*
X151955Y240356D01*
X152055Y240612D01*
X152133Y240874D01*
X152189Y241144D01*
X152223Y241420D01*
X152234Y241702D01*
X154266D01*
X154277Y241420D01*
D02*
G37*
G36*
X163853Y243220D02*
X164044Y243073D01*
X164250Y242943D01*
X164471Y242831D01*
X164706Y242736D01*
X164955Y242658D01*
X165219Y242598D01*
X165498Y242554D01*
X165792Y242529D01*
X166100Y242520D01*
Y239980D01*
X165792Y239971D01*
X165498Y239945D01*
X165219Y239902D01*
X164955Y239842D01*
X164706Y239764D01*
X164471Y239669D01*
X164250Y239557D01*
X164044Y239427D01*
X163853Y239280D01*
X163677Y239116D01*
Y243384D01*
X163853Y243220D01*
D02*
G37*
G36*
X134369Y239189D02*
X134595Y239000D01*
X134823Y238833D01*
X135052Y238689D01*
X135284Y238567D01*
X135517Y238468D01*
X135752Y238392D01*
X135990Y238338D01*
X136229Y238307D01*
X136469Y238298D01*
X133452Y235280D01*
X133443Y235521D01*
X133412Y235760D01*
X133358Y235998D01*
X133281Y236233D01*
X133183Y236466D01*
X133061Y236698D01*
X132917Y236927D01*
X132750Y237155D01*
X132561Y237381D01*
X132350Y237604D01*
X134146Y239400D01*
X134369Y239189D01*
D02*
G37*
G36*
X123823Y233866D02*
X123647Y234030D01*
X123455Y234177D01*
X123250Y234307D01*
X123029Y234419D01*
X122794Y234514D01*
X122545Y234592D01*
X122281Y234652D01*
X122002Y234695D01*
X121708Y234721D01*
X121400Y234730D01*
Y237270D01*
X121708Y237279D01*
X122002Y237305D01*
X122281Y237348D01*
X122545Y237408D01*
X122794Y237486D01*
X123029Y237581D01*
X123250Y237693D01*
X123455Y237823D01*
X123647Y237969D01*
X123823Y238134D01*
Y233866D01*
D02*
G37*
G36*
X115307Y233979D02*
X115338Y233740D01*
X115392Y233503D01*
X115469Y233267D01*
X115567Y233034D01*
X115689Y232803D01*
X115833Y232573D01*
X116000Y232345D01*
X116189Y232120D01*
X116400Y231896D01*
X114604Y230100D01*
X114381Y230311D01*
X114155Y230500D01*
X113927Y230667D01*
X113698Y230811D01*
X113466Y230933D01*
X113233Y231031D01*
X112998Y231108D01*
X112760Y231162D01*
X112521Y231193D01*
X112281Y231202D01*
X115298Y234219D01*
X115307Y233979D01*
D02*
G37*
G36*
X204443Y233866D02*
X204669Y233678D01*
X204897Y233515D01*
X205127Y233375D01*
X205359Y233259D01*
X205592Y233167D01*
X205827Y233100D01*
X206064Y233056D01*
X206303Y233036D01*
X206543Y233041D01*
X203706Y229854D01*
X203683Y230093D01*
X203640Y230331D01*
X203576Y230567D01*
X203491Y230801D01*
X203384Y231033D01*
X203257Y231264D01*
X203109Y231492D01*
X202939Y231719D01*
X202749Y231944D01*
X202537Y232167D01*
X204218Y234078D01*
X204443Y233866D01*
D02*
G37*
G36*
X141794Y228607D02*
X141602Y228399D01*
X141430Y228180D01*
X141279Y227950D01*
X141149Y227709D01*
X141039Y227457D01*
X140950Y227194D01*
X140881Y226920D01*
X140833Y226634D01*
X140805Y226338D01*
X140798Y226031D01*
X137781Y229048D01*
X138088Y229055D01*
X138384Y229083D01*
X138670Y229131D01*
X138944Y229200D01*
X139207Y229289D01*
X139459Y229399D01*
X139700Y229529D01*
X139930Y229680D01*
X140149Y229852D01*
X140357Y230044D01*
X141794Y228607D01*
D02*
G37*
G36*
X30285Y190190D02*
X30340Y189851D01*
X30432Y189510D01*
X30562Y189167D01*
X30728Y188824D01*
X30931Y188479D01*
X31171Y188133D01*
X31448Y187786D01*
X31762Y187437D01*
X32113Y187087D01*
X26424Y186995D01*
X26768Y187360D01*
X27347Y188079D01*
X27582Y188434D01*
X27782Y188786D01*
X27945Y189134D01*
X28071Y189479D01*
X28162Y189821D01*
X28216Y190160D01*
X28234Y190495D01*
X30266Y190529D01*
X30285Y190190D01*
D02*
G37*
G36*
X219869Y176939D02*
X220095Y176750D01*
X220323Y176583D01*
X220552Y176439D01*
X220784Y176318D01*
X221017Y176218D01*
X221252Y176142D01*
X221490Y176088D01*
X221729Y176057D01*
X221970Y176048D01*
X218952Y173030D01*
X218943Y173271D01*
X218912Y173510D01*
X218858Y173748D01*
X218782Y173983D01*
X218682Y174216D01*
X218561Y174447D01*
X218417Y174677D01*
X218250Y174905D01*
X218061Y175131D01*
X217850Y175354D01*
X219646Y177150D01*
X219869Y176939D01*
D02*
G37*
G36*
X495857Y4144D02*
X181250D01*
Y18615D01*
X340910D01*
X342397Y18911D01*
X343657Y19753D01*
X358081Y34177D01*
X358090Y34184D01*
X358205Y34257D01*
X358330Y34322D01*
X358469Y34380D01*
X358629Y34431D01*
X358813Y34474D01*
X359024Y34507D01*
X359263Y34528D01*
X359548Y34534D01*
X359599Y34527D01*
X361323Y34754D01*
X362929Y35419D01*
X364309Y36478D01*
X365367Y37857D01*
X366033Y39464D01*
X366259Y41188D01*
X366033Y42912D01*
X365367Y44518D01*
X364309Y45898D01*
X362929Y46957D01*
X361323Y47622D01*
X359599Y47849D01*
X357874Y47622D01*
X356268Y46957D01*
X354888Y45898D01*
X353830Y44518D01*
X353164Y42912D01*
X352938Y41188D01*
X352944Y41137D01*
X352938Y40853D01*
X352918Y40613D01*
X352885Y40402D01*
X352842Y40219D01*
X352790Y40059D01*
X352732Y39919D01*
X352668Y39794D01*
X352594Y39680D01*
X352588Y39671D01*
X339301Y26385D01*
X321265D01*
X320736Y27655D01*
X321546Y28867D01*
X321921Y30750D01*
X321546Y32633D01*
X320479Y34229D01*
X318883Y35296D01*
X317000Y35670D01*
X315117Y35296D01*
X313521Y34229D01*
X312454Y32633D01*
X312080Y30750D01*
X312454Y28867D01*
X313264Y27655D01*
X312735Y26385D01*
X270288D01*
X270266Y26439D01*
X270077Y27655D01*
X271180Y28392D01*
X272078Y29736D01*
X272394Y31322D01*
X272078Y32908D01*
X271180Y34252D01*
X269836Y35150D01*
X268250Y35466D01*
X266664Y35150D01*
X265320Y34252D01*
X264422Y32908D01*
X264106Y31322D01*
X264422Y29736D01*
X265320Y28392D01*
X266423Y27655D01*
X266234Y26439D01*
X266212Y26385D01*
X181250D01*
X181250Y75554D01*
X182232Y76360D01*
X182250Y76356D01*
X183836Y76672D01*
X185180Y77570D01*
X186078Y78914D01*
X186394Y80500D01*
X186291Y81018D01*
X187096Y82000D01*
X207208Y82000D01*
X207333Y80730D01*
X206246Y80514D01*
X204397Y79279D01*
X203162Y77430D01*
X202729Y75250D01*
X202927Y74254D01*
X202061Y73217D01*
X201858Y73115D01*
X200414Y72828D01*
X199070Y71930D01*
X198172Y70586D01*
X197856Y69000D01*
X198172Y67414D01*
X199070Y66070D01*
X200414Y65172D01*
X202000Y64856D01*
X203586Y65172D01*
X204930Y66070D01*
X205828Y67414D01*
X206089Y68723D01*
X206542Y69273D01*
X207283Y69780D01*
X208426Y69552D01*
X210606Y69986D01*
X212455Y71221D01*
X213690Y73070D01*
X214123Y75250D01*
X213690Y77430D01*
X212455Y79279D01*
X210606Y80514D01*
X209519Y80730D01*
X209644Y82000D01*
X224839Y82000D01*
X225518Y80730D01*
X225422Y80586D01*
X225106Y79000D01*
X225422Y77414D01*
X226320Y76070D01*
X227664Y75172D01*
X229250Y74856D01*
X230836Y75172D01*
X232180Y76070D01*
X233078Y77414D01*
X233394Y79000D01*
X233078Y80586D01*
X232982Y80730D01*
X233661Y82000D01*
X254815Y82000D01*
X255014Y81754D01*
X254755Y80053D01*
X254570Y79930D01*
X253672Y78586D01*
X253356Y77000D01*
X253672Y75414D01*
X254570Y74070D01*
X255914Y73172D01*
X257500Y72856D01*
X259086Y73172D01*
X260430Y74070D01*
X261328Y75414D01*
X261644Y77000D01*
X261328Y78586D01*
X260430Y79930D01*
X260245Y80053D01*
X259986Y81754D01*
X260185Y82000D01*
X279750Y82000D01*
X305647Y107897D01*
X306821Y107411D01*
Y66056D01*
X306736Y65930D01*
X306303Y63750D01*
X306736Y61570D01*
X306821Y61444D01*
Y59806D01*
X306736Y59680D01*
X306303Y57500D01*
X306736Y55320D01*
X307971Y53471D01*
X309820Y52236D01*
X312000Y51803D01*
X314180Y52236D01*
X316029Y53471D01*
X317264Y55320D01*
X317698Y57500D01*
X317264Y59680D01*
X317180Y59806D01*
Y61444D01*
X317264Y61570D01*
X317698Y63750D01*
X317264Y65930D01*
X317180Y66056D01*
Y91021D01*
X318449Y91146D01*
X318594Y90419D01*
X319380Y89242D01*
X355811Y52811D01*
X355811Y52811D01*
X356987Y52025D01*
X358375Y51749D01*
X384623D01*
X393936Y42436D01*
X393936Y42436D01*
X395112Y41650D01*
X396500Y41374D01*
X396500Y41374D01*
X431971D01*
X431992Y41370D01*
X432043Y41355D01*
X432096Y41334D01*
X432153Y41306D01*
X432218Y41267D01*
X432293Y41214D01*
X432330Y41183D01*
X432471Y40971D01*
X434320Y39736D01*
X436500Y39302D01*
X438680Y39736D01*
X440529Y40971D01*
X441764Y42820D01*
X442197Y45000D01*
X441764Y47180D01*
X440529Y49029D01*
X438680Y50264D01*
X436500Y50697D01*
X434320Y50264D01*
X432471Y49029D01*
X432330Y48817D01*
X432293Y48786D01*
X432218Y48733D01*
X432153Y48694D01*
X432096Y48666D01*
X432043Y48645D01*
X431992Y48630D01*
X431971Y48626D01*
X398002D01*
X388689Y57939D01*
X387512Y58725D01*
X386125Y59001D01*
X386125Y59001D01*
X359877D01*
X345073Y73805D01*
X345081Y73817D01*
X345916Y74758D01*
X349000Y74352D01*
X352274Y74783D01*
X355324Y76046D01*
X357944Y78056D01*
X359954Y80676D01*
X361217Y83726D01*
X361640Y86937D01*
X362008Y87206D01*
X362784Y87589D01*
X365936Y84436D01*
X365936Y84436D01*
X367113Y83650D01*
X368500Y83374D01*
X368500Y83374D01*
X370257D01*
X370935Y82104D01*
X370422Y81336D01*
X370106Y79750D01*
X370422Y78164D01*
X371320Y76820D01*
X372664Y75922D01*
X374250Y75606D01*
X375836Y75922D01*
X377180Y76820D01*
X378078Y78164D01*
X378394Y79750D01*
X378078Y81336D01*
X377832Y81704D01*
X378748Y82619D01*
X380070Y81736D01*
X382250Y81302D01*
X384430Y81736D01*
X386279Y82971D01*
X387514Y84820D01*
X387948Y87000D01*
X387514Y89180D01*
X386279Y91029D01*
X384430Y92264D01*
X382250Y92697D01*
X380070Y92264D01*
X378221Y91029D01*
X378080Y90817D01*
X378043Y90786D01*
X377968Y90733D01*
X377903Y90694D01*
X377846Y90666D01*
X377794Y90645D01*
X377742Y90630D01*
X377721Y90626D01*
X370002D01*
X366926Y93701D01*
X367412Y94874D01*
X393221D01*
X393242Y94870D01*
X393293Y94855D01*
X393346Y94834D01*
X393403Y94806D01*
X393468Y94767D01*
X393543Y94714D01*
X393580Y94683D01*
X393721Y94471D01*
X395570Y93236D01*
X397750Y92802D01*
X399930Y93236D01*
X401779Y94471D01*
X403014Y96320D01*
X403447Y98500D01*
X403014Y100680D01*
X401779Y102529D01*
X399930Y103764D01*
X397750Y104198D01*
X395570Y103764D01*
X393721Y102529D01*
X393580Y102317D01*
X393543Y102286D01*
X393468Y102233D01*
X393403Y102194D01*
X393346Y102166D01*
X393293Y102145D01*
X393242Y102130D01*
X393221Y102126D01*
X363752D01*
X356453Y109424D01*
X356871Y110802D01*
X357633Y110954D01*
X359229Y112021D01*
X360296Y113617D01*
X360671Y115500D01*
X360296Y117383D01*
X359229Y118979D01*
X357633Y120046D01*
X355750Y120421D01*
X353867Y120046D01*
X352271Y118979D01*
X351204Y117383D01*
X351053Y116621D01*
X349674Y116203D01*
X342084Y123793D01*
X342710Y124964D01*
X343250Y124856D01*
X344836Y125172D01*
X346180Y126070D01*
X347078Y127414D01*
X347394Y129000D01*
X347078Y130586D01*
X346180Y131930D01*
X344836Y132828D01*
X343250Y133144D01*
X341664Y132828D01*
X340396Y131980D01*
X339989Y132068D01*
X339126Y132429D01*
Y133998D01*
X343814Y138686D01*
X343814Y138686D01*
X344600Y139862D01*
X344876Y141250D01*
X344876Y141250D01*
Y147126D01*
X374250Y176500D01*
X444491D01*
X445106Y175750D01*
X445422Y174164D01*
X446320Y172820D01*
X447664Y171922D01*
X449250Y171606D01*
X450836Y171922D01*
X452180Y172820D01*
X453078Y174164D01*
X453394Y175750D01*
X454009Y176500D01*
X495857D01*
Y4144D01*
D02*
G37*
G36*
X277714Y173846D02*
X277941Y173662D01*
X278169Y173506D01*
X278396Y173378D01*
X278624Y173279D01*
X278852Y173207D01*
X279079Y173165D01*
X279307Y173151D01*
X279535Y173165D01*
X279763Y173208D01*
X277528Y169573D01*
X277469Y169794D01*
X277393Y170015D01*
X277300Y170236D01*
X277190Y170457D01*
X277062Y170678D01*
X276918Y170900D01*
X276577Y171342D01*
X276381Y171564D01*
X276168Y171786D01*
X277487Y174059D01*
X277714Y173846D01*
D02*
G37*
G36*
X395573Y96366D02*
X395351Y96579D01*
X395122Y96769D01*
X394886Y96936D01*
X394643Y97082D01*
X394394Y97205D01*
X394138Y97305D01*
X393876Y97383D01*
X393606Y97439D01*
X393330Y97473D01*
X393047Y97484D01*
Y99516D01*
X393330Y99527D01*
X393606Y99561D01*
X393876Y99617D01*
X394138Y99695D01*
X394394Y99795D01*
X394643Y99918D01*
X394886Y100064D01*
X395122Y100231D01*
X395351Y100421D01*
X395573Y100634D01*
Y96366D01*
D02*
G37*
G36*
X380073Y84866D02*
X379851Y85079D01*
X379622Y85269D01*
X379386Y85436D01*
X379143Y85582D01*
X378894Y85705D01*
X378638Y85805D01*
X378376Y85883D01*
X378106Y85939D01*
X377830Y85973D01*
X377547Y85984D01*
Y88016D01*
X377830Y88027D01*
X378106Y88061D01*
X378376Y88117D01*
X378638Y88195D01*
X378894Y88295D01*
X379143Y88418D01*
X379386Y88564D01*
X379622Y88731D01*
X379851Y88921D01*
X380073Y89134D01*
Y84866D01*
D02*
G37*
G36*
X327374Y128962D02*
Y124500D01*
X327374Y124500D01*
X327650Y123113D01*
X328436Y121936D01*
X349589Y100784D01*
X349206Y100008D01*
X348937Y99640D01*
X345726Y99217D01*
X342676Y97954D01*
X340056Y95944D01*
X338046Y93324D01*
X336783Y90274D01*
X336603Y88905D01*
X349000D01*
Y85095D01*
X336603D01*
X336758Y83916D01*
X335817Y83081D01*
X335805Y83073D01*
X325570Y93308D01*
Y129173D01*
X326104Y129586D01*
X327374Y128962D01*
D02*
G37*
G36*
X434323Y42866D02*
X434101Y43079D01*
X433872Y43269D01*
X433636Y43436D01*
X433393Y43582D01*
X433144Y43705D01*
X432888Y43805D01*
X432626Y43883D01*
X432356Y43939D01*
X432080Y43973D01*
X431797Y43984D01*
Y46016D01*
X432080Y46027D01*
X432356Y46061D01*
X432626Y46117D01*
X432888Y46195D01*
X433144Y46295D01*
X433393Y46418D01*
X433636Y46564D01*
X433872Y46731D01*
X434101Y46921D01*
X434323Y47134D01*
Y42866D01*
D02*
G37*
G36*
X359558Y37124D02*
X359126Y37115D01*
X358712Y37080D01*
X358315Y37018D01*
X357937Y36929D01*
X357577Y36813D01*
X357234Y36671D01*
X356909Y36502D01*
X356603Y36307D01*
X356314Y36085D01*
X356043Y35836D01*
X354246Y37632D01*
X354495Y37903D01*
X354717Y38192D01*
X354913Y38499D01*
X355082Y38823D01*
X355224Y39166D01*
X355339Y39527D01*
X355428Y39905D01*
X355490Y40301D01*
X355526Y40715D01*
X355535Y41147D01*
X359558Y37124D01*
D02*
G37*
G36*
X174964Y25046D02*
X175282Y24778D01*
X175606Y24542D01*
X175937Y24337D01*
X176273Y24164D01*
X176616Y24022D01*
X176965Y23912D01*
X177320Y23833D01*
X177681Y23786D01*
X178049Y23770D01*
Y21230D01*
X177681Y21214D01*
X177320Y21167D01*
X176965Y21088D01*
X176616Y20978D01*
X176273Y20836D01*
X175937Y20663D01*
X175606Y20458D01*
X175282Y20222D01*
X174964Y19954D01*
X174652Y19655D01*
Y25345D01*
X174964Y25046D01*
D02*
G37*
%LPC*%
G36*
X432500Y614144D02*
X430914Y613828D01*
X429570Y612930D01*
X428672Y611586D01*
X428356Y610000D01*
X428672Y608414D01*
X429570Y607070D01*
X430914Y606172D01*
X432500Y605856D01*
X434086Y606172D01*
X435430Y607070D01*
X436328Y608414D01*
X436644Y610000D01*
X436328Y611586D01*
X435430Y612930D01*
X434086Y613828D01*
X432500Y614144D01*
D02*
G37*
G36*
X469750Y614671D02*
X467867Y614296D01*
X466271Y613229D01*
X465204Y611633D01*
X464829Y609750D01*
X465204Y607867D01*
X466271Y606271D01*
X466474Y606135D01*
Y604865D01*
X466271Y604729D01*
X465204Y603133D01*
X464829Y601250D01*
X465204Y599367D01*
X466271Y597771D01*
X467867Y596704D01*
X469750Y596329D01*
X471633Y596704D01*
X473229Y597771D01*
X474296Y599367D01*
X474670Y601250D01*
X474296Y603133D01*
X473229Y604729D01*
X473026Y604865D01*
Y606135D01*
X473229Y606271D01*
X474296Y607867D01*
X474670Y609750D01*
X474296Y611633D01*
X473229Y613229D01*
X471633Y614296D01*
X469750Y614671D01*
D02*
G37*
G36*
X440000Y586644D02*
X438414Y586328D01*
X437070Y585430D01*
X436172Y584086D01*
X435856Y582500D01*
X436027Y581643D01*
X434884Y580879D01*
X434586Y581078D01*
X433000Y581394D01*
X431414Y581078D01*
X430070Y580180D01*
X429172Y578836D01*
X428856Y577250D01*
X429172Y575664D01*
X429535Y575121D01*
X429617Y574999D01*
X428701Y574083D01*
X428532Y574196D01*
X427586Y574828D01*
X426000Y575144D01*
X424414Y574828D01*
X423070Y573930D01*
X422172Y572586D01*
X421856Y571000D01*
X422172Y569414D01*
X423070Y568070D01*
X424414Y567172D01*
X426000Y566856D01*
X427586Y567172D01*
X428930Y568070D01*
X429828Y569414D01*
X430144Y571000D01*
X429828Y572586D01*
X429465Y573130D01*
X429384Y573251D01*
X430299Y574167D01*
X430468Y574054D01*
X431414Y573422D01*
X433000Y573106D01*
X434586Y573422D01*
X435930Y574320D01*
X436828Y575664D01*
X437144Y577250D01*
X436973Y578107D01*
X438116Y578871D01*
X438414Y578672D01*
X440000Y578356D01*
X441586Y578672D01*
X442930Y579570D01*
X443828Y580914D01*
X444144Y582500D01*
X443828Y584086D01*
X442930Y585430D01*
X441586Y586328D01*
X440000Y586644D01*
D02*
G37*
G36*
X339250Y580394D02*
X337664Y580078D01*
X336320Y579180D01*
X335422Y577836D01*
X335328Y577366D01*
X335198Y577206D01*
X333863Y576508D01*
X332361Y576807D01*
X330200Y576377D01*
X328367Y575152D01*
X327143Y573320D01*
X326871Y571955D01*
X325602Y572080D01*
Y579500D01*
X319967D01*
Y568365D01*
X325602D01*
Y570236D01*
X326871Y570361D01*
X327143Y568997D01*
X328367Y567164D01*
X330200Y565940D01*
X332361Y565510D01*
X334523Y565940D01*
X336356Y567164D01*
X337580Y568997D01*
X338010Y571158D01*
X337985Y571281D01*
X338884Y572179D01*
X339250Y572106D01*
X340836Y572422D01*
X342180Y573320D01*
X343078Y574664D01*
X343394Y576250D01*
X343078Y577836D01*
X342180Y579180D01*
X340836Y580078D01*
X339250Y580394D01*
D02*
G37*
G36*
X402556Y579500D02*
X396922D01*
Y572080D01*
X395652Y571955D01*
X395380Y573320D01*
X394156Y575152D01*
X392323Y576377D01*
X390162Y576807D01*
X388000Y576377D01*
X386167Y575152D01*
X384943Y573320D01*
X384513Y571158D01*
X384943Y568997D01*
X386167Y567164D01*
X388000Y565940D01*
X390162Y565510D01*
X392323Y565940D01*
X394156Y567164D01*
X395380Y568997D01*
X395652Y570361D01*
X396922Y570236D01*
Y568365D01*
X402556D01*
Y579500D01*
D02*
G37*
G36*
X368750Y579394D02*
X367164Y579078D01*
X365820Y578180D01*
X364922Y576836D01*
X364606Y575250D01*
X364922Y573664D01*
X365820Y572320D01*
X367164Y571422D01*
X368750Y571106D01*
X370336Y571422D01*
X371680Y572320D01*
X372578Y573664D01*
X372894Y575250D01*
X372578Y576836D01*
X371680Y578180D01*
X370336Y579078D01*
X368750Y579394D01*
D02*
G37*
G36*
X412001Y579500D02*
X406367D01*
Y568365D01*
X412001D01*
Y579500D01*
D02*
G37*
G36*
X316157D02*
X310522D01*
Y568365D01*
X316157D01*
Y579500D01*
D02*
G37*
G36*
X358750Y576644D02*
X357164Y576328D01*
X355820Y575430D01*
X354922Y574086D01*
X354606Y572500D01*
X354922Y570914D01*
X355820Y569570D01*
X357164Y568672D01*
X358750Y568356D01*
X360336Y568672D01*
X361680Y569570D01*
X362578Y570914D01*
X362894Y572500D01*
X362578Y574086D01*
X361680Y575430D01*
X360336Y576328D01*
X358750Y576644D01*
D02*
G37*
G36*
X412001Y564555D02*
X406367D01*
Y553420D01*
X412001D01*
Y564555D01*
D02*
G37*
G36*
X490000Y554394D02*
X488414Y554078D01*
X487070Y553180D01*
X486172Y551836D01*
X485856Y550250D01*
X486172Y548664D01*
X487070Y547320D01*
X488414Y546422D01*
X490000Y546106D01*
X491586Y546422D01*
X492930Y547320D01*
X493828Y548664D01*
X494144Y550250D01*
X493828Y551836D01*
X492930Y553180D01*
X491586Y554078D01*
X490000Y554394D01*
D02*
G37*
G36*
X462000Y464921D02*
X460117Y464546D01*
X458521Y463479D01*
X457454Y461883D01*
X457080Y460000D01*
X457454Y458117D01*
X458521Y456521D01*
X460117Y455454D01*
X462000Y455079D01*
X463883Y455454D01*
X465479Y456521D01*
X466546Y458117D01*
X466921Y460000D01*
X466546Y461883D01*
X465479Y463479D01*
X463883Y464546D01*
X462000Y464921D01*
D02*
G37*
G36*
X429500Y306644D02*
X427914Y306328D01*
X426570Y305430D01*
X425672Y304086D01*
X425356Y302500D01*
X425672Y300914D01*
X426570Y299570D01*
X427914Y298672D01*
X429500Y298356D01*
X431086Y298672D01*
X432430Y299570D01*
X433328Y300914D01*
X433644Y302500D01*
X433328Y304086D01*
X432430Y305430D01*
X431086Y306328D01*
X429500Y306644D01*
D02*
G37*
G36*
X460000Y277648D02*
X456726Y277217D01*
X453676Y275954D01*
X451056Y273944D01*
X449046Y271324D01*
X447783Y268274D01*
X447352Y265000D01*
X447783Y261726D01*
X449046Y258676D01*
X451056Y256056D01*
X453676Y254046D01*
X456726Y252783D01*
X460000Y252352D01*
X463274Y252783D01*
X466324Y254046D01*
X468944Y256056D01*
X470954Y258676D01*
X472217Y261726D01*
X472648Y265000D01*
X472217Y268274D01*
X470954Y271324D01*
X468944Y273944D01*
X466324Y275954D01*
X463274Y277217D01*
X460000Y277648D01*
D02*
G37*
G36*
X444500Y246394D02*
X442914Y246078D01*
X441570Y245180D01*
X440672Y243836D01*
X440356Y242250D01*
X440672Y240664D01*
X441570Y239320D01*
Y238930D01*
X440672Y237586D01*
X440356Y236000D01*
X440672Y234414D01*
X441570Y233070D01*
X442914Y232172D01*
X444500Y231856D01*
X446086Y232172D01*
X447430Y233070D01*
X448328Y234414D01*
X448644Y236000D01*
X448328Y237586D01*
X447430Y238930D01*
Y239320D01*
X448328Y240664D01*
X448644Y242250D01*
X448328Y243836D01*
X447430Y245180D01*
X446086Y246078D01*
X444500Y246394D01*
D02*
G37*
G36*
X169750Y568144D02*
X168164Y567828D01*
X166820Y566930D01*
X166386Y566281D01*
X164864D01*
X164430Y566930D01*
X163086Y567828D01*
X161500Y568144D01*
X159914Y567828D01*
X158570Y566930D01*
X157672Y565586D01*
X157356Y564000D01*
X157672Y562414D01*
X158570Y561070D01*
X159914Y560172D01*
X161500Y559856D01*
X163086Y560172D01*
X164430Y561070D01*
X164864Y561719D01*
X166386D01*
X166820Y561070D01*
X168164Y560172D01*
X169750Y559856D01*
X171336Y560172D01*
X172680Y561070D01*
X173578Y562414D01*
X173894Y564000D01*
X173578Y565586D01*
X172680Y566930D01*
X171336Y567828D01*
X169750Y568144D01*
D02*
G37*
G36*
X265250Y566144D02*
X263664Y565828D01*
X262320Y564930D01*
X261422Y563586D01*
X261106Y562000D01*
X261422Y560414D01*
X262320Y559070D01*
X263664Y558172D01*
X265250Y557856D01*
X266836Y558172D01*
X268180Y559070D01*
X269078Y560414D01*
X269394Y562000D01*
X269078Y563586D01*
X268180Y564930D01*
X266836Y565828D01*
X265250Y566144D01*
D02*
G37*
G36*
X141500Y550671D02*
X139617Y550296D01*
X138021Y549229D01*
X137639Y548658D01*
X136111D01*
X135729Y549229D01*
X134133Y550296D01*
X132250Y550671D01*
X130367Y550296D01*
X128771Y549229D01*
X127704Y547633D01*
X127330Y545750D01*
X127704Y543867D01*
X128771Y542271D01*
X130367Y541204D01*
X132250Y540829D01*
X134133Y541204D01*
X135729Y542271D01*
X136111Y542842D01*
X137639D01*
X138021Y542271D01*
X139617Y541204D01*
X141500Y540829D01*
X143383Y541204D01*
X144979Y542271D01*
X146046Y543867D01*
X146420Y545750D01*
X146046Y547633D01*
X144979Y549229D01*
X143383Y550296D01*
X141500Y550671D01*
D02*
G37*
G36*
X372750Y483894D02*
X371164Y483578D01*
X369820Y482680D01*
X368922Y481336D01*
X368606Y479750D01*
X368922Y478164D01*
X369820Y476820D01*
X371164Y475922D01*
X372750Y475606D01*
X374336Y475922D01*
X375680Y476820D01*
X376578Y478164D01*
X376894Y479750D01*
X376578Y481336D01*
X375680Y482680D01*
X374336Y483578D01*
X372750Y483894D01*
D02*
G37*
G36*
X379336Y476230D02*
X377750Y475914D01*
X376406Y475016D01*
X375508Y473672D01*
X375192Y472086D01*
X375508Y470500D01*
X376406Y469156D01*
X377750Y468258D01*
X379336Y467942D01*
X380922Y468258D01*
X382266Y469156D01*
X383164Y470500D01*
X383480Y472086D01*
X383164Y473672D01*
X382266Y475016D01*
X380922Y475914D01*
X379336Y476230D01*
D02*
G37*
G36*
X312000Y447394D02*
X310414Y447078D01*
X309070Y446180D01*
X308172Y444836D01*
X307856Y443250D01*
X308172Y441664D01*
X309070Y440320D01*
X310414Y439422D01*
X312000Y439106D01*
X313586Y439422D01*
X314930Y440320D01*
X315828Y441664D01*
X316144Y443250D01*
X315828Y444836D01*
X314930Y446180D01*
X313586Y447078D01*
X312000Y447394D01*
D02*
G37*
G36*
X403250Y444644D02*
X401664Y444328D01*
X400320Y443430D01*
X399422Y442086D01*
X399106Y440500D01*
X399422Y438914D01*
X400320Y437570D01*
X401664Y436672D01*
X403250Y436356D01*
X404836Y436672D01*
X406180Y437570D01*
X407078Y438914D01*
X407394Y440500D01*
X407078Y442086D01*
X406180Y443430D01*
X404836Y444328D01*
X403250Y444644D01*
D02*
G37*
G36*
X391250Y416144D02*
X389664Y415828D01*
X388320Y414930D01*
X387422Y413586D01*
X387106Y412000D01*
X387422Y410414D01*
X388320Y409070D01*
X389664Y408172D01*
X391250Y407856D01*
X392836Y408172D01*
X394180Y409070D01*
X395078Y410414D01*
X395394Y412000D01*
X395078Y413586D01*
X394180Y414930D01*
X392836Y415828D01*
X391250Y416144D01*
D02*
G37*
G36*
X312500Y412644D02*
X310914Y412328D01*
X309570Y411430D01*
X308672Y410086D01*
X308356Y408500D01*
X308672Y406914D01*
X309570Y405570D01*
X310914Y404672D01*
X312500Y404356D01*
X314086Y404672D01*
X315430Y405570D01*
X316328Y406914D01*
X316644Y408500D01*
X316328Y410086D01*
X315430Y411430D01*
X314086Y412328D01*
X312500Y412644D01*
D02*
G37*
G36*
X368000Y394644D02*
X366414Y394328D01*
X365070Y393430D01*
X364172Y392086D01*
X363856Y390500D01*
X364172Y388914D01*
X365070Y387570D01*
X366414Y386672D01*
X368000Y386356D01*
X369586Y386672D01*
X370930Y387570D01*
X371828Y388914D01*
X372144Y390500D01*
X371828Y392086D01*
X370930Y393430D01*
X369586Y394328D01*
X368000Y394644D01*
D02*
G37*
G36*
X314000Y390894D02*
X312414Y390578D01*
X311070Y389680D01*
X310172Y388336D01*
X309856Y386750D01*
X310172Y385164D01*
X311066Y383826D01*
X311060Y383797D01*
X310564Y382631D01*
X310500Y382644D01*
X308914Y382328D01*
X307570Y381430D01*
X306672Y380086D01*
X306356Y378500D01*
X306672Y376914D01*
X307570Y375570D01*
X308914Y374672D01*
X310500Y374356D01*
X312086Y374672D01*
X313430Y375570D01*
X314328Y376914D01*
X314644Y378500D01*
X314328Y380086D01*
X313434Y381424D01*
X313440Y381453D01*
X313936Y382619D01*
X314000Y382606D01*
X315586Y382922D01*
X316930Y383820D01*
X317828Y385164D01*
X318144Y386750D01*
X317828Y388336D01*
X316930Y389680D01*
X315586Y390578D01*
X314000Y390894D01*
D02*
G37*
G36*
X391750Y378394D02*
X390164Y378078D01*
X388820Y377180D01*
X387922Y375836D01*
X387606Y374250D01*
X387922Y372664D01*
X388820Y371320D01*
X390164Y370422D01*
X391750Y370106D01*
X393336Y370422D01*
X394680Y371320D01*
X395578Y372664D01*
X395894Y374250D01*
X395578Y375836D01*
X394680Y377180D01*
X393336Y378078D01*
X391750Y378394D01*
D02*
G37*
G36*
X340500Y375238D02*
X338914Y374922D01*
X337570Y374024D01*
X336672Y372680D01*
X336356Y371094D01*
X336672Y369508D01*
X337570Y368164D01*
X338914Y367266D01*
X340500Y366950D01*
X342086Y367266D01*
X343430Y368164D01*
X344328Y369508D01*
X344644Y371094D01*
X344328Y372680D01*
X343430Y374024D01*
X342086Y374922D01*
X340500Y375238D01*
D02*
G37*
G36*
Y365144D02*
X338914Y364828D01*
X337570Y363930D01*
X336672Y362586D01*
X336356Y361000D01*
X336672Y359414D01*
X337570Y358070D01*
X338914Y357172D01*
X340500Y356856D01*
X342086Y357172D01*
X343430Y358070D01*
X344328Y359414D01*
X344644Y361000D01*
X344328Y362586D01*
X343430Y363930D01*
X342086Y364828D01*
X340500Y365144D01*
D02*
G37*
G36*
X393000Y358698D02*
X390820Y358264D01*
X388971Y357029D01*
X388830Y356817D01*
X388793Y356786D01*
X388718Y356733D01*
X388653Y356694D01*
X388596Y356666D01*
X388544Y356645D01*
X388492Y356630D01*
X388471Y356626D01*
X377750D01*
X377750Y356626D01*
X376362Y356350D01*
X375186Y355564D01*
X375186Y355564D01*
X367782Y348160D01*
X366996Y346983D01*
X366720Y345596D01*
X366720Y345596D01*
Y344069D01*
X366718Y344057D01*
X366705Y344015D01*
X366688Y343973D01*
X366664Y343927D01*
X366631Y343873D01*
X366583Y343809D01*
X366517Y343734D01*
X366492Y343710D01*
X366221Y343529D01*
X364986Y341680D01*
X364552Y339500D01*
X364986Y337320D01*
X366221Y335471D01*
X366726Y335134D01*
X366458Y333786D01*
X365414Y333578D01*
X364070Y332680D01*
X363172Y331336D01*
X362856Y329750D01*
X363172Y328164D01*
X364070Y326820D01*
X365414Y325922D01*
X367000Y325606D01*
X368586Y325922D01*
X369930Y326820D01*
X370828Y328164D01*
X371144Y329750D01*
X370828Y331336D01*
X370011Y332559D01*
X370108Y333065D01*
X370470Y333846D01*
X372430Y334236D01*
X374279Y335471D01*
X375514Y337320D01*
X375574Y337624D01*
X376985Y338208D01*
X377414Y337922D01*
X379000Y337606D01*
X380586Y337922D01*
X381930Y338820D01*
X382828Y340164D01*
X383144Y341750D01*
X382828Y343336D01*
X381930Y344680D01*
X380586Y345578D01*
X379000Y345894D01*
X377414Y345578D01*
X376925Y345251D01*
X376115Y346237D01*
X379252Y349374D01*
X388471D01*
X388492Y349370D01*
X388543Y349355D01*
X388596Y349334D01*
X388653Y349306D01*
X388718Y349267D01*
X388793Y349214D01*
X388830Y349183D01*
X388971Y348971D01*
X390820Y347736D01*
X391151Y347670D01*
Y346375D01*
X390914Y346328D01*
X389570Y345430D01*
X388672Y344086D01*
X388356Y342500D01*
X388672Y340914D01*
X389570Y339570D01*
X390914Y338672D01*
X392500Y338356D01*
X394086Y338672D01*
X395430Y339570D01*
X396328Y340914D01*
X396644Y342500D01*
X396328Y344086D01*
X395430Y345430D01*
X394206Y346248D01*
X394167Y346724D01*
X394340Y347569D01*
X395180Y347736D01*
X397029Y348971D01*
X398264Y350820D01*
X398698Y353000D01*
X398264Y355180D01*
X397029Y357029D01*
X395180Y358264D01*
X393000Y358698D01*
D02*
G37*
G36*
X340500Y355238D02*
X338914Y354922D01*
X337570Y354024D01*
X336672Y352680D01*
X336356Y351094D01*
X336672Y349508D01*
X337570Y348164D01*
X338914Y347266D01*
X340500Y346950D01*
X342086Y347266D01*
X343430Y348164D01*
X344328Y349508D01*
X344644Y351094D01*
X344328Y352680D01*
X343430Y354024D01*
X342086Y354922D01*
X340500Y355238D01*
D02*
G37*
G36*
X328250Y348447D02*
X326070Y348014D01*
X324221Y346779D01*
X322986Y344930D01*
X322552Y342750D01*
X322986Y340570D01*
X324221Y338721D01*
X326070Y337486D01*
X328250Y337052D01*
X328379Y337078D01*
X328405Y337065D01*
X328472Y337022D01*
X328515Y336991D01*
X331931Y333575D01*
X331513Y332197D01*
X330914Y332078D01*
X329570Y331180D01*
X328672Y329836D01*
X328356Y328250D01*
X328672Y326664D01*
X329570Y325320D01*
X330914Y324422D01*
X332500Y324106D01*
X334086Y324422D01*
X335430Y325320D01*
X336328Y326664D01*
X336447Y327263D01*
X337825Y327681D01*
X346615Y318891D01*
Y304760D01*
X346607Y304707D01*
X346590Y304630D01*
X346581Y304602D01*
X346471Y304529D01*
X345236Y302680D01*
X344803Y300500D01*
X345236Y298320D01*
X345891Y297339D01*
X345619Y295630D01*
X345320Y295430D01*
X344422Y294086D01*
X344106Y292500D01*
X344422Y290914D01*
X345320Y289570D01*
X346664Y288672D01*
X348250Y288356D01*
X349836Y288672D01*
X351180Y289570D01*
X352078Y290914D01*
X352394Y292500D01*
X352078Y294086D01*
X352543Y295209D01*
X352680Y295236D01*
X354529Y296471D01*
X355764Y298320D01*
X356198Y300500D01*
X355764Y302680D01*
X354529Y304529D01*
X354419Y304602D01*
X354410Y304630D01*
X354393Y304707D01*
X354385Y304760D01*
Y320500D01*
X354089Y321987D01*
X353247Y323247D01*
X340958Y335535D01*
X341706Y336584D01*
X343000Y336326D01*
X344586Y336642D01*
X345930Y337540D01*
X346828Y338884D01*
X347144Y340470D01*
X346828Y342056D01*
X345930Y343400D01*
X344586Y344298D01*
X343000Y344614D01*
X341414Y344298D01*
X340070Y343400D01*
X339172Y342056D01*
X338856Y340470D01*
X339114Y339176D01*
X338065Y338428D01*
X334009Y342485D01*
X333978Y342528D01*
X333935Y342595D01*
X333922Y342621D01*
X333947Y342750D01*
X333514Y344930D01*
X332279Y346779D01*
X330430Y348014D01*
X328250Y348447D01*
D02*
G37*
G36*
X332250Y301894D02*
X330664Y301578D01*
X329320Y300680D01*
X328422Y299336D01*
X328106Y297750D01*
X328422Y296164D01*
X329320Y294820D01*
X330664Y293922D01*
X332250Y293606D01*
X333836Y293922D01*
X335180Y294820D01*
X336078Y296164D01*
X336394Y297750D01*
X336078Y299336D01*
X335180Y300680D01*
X333836Y301578D01*
X332250Y301894D01*
D02*
G37*
%LPD*%
G36*
X390823Y350866D02*
X390601Y351079D01*
X390372Y351269D01*
X390136Y351436D01*
X389893Y351582D01*
X389644Y351705D01*
X389388Y351805D01*
X389126Y351883D01*
X388856Y351939D01*
X388580Y351973D01*
X388298Y351984D01*
Y354016D01*
X388580Y354027D01*
X388856Y354061D01*
X389126Y354117D01*
X389388Y354195D01*
X389644Y354295D01*
X389893Y354418D01*
X390136Y354564D01*
X390372Y354731D01*
X390601Y354921D01*
X390823Y355134D01*
Y350866D01*
D02*
G37*
G36*
X371362Y344167D02*
X371373Y343885D01*
X371406Y343610D01*
X371460Y343340D01*
X371536Y343075D01*
X371634Y342817D01*
X371754Y342564D01*
X371896Y342316D01*
X372059Y342075D01*
X372244Y341839D01*
X372451Y341608D01*
X368186Y341743D01*
X368403Y341957D01*
X368598Y342179D01*
X368769Y342409D01*
X368918Y342647D01*
X369044Y342892D01*
X369147Y343145D01*
X369227Y343406D01*
X369284Y343675D01*
X369319Y343951D01*
X369330Y344235D01*
X371362Y344167D01*
D02*
G37*
G36*
X331307Y342479D02*
X331338Y342240D01*
X331392Y342002D01*
X331469Y341767D01*
X331567Y341534D01*
X331689Y341302D01*
X331833Y341073D01*
X332000Y340845D01*
X332189Y340620D01*
X332400Y340396D01*
X330604Y338600D01*
X330381Y338811D01*
X330155Y339000D01*
X329927Y339167D01*
X329697Y339311D01*
X329466Y339432D01*
X329233Y339532D01*
X328997Y339608D01*
X328760Y339662D01*
X328521Y339693D01*
X328280Y339702D01*
X331298Y342719D01*
X331307Y342479D01*
D02*
G37*
G36*
X351779Y304792D02*
X351805Y304498D01*
X351848Y304219D01*
X351908Y303955D01*
X351986Y303706D01*
X352081Y303471D01*
X352193Y303250D01*
X352323Y303044D01*
X352469Y302853D01*
X352634Y302677D01*
X348366D01*
X348531Y302853D01*
X348677Y303044D01*
X348807Y303250D01*
X348919Y303471D01*
X349014Y303706D01*
X349092Y303955D01*
X349152Y304219D01*
X349196Y304498D01*
X349221Y304792D01*
X349230Y305100D01*
X351770D01*
X351779Y304792D01*
D02*
G37*
%LPC*%
G36*
X16000Y497253D02*
X14097Y497002D01*
X12323Y496268D01*
X10801Y495099D01*
X9632Y493577D01*
X8898Y491803D01*
X8647Y489900D01*
X8898Y487997D01*
X9632Y486223D01*
X10801Y484701D01*
X12323Y483532D01*
X14097Y482798D01*
X16000Y482547D01*
X17903Y482798D01*
X19677Y483532D01*
X21199Y484701D01*
X22368Y486223D01*
X23102Y487997D01*
X23353Y489900D01*
X23102Y491803D01*
X22368Y493577D01*
X21199Y495099D01*
X19677Y496268D01*
X17903Y497002D01*
X16000Y497253D01*
D02*
G37*
G36*
X125750Y505171D02*
X123867Y504796D01*
X122271Y503729D01*
X121204Y502133D01*
X120829Y500250D01*
X121204Y498367D01*
X122271Y496771D01*
X122592Y496556D01*
Y495028D01*
X121771Y494479D01*
X120704Y492883D01*
X120330Y491000D01*
X120704Y489117D01*
X121771Y487521D01*
X123367Y486454D01*
X125250Y486079D01*
X127133Y486454D01*
X128729Y487521D01*
X129796Y489117D01*
X130170Y491000D01*
X129796Y492883D01*
X128729Y494479D01*
X128408Y494694D01*
Y496222D01*
X129229Y496771D01*
X130296Y498367D01*
X130670Y500250D01*
X130296Y502133D01*
X129229Y503729D01*
X127633Y504796D01*
X125750Y505171D01*
D02*
G37*
G36*
X132250Y470920D02*
X130367Y470546D01*
X128771Y469479D01*
X127704Y467883D01*
X127330Y466000D01*
X127704Y464117D01*
X128310Y463210D01*
X127631Y461940D01*
X127405D01*
Y452805D01*
X133939D01*
Y455186D01*
X133963Y454980D01*
X134034Y454796D01*
X134153Y454634D01*
X134320Y454493D01*
X134535Y454374D01*
X134797Y454277D01*
X135107Y454201D01*
X135464Y454147D01*
X135869Y454114D01*
X136322Y454104D01*
Y452805D01*
X136540D01*
Y461940D01*
X136540D01*
X136190Y463210D01*
X136796Y464117D01*
X137170Y466000D01*
X136796Y467883D01*
X135729Y469479D01*
X134133Y470546D01*
X132250Y470920D01*
D02*
G37*
G36*
X91716Y468917D02*
X89833Y468543D01*
X88237Y467476D01*
X87170Y465880D01*
X86796Y463997D01*
X87170Y462114D01*
X88237Y460517D01*
X89833Y459451D01*
X91716Y459076D01*
X93599Y459451D01*
X95195Y460517D01*
X96262Y462114D01*
X96636Y463997D01*
X96262Y465880D01*
X95195Y467476D01*
X93599Y468543D01*
X91716Y468917D01*
D02*
G37*
G36*
X123595Y461940D02*
X114460D01*
Y452805D01*
X123595D01*
Y461940D01*
D02*
G37*
G36*
X136540Y448995D02*
X127405D01*
Y439860D01*
X136540D01*
Y448995D01*
D02*
G37*
G36*
X123595D02*
X114460D01*
Y439860D01*
X123595D01*
Y448995D01*
D02*
G37*
G36*
X125500Y432601D02*
X123662Y432359D01*
X121950Y431649D01*
X120479Y430521D01*
X119351Y429050D01*
X118641Y427338D01*
X118399Y425500D01*
X118641Y423662D01*
X119351Y421950D01*
X120479Y420479D01*
X121950Y419351D01*
X123662Y418641D01*
X125500Y418399D01*
X127338Y418641D01*
X129050Y419351D01*
X130521Y420479D01*
X131649Y421950D01*
X132359Y423662D01*
X132601Y425500D01*
X132359Y427338D01*
X131649Y429050D01*
X130521Y430521D01*
X129050Y431649D01*
X127338Y432359D01*
X125500Y432601D01*
D02*
G37*
G36*
X184250Y422394D02*
X182664Y422078D01*
X181320Y421180D01*
X180422Y419836D01*
X180106Y418250D01*
X180422Y416664D01*
X181320Y415320D01*
X182664Y414422D01*
X184250Y414106D01*
X185836Y414422D01*
X187180Y415320D01*
X188078Y416664D01*
X188394Y418250D01*
X188078Y419836D01*
X187180Y421180D01*
X185836Y422078D01*
X184250Y422394D01*
D02*
G37*
G36*
X16000Y421053D02*
X14097Y420802D01*
X12323Y420068D01*
X10801Y418899D01*
X9632Y417377D01*
X8898Y415603D01*
X8647Y413700D01*
X8898Y411797D01*
X9632Y410023D01*
X10801Y408501D01*
X12323Y407332D01*
X14097Y406598D01*
X16000Y406347D01*
X17903Y406598D01*
X19677Y407332D01*
X21199Y408501D01*
X22368Y410023D01*
X23102Y411797D01*
X23353Y413700D01*
X23102Y415603D01*
X22368Y417377D01*
X21199Y418899D01*
X19677Y420068D01*
X17903Y420802D01*
X16000Y421053D01*
D02*
G37*
G36*
X67000Y414421D02*
X65117Y414046D01*
X63521Y412979D01*
X62454Y411383D01*
X62080Y409500D01*
X62454Y407617D01*
X63521Y406021D01*
X65117Y404954D01*
X67000Y404580D01*
X68883Y404954D01*
X70479Y406021D01*
X71546Y407617D01*
X71920Y409500D01*
X71546Y411383D01*
X70479Y412979D01*
X68883Y414046D01*
X67000Y414421D01*
D02*
G37*
G36*
X96750Y389394D02*
X95164Y389078D01*
X93820Y388180D01*
X92922Y386836D01*
X92606Y385250D01*
X92922Y383664D01*
X93820Y382320D01*
X95164Y381422D01*
X96750Y381106D01*
X98336Y381422D01*
X99680Y382320D01*
X100578Y383664D01*
X100894Y385250D01*
X100578Y386836D01*
X99680Y388180D01*
X98336Y389078D01*
X96750Y389394D01*
D02*
G37*
G36*
X16000Y395653D02*
X14097Y395402D01*
X12323Y394668D01*
X10801Y393499D01*
X9632Y391977D01*
X8898Y390203D01*
X8647Y388300D01*
X8898Y386397D01*
X9632Y384623D01*
X10801Y383101D01*
X12323Y381932D01*
X14097Y381198D01*
X16000Y380947D01*
X17903Y381198D01*
X19677Y381932D01*
X21199Y383101D01*
X22368Y384623D01*
X23102Y386397D01*
X23353Y388300D01*
X23102Y390203D01*
X22368Y391977D01*
X21199Y393499D01*
X19677Y394668D01*
X17903Y395402D01*
X16000Y395653D01*
D02*
G37*
G36*
X118702Y398889D02*
X116081Y398544D01*
X113639Y397532D01*
X111542Y395923D01*
X109932Y393826D01*
X108921Y391383D01*
X108575Y388763D01*
X108921Y386142D01*
X109932Y383699D01*
X111542Y381602D01*
X113639Y379993D01*
X116081Y378981D01*
X118702Y378636D01*
X121323Y378981D01*
X121409Y379016D01*
X122494Y378192D01*
X122517Y378101D01*
X121672Y376836D01*
X121356Y375250D01*
X121672Y373664D01*
X122570Y372320D01*
X123914Y371422D01*
X125500Y371106D01*
X127086Y371422D01*
X128430Y372320D01*
X129328Y373664D01*
X129644Y375250D01*
X129328Y376836D01*
X128430Y378180D01*
X127086Y379078D01*
X125500Y379394D01*
X124921Y379278D01*
X124383Y380466D01*
X125863Y381602D01*
X127472Y383699D01*
X128484Y386142D01*
X128829Y388763D01*
X128484Y391383D01*
X127472Y393826D01*
X125863Y395923D01*
X123765Y397532D01*
X121323Y398544D01*
X118702Y398889D01*
D02*
G37*
G36*
X91500Y380894D02*
X89914Y380578D01*
X88570Y379680D01*
X87672Y378336D01*
X87356Y376750D01*
X87672Y375164D01*
X88570Y373820D01*
X89914Y372922D01*
X91500Y372606D01*
X93086Y372922D01*
X93153Y372967D01*
X94296Y372203D01*
X94106Y371250D01*
X94422Y369664D01*
X95320Y368320D01*
X96664Y367422D01*
X98250Y367106D01*
X99836Y367422D01*
X101180Y368320D01*
X102078Y369664D01*
X102394Y371250D01*
X102078Y372836D01*
X101180Y374180D01*
X99836Y375078D01*
X98250Y375394D01*
X96664Y375078D01*
X96597Y375033D01*
X95454Y375797D01*
X95644Y376750D01*
X95328Y378336D01*
X94430Y379680D01*
X93086Y380578D01*
X91500Y380894D01*
D02*
G37*
G36*
X83250Y370644D02*
X81664Y370328D01*
X80320Y369430D01*
X79422Y368086D01*
X79106Y366500D01*
X79422Y364914D01*
X80320Y363570D01*
X81664Y362672D01*
X83250Y362356D01*
X84258Y361262D01*
X84106Y360500D01*
X84422Y358914D01*
X85320Y357570D01*
X86664Y356672D01*
X88250Y356356D01*
X89836Y356672D01*
X91180Y357570D01*
X92078Y358914D01*
X92394Y360500D01*
X92078Y362086D01*
X91180Y363430D01*
X89836Y364328D01*
X88250Y364644D01*
X87242Y365738D01*
X87394Y366500D01*
X87078Y368086D01*
X86180Y369430D01*
X84836Y370328D01*
X83250Y370644D01*
D02*
G37*
G36*
X16000Y370253D02*
X14097Y370002D01*
X12323Y369268D01*
X10801Y368099D01*
X9632Y366576D01*
X8898Y364803D01*
X8647Y362900D01*
X8898Y360997D01*
X9632Y359224D01*
X10801Y357701D01*
X12323Y356532D01*
X14097Y355798D01*
X16000Y355547D01*
X17903Y355798D01*
X19676Y356532D01*
X21199Y357701D01*
X22368Y359224D01*
X23102Y360997D01*
X23353Y362900D01*
X23102Y364803D01*
X22368Y366576D01*
X21199Y368099D01*
X19676Y369268D01*
X17903Y370002D01*
X16000Y370253D01*
D02*
G37*
G36*
X16000Y344853D02*
X14097Y344602D01*
X12323Y343868D01*
X10801Y342699D01*
X9632Y341176D01*
X8898Y339403D01*
X8647Y337500D01*
X8898Y335597D01*
X9632Y333824D01*
X10801Y332301D01*
X12323Y331132D01*
X14097Y330398D01*
X16000Y330147D01*
X17903Y330398D01*
X19677Y331132D01*
X21199Y332301D01*
X22368Y333824D01*
X23102Y335597D01*
X23353Y337500D01*
X23102Y339403D01*
X22368Y341176D01*
X21199Y342699D01*
X19677Y343868D01*
X17903Y344602D01*
X16000Y344853D01*
D02*
G37*
G36*
X99750Y314644D02*
X98164Y314328D01*
X96820Y313430D01*
X95922Y312086D01*
X95606Y310500D01*
X95922Y308914D01*
X96820Y307570D01*
X98164Y306672D01*
X99750Y306356D01*
X101336Y306672D01*
X102680Y307570D01*
X103578Y308914D01*
X103894Y310500D01*
X103578Y312086D01*
X102680Y313430D01*
X101336Y314328D01*
X99750Y314644D01*
D02*
G37*
G36*
X16000Y319453D02*
X14097Y319202D01*
X12323Y318468D01*
X10801Y317299D01*
X9632Y315777D01*
X8898Y314003D01*
X8647Y312100D01*
X8898Y310197D01*
X9632Y308424D01*
X10801Y306901D01*
X12323Y305732D01*
X14097Y304998D01*
X16000Y304747D01*
X17903Y304998D01*
X19677Y305732D01*
X21199Y306901D01*
X22368Y308424D01*
X23102Y310197D01*
X23353Y312100D01*
X23102Y314003D01*
X22368Y315777D01*
X21199Y317299D01*
X19677Y318468D01*
X17903Y319202D01*
X16000Y319453D01*
D02*
G37*
G36*
Y294053D02*
X14097Y293802D01*
X12323Y293068D01*
X10801Y291899D01*
X9632Y290376D01*
X8898Y288603D01*
X8647Y286700D01*
X8898Y284797D01*
X9632Y283023D01*
X10801Y281501D01*
X12323Y280332D01*
X14097Y279598D01*
X16000Y279347D01*
X17903Y279598D01*
X19677Y280332D01*
X21199Y281501D01*
X22368Y283023D01*
X23102Y284797D01*
X23353Y286700D01*
X23102Y288603D01*
X22368Y290376D01*
X21199Y291899D01*
X19677Y293068D01*
X17903Y293802D01*
X16000Y294053D01*
D02*
G37*
G36*
Y268653D02*
X14097Y268402D01*
X12323Y267668D01*
X10801Y266499D01*
X9632Y264977D01*
X8898Y263203D01*
X8647Y261300D01*
X8898Y259397D01*
X9632Y257624D01*
X10801Y256101D01*
X12323Y254932D01*
X14097Y254198D01*
X16000Y253947D01*
X17903Y254198D01*
X19677Y254932D01*
X21199Y256101D01*
X22368Y257624D01*
X23102Y259397D01*
X23353Y261300D01*
X23102Y263203D01*
X22368Y264977D01*
X21199Y266499D01*
X19677Y267668D01*
X17903Y268402D01*
X16000Y268653D01*
D02*
G37*
G36*
X68000Y241644D02*
X66414Y241328D01*
X65070Y240430D01*
X64172Y239086D01*
X63856Y237500D01*
X64172Y235914D01*
X65070Y234570D01*
X66414Y233672D01*
X68000Y233356D01*
X69586Y233672D01*
X70930Y234570D01*
X71828Y235914D01*
X72144Y237500D01*
X71828Y239086D01*
X70930Y240430D01*
X69586Y241328D01*
X68000Y241644D01*
D02*
G37*
G36*
X16000Y243253D02*
X14097Y243002D01*
X12323Y242268D01*
X10801Y241099D01*
X9632Y239576D01*
X8898Y237803D01*
X8647Y235900D01*
X8898Y233997D01*
X9632Y232223D01*
X10801Y230701D01*
X12323Y229532D01*
X14097Y228798D01*
X16000Y228547D01*
X17903Y228798D01*
X19677Y229532D01*
X21199Y230701D01*
X22368Y232223D01*
X23102Y233997D01*
X23353Y235900D01*
X23102Y237803D01*
X22368Y239576D01*
X21199Y241099D01*
X19677Y242268D01*
X17903Y243002D01*
X16000Y243253D01*
D02*
G37*
G36*
X80250Y230394D02*
X78664Y230078D01*
X77320Y229180D01*
X76422Y227836D01*
X76106Y226250D01*
X76422Y224664D01*
X77320Y223320D01*
X78664Y222422D01*
X80250Y222106D01*
X81836Y222422D01*
X83180Y223320D01*
X84078Y224664D01*
X84394Y226250D01*
X84078Y227836D01*
X83180Y229180D01*
X81836Y230078D01*
X80250Y230394D01*
D02*
G37*
G36*
X187500Y222144D02*
X185914Y221828D01*
X184570Y220930D01*
X183672Y219586D01*
X183356Y218000D01*
X183672Y216414D01*
X184570Y215070D01*
X185914Y214172D01*
X187500Y213856D01*
X189086Y214172D01*
X190430Y215070D01*
X191328Y216414D01*
X191644Y218000D01*
X191328Y219586D01*
X190430Y220930D01*
X189086Y221828D01*
X187500Y222144D01*
D02*
G37*
G36*
X197250Y221644D02*
X195664Y221328D01*
X194320Y220430D01*
X193422Y219086D01*
X193106Y217500D01*
X193422Y215914D01*
X194320Y214570D01*
X195664Y213672D01*
X197250Y213356D01*
X198836Y213672D01*
X200180Y214570D01*
X201078Y215914D01*
X201394Y217500D01*
X201078Y219086D01*
X200180Y220430D01*
X198836Y221328D01*
X197250Y221644D01*
D02*
G37*
G36*
X43323Y220881D02*
Y212405D01*
X51800D01*
X51688Y213252D01*
X50626Y215816D01*
X48936Y218018D01*
X46734Y219708D01*
X44170Y220770D01*
X43323Y220881D01*
D02*
G37*
G36*
X60000Y218421D02*
X58117Y218046D01*
X56521Y216979D01*
X55454Y215383D01*
X55079Y213500D01*
X55454Y211617D01*
X56521Y210021D01*
X58117Y208954D01*
X60000Y208580D01*
X60677Y208714D01*
X61830Y208000D01*
X62204Y206117D01*
X63271Y204521D01*
X64867Y203454D01*
X66750Y203079D01*
X68633Y203454D01*
X70229Y204521D01*
X71296Y206117D01*
X71670Y208000D01*
X71296Y209883D01*
X70229Y211479D01*
X68633Y212546D01*
X66750Y212920D01*
X66073Y212786D01*
X64921Y213500D01*
X64546Y215383D01*
X63479Y216979D01*
X61883Y218046D01*
X60000Y218421D01*
D02*
G37*
G36*
X322250Y217894D02*
X320664Y217578D01*
X319320Y216680D01*
X318422Y215336D01*
X318106Y213750D01*
X318422Y212164D01*
X319320Y210820D01*
X320664Y209922D01*
X320787Y209897D01*
Y208603D01*
X320664Y208578D01*
X319320Y207680D01*
X318422Y206336D01*
X318106Y204750D01*
X318422Y203164D01*
X319320Y201820D01*
X320664Y200922D01*
X322250Y200606D01*
X323836Y200922D01*
X325180Y201820D01*
X326078Y203164D01*
X326394Y204750D01*
X326078Y206336D01*
X325180Y207680D01*
X323836Y208578D01*
X323713Y208603D01*
Y209897D01*
X323836Y209922D01*
X325180Y210820D01*
X326078Y212164D01*
X326394Y213750D01*
X326078Y215336D01*
X325180Y216680D01*
X323836Y217578D01*
X322250Y217894D01*
D02*
G37*
G36*
X51800Y208595D02*
X43323D01*
Y200119D01*
X44170Y200230D01*
X46734Y201292D01*
X48936Y202982D01*
X50626Y205184D01*
X51688Y207748D01*
X51800Y208595D01*
D02*
G37*
G36*
X180250Y207144D02*
X178664Y206828D01*
X177320Y205930D01*
X176422Y204586D01*
X176106Y203000D01*
X176422Y201414D01*
X177320Y200070D01*
X178664Y199172D01*
X180250Y198856D01*
X181836Y199172D01*
X183180Y200070D01*
X184078Y201414D01*
X184394Y203000D01*
X184078Y204586D01*
X183180Y205930D01*
X181836Y206828D01*
X180250Y207144D01*
D02*
G37*
G36*
X207250Y206394D02*
X205664Y206078D01*
X204320Y205180D01*
X203422Y203836D01*
X203106Y202250D01*
X203422Y200664D01*
X204320Y199320D01*
X205664Y198422D01*
X207250Y198106D01*
X208836Y198422D01*
X210180Y199320D01*
X211078Y200664D01*
X211394Y202250D01*
X211078Y203836D01*
X210180Y205180D01*
X208836Y206078D01*
X207250Y206394D01*
D02*
G37*
G36*
X261000Y227948D02*
X258820Y227514D01*
X256971Y226279D01*
X255736Y224430D01*
X255303Y222250D01*
X255736Y220070D01*
X256718Y218601D01*
Y206275D01*
X255986Y205180D01*
X255553Y203000D01*
X255986Y200820D01*
X257221Y198971D01*
X259070Y197736D01*
X261250Y197302D01*
X263430Y197736D01*
X265279Y198971D01*
X266514Y200820D01*
X266947Y203000D01*
X266514Y205180D01*
X265791Y206263D01*
X265782Y206397D01*
Y219349D01*
X266264Y220070D01*
X266698Y222250D01*
X266264Y224430D01*
X265029Y226279D01*
X263180Y227514D01*
X261000Y227948D01*
D02*
G37*
G36*
X121750Y166644D02*
X120164Y166328D01*
X118820Y165430D01*
X117922Y164086D01*
X117606Y162500D01*
X117922Y160914D01*
X118820Y159570D01*
X120164Y158672D01*
X121750Y158356D01*
X123336Y158672D01*
X124680Y159570D01*
X125578Y160914D01*
X125894Y162500D01*
X125578Y164086D01*
X124680Y165430D01*
X123336Y166328D01*
X121750Y166644D01*
D02*
G37*
G36*
X180500Y139144D02*
X178914Y138828D01*
X177570Y137930D01*
X176672Y136586D01*
X176356Y135000D01*
X176672Y133414D01*
X177570Y132070D01*
X178914Y131172D01*
X180500Y130856D01*
X182086Y131172D01*
X183430Y132070D01*
X184328Y133414D01*
X184644Y135000D01*
X184328Y136586D01*
X183430Y137930D01*
X182086Y138828D01*
X180500Y139144D01*
D02*
G37*
G36*
X115000Y146648D02*
X111726Y146217D01*
X108676Y144954D01*
X106056Y142944D01*
X104046Y140324D01*
X102783Y137274D01*
X102352Y134000D01*
X102783Y130726D01*
X104046Y127676D01*
X106056Y125056D01*
X108676Y123046D01*
X111726Y121783D01*
X115000Y121352D01*
X118274Y121783D01*
X121324Y123046D01*
X123944Y125056D01*
X125954Y127676D01*
X127217Y130726D01*
X127648Y134000D01*
X127217Y137274D01*
X125954Y140324D01*
X123944Y142944D01*
X121324Y144954D01*
X118274Y146217D01*
X115000Y146648D01*
D02*
G37*
G36*
X193000Y118894D02*
X191414Y118578D01*
X190070Y117680D01*
X189172Y116336D01*
X188856Y114750D01*
X189172Y113164D01*
X190070Y111820D01*
X191414Y110922D01*
X193000Y110606D01*
X194586Y110922D01*
X195930Y111820D01*
X196828Y113164D01*
X197144Y114750D01*
X196828Y116336D01*
X195930Y117680D01*
X194586Y118578D01*
X193000Y118894D01*
D02*
G37*
G36*
X229750Y114894D02*
X228164Y114578D01*
X226820Y113680D01*
X225922Y112336D01*
X225606Y110750D01*
X225922Y109164D01*
X226820Y107820D01*
X228164Y106922D01*
X229750Y106606D01*
X231336Y106922D01*
X232680Y107820D01*
X233578Y109164D01*
X233894Y110750D01*
X233578Y112336D01*
X232680Y113680D01*
X231336Y114578D01*
X229750Y114894D01*
D02*
G37*
G36*
X132500Y114144D02*
X130914Y113828D01*
X129570Y112930D01*
X128672Y111586D01*
X128356Y110000D01*
X128672Y108414D01*
X129570Y107070D01*
X130914Y106172D01*
X132500Y105856D01*
X134086Y106172D01*
X135430Y107070D01*
X136328Y108414D01*
X136644Y110000D01*
X136328Y111586D01*
X135430Y112930D01*
X134086Y113828D01*
X132500Y114144D01*
D02*
G37*
G36*
X225250Y143947D02*
X223070Y143514D01*
X221221Y142279D01*
X219986Y140430D01*
X219552Y138250D01*
X219986Y136070D01*
X221221Y134221D01*
X223070Y132986D01*
X225250Y132552D01*
X227430Y132986D01*
X228126Y133451D01*
X228397Y133468D01*
X249718D01*
Y126500D01*
X250063Y124766D01*
X251045Y123295D01*
X255545Y118795D01*
X257016Y117813D01*
X256750Y116644D01*
X255164Y116328D01*
X253820Y115430D01*
X252922Y114086D01*
X252606Y112500D01*
X252922Y110914D01*
X253820Y109570D01*
X255164Y108672D01*
X256750Y108356D01*
X258336Y108672D01*
X259680Y109570D01*
X260578Y110914D01*
X260894Y112500D01*
X260578Y114086D01*
X259680Y115430D01*
X258336Y116328D01*
X258738Y117470D01*
X258750Y117468D01*
X268873D01*
X270502Y115839D01*
X270471Y115529D01*
X269236Y113680D01*
X268803Y111500D01*
X269236Y109320D01*
X270471Y107471D01*
X272320Y106236D01*
X274500Y105802D01*
X276680Y106236D01*
X278529Y107471D01*
X279764Y109320D01*
X280198Y111500D01*
X279782Y113588D01*
Y117500D01*
X279437Y119234D01*
X278455Y120705D01*
X273955Y125205D01*
X272484Y126187D01*
X270750Y126532D01*
X260627D01*
X258782Y128377D01*
Y135473D01*
X259014Y135820D01*
X259447Y138000D01*
X259014Y140180D01*
X257779Y142029D01*
X255930Y143264D01*
X253750Y143698D01*
X251570Y143264D01*
X250487Y142541D01*
X250353Y142532D01*
X228899D01*
X227430Y143514D01*
X225250Y143947D01*
D02*
G37*
G36*
X59750Y114198D02*
X57570Y113764D01*
X55721Y112529D01*
X54486Y110680D01*
X54053Y108500D01*
X54486Y106320D01*
X55721Y104471D01*
X57570Y103236D01*
X59750Y102802D01*
X59879Y102828D01*
X59905Y102815D01*
X59972Y102773D01*
X60015Y102741D01*
X67253Y95503D01*
X68513Y94661D01*
X70000Y94365D01*
X77882D01*
X78007Y93095D01*
X76664Y92828D01*
X75320Y91930D01*
X74422Y90586D01*
X74106Y89000D01*
X74422Y87414D01*
X75320Y86070D01*
X76664Y85172D01*
X78250Y84856D01*
X79836Y85172D01*
X81180Y86070D01*
X82078Y87414D01*
X82394Y89000D01*
X82078Y90586D01*
X81180Y91930D01*
X79836Y92828D01*
X78493Y93095D01*
X78618Y94365D01*
X98990D01*
X99043Y94357D01*
X99120Y94340D01*
X99148Y94331D01*
X99221Y94221D01*
X101070Y92986D01*
X103250Y92552D01*
X105430Y92986D01*
X107279Y94221D01*
X108514Y96070D01*
X108947Y98250D01*
X108514Y100430D01*
X107279Y102279D01*
X105430Y103514D01*
X103250Y103947D01*
X101070Y103514D01*
X99221Y102279D01*
X99148Y102169D01*
X99120Y102161D01*
X99043Y102143D01*
X98990Y102135D01*
X71609D01*
X65509Y108235D01*
X65477Y108278D01*
X65435Y108345D01*
X65422Y108371D01*
X65448Y108500D01*
X65014Y110680D01*
X63779Y112529D01*
X61930Y113764D01*
X59750Y114198D01*
D02*
G37*
G36*
X87500Y87144D02*
X85914Y86828D01*
X84570Y85930D01*
X83672Y84586D01*
X83356Y83000D01*
X83672Y81414D01*
X84570Y80070D01*
X85914Y79172D01*
X87500Y78856D01*
X89086Y79172D01*
X90430Y80070D01*
X91328Y81414D01*
X91644Y83000D01*
X91328Y84586D01*
X90430Y85930D01*
X89086Y86828D01*
X87500Y87144D01*
D02*
G37*
G36*
X35000Y65127D02*
X32379Y64782D01*
X29937Y63770D01*
X27839Y62161D01*
X26230Y60063D01*
X25218Y57621D01*
X24873Y55000D01*
X25218Y52379D01*
X26230Y49937D01*
X27839Y47839D01*
X29937Y46230D01*
X32379Y45218D01*
X35000Y44873D01*
X37621Y45218D01*
X40063Y46230D01*
X42161Y47839D01*
X43770Y49937D01*
X44781Y52379D01*
X45127Y55000D01*
X44781Y57621D01*
X43770Y60063D01*
X42161Y62161D01*
X40063Y63770D01*
X37621Y64782D01*
X35000Y65127D01*
D02*
G37*
G36*
X120355Y20191D02*
Y14405D01*
X126141D01*
X126121Y14555D01*
X125328Y16471D01*
X124066Y18116D01*
X122421Y19378D01*
X120506Y20171D01*
X120355Y20191D01*
D02*
G37*
G36*
X40000Y37648D02*
X36726Y37217D01*
X33676Y35954D01*
X31056Y33944D01*
X29046Y31324D01*
X27783Y28274D01*
X27352Y25000D01*
X27783Y21726D01*
X29046Y18676D01*
X31056Y16056D01*
X33676Y14046D01*
X36726Y12783D01*
X40000Y12352D01*
X43274Y12783D01*
X46324Y14046D01*
X48944Y16056D01*
X50954Y18676D01*
X52217Y21726D01*
X52648Y25000D01*
X52217Y28274D01*
X50954Y31324D01*
X48944Y33944D01*
X46324Y35954D01*
X43274Y37217D01*
X40000Y37648D01*
D02*
G37*
G36*
X93050Y18148D02*
X90888Y17719D01*
X89056Y16494D01*
X87831Y14662D01*
X87402Y12500D01*
X87831Y10338D01*
X89056Y8506D01*
X90888Y7281D01*
X93050Y6852D01*
X95212Y7281D01*
X97044Y8506D01*
X98268Y10338D01*
X98699Y12500D01*
X98268Y14662D01*
X97044Y16494D01*
X95212Y17719D01*
X93050Y18148D01*
D02*
G37*
G36*
X80350D02*
X78188Y17719D01*
X76356Y16494D01*
X75131Y14662D01*
X74701Y12500D01*
X75131Y10338D01*
X76356Y8506D01*
X78188Y7281D01*
X80350Y6852D01*
X82512Y7281D01*
X84344Y8506D01*
X85569Y10338D01*
X85998Y12500D01*
X85569Y14662D01*
X84344Y16494D01*
X82512Y17719D01*
X80350Y18148D01*
D02*
G37*
%LPD*%
G36*
X263277Y220205D02*
X263251Y220121D01*
X263228Y220004D01*
X263209Y219854D01*
X263179Y219456D01*
X263155Y218266D01*
X259345Y217862D01*
X259342Y218206D01*
X259272Y219273D01*
X259240Y219462D01*
X259202Y219620D01*
X259158Y219746D01*
X259108Y219841D01*
X259052Y219906D01*
X263305Y220256D01*
X263277Y220205D01*
D02*
G37*
G36*
X263157Y206863D02*
X263237Y205609D01*
X263267Y205454D01*
X263301Y205330D01*
X263340Y205237D01*
X263384Y205177D01*
X259116D01*
X259160Y205237D01*
X259199Y205330D01*
X259233Y205454D01*
X259263Y205609D01*
X259288Y205797D01*
X259324Y206266D01*
X259345Y207208D01*
X263155D01*
X263157Y206863D01*
D02*
G37*
G36*
X227659Y140142D02*
X227754Y140092D01*
X227880Y140049D01*
X228038Y140010D01*
X228227Y139978D01*
X228698Y139931D01*
X229294Y139908D01*
X229638Y139905D01*
X229234Y136095D01*
X228887Y136094D01*
X227379Y135999D01*
X227295Y135974D01*
X227244Y135945D01*
X227594Y140198D01*
X227659Y140142D01*
D02*
G37*
G36*
X251573Y135866D02*
X251513Y135910D01*
X251420Y135949D01*
X251296Y135983D01*
X251141Y136013D01*
X250953Y136038D01*
X250484Y136074D01*
X249542Y136095D01*
Y139905D01*
X249888Y139907D01*
X251141Y139987D01*
X251296Y140017D01*
X251420Y140051D01*
X251513Y140090D01*
X251573Y140134D01*
Y135866D01*
D02*
G37*
G36*
X256201Y136170D02*
X256191Y136102D01*
X256183Y135999D01*
X256160Y135237D01*
X256155Y134299D01*
X252345Y133466D01*
X252342Y133810D01*
X252259Y134874D01*
X252222Y135062D01*
X252177Y135219D01*
X252126Y135345D01*
X252068Y135439D01*
X252002Y135503D01*
X256212Y136203D01*
X256201Y136170D01*
D02*
G37*
G36*
X277155Y114826D02*
X277104Y113085D01*
X272968Y114135D01*
X273039Y114194D01*
X273104Y114286D01*
X273160Y114408D01*
X273209Y114563D01*
X273251Y114748D01*
X273285Y114965D01*
X273330Y115494D01*
X273345Y116150D01*
X277155Y114826D01*
D02*
G37*
G36*
X62807Y108229D02*
X62838Y107990D01*
X62892Y107753D01*
X62969Y107517D01*
X63067Y107284D01*
X63189Y107052D01*
X63333Y106823D01*
X63500Y106595D01*
X63689Y106369D01*
X63900Y106146D01*
X62104Y104350D01*
X61880Y104561D01*
X61655Y104750D01*
X61427Y104917D01*
X61198Y105061D01*
X60966Y105183D01*
X60733Y105282D01*
X60497Y105358D01*
X60260Y105412D01*
X60021Y105443D01*
X59781Y105452D01*
X62798Y108469D01*
X62807Y108229D01*
D02*
G37*
G36*
X101073Y96116D02*
X100897Y96280D01*
X100705Y96427D01*
X100500Y96557D01*
X100279Y96669D01*
X100044Y96764D01*
X99795Y96842D01*
X99530Y96902D01*
X99252Y96945D01*
X98958Y96971D01*
X98650Y96980D01*
Y99520D01*
X98958Y99529D01*
X99252Y99555D01*
X99530Y99598D01*
X99795Y99658D01*
X100044Y99736D01*
X100279Y99831D01*
X100500Y99943D01*
X100705Y100073D01*
X100897Y100219D01*
X101073Y100384D01*
Y96116D01*
D02*
G37*
%LPC*%
G36*
X484250Y154644D02*
X482664Y154328D01*
X481320Y153430D01*
X480422Y152086D01*
X480106Y150500D01*
X480422Y148914D01*
X481320Y147570D01*
X482664Y146672D01*
X484250Y146356D01*
X485836Y146672D01*
X487180Y147570D01*
X488078Y148914D01*
X488394Y150500D01*
X488078Y152086D01*
X487180Y153430D01*
X485836Y154328D01*
X484250Y154644D01*
D02*
G37*
G36*
X447000Y152144D02*
X445414Y151828D01*
X444070Y150930D01*
X443172Y149586D01*
X442856Y148000D01*
X443172Y146414D01*
X444070Y145070D01*
X445414Y144172D01*
X447000Y143856D01*
X448586Y144172D01*
X449930Y145070D01*
X450828Y146414D01*
X451144Y148000D01*
X450828Y149586D01*
X449930Y150930D01*
X448586Y151828D01*
X447000Y152144D01*
D02*
G37*
G36*
X393750Y128144D02*
X392164Y127828D01*
X390820Y126930D01*
X389922Y125586D01*
X389606Y124000D01*
X389922Y122414D01*
X390820Y121070D01*
X392164Y120172D01*
X393750Y119856D01*
X395336Y120172D01*
X396680Y121070D01*
X397578Y122414D01*
X397894Y124000D01*
X397578Y125586D01*
X396680Y126930D01*
X395336Y127828D01*
X393750Y128144D01*
D02*
G37*
G36*
X423750Y119644D02*
X422164Y119328D01*
X420820Y118430D01*
X419922Y117086D01*
X419606Y115500D01*
X419922Y113914D01*
X420820Y112570D01*
X422164Y111672D01*
X423750Y111356D01*
X425336Y111672D01*
X426680Y112570D01*
X427578Y113914D01*
X427894Y115500D01*
X427578Y117086D01*
X426680Y118430D01*
X425336Y119328D01*
X423750Y119644D01*
D02*
G37*
G36*
X365584Y113309D02*
X363999Y112994D01*
X362654Y112096D01*
X361756Y110751D01*
X361441Y109166D01*
X361756Y107580D01*
X362654Y106236D01*
X363999Y105337D01*
X365584Y105022D01*
X367170Y105337D01*
X368514Y106236D01*
X369412Y107580D01*
X369728Y109166D01*
X369412Y110751D01*
X368514Y112096D01*
X367170Y112994D01*
X365584Y113309D01*
D02*
G37*
G36*
X270092Y80644D02*
X268506Y80328D01*
X267162Y79430D01*
X266264Y78086D01*
X265948Y76500D01*
X266264Y74914D01*
X267162Y73570D01*
X268506Y72672D01*
X270092Y72356D01*
X271678Y72672D01*
X273022Y73570D01*
X273920Y74914D01*
X274236Y76500D01*
X273920Y78086D01*
X273022Y79430D01*
X271678Y80328D01*
X270092Y80644D01*
D02*
G37*
G36*
X250250Y73644D02*
X248664Y73328D01*
X247320Y72430D01*
X246422Y71086D01*
X246106Y69500D01*
X246422Y67914D01*
X247320Y66570D01*
X248664Y65672D01*
X250250Y65356D01*
X251836Y65672D01*
X253180Y66570D01*
X254078Y67914D01*
X254394Y69500D01*
X254078Y71086D01*
X253180Y72430D01*
X251836Y73328D01*
X250250Y73644D01*
D02*
G37*
G36*
X367000Y73394D02*
X365414Y73078D01*
X364070Y72180D01*
X363172Y70836D01*
X362856Y69250D01*
X363172Y67664D01*
X364070Y66320D01*
X365414Y65422D01*
X367000Y65106D01*
X368586Y65422D01*
X369930Y66320D01*
X370828Y67664D01*
X371144Y69250D01*
X370828Y70836D01*
X369930Y72180D01*
X368586Y73078D01*
X367000Y73394D01*
D02*
G37*
G36*
X193500Y67144D02*
X191914Y66828D01*
X190570Y65930D01*
X189672Y64586D01*
X189356Y63000D01*
X189672Y61414D01*
X190570Y60070D01*
X191914Y59172D01*
X193500Y58856D01*
X195086Y59172D01*
X196430Y60070D01*
X197328Y61414D01*
X197644Y63000D01*
X197328Y64586D01*
X196430Y65930D01*
X195086Y66828D01*
X193500Y67144D01*
D02*
G37*
G36*
X465000Y65127D02*
X462379Y64782D01*
X459937Y63770D01*
X457839Y62161D01*
X456230Y60063D01*
X455218Y57621D01*
X454873Y55000D01*
X455218Y52379D01*
X456230Y49937D01*
X457839Y47839D01*
X459937Y46230D01*
X462379Y45218D01*
X465000Y44873D01*
X467621Y45218D01*
X470063Y46230D01*
X472161Y47839D01*
X473770Y49937D01*
X474781Y52379D01*
X475127Y55000D01*
X474781Y57621D01*
X473770Y60063D01*
X472161Y62161D01*
X470063Y63770D01*
X467621Y64782D01*
X465000Y65127D01*
D02*
G37*
G36*
X460000Y37648D02*
X456726Y37217D01*
X453676Y35954D01*
X451056Y33944D01*
X449046Y31324D01*
X447783Y28274D01*
X447352Y25000D01*
X447783Y21726D01*
X449046Y18676D01*
X451056Y16056D01*
X453676Y14046D01*
X456726Y12783D01*
X460000Y12352D01*
X463274Y12783D01*
X466324Y14046D01*
X468944Y16056D01*
X470954Y18676D01*
X472217Y21726D01*
X472648Y25000D01*
X472217Y28274D01*
X470954Y31324D01*
X468944Y33944D01*
X466324Y35954D01*
X463274Y37217D01*
X460000Y37648D01*
D02*
G37*
%LPD*%
D10*
X57000Y452000D02*
X76722Y432278D01*
X78972D01*
X79750Y431500D01*
X93750Y555250D02*
Y597028D01*
X96000Y599278D01*
Y600250D01*
X93750Y555250D02*
X99250Y549750D01*
X104500Y599250D02*
Y600000D01*
X104250Y600250D02*
X104500Y600000D01*
X104250Y599000D02*
Y600250D01*
X98500Y593250D02*
X104250Y599000D01*
X98500Y562750D02*
X107750Y553500D01*
X98500Y562750D02*
Y593250D01*
X107750Y546838D02*
Y553500D01*
X101500Y540588D02*
X107750Y546838D01*
X105000Y574000D02*
Y582500D01*
Y574000D02*
X112250Y566750D01*
X208500Y339000D02*
X209000Y339500D01*
X208500Y283750D02*
Y339000D01*
X201500Y287750D02*
Y333500D01*
X115250Y285000D02*
Y317250D01*
X208000Y410000D02*
Y427750D01*
X115250Y317250D02*
X208000Y410000D01*
X292500Y501000D02*
Y517250D01*
X233694Y538556D02*
X271194D01*
X292500Y517250D01*
X198000Y574250D02*
X233694Y538556D01*
X322250Y516000D02*
X334250D01*
X325750Y505750D02*
X377000D01*
X352500Y509500D02*
X360500Y517500D01*
X322500Y509500D02*
X352500D01*
X301250Y481250D02*
X325750Y505750D01*
X198000Y574250D02*
X198000D01*
X335500Y125250D02*
Y135500D01*
Y125250D02*
X362250Y98500D01*
X335500Y135500D02*
X341250Y141250D01*
X331000Y124500D02*
Y137500D01*
X337500Y144000D01*
X331000Y124500D02*
X368500Y87000D01*
X362250Y98500D02*
X397750D01*
X368500Y87000D02*
X382250D01*
X96750Y428000D02*
X105500Y436750D01*
Y499000D02*
X133500Y527000D01*
X105500Y436750D02*
Y499000D01*
X31000Y474750D02*
X87250Y531000D01*
X31000Y454100D02*
Y474750D01*
X87250Y531000D02*
X247000D01*
X16000Y439100D02*
X31000Y454100D01*
X16000Y467000D02*
X84000Y535000D01*
X16000Y464500D02*
Y467000D01*
X84000Y535000D02*
X253000D01*
X247000Y531000D02*
X267500Y510500D01*
X253000Y535000D02*
X270250Y517750D01*
X236000Y527000D02*
X266500Y496500D01*
X133500Y527000D02*
X143597D01*
X148403D02*
X236000D01*
X143685Y527088D02*
X148315D01*
X148403Y527000D01*
X143597D02*
X143685Y527088D01*
X267000Y345250D02*
X268500D01*
X248306Y326556D02*
X267000Y345250D01*
X270750Y339000D02*
X277500Y345750D01*
Y407000D01*
X270750Y331500D02*
Y339000D01*
X274500Y336500D02*
X282750Y344750D01*
X274500Y329250D02*
Y336500D01*
X282750Y344750D02*
Y402511D01*
X400500Y282750D02*
Y304250D01*
X410500Y314250D01*
X393500Y275750D02*
X400500Y282750D01*
X288000Y496500D02*
X292500Y501000D01*
X266500Y496500D02*
X288000D01*
X238500Y514750D02*
X262750Y490500D01*
X296750D02*
X321250Y515000D01*
X262750Y490500D02*
X296750D01*
X197500Y467250D02*
X215000Y484750D01*
X222221D01*
X297806Y484806D02*
X322500Y509500D01*
X222277Y484806D02*
X297806D01*
X222221Y484750D02*
X222277Y484806D01*
X200750Y458250D02*
X223750Y481250D01*
X301250D01*
X137000Y514750D02*
X238500D01*
X29250Y183750D02*
Y293750D01*
X194912Y347912D02*
Y351662D01*
X198000Y354750D01*
Y359250D01*
X205500Y366750D01*
X191500Y283250D02*
Y344500D01*
X194912Y347912D01*
X205500Y366750D02*
Y393750D01*
X202056Y268306D02*
X215612Y281862D01*
X184500Y247500D02*
X202500D01*
X207750Y242250D02*
X317000D01*
X202500Y247500D02*
X207750Y242250D01*
X153750Y278250D02*
X184500Y247500D01*
X301088Y247838D02*
X301250Y248000D01*
X317000Y242250D02*
X330000Y255250D01*
X301000Y247838D02*
X301088D01*
X311000D02*
Y263000D01*
X53750Y315250D02*
X57250Y318750D01*
X53750Y304000D02*
Y315250D01*
X48750Y299000D02*
X53750Y304000D01*
X34500Y299000D02*
X48750D01*
X29250Y293750D02*
X34500Y299000D01*
X205500Y393750D02*
X223500Y411750D01*
Y420971D01*
X234029Y431500D01*
X200100Y346250D02*
X200500D01*
X199250Y345400D02*
X200100Y346250D01*
X215250Y391500D02*
X220750Y386000D01*
X228500Y375750D02*
Y380750D01*
X220750Y373347D02*
Y386000D01*
X234088Y374588D02*
Y387912D01*
X222724Y268974D02*
Y363224D01*
X234088Y374588D01*
X219168Y366418D02*
X228500Y375750D01*
X195500Y283000D02*
X200500Y278000D01*
X177250Y398250D02*
X204250Y425250D01*
X321944Y91806D02*
Y134194D01*
Y91806D02*
X358375Y55375D01*
X321944Y134194D02*
X333250Y145500D01*
Y244500D01*
X337500Y144000D02*
Y238000D01*
X341250Y141250D02*
Y234000D01*
X221215Y400785D02*
X234088Y387912D01*
X277500Y407000D02*
X281000Y410500D01*
X282750Y402511D02*
X283563Y403324D01*
X264000Y431500D02*
X272500Y440000D01*
X234029Y431500D02*
X264000D01*
X358375Y55375D02*
X386125D01*
X321250Y515000D02*
X322250Y516000D01*
X333250Y244500D02*
X335250Y246500D01*
X337500Y238000D02*
X340838Y241338D01*
X345722Y238472D02*
Y246472D01*
X341250Y234000D02*
X345722Y238472D01*
X182250Y274000D02*
X191500Y283250D01*
X111338Y270800D02*
Y320588D01*
Y270800D02*
X145500Y236638D01*
X111338Y320588D02*
X177250Y386500D01*
X345722Y246472D02*
X346500Y247250D01*
X330000Y255250D02*
X337810D01*
X340838Y252222D01*
Y241338D02*
Y252222D01*
X153750Y278250D02*
Y297250D01*
X147500Y303500D02*
X153750Y297250D01*
X260000Y450000D02*
X283750Y473750D01*
X223750Y450000D02*
X260000D01*
X225750Y445500D02*
X265250D01*
X293500Y473750D01*
X204250Y430500D02*
X223750Y450000D01*
X208000Y427750D02*
X225750Y445500D01*
X204250Y425250D02*
Y430500D01*
X177250Y386500D02*
Y398250D01*
X115250Y285000D02*
X153250Y247000D01*
X145500Y233750D02*
Y236638D01*
X153250Y237000D02*
Y247000D01*
X137750Y226000D02*
X145500Y233750D01*
X267500Y510500D02*
X281250D01*
X57250Y318592D02*
Y318750D01*
X328000Y380432D02*
Y416250D01*
X331750Y379153D02*
Y406500D01*
X293250Y348000D02*
X295569D01*
X328000Y380432D01*
X297041Y344444D02*
X331750Y379153D01*
Y406500D02*
X373000Y447750D01*
X323750Y271500D02*
X432500D01*
X325597Y275750D02*
X393500D01*
X289000Y312347D02*
X325597Y275750D01*
X312250Y283000D02*
X323750Y271500D01*
X295000Y314250D02*
X327838Y281412D01*
X387162D01*
X386125Y55375D02*
X396500Y45000D01*
X436500D01*
X296541Y344444D02*
X297041D01*
X282750Y330653D02*
X296541Y344444D01*
X282750Y308250D02*
Y330653D01*
X291750Y273000D02*
X301750Y283000D01*
X312250D01*
X289000Y312347D02*
Y329000D01*
X301500Y272500D02*
X311000Y263000D01*
X301250Y263500D02*
X301500Y263750D01*
X301250Y248000D02*
Y263500D01*
X278750Y333500D02*
X293250Y348000D01*
X268750Y285347D02*
Y323500D01*
X278750Y324300D02*
Y333500D01*
X262644Y323394D02*
X270750Y331500D01*
X268750Y323500D02*
X274500Y329250D01*
X276250Y321800D02*
X278750Y324300D01*
X276250Y313500D02*
Y321800D01*
X289597Y264500D02*
X290000D01*
X268750Y285347D02*
X289597Y264500D01*
X215612Y281862D02*
Y368209D01*
X219168Y273668D02*
Y366418D01*
X208250Y262750D02*
X219168Y273668D01*
X218000Y264250D02*
X222724Y268974D01*
X215612Y368209D02*
X220750Y373347D01*
X226000Y262250D02*
X226500Y262750D01*
Y361000D02*
X234162Y368662D01*
X226500Y262750D02*
Y267959D01*
Y272653D02*
Y361000D01*
X226468Y267991D02*
Y272621D01*
X226500Y272653D01*
X226468Y267991D02*
X226500Y267959D01*
X232056Y270306D02*
Y271406D01*
X230162Y340565D02*
X233435Y343838D01*
X230162Y273300D02*
Y340565D01*
Y273300D02*
X232056Y271406D01*
X235750Y276552D02*
X242412Y269890D01*
Y269250D02*
Y269890D01*
X233435Y343838D02*
X252162D01*
X235750Y276552D02*
Y338250D01*
X368250Y303250D02*
X385250Y320250D01*
X368250Y287000D02*
Y303250D01*
X387162Y281412D02*
X387250Y281500D01*
X410489Y334000D02*
X410500Y333989D01*
Y314250D02*
Y333989D01*
X398000Y334000D02*
X405750Y341750D01*
X374250Y299750D02*
X398000Y323500D01*
Y334000D01*
X234162Y368662D02*
X262912D01*
X373000Y447750D02*
Y454750D01*
X262644Y265250D02*
Y323394D01*
X195500Y341650D02*
X199250Y345400D01*
X195500Y283000D02*
Y341650D01*
X262912Y368662D02*
X264500Y370250D01*
X256000Y323500D02*
X263000Y330500D01*
X256000Y270250D02*
Y323500D01*
X374250Y299750D02*
Y299750D01*
X377750Y353000D02*
X393000D01*
X370346Y345596D02*
X377750Y353000D01*
X370250Y339500D02*
X370346Y339596D01*
Y345596D01*
X263000Y330500D02*
Y333250D01*
X252162Y343838D02*
X252250Y343750D01*
X248306Y263556D02*
Y326556D01*
X248000Y263250D02*
X248306Y263556D01*
X208338Y75162D02*
X208426Y75250D01*
D11*
X171750Y22500D02*
X340910D01*
X359599Y41188D01*
X161500Y241250D02*
X195250D01*
X206500Y230000D02*
X206750D01*
X195250Y241250D02*
X206500Y230000D01*
X125500Y450900D02*
X127434Y452834D01*
X136322D01*
X155740Y472252D01*
X172250Y453000D02*
Y453000D01*
X184250Y465000D02*
Y481750D01*
X172250Y453000D02*
X184250Y465000D01*
X159750Y506250D02*
X184250Y481750D01*
X141750Y506250D02*
X159750D01*
X70000Y98250D02*
X103250D01*
X59750Y108500D02*
X70000Y98250D01*
X81000Y244500D02*
Y253750D01*
Y244500D02*
X99750Y225750D01*
X50250Y463750D02*
X63750Y477250D01*
X50250Y421500D02*
Y463750D01*
X63750Y477250D02*
X73250D01*
X92500Y496500D01*
X279500Y170250D02*
X280500D01*
X258500Y191250D02*
X279500Y170250D01*
X242000Y191250D02*
X258500D01*
X155250D02*
X242000D01*
X209000Y186000D02*
X222000Y173000D01*
X222000D01*
X151500Y186000D02*
X209000D01*
X111750Y225750D02*
X151500Y186000D01*
X99750Y225750D02*
X111750D01*
X112250Y234250D02*
X155250Y191250D01*
X93700Y261300D02*
X119000Y236000D01*
X126000D01*
X41418Y261300D02*
X93700D01*
X29750Y401000D02*
X50250Y421500D01*
X29750Y323769D02*
Y401000D01*
Y323769D02*
X41418Y312100D01*
Y286700D02*
X90050D01*
X127660Y249090D01*
Y244090D02*
X136500Y235250D01*
X127660Y244090D02*
Y249090D01*
X92500Y496500D02*
Y507000D01*
X328250Y342750D02*
X350500Y320500D01*
Y300500D02*
Y320500D01*
D97*
X225500Y138000D02*
X253750D01*
X274500Y111500D02*
X275250Y112250D01*
Y117500D01*
X270750Y122000D02*
X275250Y117500D01*
X258750Y122000D02*
X270750D01*
X254250Y126500D02*
X258750Y122000D01*
X254250Y126500D02*
Y137500D01*
X253750Y138000D02*
X254250Y137500D01*
X261250Y203000D02*
Y221750D01*
X261000Y222000D02*
X261250Y221750D01*
X225250Y138250D02*
X225500Y138000D01*
X174000Y231750D02*
X174750D01*
D98*
X147413Y588444D02*
X147468Y588500D01*
X146694Y588444D02*
X147413D01*
X147468Y588500D02*
X269000D01*
X146500Y588250D02*
X146694Y588444D01*
X269000Y588500D02*
X307000Y550500D01*
X134250Y588250D02*
X146500D01*
X446500Y311500D02*
Y324250D01*
X307000Y550500D02*
X330000D01*
X333265Y553765D02*
X362439D01*
X330000Y550500D02*
X333265Y553765D01*
X302500Y541750D02*
X331000D01*
X349500D01*
X362453Y553750D02*
X393500D01*
X362439Y553765D02*
X362453Y553750D01*
X393500D02*
X401314Y545936D01*
X464814D01*
X480750Y530000D01*
X353250Y538000D02*
X434250D01*
X349500Y541750D02*
X353250Y538000D01*
X480750Y503500D02*
Y530000D01*
X449300Y472050D02*
X480750Y503500D01*
X449300Y460000D02*
Y472050D01*
X451500Y434254D02*
Y434529D01*
X449300Y436729D02*
X451500Y434529D01*
X449300Y436729D02*
Y460000D01*
X312000Y176725D02*
X323250Y187975D01*
X312000Y63750D02*
Y176725D01*
Y57500D02*
Y63750D01*
X438000Y332750D02*
Y534250D01*
X434250Y538000D02*
X438000Y534250D01*
Y332750D02*
X446500Y324250D01*
X323250Y188500D02*
X327250Y192500D01*
X323250Y188250D02*
Y188500D01*
Y187975D02*
Y188250D01*
D99*
X277750Y613250D02*
X285714D01*
D112*
X404462Y607960D02*
D03*
X318062D02*
D03*
D113*
X404462Y566460D02*
D03*
X318062D02*
D03*
D114*
X16000Y210500D02*
D03*
Y464500D02*
D03*
Y439100D02*
D03*
X41418Y210500D02*
D03*
X41418Y261300D02*
D03*
X41418Y286700D02*
D03*
Y312100D02*
D03*
D115*
X125500Y450900D02*
D03*
D117*
X118450Y12500D02*
D03*
D118*
X88920Y613920D02*
D03*
X453777Y72847D02*
D03*
X426500Y8000D02*
D03*
X474500Y334250D02*
D03*
X466750Y300750D02*
D03*
X57000Y452000D02*
D03*
X79750Y431500D02*
D03*
X96000Y600250D02*
D03*
X104500Y599250D02*
D03*
X101500Y540588D02*
D03*
X99250Y549750D02*
D03*
X105000Y582500D02*
D03*
X112250Y566750D02*
D03*
X102750Y327250D02*
D03*
X206750Y230000D02*
D03*
X67250Y425500D02*
D03*
X112000Y541250D02*
D03*
X117750Y557750D02*
D03*
X177500Y578250D02*
D03*
X134250Y588250D02*
D03*
X146500D02*
D03*
X302500Y541750D02*
D03*
X331000D02*
D03*
X334250Y516000D02*
D03*
X155740Y472252D02*
D03*
X129750Y44000D02*
D03*
X451500Y434254D02*
D03*
X449300Y460000D02*
D03*
X103250Y98250D02*
D03*
X81000Y253750D02*
D03*
X59750Y108500D02*
D03*
X268500Y345250D02*
D03*
X198000Y574250D02*
D03*
X96750Y428000D02*
D03*
X137000Y514750D02*
D03*
X149250Y383250D02*
D03*
X117250Y412750D02*
D03*
X146000Y521500D02*
D03*
X102956Y192261D02*
D03*
Y177261D02*
D03*
X202056Y268306D02*
D03*
X311000Y247838D02*
D03*
X301000D02*
D03*
X184250Y228000D02*
D03*
X235750Y225250D02*
D03*
X204500Y354250D02*
D03*
X200500Y346250D02*
D03*
X215250Y391500D02*
D03*
X228500Y380750D02*
D03*
X209000Y339500D02*
D03*
X200500Y278000D02*
D03*
X181000Y348500D02*
D03*
X200750Y458250D02*
D03*
X201500Y287750D02*
D03*
X199000Y155750D02*
D03*
X231750Y173750D02*
D03*
X203750Y127750D02*
D03*
X304250Y100750D02*
D03*
X280500Y170250D02*
D03*
X382250Y87000D02*
D03*
X296999Y61250D02*
D03*
X267000Y113750D02*
D03*
X279750Y199750D02*
D03*
X161500Y241250D02*
D03*
X226000Y197500D02*
D03*
X222000Y173000D02*
D03*
X185000Y170000D02*
D03*
X325000Y486500D02*
D03*
X322500Y455000D02*
D03*
X221000Y400250D02*
D03*
X283563Y403324D02*
D03*
X281000Y410500D02*
D03*
X242250Y474250D02*
D03*
X105750Y296750D02*
D03*
X261250Y203000D02*
D03*
X261000Y222250D02*
D03*
X134000Y191750D02*
D03*
X173757Y142507D02*
D03*
X208250Y37750D02*
D03*
X286000Y61250D02*
D03*
X252500Y61500D02*
D03*
X312000Y57500D02*
D03*
X239750Y111250D02*
D03*
X241500Y45750D02*
D03*
X238250Y58500D02*
D03*
X323250Y14500D02*
D03*
X315750D02*
D03*
X341250Y54500D02*
D03*
X335250Y63750D02*
D03*
X404327Y81626D02*
D03*
X397750Y98500D02*
D03*
X421250Y74000D02*
D03*
X35750Y170000D02*
D03*
X146500Y318500D02*
D03*
X147250Y333000D02*
D03*
X77500Y40000D02*
D03*
X95250Y39750D02*
D03*
X398000Y484250D02*
D03*
X399750Y495250D02*
D03*
X396500Y512500D02*
D03*
X353500Y496250D02*
D03*
X395250Y310500D02*
D03*
X387000Y259250D02*
D03*
X360000Y222500D02*
D03*
X349000Y186500D02*
D03*
X283250Y134500D02*
D03*
X330500Y14500D02*
D03*
X388000Y71750D02*
D03*
X397750Y72500D02*
D03*
X452750Y89750D02*
D03*
X35750Y155000D02*
D03*
Y132250D02*
D03*
X139250Y36500D02*
D03*
X142250Y24500D02*
D03*
X19500Y61750D02*
D03*
X35750Y143500D02*
D03*
X61000Y175750D02*
D03*
X258750Y154000D02*
D03*
X240750Y386500D02*
D03*
X240000Y397500D02*
D03*
X264750Y407000D02*
D03*
X264000Y395500D02*
D03*
X263750Y384500D02*
D03*
X314750Y486000D02*
D03*
X476500Y304500D02*
D03*
X474750Y321500D02*
D03*
X377000Y505750D02*
D03*
X360500Y517500D02*
D03*
X80000Y509500D02*
D03*
X71000Y486500D02*
D03*
X231250Y439250D02*
D03*
X446250Y318250D02*
D03*
Y311750D02*
D03*
X365250Y11250D02*
D03*
X312000Y63750D02*
D03*
X327250Y192500D02*
D03*
X464750Y207500D02*
D03*
X464500Y189750D02*
D03*
X398000Y180750D02*
D03*
X407750Y187500D02*
D03*
X483000Y100750D02*
D03*
X470250Y89750D02*
D03*
X393750Y133750D02*
D03*
X424750Y135000D02*
D03*
X463000Y128750D02*
D03*
X414500Y8000D02*
D03*
X484750Y77250D02*
D03*
X360750Y188000D02*
D03*
X401750Y8000D02*
D03*
X209500Y108250D02*
D03*
X264000Y133750D02*
D03*
X253750Y138000D02*
D03*
X174750Y231750D02*
D03*
X187000Y260750D02*
D03*
X171500Y198750D02*
D03*
X182250Y274000D02*
D03*
X147500Y303500D02*
D03*
X112250Y234250D02*
D03*
X137750Y226000D02*
D03*
X153250Y237000D02*
D03*
X283750Y473750D02*
D03*
X293500D02*
D03*
X136500Y235250D02*
D03*
X126000Y236000D02*
D03*
X197500Y467250D02*
D03*
X281250Y510500D02*
D03*
X270250Y517750D02*
D03*
X92500Y507000D02*
D03*
X362750Y400750D02*
D03*
X322750Y444000D02*
D03*
X291750Y462000D02*
D03*
X193750Y502500D02*
D03*
X215000Y503000D02*
D03*
X244000Y500000D02*
D03*
X184000Y395250D02*
D03*
X346500Y247250D02*
D03*
X335250Y246500D02*
D03*
X436500Y45000D02*
D03*
X57250Y318750D02*
D03*
X219500Y111250D02*
D03*
X291750Y273000D02*
D03*
X432500Y271500D02*
D03*
X291000Y217250D02*
D03*
X301500Y272500D02*
D03*
Y263750D02*
D03*
X368250Y287000D02*
D03*
X391750Y388250D02*
D03*
X350500Y300500D02*
D03*
X293750Y185500D02*
D03*
X175000Y71750D02*
D03*
X373000Y454750D02*
D03*
X282750Y308250D02*
D03*
X328000Y416250D02*
D03*
X289000Y329000D02*
D03*
X276250Y313500D02*
D03*
X147750Y293500D02*
D03*
X272500Y440000D02*
D03*
X290000Y264500D02*
D03*
X264500Y370250D02*
D03*
X201500Y333500D02*
D03*
X208500Y283750D02*
D03*
X385250Y320250D02*
D03*
X392250Y288500D02*
D03*
X430500Y261250D02*
D03*
X103750Y320500D02*
D03*
X178500Y358250D02*
D03*
X410489Y334000D02*
D03*
X387250Y281500D02*
D03*
X370250Y339500D02*
D03*
X393000Y353000D02*
D03*
X374250Y299750D02*
D03*
X405750Y341750D02*
D03*
X295000Y314250D02*
D03*
X328250Y342750D02*
D03*
X324750Y319500D02*
D03*
X263000Y333250D02*
D03*
X252250Y343750D02*
D03*
X235750Y338250D02*
D03*
X208250Y262750D02*
D03*
X226000Y262250D02*
D03*
X218000Y264250D02*
D03*
X262644Y265250D02*
D03*
X256000Y270250D02*
D03*
X248000Y263250D02*
D03*
X232056Y270306D02*
D03*
X242412Y269250D02*
D03*
X225250Y138250D02*
D03*
X274500Y111500D02*
D03*
X323250Y188250D02*
D03*
X208426Y75250D02*
D03*
D119*
X134250Y612000D02*
D03*
X473620Y288958D02*
D03*
X460920Y365158D02*
D03*
X168820Y34958D02*
D03*
X308520Y466758D02*
D03*
X118020Y34958D02*
D03*
X41820Y187358D02*
D03*
X29120Y517558D02*
D03*
X473620Y238158D02*
D03*
X130720Y9558D02*
D03*
X105320Y415958D02*
D03*
X448220Y339758D02*
D03*
X156120Y9558D02*
D03*
X171750Y22500D02*
D03*
X359599Y41188D02*
D03*
X149250Y406000D02*
D03*
X184250Y426886D02*
D03*
X172250Y453000D02*
D03*
X141750Y506250D02*
D03*
X29316Y184139D02*
D03*
D120*
X285750Y613250D02*
D03*
X277750D02*
D03*
X451750Y416500D02*
D03*
Y403000D02*
D03*
X279648Y592064D02*
D03*
X219398Y564064D02*
D03*
X66500Y542500D02*
D03*
X60750Y537000D02*
D03*
X64250Y465250D02*
D03*
X395750Y590750D02*
D03*
X403500D02*
D03*
X447250Y491750D02*
D03*
X447500Y500500D02*
D03*
X468250Y514000D02*
D03*
X460000Y382500D02*
D03*
D121*
X134250Y612000D02*
X287500D01*
X89202D02*
X134250D01*
X83250Y606048D02*
X89202Y612000D01*
X83250Y559250D02*
Y606048D01*
X66500Y542500D02*
X83250Y559250D01*
X61250Y537250D02*
X66500Y542500D01*
X287500Y612000D02*
X308750Y590750D01*
X395750D01*
X403500D01*
D122*
X398421Y173481D02*
D03*
D123*
X465375Y185625D02*
D03*
D124*
X40000Y560000D02*
D03*
X460000D02*
D03*
X115000Y134000D02*
D03*
X40000Y25000D02*
D03*
X349000Y87000D02*
D03*
X460000Y25000D02*
D03*
Y265000D02*
D03*
D125*
X328000Y115000D02*
D03*
M02*
