G04*
G04 #@! TF.GenerationSoftware,Altium Limited,Altium Designer,20.0.13 (296)*
G04*
G04 Layer_Color=255*
%FSLAX44Y44*%
%MOMM*%
G71*
G01*
G75*
%ADD21R,0.5080X0.5588*%
%ADD22R,0.5588X0.5080*%
%ADD24R,0.7620X0.8382*%
%ADD28R,0.4000X0.6500*%
%ADD30R,0.9000X0.3000*%
%ADD31R,0.6500X0.4000*%
%ADD33R,1.1500X1.3000*%
%ADD37R,0.9500X0.9000*%
%ADD38R,0.9500X0.9000*%
%ADD39R,0.5080X0.3560*%
%ADD42R,0.8382X0.7620*%
%ADD43R,0.5000X0.6400*%
%ADD44R,0.5000X0.8000*%
%ADD111C,0.6000*%
%ADD112R,1.0000X1.8000*%
%ADD113R,1.0000X2.1000*%
%ADD114C,1.6002*%
%ADD115R,1.7000X1.7000*%
%ADD116C,1.7000*%
%ADD117C,1.0668*%
%ADD128C,1.5000*%
%ADD129C,1.0000*%
G04:AMPARAMS|DCode=130|XSize=0.508mm|YSize=0.5588mm|CornerRadius=0mm|HoleSize=0mm|Usage=FLASHONLY|Rotation=45.000|XOffset=0mm|YOffset=0mm|HoleType=Round|Shape=Rectangle|*
%AMROTATEDRECTD130*
4,1,4,0.0180,-0.3772,-0.3772,0.0180,-0.0180,0.3772,0.3772,-0.0180,0.0180,-0.3772,0.0*
%
%ADD130ROTATEDRECTD130*%

%ADD131R,0.8300X0.8000*%
%ADD132O,1.8000X0.3000*%
%ADD133O,0.3000X1.8000*%
%ADD134R,0.6000X1.2000*%
%ADD135R,0.3000X1.2000*%
%ADD136R,0.6400X0.5000*%
%ADD137R,1.2000X1.4000*%
%ADD138O,1.5500X0.3500*%
%ADD139R,2.0000X1.5000*%
%ADD140R,0.3000X1.5000*%
%ADD141R,1.0000X2.7000*%
%ADD142R,0.6000X1.6000*%
%ADD143R,0.3000X0.7000*%
%ADD144R,1.6000X1.0000*%
%ADD145R,3.3000X2.4000*%
%ADD146O,0.6000X1.6000*%
%ADD147R,2.8000X0.3500*%
%ADD148O,2.1000X0.3000*%
%ADD149O,0.3000X2.1000*%
%ADD150R,3.5000X1.2000*%
G04:AMPARAMS|DCode=151|XSize=3.5mm|YSize=1.2mm|CornerRadius=0.3mm|HoleSize=0mm|Usage=FLASHONLY|Rotation=0.000|XOffset=0mm|YOffset=0mm|HoleType=Round|Shape=RoundedRectangle|*
%AMROUNDEDRECTD151*
21,1,3.5000,0.6000,0,0,0.0*
21,1,2.9000,1.2000,0,0,0.0*
1,1,0.6000,1.4500,-0.3000*
1,1,0.6000,-1.4500,-0.3000*
1,1,0.6000,-1.4500,0.3000*
1,1,0.6000,1.4500,0.3000*
%
%ADD151ROUNDEDRECTD151*%
%ADD152R,0.2500X0.8000*%
%ADD153R,0.8000X0.2500*%
%ADD154R,3.2000X1.0200*%
%ADD155R,1.8000X1.8000*%
%ADD165C,4.0000*%
D21*
X444830Y189000D02*
D03*
X434670D02*
D03*
X191990Y71793D02*
D03*
X181830Y71793D02*
D03*
X290830Y68500D02*
D03*
X280670D02*
D03*
X328420Y178000D02*
D03*
X338580D02*
D03*
X188330Y57000D02*
D03*
X178170D02*
D03*
X440910Y94750D02*
D03*
X430750D02*
D03*
X242170Y605750D02*
D03*
X252330Y605750D02*
D03*
X155221Y379203D02*
D03*
X165381D02*
D03*
X479670Y541250D02*
D03*
X489830D02*
D03*
X184330Y410250D02*
D03*
X174170D02*
D03*
X100830Y252250D02*
D03*
X90670D02*
D03*
X353060Y309880D02*
D03*
X342900D02*
D03*
X242170Y595250D02*
D03*
X252330D02*
D03*
X262920Y68500D02*
D03*
X273080D02*
D03*
X367920Y189000D02*
D03*
X378080D02*
D03*
X469580Y177250D02*
D03*
X459420D02*
D03*
D22*
X131000Y60670D02*
D03*
X131000Y70830D02*
D03*
X459000Y143830D02*
D03*
Y133670D02*
D03*
Y154170D02*
D03*
Y164330D02*
D03*
Y123330D02*
D03*
Y113170D02*
D03*
X133750Y210830D02*
D03*
Y200670D02*
D03*
X82000D02*
D03*
Y210830D02*
D03*
X123500D02*
D03*
Y200670D02*
D03*
X123500Y171920D02*
D03*
X123500Y182080D02*
D03*
X235750Y38420D02*
D03*
Y48580D02*
D03*
X269250Y48330D02*
D03*
Y38170D02*
D03*
X82000Y171920D02*
D03*
Y182080D02*
D03*
X302750Y48330D02*
D03*
Y38170D02*
D03*
Y68330D02*
D03*
Y58170D02*
D03*
X472000Y154170D02*
D03*
Y164330D02*
D03*
Y133920D02*
D03*
Y144080D02*
D03*
Y123330D02*
D03*
Y113170D02*
D03*
X392250Y92830D02*
D03*
Y82670D02*
D03*
X218250Y582920D02*
D03*
Y593080D02*
D03*
X165301Y389123D02*
D03*
Y399283D02*
D03*
X174250Y418420D02*
D03*
Y428580D02*
D03*
X61250Y334670D02*
D03*
Y344830D02*
D03*
X134750Y410330D02*
D03*
X134750Y400170D02*
D03*
X189500Y290580D02*
D03*
X189500Y280420D02*
D03*
X443000Y69420D02*
D03*
X443000Y79580D02*
D03*
X334250Y533080D02*
D03*
Y522920D02*
D03*
X229750Y593080D02*
D03*
Y582920D02*
D03*
D24*
X414628Y61250D02*
D03*
X398372D02*
D03*
X457372Y100750D02*
D03*
X473628D02*
D03*
X298628Y21500D02*
D03*
X282372Y21500D02*
D03*
X237122Y19000D02*
D03*
X253378D02*
D03*
X256378Y585250D02*
D03*
X240122D02*
D03*
X473122Y456250D02*
D03*
X489378D02*
D03*
X473122Y444750D02*
D03*
X489378D02*
D03*
D28*
X246000Y53500D02*
D03*
X252500Y53500D02*
D03*
X259000Y53500D02*
D03*
Y33000D02*
D03*
X252500D02*
D03*
X246000D02*
D03*
X279500Y33000D02*
D03*
X286000Y33000D02*
D03*
X292500Y33000D02*
D03*
Y53500D02*
D03*
X286000Y53500D02*
D03*
X279500D02*
D03*
D30*
X342914Y334398D02*
D03*
Y329398D02*
D03*
Y324398D02*
D03*
Y319398D02*
D03*
X312914D02*
D03*
Y324398D02*
D03*
Y329398D02*
D03*
Y334398D02*
D03*
D31*
X206500Y57250D02*
D03*
Y50750D02*
D03*
Y44250D02*
D03*
X227000D02*
D03*
Y50750D02*
D03*
Y57250D02*
D03*
X92500Y199250D02*
D03*
X92500Y205750D02*
D03*
X92500Y212250D02*
D03*
X113000D02*
D03*
Y199250D02*
D03*
Y170500D02*
D03*
Y183500D02*
D03*
X92500Y183500D02*
D03*
Y177000D02*
D03*
Y170500D02*
D03*
D33*
X242250Y537750D02*
D03*
X222250D02*
D03*
D37*
X457500Y590750D02*
D03*
X482500Y600250D02*
D03*
X444000Y609750D02*
D03*
X419000Y600250D02*
D03*
X372000Y528250D02*
D03*
X347000Y518750D02*
D03*
D38*
X457500Y609750D02*
D03*
X444000Y590750D02*
D03*
X347000Y537750D02*
D03*
D39*
X347396Y351047D02*
D03*
Y360953D02*
D03*
X360604Y356000D02*
D03*
X347396Y371047D02*
D03*
Y380953D02*
D03*
X360604Y376000D02*
D03*
X157354Y399203D02*
D03*
Y389297D02*
D03*
X144146Y394250D02*
D03*
D42*
X489500Y131878D02*
D03*
Y115622D02*
D03*
X430500Y82256D02*
D03*
Y66000D02*
D03*
X212500Y554372D02*
D03*
Y570628D02*
D03*
X451750Y442128D02*
D03*
Y425872D02*
D03*
D43*
X420000Y34200D02*
D03*
Y48800D02*
D03*
D44*
X411250Y74500D02*
D03*
X417750Y92500D02*
D03*
X404750D02*
D03*
D111*
X332361Y571158D02*
D03*
X390162D02*
D03*
D112*
X404462Y607960D02*
D03*
X318062D02*
D03*
D113*
X404462Y566460D02*
D03*
X318062D02*
D03*
D114*
X16000Y210500D02*
D03*
Y235900D02*
D03*
X16000Y261300D02*
D03*
Y337500D02*
D03*
Y489900D02*
D03*
X16000Y464500D02*
D03*
Y439100D02*
D03*
X16000Y413700D02*
D03*
Y388300D02*
D03*
X16000Y362900D02*
D03*
X16000Y286700D02*
D03*
Y312100D02*
D03*
X41418Y210500D02*
D03*
X41418Y261300D02*
D03*
X41418Y286700D02*
D03*
Y312100D02*
D03*
Y337500D02*
D03*
Y362900D02*
D03*
Y388300D02*
D03*
Y235900D02*
D03*
D115*
X125500Y450900D02*
D03*
D116*
Y425500D02*
D03*
X35000Y55000D02*
D03*
X465000D02*
D03*
X412902Y288762D02*
D03*
X118702Y388763D02*
D03*
X285802Y552262D02*
D03*
D117*
X118450Y12500D02*
D03*
X105750D02*
D03*
X93050D02*
D03*
X80350D02*
D03*
D128*
X430500Y18000D02*
D03*
X444000Y56000D02*
D03*
X156576Y24698D02*
D03*
X195076Y10948D02*
D03*
X320750Y73250D02*
D03*
X485500Y56000D02*
D03*
X141195Y560896D02*
D03*
X169750Y544250D02*
D03*
X194750Y525250D02*
D03*
X315000Y530000D02*
D03*
X462250Y344500D02*
D03*
X460192Y313776D02*
D03*
X296000Y506500D02*
D03*
X488250Y292750D02*
D03*
Y315750D02*
D03*
X278000Y530000D02*
D03*
D129*
X203750Y583500D02*
D03*
X178645Y601828D02*
D03*
X184750Y568750D02*
D03*
X303000Y480250D02*
D03*
X385250Y497000D02*
D03*
X312250Y454750D02*
D03*
X321750Y428250D02*
D03*
X379781Y381233D02*
D03*
X396360Y400355D02*
D03*
X407500Y427000D02*
D03*
X397500Y472250D02*
D03*
X430750Y313000D02*
D03*
X71000Y119750D02*
D03*
X456000Y231144D02*
D03*
X320500Y505750D02*
D03*
X48750Y138625D02*
D03*
Y119750D02*
D03*
X60750Y526750D02*
D03*
X93250D02*
D03*
X71000Y138625D02*
D03*
Y157500D02*
D03*
X458750Y294000D02*
D03*
D130*
X307158Y89658D02*
D03*
X314342Y96842D02*
D03*
D131*
X256000Y573000D02*
D03*
X256000Y550000D02*
D03*
X218000Y8750D02*
D03*
Y31750D02*
D03*
D132*
X156500Y110000D02*
D03*
X156500Y115000D02*
D03*
Y120000D02*
D03*
X156500Y125000D02*
D03*
Y130000D02*
D03*
Y135000D02*
D03*
Y140000D02*
D03*
Y145000D02*
D03*
Y150000D02*
D03*
X156500Y155000D02*
D03*
Y160000D02*
D03*
X156500Y165000D02*
D03*
Y170000D02*
D03*
X156500Y175000D02*
D03*
Y180000D02*
D03*
X156500Y185000D02*
D03*
X156500Y190000D02*
D03*
X156500Y195000D02*
D03*
X156500Y200000D02*
D03*
X156500Y205000D02*
D03*
X156500Y210000D02*
D03*
Y215000D02*
D03*
X156500Y220000D02*
D03*
X156500Y225000D02*
D03*
X156500Y230000D02*
D03*
X307500Y230000D02*
D03*
X307500Y225000D02*
D03*
Y220000D02*
D03*
Y215000D02*
D03*
X307500Y210000D02*
D03*
X307500Y205000D02*
D03*
X307500Y200000D02*
D03*
X307500Y195000D02*
D03*
X307500Y190000D02*
D03*
X307500Y185000D02*
D03*
X307500Y180000D02*
D03*
X307500Y175000D02*
D03*
X307500Y170000D02*
D03*
Y165000D02*
D03*
Y160000D02*
D03*
Y155000D02*
D03*
Y150000D02*
D03*
Y145000D02*
D03*
Y140000D02*
D03*
Y135000D02*
D03*
Y130000D02*
D03*
Y125000D02*
D03*
Y120000D02*
D03*
Y115000D02*
D03*
Y110000D02*
D03*
D133*
X172000Y245500D02*
D03*
X177000D02*
D03*
X182000Y245500D02*
D03*
X187000D02*
D03*
X192000Y245500D02*
D03*
X197000D02*
D03*
X202000D02*
D03*
X207000D02*
D03*
X212000D02*
D03*
X217000Y245500D02*
D03*
X222000Y245500D02*
D03*
X227000Y245500D02*
D03*
X232000D02*
D03*
X237000Y245500D02*
D03*
X242000D02*
D03*
X247000Y245500D02*
D03*
X252000D02*
D03*
X257000D02*
D03*
X262000Y245500D02*
D03*
X267000Y245500D02*
D03*
X272000Y245500D02*
D03*
X277000Y245500D02*
D03*
X282000D02*
D03*
X287000Y245500D02*
D03*
X292000D02*
D03*
X292000Y94500D02*
D03*
X287000D02*
D03*
X282000D02*
D03*
X277000D02*
D03*
X272000D02*
D03*
X267000D02*
D03*
X262000D02*
D03*
X257000D02*
D03*
X252000D02*
D03*
X247000Y94500D02*
D03*
X242000Y94500D02*
D03*
X237000D02*
D03*
X232000D02*
D03*
X227000D02*
D03*
X222000Y94500D02*
D03*
X217000Y94500D02*
D03*
X212000D02*
D03*
X207000D02*
D03*
X202000D02*
D03*
X197000D02*
D03*
X192000D02*
D03*
X187000D02*
D03*
X182000D02*
D03*
X177000D02*
D03*
X172000D02*
D03*
D134*
X329260Y559889D02*
D03*
X337262Y559889D02*
D03*
X385261D02*
D03*
X393260D02*
D03*
D135*
X343761Y559889D02*
D03*
X348761D02*
D03*
X353761Y559889D02*
D03*
X358761D02*
D03*
X363758D02*
D03*
X368762Y559889D02*
D03*
X373766D02*
D03*
X378762D02*
D03*
D136*
X456550Y199750D02*
D03*
X441950D02*
D03*
D137*
X161500Y76500D02*
D03*
X144500D02*
D03*
Y54500D02*
D03*
X161500D02*
D03*
D138*
X436240Y128666D02*
D03*
Y122166D02*
D03*
Y115666D02*
D03*
Y109166D02*
D03*
Y135166D02*
D03*
Y141666D02*
D03*
Y148166D02*
D03*
Y154666D02*
D03*
Y161166D02*
D03*
Y167666D02*
D03*
Y174166D02*
D03*
X436240Y180666D02*
D03*
X377740Y174166D02*
D03*
Y180666D02*
D03*
Y167666D02*
D03*
Y161166D02*
D03*
X377740Y154666D02*
D03*
X377740Y148166D02*
D03*
Y141666D02*
D03*
Y135166D02*
D03*
Y128666D02*
D03*
Y122166D02*
D03*
Y115666D02*
D03*
Y109166D02*
D03*
D139*
X401654Y29943D02*
D03*
X332654D02*
D03*
D140*
X384654Y55943D02*
D03*
X379654D02*
D03*
X374654D02*
D03*
X369654D02*
D03*
X359654D02*
D03*
X364654D02*
D03*
X349654D02*
D03*
X354654D02*
D03*
D141*
X441000Y375000D02*
D03*
X491000Y375000D02*
D03*
D142*
X472250Y397500D02*
D03*
X459750D02*
D03*
D143*
X226500Y573000D02*
D03*
X233000D02*
D03*
X239500D02*
D03*
Y552000D02*
D03*
X233000D02*
D03*
X226500D02*
D03*
D144*
X233000Y562500D02*
D03*
D145*
X468350Y498500D02*
D03*
D146*
X449300Y525000D02*
D03*
X462000D02*
D03*
X474700D02*
D03*
X487400D02*
D03*
X449300Y472000D02*
D03*
X462000D02*
D03*
X474700D02*
D03*
X487400D02*
D03*
D147*
X349000Y410744D02*
D03*
X349000Y417744D02*
D03*
Y424744D02*
D03*
X349000Y431744D02*
D03*
X349000Y438750D02*
D03*
Y445750D02*
D03*
X349000Y452750D02*
D03*
Y459750D02*
D03*
X349000Y466750D02*
D03*
X349000Y473750D02*
D03*
Y480750D02*
D03*
X349000Y487750D02*
D03*
D148*
X82980Y339500D02*
D03*
Y334500D02*
D03*
Y329500D02*
D03*
Y324500D02*
D03*
Y319500D02*
D03*
Y284500D02*
D03*
X167520D02*
D03*
Y289500D02*
D03*
Y294500D02*
D03*
Y299500D02*
D03*
Y304500D02*
D03*
Y309500D02*
D03*
Y314500D02*
D03*
Y319500D02*
D03*
Y324500D02*
D03*
Y329500D02*
D03*
Y334500D02*
D03*
Y339500D02*
D03*
X82980Y314500D02*
D03*
Y299500D02*
D03*
Y294500D02*
D03*
Y289500D02*
D03*
Y304500D02*
D03*
Y309500D02*
D03*
D149*
X97750Y269984D02*
D03*
X102750D02*
D03*
X107750D02*
D03*
X112750D02*
D03*
X117750D02*
D03*
X122750D02*
D03*
X127750D02*
D03*
X132750D02*
D03*
X137750D02*
D03*
X142750D02*
D03*
X147750D02*
D03*
X152750D02*
D03*
Y354270D02*
D03*
X147750D02*
D03*
X142750D02*
D03*
X137750D02*
D03*
X132750D02*
D03*
X127750D02*
D03*
X122750D02*
D03*
X117750D02*
D03*
X112750D02*
D03*
X107750D02*
D03*
X102750D02*
D03*
X97750D02*
D03*
D150*
X32000Y611000D02*
D03*
D151*
Y591000D02*
D03*
D152*
X397750Y331246D02*
D03*
X392750D02*
D03*
X387750D02*
D03*
X382750D02*
D03*
Y300254D02*
D03*
X387750D02*
D03*
X392750D02*
D03*
X397750D02*
D03*
D153*
X375008Y323250D02*
D03*
Y318250D02*
D03*
Y313250D02*
D03*
Y308250D02*
D03*
X406000D02*
D03*
Y313250D02*
D03*
Y318250D02*
D03*
Y323250D02*
D03*
D154*
X408178Y235458D02*
D03*
X349758D02*
D03*
X408178Y260858D02*
D03*
X349758D02*
D03*
Y210058D02*
D03*
X408178D02*
D03*
D155*
X349708Y599679D02*
D03*
X371708D02*
D03*
D165*
X40000Y560000D02*
D03*
X460000D02*
D03*
X115000Y134000D02*
D03*
X40000Y25000D02*
D03*
X349000Y87000D02*
D03*
X460000Y25000D02*
D03*
Y265000D02*
D03*
M02*
